<svg id="svg" version="1.1" xmlns="http://www.w3.org/2000/svg" xmlns:xlink="http://www.w3.org/1999/xlink" width="400" height="400" viewBox="0, 0, 400,400"><g id="svgg"><path id="path0" d="M124.800 0.430 C 101.660 1.211,85.374 2.807,71.800 5.622 C 65.484 6.933,56.336 9.457,56.013 9.979 C 55.896 10.168,54.540 10.801,53.000 11.385 C 47.526 13.462,39.438 17.714,36.892 19.855 C 36.071 20.545,33.877 22.345,32.015 23.855 C 27.817 27.259,27.259 27.817,23.855 32.015 C 22.345 33.877,20.553 36.062,19.874 36.871 C 17.776 39.368,13.950 46.617,11.573 52.600 C 10.873 54.360,10.151 55.896,9.968 56.013 C 8.908 56.690,5.053 73.241,3.635 83.200 C 0.515 105.118,0.005 121.582,0.009 200.200 C 0.014 279.023,0.500 294.647,3.639 316.800 C 5.054 326.789,8.911 343.327,9.979 343.987 C 10.168 344.104,10.801 345.460,11.385 347.000 C 13.450 352.445,17.702 360.540,19.845 363.108 C 23.673 367.694,25.523 369.934,26.409 371.057 C 26.954 371.748,29.200 373.794,31.400 375.603 C 33.600 377.412,36.062 379.447,36.871 380.127 C 39.369 382.225,46.619 386.051,52.600 388.427 C 54.360 389.127,55.896 389.849,56.013 390.032 C 56.690 391.092,73.241 394.947,83.200 396.365 C 105.118 399.485,121.582 399.995,200.200 399.991 C 279.023 399.986,294.647 399.500,316.800 396.361 C 326.789 394.946,343.327 391.089,343.987 390.021 C 344.104 389.832,345.460 389.199,347.000 388.615 C 352.473 386.539,360.561 382.286,363.108 380.146 C 363.929 379.456,366.360 377.436,368.511 375.657 C 370.663 373.878,373.878 370.663,375.657 368.511 C 377.436 366.360,379.447 363.938,380.127 363.129 C 382.225 360.631,386.051 353.381,388.427 347.400 C 389.127 345.640,389.849 344.104,390.032 343.987 C 391.092 343.310,394.947 326.759,396.365 316.800 C 399.485 294.882,399.995 278.418,399.991 199.800 C 399.986 120.977,399.500 105.353,396.361 83.200 C 394.946 73.211,391.089 56.673,390.021 56.013 C 389.832 55.896,389.199 54.540,388.615 53.000 C 386.550 47.555,382.298 39.460,380.155 36.892 C 376.327 32.306,374.477 30.066,373.591 28.943 C 373.046 28.252,370.800 26.206,368.600 24.397 C 366.400 22.588,363.938 20.553,363.129 19.873 C 360.631 17.775,353.381 13.949,347.400 11.573 C 345.640 10.873,344.104 10.151,343.987 9.968 C 343.659 9.454,334.444 6.918,328.200 5.622 C 314.248 2.728,298.883 1.260,273.600 0.405 C 260.086 -0.052,138.471 -0.032,124.800 0.430 M242.529 92.405 C 249.096 98.407,253.681 107.284,253.006 112.689 C 252.193 119.201,246.244 134.040,234.602 158.600 C 218.835 191.861,212.642 205.820,198.403 240.200 C 176.023 294.236,168.929 308.800,164.990 308.800 C 161.033 308.800,153.805 299.482,153.818 294.400 C 153.839 286.586,170.605 243.408,206.005 160.000 C 209.039 152.850,212.323 145.110,213.301 142.800 C 214.280 140.490,217.834 132.210,221.199 124.400 C 224.564 116.590,228.911 106.420,230.857 101.800 C 236.135 89.276,237.715 88.005,242.529 92.405 M287.200 154.763 C 302.100 157.858,322.300 167.755,340.800 181.025 C 359.781 194.640,367.554 204.987,364.239 212.227 C 361.094 219.096,349.493 227.301,318.200 244.789 C 282.456 264.764,263.011 270.549,260.024 262.098 C 258.885 258.874,262.009 255.094,270.811 249.048 C 277.306 244.586,300.245 231.273,317.400 222.009 C 333.063 213.551,340.000 208.897,340.000 206.848 C 340.000 201.146,308.763 182.349,288.464 175.836 C 283.314 174.183,279.964 171.648,275.465 166.000 C 267.128 155.532,271.367 151.473,287.200 154.763 M142.721 155.035 C 147.873 157.603,151.345 164.677,149.120 168.072 C 148.426 169.132,143.192 171.836,137.800 173.921 C 125.541 178.662,120.010 180.975,109.600 185.714 C 89.506 194.862,74.331 202.732,67.780 207.402 C 57.136 214.988,58.436 216.123,107.400 241.991 C 129.943 253.900,134.400 256.956,134.400 260.500 C 134.400 266.233,124.671 267.155,110.848 262.733 C 80.256 252.945,42.191 231.322,36.198 220.328 C 33.680 215.710,36.786 205.219,42.532 198.932 C 51.121 189.534,96.368 165.927,122.800 157.053 C 132.731 153.719,138.838 153.101,142.721 155.035 " stroke="none" fill="#1c1c24" fill-rule="evenodd"></path><path id="path1" d="M273.800 154.554 C 269.614 156.378,271.541 161.905,278.991 169.450 C 282.413 172.916,284.320 174.082,289.302 175.754 C 310.128 182.745,340.400 201.152,340.400 206.824 C 340.400 208.759,334.374 213.025,322.200 219.709 C 265.415 250.885,255.527 257.989,261.125 263.587 C 266.751 269.213,286.644 262.316,321.400 242.689 C 366.140 217.425,371.260 211.073,358.577 196.567 C 339.796 175.086,286.870 148.858,273.800 154.554 M131.210 155.025 C 109.149 159.807,52.050 188.472,42.133 199.744 C 36.985 205.593,34.225 215.965,36.636 220.396 C 43.434 232.886,93.993 259.752,119.878 264.630 C 126.139 265.809,132.306 264.817,133.587 262.425 C 135.688 258.498,131.800 255.345,111.551 244.554 C 60.135 217.153,58.310 215.819,64.300 210.008 C 71.413 203.107,101.311 188.094,133.781 175.118 C 150.565 168.411,151.596 167.479,148.636 161.687 C 145.309 155.180,139.949 153.131,131.210 155.025 " stroke="none" fill="#fbfbfb" fill-rule="evenodd"></path><path id="path2" d="M236.223 91.700 C 235.210 92.593,233.530 96.226,227.206 111.200 C 225.487 115.270,223.321 120.310,222.393 122.400 C 220.635 126.357,214.700 140.252,207.015 158.400 C 204.546 164.230,201.530 171.340,200.311 174.200 C 182.963 214.916,164.744 260.340,158.571 278.268 C 154.914 288.887,153.803 293.289,154.165 295.708 C 154.807 299.990,160.946 307.477,164.736 308.600 C 168.273 309.647,176.897 291.600,202.201 230.200 C 204.467 224.700,206.723 219.300,207.214 218.200 C 207.704 217.100,210.131 211.520,212.607 205.800 C 217.625 194.209,224.781 178.379,226.802 174.400 C 230.171 167.766,241.303 143.532,246.278 132.000 C 254.764 112.328,254.783 107.811,246.419 97.193 C 241.415 90.840,238.799 89.430,236.223 91.700 " stroke="none" fill="#04abe3" fill-rule="evenodd"></path><path id="path3" d="M237.600 90.558 C 237.600 90.645,238.305 90.783,239.166 90.865 C 240.028 90.948,240.647 90.876,240.543 90.707 C 240.353 90.400,237.600 90.260,237.600 90.558 M235.637 91.761 C 234.777 92.676,230.215 102.749,230.522 103.055 C 230.602 103.136,231.709 100.767,232.981 97.793 C 234.440 94.381,235.666 92.091,236.301 91.592 C 236.855 91.156,237.135 90.800,236.924 90.800 C 236.712 90.800,236.133 91.232,235.637 91.761 M243.379 93.548 C 244.626 94.949,246.377 97.064,247.271 98.248 C 248.165 99.431,248.976 100.400,249.073 100.400 C 249.512 100.400,246.343 96.416,243.856 93.841 C 241.222 91.114,241.203 91.102,243.379 93.548 M252.909 111.200 C 252.909 112.190,252.987 112.595,253.082 112.100 C 253.178 111.605,253.178 110.795,253.082 110.300 C 252.987 109.805,252.909 110.210,252.909 111.200 M224.059 117.659 C 222.709 120.782,221.668 123.402,221.746 123.480 C 221.824 123.557,222.992 121.065,224.341 117.941 C 225.691 114.818,226.732 112.198,226.654 112.120 C 226.576 112.043,225.408 114.535,224.059 117.659 M220.865 125.017 C 220.195 126.488,220.323 126.802,221.047 125.465 C 221.386 124.840,221.588 124.254,221.496 124.163 C 221.405 124.071,221.121 124.456,220.865 125.017 M245.458 133.858 C 244.436 136.209,243.663 138.196,243.740 138.273 C 243.816 138.350,244.723 136.497,245.755 134.155 C 246.786 131.813,247.560 129.826,247.473 129.740 C 247.387 129.654,246.480 131.507,245.458 133.858 M213.849 141.449 C 212.381 144.894,211.245 147.779,211.325 147.858 C 211.405 147.938,212.672 145.186,214.142 141.742 C 215.612 138.299,216.748 135.414,216.666 135.333 C 216.584 135.251,215.317 138.003,213.849 141.449 M242.465 140.617 C 241.795 142.088,241.923 142.402,242.647 141.065 C 242.986 140.440,243.188 139.854,243.096 139.763 C 243.005 139.671,242.721 140.056,242.465 140.617 M240.865 144.217 C 240.195 145.688,240.323 146.002,241.047 144.665 C 241.386 144.040,241.588 143.454,241.496 143.363 C 241.405 143.271,241.121 143.656,240.865 144.217 M234.657 157.657 C 233.187 160.770,232.046 163.380,232.122 163.456 C 232.199 163.532,233.463 161.047,234.933 157.933 C 236.403 154.820,237.544 152.211,237.468 152.135 C 237.392 152.059,236.127 154.544,234.657 157.657 M204.057 164.457 C 202.918 167.132,202.057 169.390,202.143 169.476 C 202.229 169.562,203.224 167.437,204.354 164.754 C 205.484 162.071,206.346 159.812,206.268 159.735 C 206.191 159.658,205.196 161.783,204.057 164.457 M201.265 171.017 C 200.595 172.488,200.723 172.802,201.447 171.465 C 201.786 170.840,201.988 170.254,201.896 170.163 C 201.805 170.071,201.521 170.456,201.265 171.017 M225.063 178.016 C 223.598 181.109,222.412 183.765,222.428 183.920 C 222.443 184.074,223.704 181.607,225.231 178.437 C 226.758 175.267,227.943 172.610,227.866 172.533 C 227.789 172.455,226.527 174.923,225.063 178.016 M193.454 189.654 C 191.768 193.652,190.455 196.989,190.536 197.069 C 190.616 197.149,192.061 193.944,193.746 189.946 C 195.432 185.948,196.745 182.611,196.664 182.531 C 196.584 182.451,195.139 185.656,193.454 189.654 M217.610 194.298 C 215.988 197.733,212.422 206.155,212.539 206.272 C 212.615 206.348,213.962 203.495,215.532 199.932 C 217.102 196.369,218.329 193.396,218.258 193.325 C 218.188 193.254,217.896 193.692,217.610 194.298 M186.065 207.417 C 185.395 208.888,185.523 209.202,186.247 207.865 C 186.586 207.240,186.788 206.654,186.696 206.563 C 186.605 206.471,186.321 206.856,186.065 207.417 M183.463 213.663 C 182.439 216.122,181.666 218.199,181.744 218.278 C 181.823 218.357,182.726 216.409,183.750 213.950 C 184.774 211.491,185.547 209.414,185.468 209.335 C 185.389 209.255,184.486 211.203,183.463 213.663 M205.831 221.431 C 204.367 224.881,203.239 227.772,203.323 227.857 C 203.408 227.942,204.673 225.186,206.133 221.733 C 207.594 218.281,208.722 215.389,208.641 215.308 C 208.559 215.226,207.295 217.982,205.831 221.431 M173.850 237.250 C 172.587 240.350,171.632 242.965,171.728 243.061 C 171.824 243.157,172.923 240.686,174.170 237.570 C 175.417 234.454,176.372 231.839,176.292 231.759 C 176.212 231.679,175.113 234.150,173.850 237.250 M195.257 246.857 C 193.688 250.641,192.468 253.801,192.546 253.879 C 192.624 253.958,193.977 250.930,195.551 247.151 C 197.125 243.372,198.345 240.212,198.262 240.129 C 198.179 240.046,196.827 243.073,195.257 246.857 M163.644 263.244 C 162.289 266.803,161.251 269.784,161.336 269.870 C 161.422 269.955,162.600 267.114,163.956 263.556 C 165.311 259.997,166.349 257.016,166.264 256.930 C 166.178 256.845,165.000 259.686,163.644 263.244 M185.424 270.100 C 182.886 275.925,182.415 277.178,183.401 275.475 C 184.323 273.881,188.048 265.115,187.876 264.942 C 187.797 264.864,186.694 267.184,185.424 270.100 M156.844 282.055 C 156.380 283.430,156.013 284.745,156.030 284.978 C 156.046 285.210,156.495 284.154,157.027 282.630 C 157.559 281.107,157.926 279.792,157.841 279.708 C 157.757 279.624,157.309 280.680,156.844 282.055 M154.577 289.289 C 153.140 294.204,154.030 299.467,156.668 301.656 C 156.961 301.900,156.579 301.065,155.818 299.802 C 153.920 296.650,153.695 294.707,154.740 290.477 C 155.735 286.446,155.631 285.686,154.577 289.289 M174.524 294.424 C 172.512 298.591,170.952 302.000,171.057 302.000 C 171.335 302.000,178.527 287.194,178.340 287.006 C 178.252 286.919,176.535 290.257,174.524 294.424 M158.306 303.800 C 160.332 306.458,163.182 308.800,164.389 308.800 C 164.725 308.800,164.231 308.419,163.291 307.953 C 162.350 307.488,160.570 306.003,159.334 304.654 C 158.098 303.304,157.635 302.920,158.306 303.800 M167.378 307.012 C 166.485 307.996,165.866 308.800,166.003 308.800 C 166.255 308.800,167.809 307.171,168.769 305.900 C 169.723 304.637,169.031 305.191,167.378 307.012 " stroke="none" fill="#0881a7" fill-rule="evenodd"></path><path id="path4" d="M273.800 154.154 C 273.140 154.442,272.330 155.009,272.000 155.415 C 271.586 155.924,271.809 155.853,272.722 155.185 C 273.787 154.405,274.718 154.170,277.522 153.972 L 281.000 153.727 278.000 153.679 C 276.300 153.652,274.480 153.858,273.800 154.154 M131.071 154.651 C 129.570 154.973,127.050 155.676,125.471 156.214 C 122.017 157.391,122.871 157.256,128.000 155.815 C 136.122 153.533,141.590 153.975,145.420 157.224 L 147.000 158.564 145.822 157.279 C 142.918 154.110,137.822 153.202,131.071 154.651 M281.233 154.147 C 281.325 154.228,282.570 154.393,284.000 154.515 C 285.638 154.654,286.156 154.618,285.400 154.415 C 284.178 154.089,280.930 153.880,281.233 154.147 M290.966 155.999 C 293.367 156.661,295.394 157.140,295.470 157.064 C 295.670 156.863,290.080 155.296,288.200 155.027 C 287.320 154.900,288.565 155.338,290.966 155.999 M271.301 157.800 C 271.305 158.680,271.387 158.993,271.483 158.495 C 271.579 157.998,271.575 157.278,271.475 156.895 C 271.375 156.513,271.296 156.920,271.301 157.800 M148.678 161.795 C 149.044 162.562,149.414 163.119,149.501 163.032 C 149.684 162.849,148.470 160.400,148.196 160.400 C 148.095 160.400,148.312 161.028,148.678 161.795 M272.545 161.862 C 273.413 163.583,277.516 168.645,279.629 170.600 C 280.579 171.480,280.098 170.825,278.558 169.144 C 277.018 167.464,275.054 165.034,274.193 163.744 C 272.243 160.825,271.722 160.229,272.545 161.862 M307.200 161.800 C 307.750 162.114,308.380 162.372,308.600 162.372 C 308.820 162.372,308.550 162.114,308.000 161.800 C 307.450 161.486,306.820 161.228,306.600 161.228 C 306.380 161.228,306.650 161.486,307.200 161.800 M101.686 165.279 C 98.763 166.613,96.436 167.769,96.514 167.847 C 96.648 167.981,107.213 163.314,107.567 162.965 C 108.072 162.465,106.446 163.105,101.686 165.279 M310.833 163.341 C 311.357 163.784,319.600 168.027,319.600 167.853 C 319.600 167.602,311.456 163.200,310.991 163.200 C 310.813 163.200,310.742 163.263,310.833 163.341 M136.104 174.115 C 132.752 175.450,130.068 176.602,130.141 176.675 C 130.311 176.844,137.923 173.985,140.800 172.671 C 144.629 170.921,142.418 171.602,136.104 174.115 M281.765 172.316 C 282.506 173.582,290.860 177.273,291.511 176.623 C 291.602 176.531,290.501 176.093,289.063 175.649 C 286.192 174.762,283.424 173.467,282.231 172.453 C 281.808 172.094,281.599 172.032,281.765 172.316 M328.600 173.070 C 329.200 173.667,338.400 179.611,338.400 179.402 C 338.400 179.195,332.210 175.028,329.800 173.612 C 328.920 173.095,328.380 172.851,328.600 173.070 M81.100 175.025 C 79.175 176.006,77.600 176.898,77.600 177.008 C 77.600 177.187,84.760 173.729,85.167 173.354 C 85.750 172.815,84.121 173.485,81.100 175.025 M73.100 179.227 C 72.275 179.663,71.600 180.108,71.600 180.218 C 71.600 180.327,72.320 180.049,73.200 179.600 C 74.080 179.151,74.800 178.697,74.800 178.592 C 74.800 178.330,74.797 178.331,73.100 179.227 M300.833 180.555 C 301.240 180.933,314.000 187.184,314.000 187.005 C 314.000 186.784,301.374 180.400,300.938 180.400 C 300.789 180.400,300.742 180.470,300.833 180.555 M63.546 184.500 C 60.766 186.095,58.066 187.723,57.546 188.118 C 57.026 188.512,57.410 188.370,58.400 187.802 C 59.390 187.234,62.135 185.681,64.500 184.350 C 68.167 182.287,69.218 181.599,68.700 181.600 C 68.645 181.601,66.326 182.906,63.546 184.500 M342.967 182.800 C 346.992 186.123,350.517 188.835,350.012 188.221 C 349.689 187.828,347.889 186.324,346.012 184.879 C 342.498 182.174,340.825 181.032,342.967 182.800 M112.600 183.991 C 110.400 185.058,108.715 185.946,108.856 185.965 C 108.996 185.984,110.976 185.114,113.256 184.031 C 115.535 182.948,117.220 182.060,117.000 182.057 C 116.780 182.054,114.800 182.924,112.600 183.991 M106.000 187.000 C 105.010 187.530,104.380 187.964,104.600 187.964 C 104.820 187.964,105.810 187.530,106.800 187.000 C 107.790 186.470,108.420 186.036,108.200 186.036 C 107.980 186.036,106.990 186.470,106.000 187.000 M353.574 191.477 C 354.798 192.620,356.863 194.690,358.163 196.077 C 359.463 197.465,359.972 197.880,359.295 197.000 C 358.068 195.405,355.480 192.863,352.774 190.595 C 351.990 189.938,352.350 190.335,353.574 191.477 M51.493 191.814 C 50.672 192.372,50.000 192.915,50.000 193.020 C 50.000 193.125,50.720 192.735,51.600 192.153 C 52.997 191.228,53.470 190.800,53.093 190.800 C 53.034 190.800,52.314 191.256,51.493 191.814 M322.600 191.882 C 323.154 192.450,330.800 197.190,330.800 196.966 C 330.800 196.777,326.595 194.038,323.800 192.406 C 322.920 191.892,322.380 191.657,322.600 191.882 M87.900 195.624 C 84.435 197.373,81.600 198.895,81.600 199.005 C 81.600 199.184,94.360 192.933,94.767 192.555 C 95.422 191.946,93.344 192.875,87.900 195.624 M46.800 195.155 C 45.370 196.223,43.480 197.880,42.600 198.837 C 41.045 200.528,41.062 200.521,43.200 198.580 C 44.410 197.482,46.345 195.897,47.500 195.057 C 49.304 193.747,49.915 193.181,49.500 193.206 C 49.445 193.209,48.230 194.086,46.800 195.155 M335.400 200.566 C 336.280 201.359,337.605 202.682,338.345 203.504 C 339.535 204.828,339.592 204.855,338.843 203.736 C 338.377 203.040,337.052 201.718,335.898 200.797 C 334.270 199.498,334.159 199.446,335.400 200.566 M362.393 201.600 C 365.860 207.516,365.337 211.566,360.399 217.032 L 357.898 219.800 360.595 217.048 C 365.762 211.775,366.423 205.817,362.363 201.116 C 361.612 200.247,361.614 200.271,362.393 201.600 M73.396 203.412 C 70.981 204.848,68.734 206.314,68.403 206.668 C 68.071 207.023,68.610 206.775,69.600 206.116 C 70.590 205.458,72.885 204.066,74.700 203.024 C 77.524 201.403,78.390 200.800,77.893 200.800 C 77.834 200.800,75.810 201.975,73.396 203.412 M37.665 206.617 C 36.995 208.088,37.123 208.402,37.847 207.065 C 38.186 206.440,38.388 205.854,38.296 205.763 C 38.205 205.671,37.921 206.056,37.665 206.617 M36.008 211.061 C 34.095 217.241,34.983 220.071,40.521 225.440 L 43.780 228.600 40.546 225.200 C 35.364 219.754,34.554 217.032,36.374 211.185 C 36.810 209.782,37.098 208.564,37.012 208.479 C 36.926 208.393,36.474 209.555,36.008 211.061 M63.855 210.383 C 61.249 213.168,61.311 214.181,64.265 217.135 L 66.530 219.400 64.465 217.124 C 61.747 214.128,61.715 213.098,64.255 210.383 C 65.275 209.292,66.019 208.400,65.909 208.400 C 65.799 208.400,64.875 209.292,63.855 210.383 M330.065 214.795 C 325.373 217.632,323.970 218.625,326.400 217.390 C 329.366 215.883,335.767 211.746,334.700 212.026 C 334.645 212.041,332.559 213.287,330.065 214.795 M323.500 218.629 C 322.005 219.440,322.096 219.778,323.600 219.000 C 324.260 218.659,324.800 218.294,324.800 218.190 C 324.800 217.932,324.757 217.947,323.500 218.629 M352.726 223.344 C 348.303 226.713,346.763 228.044,349.200 226.392 C 352.864 223.907,358.141 219.680,357.124 220.044 C 357.056 220.069,355.077 221.554,352.726 223.344 M72.000 222.931 C 72.000 223.029,73.215 223.825,74.700 224.700 C 78.091 226.697,79.200 227.276,79.200 227.049 C 79.200 226.906,76.882 225.519,72.300 222.923 C 72.135 222.829,72.000 222.833,72.000 222.931 M311.400 225.240 C 308.980 226.579,306.820 227.865,306.600 228.097 C 306.380 228.330,307.190 227.976,308.400 227.312 C 315.072 223.648,316.000 223.117,316.000 222.966 C 316.000 222.696,315.980 222.706,311.400 225.240 M80.400 227.779 C 80.400 227.889,80.940 228.259,81.600 228.600 C 82.260 228.941,82.800 229.131,82.800 229.021 C 82.800 228.911,82.260 228.541,81.600 228.200 C 80.940 227.859,80.400 227.669,80.400 227.779 M303.900 229.429 C 302.405 230.240,302.496 230.578,304.000 229.800 C 304.660 229.459,305.200 229.094,305.200 228.990 C 305.200 228.732,305.157 228.747,303.900 229.429 M46.166 230.345 C 46.294 230.552,48.244 231.969,50.499 233.494 C 54.826 236.418,56.081 237.194,55.400 236.523 C 54.682 235.816,45.926 229.957,46.166 230.345 M86.400 230.979 C 86.400 231.089,86.940 231.459,87.600 231.800 C 88.260 232.141,88.800 232.331,88.800 232.221 C 88.800 232.111,88.260 231.741,87.600 231.400 C 86.940 231.059,86.400 230.869,86.400 230.979 M335.919 234.330 C 332.256 236.499,330.210 237.928,332.400 236.787 C 335.845 234.992,340.719 231.891,339.900 232.015 C 339.845 232.024,338.054 233.065,335.919 234.330 M295.000 234.448 C 293.020 235.571,291.220 236.677,291.000 236.904 C 290.480 237.441,290.623 237.368,295.100 234.813 C 298.268 233.004,299.183 232.392,298.700 232.402 C 298.645 232.403,296.980 233.324,295.000 234.448 M91.000 233.476 C 91.220 233.697,93.200 234.827,95.400 235.988 C 97.600 237.148,99.220 237.913,99.000 237.686 C 98.780 237.460,96.800 236.330,94.600 235.175 C 92.400 234.021,90.780 233.256,91.000 233.476 M325.500 240.229 C 324.005 241.040,324.096 241.378,325.600 240.600 C 326.260 240.259,326.800 239.894,326.800 239.790 C 326.800 239.532,326.757 239.547,325.500 240.229 M104.400 240.584 C 104.400 240.694,105.120 241.151,106.000 241.600 C 106.880 242.049,107.600 242.326,107.600 242.216 C 107.600 242.106,106.880 241.649,106.000 241.200 C 105.120 240.751,104.400 240.474,104.400 240.584 M321.700 242.442 C 320.545 243.115,319.600 243.745,319.600 243.841 C 319.600 244.083,322.422 242.600,323.400 241.844 C 324.656 240.873,323.988 241.108,321.700 242.442 M64.200 241.904 C 64.420 242.131,66.220 243.173,68.200 244.221 C 70.180 245.268,71.620 245.945,71.400 245.723 C 71.180 245.502,69.380 244.460,67.400 243.407 C 65.420 242.354,63.980 241.678,64.200 241.904 M277.675 244.549 C 276.067 245.506,274.537 246.527,274.275 246.818 C 274.014 247.109,274.340 247.010,275.000 246.598 C 275.660 246.186,277.235 245.232,278.500 244.478 C 280.458 243.311,281.150 242.784,280.700 242.805 C 280.645 242.807,279.284 243.592,277.675 244.549 M109.800 243.477 C 110.020 243.697,112.180 244.914,114.600 246.183 C 117.020 247.452,118.820 248.304,118.600 248.078 C 118.380 247.851,116.220 246.634,113.800 245.372 C 111.380 244.110,109.580 243.257,109.800 243.477 M317.500 244.827 C 316.675 245.263,316.000 245.708,316.000 245.818 C 316.000 245.927,316.720 245.649,317.600 245.200 C 318.480 244.751,319.200 244.297,319.200 244.192 C 319.200 243.930,319.197 243.931,317.500 244.827 M72.000 246.197 C 72.000 246.468,75.249 248.084,75.430 247.903 C 75.514 247.819,74.776 247.359,73.791 246.881 C 72.806 246.402,72.000 246.094,72.000 246.197 M313.900 246.827 C 313.075 247.263,312.400 247.708,312.400 247.818 C 312.400 247.927,313.120 247.649,314.000 247.200 C 314.880 246.751,315.600 246.297,315.600 246.192 C 315.600 245.930,315.597 245.931,313.900 246.827 M307.100 250.427 C 306.275 250.863,305.600 251.308,305.600 251.418 C 305.600 251.527,306.320 251.249,307.200 250.800 C 308.080 250.351,308.800 249.897,308.800 249.792 C 308.800 249.530,308.797 249.531,307.100 250.427 M123.604 250.917 C 123.717 251.041,125.247 252.073,127.004 253.210 C 133.135 257.177,134.999 259.786,133.587 262.425 C 132.013 265.365,123.918 265.931,115.600 263.684 C 109.325 261.989,108.487 261.833,111.913 262.999 C 130.759 269.411,142.030 262.912,128.200 253.608 C 125.552 251.826,123.157 250.424,123.604 250.917 M83.766 252.027 C 85.826 253.158,94.476 256.858,94.651 256.682 C 94.775 256.559,83.646 251.562,82.627 251.283 C 82.392 251.219,82.905 251.554,83.766 252.027 M263.894 254.500 C 261.059 257.272,261.045 257.295,263.564 255.027 C 265.014 253.722,266.464 252.417,266.786 252.127 C 267.108 251.837,267.256 251.600,267.116 251.600 C 266.976 251.600,265.526 252.905,263.894 254.500 M297.400 255.383 C 294.540 256.785,292.316 257.947,292.457 257.966 C 292.861 258.019,302.800 253.267,302.800 253.020 C 302.800 252.717,303.161 252.559,297.400 255.383 M279.000 263.041 C 277.460 263.581,274.580 264.379,272.600 264.815 C 270.051 265.377,269.615 265.544,271.105 265.390 C 273.322 265.159,279.085 263.602,281.295 262.636 C 283.348 261.738,282.076 261.963,279.000 263.041 M260.807 263.762 C 261.519 264.676,263.623 265.610,264.887 265.573 C 265.389 265.558,264.945 265.316,263.900 265.035 C 262.855 264.754,261.598 264.181,261.107 263.762 C 260.229 263.013,260.224 263.013,260.807 263.762 M266.705 265.883 C 267.202 265.979,267.922 265.975,268.305 265.875 C 268.687 265.775,268.280 265.696,267.400 265.701 C 266.520 265.705,266.207 265.787,266.705 265.883 " stroke="none" fill="#737375" fill-rule="evenodd"></path></g></svg>