<svg id="svg" version="1.1" xmlns="http://www.w3.org/2000/svg" xmlns:xlink="http://www.w3.org/1999/xlink" width="400" height="113.34120425029515" viewBox="0, 0, 400,113.34120425029515"><g id="svgg"><path id="path0" d="M67.392 25.796 C 66.786 25.891,66.663 26.145,62.419 36.083 C 60.148 41.400,58.158 46.050,57.995 46.417 C 57.011 48.636,50.687 63.943,48.975 68.250 C 48.246 70.083,47.470 72.033,47.250 72.583 C 45.315 77.416,43.666 82.395,43.668 83.396 C 43.671 84.538,45.476 87.092,46.512 87.421 C 47.282 87.665,48.570 85.613,50.728 80.708 C 51.061 79.952,51.589 78.752,51.901 78.042 C 52.811 75.970,54.690 71.519,57.337 65.167 C 59.457 60.080,60.813 56.935,62.359 53.524 C 62.715 52.737,65.764 46.215,67.123 43.333 C 71.968 33.057,72.349 31.382,70.496 28.514 C 69.214 26.531,68.225 25.665,67.392 25.796 M367.000 56.333 L 367.000 82.167 371.163 82.167 L 375.326 82.167 375.372 78.792 C 375.416 75.484,375.424 75.416,375.774 75.366 C 376.079 75.322,376.181 75.469,376.472 76.367 C 377.842 80.609,381.225 82.734,386.583 82.716 C 393.443 82.694,397.714 79.082,399.450 71.833 C 399.955 69.726,399.899 54.973,399.379 53.036 C 397.709 46.816,393.957 43.339,388.198 42.676 C 382.530 42.024,377.924 44.471,376.495 48.894 C 375.967 50.530,375.427 50.519,375.569 48.875 C 375.623 48.256,375.711 43.869,375.766 39.125 L 375.866 30.500 371.433 30.500 L 367.000 30.500 367.000 56.333 M282.167 56.667 L 282.167 82.167 286.500 82.167 L 290.833 82.167 290.833 70.917 L 290.833 59.667 298.000 59.667 L 305.167 59.667 305.167 70.917 L 305.167 82.167 309.500 82.167 L 313.833 82.167 313.833 56.667 L 313.833 31.167 309.500 31.167 L 305.167 31.167 305.167 41.418 L 305.167 51.670 298.042 51.627 L 290.917 51.583 290.874 41.375 L 290.831 31.167 286.499 31.167 L 282.167 31.167 282.167 56.667 M324.670 56.542 C 324.673 70.623,324.693 71.036,325.508 73.495 C 327.513 79.547,332.582 82.701,340.333 82.719 C 348.371 82.738,353.454 79.644,355.492 73.495 C 356.307 71.036,356.327 70.623,356.330 56.542 L 356.333 43.333 352.000 43.333 L 347.667 43.333 347.667 56.072 C 347.667 69.861,347.644 70.254,346.762 71.960 C 344.524 76.288,336.546 76.367,334.355 72.083 C 333.420 70.256,333.435 70.493,333.373 56.375 L 333.316 43.333 328.992 43.333 L 324.667 43.333 324.670 56.542 M386.620 50.623 C 388.555 51.382,390.137 53.095,390.781 55.127 C 391.185 56.406,391.241 68.356,390.849 69.750 C 388.770 77.129,378.051 77.129,376.062 69.750 C 375.892 69.121,375.837 67.384,375.837 62.667 C 375.837 55.096,375.981 54.337,377.788 52.326 C 379.574 50.340,383.814 49.522,386.620 50.623 " stroke="none" fill="#04abe3" fill-rule="evenodd"></path><path id="path1" d="M154.333 56.766 L 154.333 82.365 163.208 82.285 C 174.402 82.183,175.489 82.030,179.553 79.982 C 181.302 79.101,183.686 77.020,184.593 75.583 C 184.767 75.308,184.952 75.046,185.004 75.000 C 185.179 74.845,186.299 72.422,186.505 71.750 C 186.617 71.383,186.776 70.909,186.857 70.696 C 187.530 68.928,187.840 49.138,187.262 44.833 C 186.776 41.205,185.413 38.363,183.016 35.978 C 181.435 34.405,179.915 33.415,177.750 32.550 C 174.514 31.257,173.567 31.167,163.195 31.167 L 154.333 31.167 154.333 56.766 M172.909 39.753 C 175.782 40.629,177.343 42.230,178.188 45.166 C 178.666 46.826,178.667 66.502,178.189 68.171 C 176.906 72.658,174.424 74.000,167.409 74.000 L 163.333 74.000 163.333 56.667 L 163.333 39.333 167.434 39.333 C 171.340 39.333,171.601 39.353,172.909 39.753 M209.190 42.755 C 201.712 43.955,197.113 48.536,196.171 55.720 C 195.949 57.416,195.949 68.165,196.172 69.718 C 197.165 76.651,201.259 80.876,208.583 82.525 C 209.958 82.834,216.053 82.833,217.417 82.522 C 223.571 81.122,228.336 77.252,229.397 72.792 L 229.506 72.333 225.108 72.333 L 220.710 72.333 220.313 72.916 C 218.434 75.679,211.838 76.628,208.500 74.616 C 205.961 73.085,205.005 71.060,205.002 67.208 L 205.000 64.833 217.417 64.833 L 229.833 64.833 229.828 60.542 C 229.821 54.805,229.626 53.500,228.372 50.833 C 225.505 44.736,217.597 41.405,209.190 42.755 M236.667 43.225 C 236.667 43.328,237.613 46.123,238.171 47.667 C 238.452 48.446,238.826 49.496,239.001 50.000 C 239.177 50.504,239.626 51.779,240.000 52.833 C 240.374 53.887,240.823 55.163,240.999 55.667 C 241.174 56.171,241.549 57.221,241.832 58.000 C 242.116 58.779,242.564 60.054,242.829 60.833 C 243.281 62.164,243.480 62.722,244.700 66.083 C 244.966 66.817,245.296 67.792,245.433 68.250 C 245.570 68.708,245.747 69.233,245.827 69.417 C 245.908 69.600,246.171 70.313,246.414 71.000 C 246.656 71.688,247.029 72.737,247.244 73.333 C 247.458 73.929,247.676 74.567,247.727 74.750 C 247.779 74.933,248.000 75.571,248.220 76.167 C 248.714 77.510,248.768 77.661,249.235 79.000 C 249.443 79.596,249.707 80.346,249.821 80.667 C 249.936 80.987,250.111 81.494,250.210 81.792 L 250.389 82.333 255.605 82.333 L 260.820 82.333 261.068 81.542 C 261.205 81.106,261.550 80.112,261.836 79.333 C 262.123 78.554,262.421 77.692,262.499 77.417 C 262.578 77.142,263.028 75.829,263.499 74.500 C 264.626 71.322,264.972 70.325,265.813 67.833 C 266.199 66.688,266.583 65.600,266.664 65.417 C 266.746 65.233,267.040 64.408,267.318 63.583 C 267.595 62.758,268.053 61.446,268.334 60.667 C 268.615 59.887,268.987 58.800,269.159 58.250 C 269.331 57.700,269.782 56.387,270.161 55.333 C 270.540 54.279,270.997 52.967,271.176 52.417 C 271.355 51.867,271.573 51.267,271.660 51.083 C 271.747 50.900,271.929 50.375,272.063 49.917 C 272.198 49.458,272.618 48.221,272.996 47.167 C 273.705 45.189,274.333 43.338,274.333 43.226 C 274.333 43.190,272.262 43.181,269.731 43.206 L 265.129 43.250 264.912 43.833 C 264.792 44.154,264.421 45.317,264.087 46.417 C 263.754 47.517,263.380 48.679,263.256 49.000 C 263.133 49.321,262.870 50.146,262.673 50.833 C 262.476 51.521,262.212 52.383,262.087 52.750 C 261.962 53.117,261.583 54.317,261.245 55.417 C 260.906 56.517,260.457 57.942,260.248 58.583 C 260.038 59.225,259.662 60.425,259.412 61.250 C 259.162 62.075,258.714 63.500,258.415 64.417 C 256.940 68.939,256.374 71.243,256.131 73.708 C 255.884 76.211,255.635 76.264,255.346 73.875 C 255.111 71.943,254.818 70.387,254.518 69.484 C 254.415 69.172,253.817 67.342,253.190 65.417 C 250.550 57.312,249.154 53.053,248.987 52.583 C 248.888 52.308,248.669 51.633,248.499 51.083 C 248.226 50.202,248.015 49.576,247.318 47.583 C 247.222 47.308,246.957 46.483,246.729 45.750 C 246.501 45.017,246.222 44.154,246.109 43.833 L 245.903 43.250 241.285 43.206 C 238.745 43.181,236.667 43.190,236.667 43.225 M37.167 43.935 C 31.187 45.233,14.961 53.327,12.056 56.462 C 11.213 57.372,10.000 60.193,10.000 61.244 C 10.000 65.657,33.577 77.302,37.377 74.766 C 39.183 73.561,38.222 72.805,27.917 67.330 C 18.027 62.076,16.966 61.294,17.821 59.893 C 18.694 58.460,27.469 53.849,35.583 50.559 C 42.940 47.576,42.939 47.577,42.078 45.762 C 41.228 43.972,39.670 43.392,37.167 43.935 M77.331 43.968 C 76.113 44.954,79.002 48.810,81.604 49.672 C 88.258 51.876,96.924 57.233,96.418 58.829 C 96.315 59.155,93.910 60.840,92.250 61.750 C 91.792 62.001,90.929 62.472,90.333 62.797 C 76.961 70.083,73.319 72.591,73.730 74.229 C 74.340 76.659,80.912 74.543,91.504 68.506 C 104.348 61.186,105.481 59.524,100.773 54.911 C 94.076 48.348,80.023 41.788,77.331 43.968 M216.250 50.088 C 218.068 50.888,218.858 51.477,219.712 52.667 C 220.435 53.675,220.942 55.415,221.061 57.292 L 221.168 59.000 213.084 59.000 L 205.000 59.000 205.002 57.375 C 205.006 53.411,207.138 50.593,210.709 49.832 C 211.885 49.581,215.476 49.747,216.250 50.088 " stroke="none" fill="#fbfbfb" fill-rule="evenodd"></path><path id="path2" d="M31.667 0.191 C 28.195 0.390,23.187 0.976,21.250 1.408 C 20.700 1.531,19.837 1.723,19.333 1.834 C 16.255 2.516,11.781 4.474,10.215 5.826 C 10.105 5.922,9.977 6.000,9.932 6.000 C 9.658 6.000,6.000 9.658,6.000 9.932 C 6.000 9.977,5.922 10.105,5.826 10.215 C 4.474 11.781,2.516 16.255,1.834 19.333 C 1.723 19.837,1.531 20.700,1.408 21.250 C 0.952 23.294,0.424 28.011,0.169 32.333 C -0.058 36.190,-0.059 77.077,0.168 81.083 C 0.401 85.169,0.947 90.019,1.408 92.083 C 1.531 92.633,1.723 93.496,1.834 94.000 C 2.516 97.079,4.474 101.552,5.826 103.118 C 5.922 103.229,6.000 103.356,6.000 103.402 C 6.000 103.538,7.523 105.177,8.405 105.991 C 8.858 106.409,9.364 106.881,9.530 107.042 C 9.697 107.202,9.874 107.333,9.924 107.333 C 9.973 107.333,10.105 107.412,10.215 107.507 C 11.781 108.859,16.255 110.817,19.333 111.499 C 19.837 111.610,20.700 111.802,21.250 111.925 C 26.655 113.132,31.754 113.335,56.667 113.335 C 84.862 113.335,88.384 113.121,96.083 110.939 C 98.271 110.318,101.928 108.535,103.118 107.507 C 103.229 107.412,103.356 107.333,103.402 107.333 C 103.538 107.333,105.177 105.810,105.991 104.928 C 106.409 104.476,106.881 103.969,107.042 103.803 C 107.202 103.636,107.333 103.431,107.333 103.347 C 107.333 103.263,107.396 103.169,107.472 103.139 C 108.302 102.805,110.835 97.063,111.502 94.000 C 111.612 93.496,111.802 92.633,111.925 92.083 C 113.131 86.686,113.335 81.573,113.337 56.750 C 113.340 31.823,113.134 26.664,111.925 21.250 C 111.802 20.700,111.612 19.837,111.502 19.333 C 110.835 16.270,108.302 10.528,107.472 10.194 C 107.396 10.164,107.333 10.070,107.333 9.986 C 107.333 9.902,107.202 9.697,107.042 9.530 C 106.881 9.364,106.409 8.858,105.991 8.405 C 105.177 7.523,103.538 6.000,103.402 6.000 C 103.356 6.000,103.229 5.922,103.118 5.826 C 101.928 4.799,98.271 3.015,96.083 2.395 C 91.749 1.166,87.589 0.550,81.083 0.172 C 77.520 -0.035,35.316 -0.018,31.667 0.191 M69.277 26.733 C 72.451 30.209,72.449 32.003,69.264 38.897 C 68.936 39.609,68.667 40.223,68.667 40.263 C 68.667 40.303,67.494 42.828,66.060 45.876 C 61.670 55.207,60.413 58.056,55.745 69.250 C 47.704 88.534,47.234 89.244,44.691 85.948 C 43.090 83.873,43.110 83.569,45.232 77.570 C 46.572 73.782,53.399 56.763,54.913 53.437 C 55.126 52.967,56.066 50.746,57.000 48.500 C 57.934 46.254,58.876 44.028,59.092 43.553 C 59.308 43.079,59.829 41.855,60.250 40.833 C 60.671 39.812,61.192 38.588,61.409 38.113 C 61.626 37.638,62.081 36.577,62.421 35.754 C 62.761 34.931,63.211 33.881,63.421 33.420 C 63.631 32.960,64.081 31.910,64.421 31.087 C 64.761 30.264,65.209 29.214,65.416 28.754 C 65.623 28.293,65.955 27.544,66.153 27.089 C 66.969 25.214,67.803 25.118,69.277 26.733 M366.533 30.200 C 366.188 30.545,366.249 82.059,366.595 82.405 C 366.936 82.746,375.463 82.803,375.800 82.467 C 375.938 82.328,376.004 81.416,376.013 79.508 C 376.020 77.991,376.063 76.862,376.107 77.000 C 378.624 84.792,391.607 85.637,397.209 78.373 C 397.369 78.166,397.500 77.928,397.500 77.845 C 397.500 77.762,397.564 77.669,397.641 77.639 C 398.543 77.284,400.011 72.716,399.977 70.367 L 399.953 68.750 399.831 70.000 C 399.539 72.980,398.487 75.803,396.815 78.097 C 391.475 85.422,378.010 84.075,376.258 76.042 C 376.175 75.660,376.046 75.500,375.820 75.500 C 375.515 75.500,375.500 75.657,375.500 78.833 L 375.500 82.167 371.167 82.167 L 366.833 82.167 366.833 56.333 L 366.833 30.500 371.347 30.500 L 375.860 30.500 375.784 39.708 C 375.741 44.773,375.652 49.123,375.584 49.375 C 375.479 49.765,375.512 49.833,375.801 49.833 C 376.050 49.833,376.170 49.689,376.252 49.292 C 377.774 41.898,390.170 40.011,396.018 46.284 C 398.237 48.663,399.521 51.829,399.893 55.833 C 399.922 56.154,399.959 55.657,399.973 54.730 C 400.008 52.563,398.811 48.841,397.712 47.696 C 397.595 47.575,397.500 47.415,397.500 47.339 C 397.500 46.782,394.248 44.040,392.783 43.361 C 388.636 41.440,381.666 41.847,379.215 44.154 C 379.013 44.344,378.812 44.500,378.770 44.500 C 378.603 44.500,377.608 45.597,377.192 46.239 C 376.951 46.612,376.713 46.954,376.664 47.000 C 376.614 47.046,376.501 47.254,376.412 47.462 C 376.305 47.712,376.270 44.940,376.309 39.335 C 376.342 34.656,376.321 30.642,376.264 30.414 L 376.160 30.000 371.447 30.000 C 368.003 30.000,366.679 30.054,366.533 30.200 M153.874 56.708 L 153.917 82.583 163.417 82.581 C 173.534 82.579,174.082 82.545,176.719 81.734 C 178.579 81.161,181.106 79.908,181.306 79.458 C 181.336 79.390,181.454 79.333,181.567 79.333 C 181.945 79.333,185.000 76.218,185.000 75.832 C 185.000 75.741,185.063 75.667,185.139 75.667 C 185.263 75.667,186.526 73.262,186.846 72.417 C 187.806 69.881,187.827 69.548,187.827 56.667 C 187.827 44.178,187.801 43.704,187.004 41.352 C 186.593 40.139,185.340 37.667,185.136 37.667 C 185.061 37.667,185.000 37.592,185.000 37.501 C 185.000 37.115,181.945 34.000,181.567 34.000 C 181.454 34.000,181.336 33.944,181.306 33.875 C 181.105 33.423,178.570 32.167,176.719 31.603 C 174.273 30.858,173.849 30.833,163.614 30.833 L 153.832 30.833 153.874 56.708 M281.667 56.646 C 281.667 80.035,281.691 82.474,281.930 82.566 C 282.396 82.744,290.832 82.679,291.178 82.494 C 291.491 82.326,291.500 82.026,291.500 71.244 L 291.500 60.167 298.083 60.167 L 304.667 60.167 304.667 71.316 C 304.667 81.328,304.694 82.475,304.930 82.566 C 305.588 82.818,313.970 82.673,314.238 82.405 C 314.506 82.137,314.663 31.786,314.399 31.097 C 314.310 30.865,313.720 30.833,309.482 30.833 L 304.667 30.833 304.667 40.917 L 304.667 51.000 298.085 51.000 L 291.503 51.000 291.460 40.958 L 291.417 30.917 286.542 30.872 L 281.667 30.828 281.667 56.646 M174.667 31.460 C 174.987 31.561,175.588 31.728,176.000 31.832 C 181.338 33.180,185.777 37.644,187.022 42.917 C 187.593 45.333,187.682 67.964,187.129 70.008 C 185.516 75.970,181.566 80.073,176.083 81.483 C 173.174 82.231,173.645 82.200,163.792 82.289 L 154.333 82.374 154.333 56.757 L 154.333 31.141 164.208 31.209 C 170.713 31.254,174.282 31.340,174.667 31.460 M291.000 41.333 L 291.000 51.500 298.000 51.500 L 305.000 51.500 305.000 41.333 L 305.000 31.167 309.500 31.167 L 314.000 31.167 314.000 56.667 L 314.000 82.167 309.500 82.167 L 305.000 82.167 305.000 71.000 L 305.000 59.833 298.000 59.833 L 291.000 59.833 291.000 71.000 L 291.000 82.167 286.500 82.167 L 282.000 82.167 282.000 56.667 L 282.000 31.167 286.500 31.167 L 291.000 31.167 291.000 41.333 M163.500 56.775 L 163.500 74.049 167.792 73.953 C 174.072 73.812,175.944 72.966,177.639 69.500 L 178.250 68.250 178.299 57.288 C 178.360 43.942,178.357 43.925,176.218 41.768 C 174.295 39.830,173.023 39.500,167.477 39.500 L 163.500 39.500 163.500 56.775 M171.992 39.998 C 174.933 40.556,177.088 42.672,177.811 45.711 C 178.110 46.968,178.061 66.446,177.755 67.726 C 176.690 72.185,173.884 73.667,166.507 73.667 L 163.833 73.667 163.833 56.750 L 163.833 39.833 167.477 39.833 C 169.481 39.833,171.513 39.908,171.992 39.998 M208.417 42.374 C 207.560 42.540,204.946 43.299,204.500 43.511 C 204.362 43.576,203.950 43.769,203.583 43.940 C 203.217 44.110,202.892 44.306,202.861 44.375 C 202.831 44.444,202.740 44.500,202.661 44.500 C 201.914 44.500,198.652 47.594,197.793 49.116 C 195.743 52.749,195.583 53.734,195.583 62.750 C 195.583 71.264,195.646 71.723,197.299 75.333 C 197.985 76.833,201.355 80.500,202.046 80.500 C 202.125 80.500,202.428 80.677,202.719 80.893 C 205.721 83.117,213.842 84.058,218.583 82.729 C 219.042 82.601,219.717 82.413,220.083 82.312 C 222.844 81.552,225.803 79.552,227.696 77.167 C 228.849 75.714,230.183 72.717,229.949 72.106 C 229.855 71.862,229.341 71.833,225.098 71.833 L 220.352 71.833 220.057 72.333 C 219.894 72.608,219.703 72.833,219.631 72.833 C 219.559 72.833,219.500 72.946,219.500 73.083 C 219.500 73.221,219.387 73.333,219.250 73.333 C 219.112 73.333,219.000 73.400,219.000 73.481 C 219.000 73.999,215.863 75.035,213.587 75.268 C 212.282 75.401,208.833 74.586,208.833 74.144 C 208.833 74.065,208.718 74.000,208.577 74.000 C 207.136 74.000,205.351 70.118,205.339 66.959 L 205.333 65.335 217.792 65.293 L 230.250 65.250 230.296 60.667 C 230.341 56.112,230.152 53.740,229.671 52.842 C 229.577 52.666,229.500 52.395,229.500 52.240 C 229.500 51.759,228.320 49.472,227.477 48.318 C 225.213 45.220,221.653 43.144,217.240 42.349 C 216.022 42.129,209.586 42.148,208.417 42.374 M217.583 42.830 C 224.293 44.436,228.324 48.270,229.587 54.250 C 229.771 55.124,229.833 56.618,229.833 60.208 L 229.833 65.000 217.394 65.000 L 204.955 65.000 205.044 67.458 C 205.162 70.686,205.690 72.110,207.351 73.681 C 210.562 76.719,218.642 76.017,220.480 72.542 C 220.678 72.167,220.685 72.167,225.089 72.167 C 230.061 72.167,229.817 72.091,229.227 73.453 C 229.077 73.800,228.873 74.271,228.775 74.500 C 228.098 76.076,226.234 78.403,224.954 79.272 C 224.567 79.534,224.212 79.800,224.164 79.862 C 223.672 80.514,219.254 82.250,217.073 82.649 C 215.802 82.881,210.076 82.891,209.032 82.662 C 208.602 82.568,207.875 82.413,207.417 82.318 C 203.183 81.441,199.209 78.283,197.349 74.318 C 196.115 71.688,196.000 70.687,196.000 62.629 C 196.000 54.269,196.058 53.815,197.556 50.500 C 198.761 47.830,202.401 44.585,205.083 43.788 C 205.267 43.733,205.750 43.567,206.158 43.417 C 208.497 42.560,215.048 42.224,217.583 42.830 M236.167 43.152 C 236.167 43.452,237.142 46.498,237.479 47.250 C 237.561 47.433,237.726 47.921,237.844 48.333 C 237.963 48.746,238.114 49.158,238.179 49.250 C 238.245 49.342,238.375 49.679,238.468 50.000 C 238.561 50.321,239.024 51.671,239.498 53.000 C 239.971 54.329,240.499 55.829,240.671 56.333 C 240.843 56.837,241.216 57.887,241.500 58.667 C 241.784 59.446,242.157 60.496,242.329 61.000 C 242.502 61.504,242.952 62.779,243.330 63.833 C 243.708 64.887,244.159 66.162,244.334 66.667 C 244.508 67.171,244.881 68.221,245.163 69.000 C 245.445 69.779,245.909 71.129,246.195 72.000 C 246.481 72.871,246.766 73.658,246.828 73.750 C 246.889 73.842,247.037 74.254,247.156 74.667 C 247.274 75.079,247.444 75.574,247.534 75.766 C 247.737 76.205,248.466 78.251,248.656 78.917 C 248.859 79.629,249.337 80.997,249.587 81.583 C 249.705 81.858,249.844 82.216,249.896 82.377 C 249.985 82.651,250.368 82.668,255.613 82.627 L 261.234 82.583 261.542 81.750 C 261.711 81.292,261.989 80.504,262.159 80.000 C 262.492 79.011,262.744 78.297,263.130 77.250 C 263.266 76.883,263.436 76.358,263.510 76.083 C 263.583 75.808,263.876 74.946,264.160 74.167 C 265.145 71.467,265.514 70.413,265.765 69.583 C 265.904 69.125,266.062 68.637,266.117 68.500 C 266.341 67.936,267.528 64.524,267.770 63.750 C 267.914 63.292,268.108 62.772,268.202 62.595 C 268.371 62.278,268.557 61.736,268.835 60.750 C 268.913 60.475,269.286 59.387,269.664 58.333 C 270.042 57.279,270.507 55.929,270.698 55.333 C 270.890 54.737,271.097 54.175,271.160 54.083 C 271.222 53.992,271.370 53.579,271.487 53.167 C 271.605 52.754,271.872 51.967,272.081 51.417 C 272.290 50.867,272.579 50.042,272.722 49.583 C 272.866 49.125,273.293 47.887,273.671 46.833 C 274.552 44.375,274.829 43.488,274.832 43.123 C 274.833 42.847,274.512 42.831,269.725 42.873 L 264.616 42.917 264.305 43.917 C 264.134 44.467,263.797 45.554,263.557 46.333 C 263.316 47.112,262.951 48.275,262.746 48.917 C 262.541 49.558,262.281 50.421,262.168 50.833 C 262.056 51.246,261.864 51.846,261.742 52.167 C 261.620 52.487,261.429 53.050,261.318 53.417 C 261.207 53.783,261.019 54.383,260.901 54.750 C 260.782 55.117,260.524 55.979,260.327 56.667 C 260.130 57.354,259.894 58.104,259.802 58.333 C 259.626 58.773,259.328 59.703,258.920 61.083 C 258.553 62.329,258.218 63.366,258.033 63.833 C 257.942 64.063,257.775 64.587,257.661 65.000 C 257.248 66.501,257.119 66.928,256.904 67.500 C 256.572 68.384,255.835 71.587,255.822 72.205 C 255.807 72.900,255.530 72.358,255.512 71.598 C 255.496 70.939,252.880 62.469,251.466 58.500 C 251.287 57.996,251.080 57.358,251.007 57.083 C 250.934 56.808,250.747 56.246,250.592 55.833 C 250.437 55.421,250.251 54.858,250.178 54.583 C 250.048 54.095,248.015 47.908,247.659 46.917 C 247.560 46.642,247.360 46.042,247.214 45.583 C 247.068 45.125,246.816 44.337,246.653 43.833 L 246.357 42.917 241.262 42.873 C 236.316 42.830,236.167 42.838,236.167 43.152 M324.214 57.122 C 324.284 72.571,324.225 71.513,325.175 74.190 C 326.535 78.020,329.830 81.173,333.667 82.316 C 334.079 82.438,334.642 82.610,334.917 82.696 C 336.847 83.305,341.386 83.507,344.000 83.102 C 351.938 81.870,356.218 77.170,356.831 69.008 C 357.010 66.629,357.070 43.544,356.899 43.097 C 356.810 42.865,356.221 42.833,351.995 42.833 L 347.192 42.833 347.133 56.292 C 347.069 70.883,347.137 69.728,346.225 71.790 C 344.536 75.609,337.113 75.680,334.897 71.898 C 334.096 70.531,334.101 70.615,334.006 56.417 L 333.917 42.917 329.033 42.872 L 324.150 42.828 324.214 57.122 M246.185 43.876 C 246.333 44.265,247.114 46.608,247.920 49.083 C 248.727 51.558,249.965 55.346,250.672 57.500 C 251.379 59.654,252.082 61.829,252.234 62.333 C 252.387 62.837,252.616 63.512,252.744 63.833 C 253.102 64.729,254.098 67.842,254.612 69.667 C 255.019 71.115,255.289 72.631,255.419 74.208 C 255.574 76.083,255.998 76.325,256.003 74.542 C 256.008 72.872,256.586 69.924,257.418 67.333 C 258.076 65.286,258.332 64.462,258.743 63.083 C 258.989 62.258,259.290 61.321,259.412 61.000 C 259.602 60.501,259.883 59.591,260.676 56.917 C 260.758 56.642,260.982 55.967,261.176 55.417 C 261.369 54.867,261.589 54.192,261.665 53.917 C 261.740 53.642,262.004 52.779,262.250 52.000 C 262.496 51.221,262.762 50.358,262.840 50.083 C 262.919 49.808,263.142 49.096,263.336 48.500 C 263.633 47.591,264.726 44.074,264.929 43.375 C 264.976 43.215,266.081 43.167,269.731 43.167 L 274.473 43.167 273.898 44.792 C 273.582 45.685,273.209 46.792,273.071 47.250 C 272.932 47.708,272.747 48.233,272.660 48.417 C 272.573 48.600,272.357 49.200,272.179 49.750 C 272.002 50.300,271.548 51.612,271.170 52.667 C 270.791 53.721,270.367 54.958,270.225 55.417 C 270.084 55.875,269.873 56.475,269.755 56.750 C 269.638 57.025,269.425 57.625,269.282 58.083 C 269.140 58.542,268.716 59.779,268.340 60.833 C 267.963 61.887,267.322 63.725,266.913 64.917 C 266.505 66.108,265.867 67.946,265.495 69.000 C 265.124 70.054,264.641 71.442,264.422 72.083 C 264.204 72.725,263.490 74.787,262.837 76.667 C 262.183 78.546,261.485 80.590,261.284 81.208 L 260.920 82.333 255.653 82.333 L 250.387 82.333 250.176 81.875 C 250.061 81.623,249.754 80.779,249.496 80.000 C 249.237 79.221,248.713 77.721,248.330 76.667 C 247.947 75.612,247.559 74.487,247.466 74.167 C 247.374 73.846,247.245 73.508,247.179 73.417 C 247.114 73.325,246.963 72.912,246.844 72.500 C 246.726 72.087,246.568 71.600,246.494 71.417 C 246.420 71.233,246.162 70.521,245.920 69.833 C 245.678 69.146,245.304 68.096,245.090 67.500 C 244.876 66.904,244.497 65.817,244.247 65.083 C 243.705 63.488,243.013 61.545,242.824 61.083 C 242.677 60.726,241.667 57.838,241.162 56.333 C 240.993 55.829,240.546 54.554,240.168 53.500 C 239.476 51.568,238.582 49.024,237.998 47.333 C 237.595 46.163,236.749 43.838,236.588 43.458 C 236.472 43.185,236.753 43.167,241.191 43.167 L 245.917 43.168 246.185 43.876 M333.500 55.861 C 333.500 70.809,333.559 71.402,335.217 73.143 C 337.903 75.965,344.121 75.723,346.189 72.717 C 347.478 70.844,347.411 71.688,347.463 56.625 L 347.509 43.167 352.005 43.167 L 356.500 43.167 356.497 56.042 C 356.493 72.012,356.421 72.688,354.355 76.250 C 349.827 84.055,335.326 85.376,328.573 78.599 C 324.715 74.727,324.507 73.574,324.503 56.042 L 324.500 43.167 329.000 43.167 L 333.500 43.167 333.500 55.861 M39.931 43.745 C 41.265 44.141,42.500 45.655,42.500 46.894 C 42.500 47.768,41.952 48.110,38.066 49.659 C 36.151 50.423,34.208 51.217,33.750 51.423 C 28.991 53.567,28.068 54.004,24.583 55.754 C 20.068 58.023,17.667 59.663,17.667 60.477 C 17.667 61.504,19.596 62.787,27.167 66.792 C 28.653 67.578,31.195 68.929,32.500 69.626 C 38.040 72.585,39.244 73.918,37.299 74.939 C 33.463 76.951,12.552 67.177,10.171 62.259 C 9.534 60.944,10.584 57.755,12.163 56.208 C 15.909 52.539,31.835 44.797,37.917 43.689 C 39.086 43.476,39.020 43.474,39.931 43.745 M80.917 43.763 C 88.629 45.107,101.826 53.662,103.274 58.255 C 103.679 59.542,103.435 60.241,102.113 61.576 C 100.827 62.875,99.757 63.673,96.500 65.763 C 95.985 66.094,92.778 67.938,90.417 69.261 C 80.302 74.928,74.624 76.643,73.662 74.322 C 73.076 72.907,75.703 70.795,83.333 66.546 C 84.029 66.159,84.737 65.764,87.500 64.219 C 88.646 63.579,90.108 62.770,90.750 62.423 C 94.101 60.606,96.333 59.078,96.333 58.600 C 96.333 57.064,87.937 51.964,82.150 49.986 C 80.063 49.272,78.802 48.290,77.568 46.417 C 75.919 43.913,76.976 43.076,80.917 43.763 M210.064 50.133 C 208.303 50.729,206.000 52.482,206.000 53.227 C 206.000 53.280,205.807 53.746,205.571 54.262 C 205.225 55.017,205.123 55.554,205.046 57.017 L 204.950 58.833 213.072 58.833 L 221.193 58.833 221.086 57.708 C 220.882 55.579,220.368 53.676,219.790 52.917 C 219.720 52.825,219.505 52.540,219.313 52.283 C 217.627 50.036,213.312 49.033,210.064 50.133 M215.756 50.516 C 218.774 51.575,220.667 54.289,220.667 57.556 L 220.667 58.500 213.000 58.500 L 205.333 58.500 205.333 57.586 C 205.333 54.148,207.126 51.626,210.417 50.432 C 211.499 50.039,214.534 50.087,215.756 50.516 M381.500 50.394 C 378.937 50.950,377.099 52.653,376.223 55.282 C 375.455 57.585,375.769 69.218,376.650 71.100 C 379.582 77.365,389.601 76.081,390.844 69.280 C 391.176 67.465,390.965 55.735,390.585 54.833 C 389.055 51.208,385.576 49.508,381.500 50.394 M386.347 51.115 C 388.489 51.898,389.954 53.736,390.441 56.250 C 390.767 57.936,390.756 67.283,390.426 69.008 C 389.720 72.698,387.375 74.558,383.417 74.566 C 380.118 74.572,378.357 73.545,377.034 70.840 L 376.419 69.583 376.363 63.570 C 376.305 57.231,376.408 55.712,376.980 54.497 C 377.405 53.594,378.503 52.186,378.792 52.175 C 378.906 52.170,379.000 52.105,379.000 52.031 C 379.000 51.823,380.281 51.148,381.147 50.900 C 382.298 50.569,385.179 50.689,386.347 51.115 " stroke="none" fill="#1b1b22" fill-rule="evenodd"></path><path id="path3" d="M282.081 56.667 C 282.081 70.737,282.101 76.494,282.125 69.458 C 282.149 62.423,282.149 50.910,282.125 43.875 C 282.101 36.840,282.081 42.596,282.081 56.667 M290.912 41.333 C 290.912 46.971,290.933 49.277,290.958 46.458 C 290.984 43.640,290.984 39.027,290.958 36.208 C 290.933 33.390,290.912 35.696,290.912 41.333 M313.915 56.667 C 313.915 70.737,313.934 76.494,313.958 69.458 C 313.982 62.423,313.982 50.910,313.958 43.875 C 313.934 36.840,313.915 42.596,313.915 56.667 M324.578 43.372 C 324.533 43.488,324.517 49.096,324.541 55.833 L 324.586 68.083 324.626 55.708 L 324.667 43.333 328.999 43.333 L 333.331 43.333 333.376 55.750 L 333.420 68.167 333.418 55.708 L 333.417 43.250 329.038 43.206 C 325.624 43.171,324.641 43.208,324.578 43.372 M351.957 43.290 L 356.331 43.339 356.376 55.669 L 356.420 68.000 356.418 55.625 L 356.417 43.250 352.000 43.246 L 347.583 43.241 351.957 43.290 M290.912 70.917 C 290.912 77.150,290.933 79.676,290.958 76.529 C 290.984 73.383,290.984 68.283,290.958 65.196 C 290.933 62.109,290.912 64.683,290.912 70.917 M375.404 78.833 C 375.404 80.712,375.428 81.481,375.458 80.542 C 375.487 79.602,375.487 78.065,375.458 77.125 C 375.428 76.185,375.404 76.954,375.404 78.833 M395.573 79.375 L 395.083 79.917 395.625 79.427 C 396.130 78.971,396.243 78.833,396.115 78.833 C 396.086 78.833,395.842 79.077,395.573 79.375 " stroke="none" fill="#0582ac" fill-rule="evenodd"></path><path id="path4" d="M294.458 51.625 C 296.406 51.651,299.594 51.651,301.542 51.625 C 303.490 51.598,301.896 51.576,298.000 51.576 C 294.104 51.576,292.510 51.598,294.458 51.625 M399.908 62.583 C 399.908 65.608,399.930 66.869,399.958 65.386 C 399.986 63.902,399.986 61.427,399.958 59.886 C 399.931 58.344,399.908 59.558,399.908 62.583 M391.074 62.583 C 391.074 65.425,391.097 66.611,391.125 65.219 C 391.152 63.827,391.153 61.502,391.125 60.052 C 391.097 58.603,391.074 59.742,391.074 62.583 " stroke="none" fill="#046a89" fill-rule="evenodd"></path><path id="path5" d="M163.414 56.750 C 163.414 66.283,163.434 70.159,163.458 65.362 C 163.483 60.566,163.483 52.766,163.458 48.029 C 163.434 43.292,163.414 47.217,163.414 56.750 M200.406 46.708 L 199.917 47.250 200.458 46.760 C 200.963 46.304,201.077 46.167,200.948 46.167 C 200.919 46.167,200.675 46.410,200.406 46.708 M208.958 58.958 C 211.181 58.984,214.819 58.984,217.042 58.958 C 219.265 58.932,217.446 58.910,213.000 58.910 C 208.554 58.910,206.735 58.932,208.958 58.958 M101.906 61.708 L 101.417 62.250 101.958 61.760 C 102.256 61.491,102.500 61.248,102.500 61.219 C 102.500 61.090,102.362 61.203,101.906 61.708 M222.885 72.291 C 224.151 72.320,226.176 72.320,227.385 72.291 C 228.594 72.263,227.558 72.240,225.083 72.240 C 222.608 72.240,221.619 72.263,222.885 72.291 " stroke="none" fill="#707173" fill-rule="evenodd"></path><path id="path6" d="M165.365 39.458 C 166.529 39.486,168.479 39.486,169.698 39.458 C 170.918 39.429,169.967 39.406,167.583 39.406 C 165.200 39.406,164.202 39.429,165.365 39.458 M178.412 56.667 C 178.412 62.579,178.433 64.998,178.458 62.042 C 178.484 59.085,178.484 54.248,178.458 51.292 C 178.433 48.335,178.412 50.754,178.412 56.667 M225.660 47.042 C 226.350 47.778,226.500 47.910,226.500 47.785 C 226.500 47.758,226.144 47.402,225.708 46.993 L 224.917 46.250 225.660 47.042 M78.917 48.000 C 79.275 48.367,79.605 48.667,79.651 48.667 C 79.697 48.667,79.441 48.367,79.083 48.000 C 78.725 47.633,78.395 47.333,78.349 47.333 C 78.303 47.333,78.559 47.633,78.917 48.000 M206.906 51.875 L 206.417 52.417 206.958 51.927 C 207.256 51.658,207.500 51.414,207.500 51.385 C 207.500 51.257,207.362 51.370,206.906 51.875 M211.221 64.958 C 214.688 64.983,220.313 64.983,223.721 64.958 C 227.128 64.933,224.292 64.912,217.417 64.913 C 210.542 64.913,207.753 64.933,211.221 64.958 M170.542 73.953 C 170.794 73.991,171.206 73.991,171.458 73.953 C 171.710 73.915,171.504 73.883,171.000 73.883 C 170.496 73.883,170.290 73.915,170.542 73.953 M214.375 75.615 C 214.535 75.657,214.798 75.657,214.958 75.615 C 215.119 75.573,214.987 75.539,214.667 75.539 C 214.346 75.539,214.215 75.573,214.375 75.615 " stroke="none" fill="#949494" fill-rule="evenodd"></path><path id="path7" d="M366.915 56.333 C 366.915 70.587,366.934 76.419,366.958 69.292 C 366.982 62.165,366.982 50.502,366.958 43.375 C 366.934 36.248,366.915 42.079,366.915 56.333 M305.078 41.333 C 305.078 46.971,305.099 49.277,305.125 46.458 C 305.151 43.640,305.151 39.027,305.125 36.208 C 305.099 33.390,305.078 35.696,305.078 41.333 M347.579 55.583 C 347.579 62.458,347.600 65.295,347.625 61.887 C 347.650 58.480,347.650 52.855,347.625 49.387 C 347.600 45.920,347.579 48.708,347.579 55.583 M297.999 59.791 L 304.998 59.837 305.042 71.002 L 305.087 82.167 305.085 70.958 L 305.083 59.750 298.042 59.747 L 291.000 59.745 297.999 59.791 M378.000 79.552 C 378.000 79.581,378.244 79.825,378.542 80.094 L 379.083 80.583 378.594 80.042 C 378.138 79.537,378.000 79.423,378.000 79.552 " stroke="none" fill="#084c63" fill-rule="evenodd"></path><path id="path8" d="M196.042 55.750 C 196.044 56.117,196.078 56.247,196.118 56.040 C 196.158 55.832,196.156 55.532,196.115 55.373 C 196.073 55.214,196.040 55.383,196.042 55.750 M196.042 69.583 C 196.044 69.950,196.078 70.080,196.118 69.873 C 196.158 69.666,196.156 69.366,196.115 69.206 C 196.073 69.047,196.040 69.217,196.042 69.583 M35.208 75.282 C 35.369 75.323,35.631 75.323,35.792 75.282 C 35.952 75.240,35.821 75.205,35.500 75.205 C 35.179 75.205,35.048 75.240,35.208 75.282 M172.708 82.115 C 172.869 82.157,173.131 82.157,173.292 82.115 C 173.452 82.073,173.321 82.039,173.000 82.039 C 172.679 82.039,172.548 82.073,172.708 82.115 " stroke="none" fill="#434446" fill-rule="evenodd"></path></g></svg>