<svg version="1" xmlns="http://www.w3.org/2000/svg" width="1280" height="1280" viewBox="0 0 960.000000 960.000000"><path d="M299.5 1C166.1 5.9 104.8 24.6 60.4 74.1c-37 41.2-52.5 95.6-58.6 205.4-1.9 33-1.8 368.3 0 401 3.1 55.2 7.3 88.1 15.2 119.1C33.5 864.4 68.8 907.5 124.3 931c36.2 15.3 80.3 23 155.2 27.2 33 1.9 368.3 1.8 401 0 82.5-4.6 126.7-13.1 165.1-31.7 38.7-18.7 68.2-50.1 85.4-90.8 15.3-36.2 23-80.3 27.2-155.2 1.9-33 1.8-368.3 0-401-3.1-55.2-7.3-88.1-15.2-119.1-16.8-66.1-52.8-109.2-110.7-132.9-34.2-13.9-75.9-21.1-148.8-25.7-21.5-1.3-350.2-2-384-.8zm278.3 217.4c6.1 3.2 19.1 19.6 25 31.5 3.5 7.1 3.7 8 3.7 17.5 0 9.2-.4 11.2-4.2 22.3-6.9 20.2-20.7 51.5-49.3 111.8-27.6 58.2-42.6 92.4-74.7 169.4-46.1 111-66.2 155.1-75.5 165.6-6.2 7-10.9 5.8-21-5.5-13.1-14.5-14.8-21.2-10-38.7C381.7 657 421.4 556.7 486 404c32.3-76.4 77.1-180.4 78.6-182.8 2.7-4.1 8.4-5.3 13.2-2.8zM344.6 373.5c5.2 3 12.8 12.8 14.5 18.6 1.6 5.2-.1 11.1-4 13.8-3.6 2.6-14.7 7.5-34.5 15.1-31 12-64.9 27.2-107.1 48.1-47.3 23.3-66.1 36.7-63.9 45.3.8 3.5 9.6 11.5 19.7 18.1 9.9 6.4 34.1 19.7 83.7 46 42.8 22.6 49.1 26.2 58.9 33.5 8.7 6.4 11.4 10.5 10 15.3-2.1 7.3-9.9 10.3-24.9 9.4-47.5-2.8-179.9-68.4-205.9-102.1-4.3-5.6-7-11.3-7.1-15.2-.1-4.6 4.3-18.4 8.7-27.4 3.6-7.4 6-10.9 11.2-16 13.3-13.1 46.4-33.1 95.1-57.4 71.7-35.8 115.9-51.5 136.3-48.4 2.7.4 6.9 1.9 9.3 3.3zm343.7-2c33.6 7 72.9 25.3 116.2 54 19.9 13.2 35.3 25.3 48.4 37.9 14.7 14.2 21.4 24.9 22.7 36 .5 4.4.2 6-2.1 10.7-7.4 14.5-33.2 33.6-86.3 63.8-60.3 34.3-89.2 48.6-116.7 57.6-23.9 7.9-36.5 8.2-44.2 1.2-9.5-8.6 2.5-22.4 38.2-44.3 16.3-10 59.9-34.8 94.2-53.8 46.6-25.6 57.3-32.8 57.3-38.5 0-6.1-11.8-16.8-33-30-26.5-16.5-58.5-32.6-80.5-40.6-19.9-7.2-24.9-9.9-33.2-18.2-3.9-4.1-9.5-10.7-12.2-14.9-7.6-11.4-8-18.1-1.1-21.7 3-1.6 5.1-1.8 14-1.3 5.8.2 14 1.2 18.3 2.1z"/></svg>