<?xml version="1.0" standalone="no"?>
<!DOCTYPE svg PUBLIC "-//W3C//DTD SVG 20010904//EN"
 "http://www.w3.org/TR/2001/REC-SVG-20010904/DTD/svg10.dtd">
<svg version="1.0" xmlns="http://www.w3.org/2000/svg"
 width="700.000000pt" height="700.000000pt" viewBox="0 0 700.000000 700.000000"
 preserveAspectRatio="xMidYMid meet">
<metadata>
Created by potrace 1.11, written by Peter Selinger 2001-2013
</metadata>
<g transform="translate(0.000000,700.000000) scale(0.100000,-0.100000)"
fill="#000000" stroke="none">
<path d="M2058 6985 c-46 -13 -156 -21 -388 -30 -248 -9 -305 -20 -570 -107
-491 -160 -773 -409 -925 -814 -57 -152 -122 -441 -141 -623 -3 -31 -7 -67 -9
-81 -17 -113 -20 -394 -20 -1730 0 -1341 5 -1766 20 -1812 2 -7 6 -44 9 -83 4
-38 8 -86 11 -105 6 -36 28 -171 30 -180 1 -3 5 -21 9 -40 73 -321 175 -598
280 -760 149 -230 443 -407 840 -504 109 -27 344 -69 451 -81 33 -4 74 -9 90
-11 128 -16 391 -19 1745 -19 1347 0 1737 4 1815 19 11 2 52 7 90 10 39 4 97
11 130 16 33 5 78 12 100 15 86 13 262 56 349 86 414 141 733 461 871 873 20
60 38 116 40 125 2 9 11 48 20 86 22 91 24 102 30 150 3 22 10 65 15 95 14 82
24 193 37 405 10 170 10 3229 0 3320 -4 39 -10 84 -13 100 -2 17 -6 46 -8 65
-21 180 -74 424 -129 591 -172 523 -419 743 -1027 918 -211 60 -278 72 -435
77 -312 9 -411 13 -435 19 -103 23 -241 25 -1490 24 -1056 -1 -1355 -4 -1392
-14z m1757 -1498 l120 -2 1 -872 0 -873 -493 0 -493 0 0 338 0 337 -230 0
-230 0 -1 -30 c-4 -226 1 -2070 6 -2210 14 -342 10 -526 -13 -635 l-8 -35
-405 -3 -405 -2 0 2001 0 2002 1015 -7 c559 -4 1070 -8 1136 -9z m832 -273
c122 -63 197 -112 272 -179 58 -51 172 -168 210 -215 20 -25 41 -50 47 -57 35
-37 172 -255 223 -356 79 -154 169 -452 198 -659 10 -68 10 -323 1 -408 -44
-384 -198 -783 -417 -1078 -213 -286 -539 -520 -906 -651 -251 -90 -268 -94
-455 -115 -132 -15 -841 -9 -868 8 -4 2 -6 402 -4 889 l2 885 493 -1 492 -2 1
-330 c1 -181 4 -337 8 -346 6 -14 32 -16 214 -14 205 2 235 4 249 18 4 4 8
474 9 1045 2 570 5 1057 8 1082 7 58 9 415 2 458 -6 41 -16 91 -22 115 -4 11
2 20 18 26 18 7 31 2 60 -21 20 -16 95 -58 165 -94z"/>
</g>
</svg>
