<svg height="512" viewBox="0 0 256 256" width="512" xmlns="http://www.w3.org/2000/svg"><path d="m97.527 5.012v28.744a2.457 2.457 0 0 0 2.456 2.456h56.031a2.457 2.457 0 0 0 2.457-2.456v-28.744z" fill="#72c1e8"/><path d="m145.667 26.59h-7.29a2.5 2.5 0 0 1 0-5h4.79v-8.21a2.5 2.5 0 1 1 5 0v10.71a2.5 2.5 0 0 1 -2.5 2.5zm-17.29 0h-6.689a2.5 2.5 0 1 1 0-5h6.689a2.5 2.5 0 0 1 0 5z" fill="#c5e5ff"/><g fill="#f0c020"><path d="m188 118.751c-4.008-1.324-8.148-2.482-10.473-12.494-2.141 9.222-5.57 10.875-10.473 12.494 8 2.642 9.2 7.017 10.473 12.5 2.186-9.451 5.81-10.96 10.473-12.5z"/><path d="m188 118.751c-4.008-1.324-8.148-2.482-10.473-12.494-2.141 9.222-5.57 10.875-10.473 12.494 8 2.642 9.2 7.017 10.473 12.5 2.186-9.451 5.81-10.96 10.473-12.5z"/><path d="m95.765 89.528c-4.008-1.325-8.148-2.483-10.473-12.5-2.141 9.222-5.57 10.875-10.473 12.5 8 2.642 9.2 7.017 10.473 12.495 2.191-9.443 5.815-10.956 10.473-12.495z"/><path d="m95.765 89.528c-4.008-1.325-8.148-2.483-10.473-12.5-2.141 9.222-5.57 10.875-10.473 12.5 8 2.642 9.2 7.017 10.473 12.495 2.191-9.443 5.815-10.956 10.473-12.495z"/><path d="m79.486 131.246c-4.009-1.324-8.149-2.482-10.473-12.5-2.141 9.222-5.571 10.875-10.473 12.5 8 2.642 9.2 7.017 10.473 12.5 2.187-9.446 5.815-10.961 10.473-12.5z"/><path d="m79.486 131.246c-4.009-1.324-8.149-2.482-10.473-12.5-2.141 9.222-5.571 10.875-10.473 12.5 8 2.642 9.2 7.017 10.473 12.5 2.187-9.446 5.815-10.961 10.473-12.5z"/></g><path d="m106.21 52.756h43.59a3.978 3.978 0 0 0 3.979-3.979v-12.565h-51.56v12.565a3.989 3.989 0 0 0 3.991 3.979z" fill="#fff"/><path d="m148.916 52.762v41.584a6.958 6.958 0 0 1 -13.916 0v-13.446a3.685 3.685 0 0 0 -3.685-3.685h-17.281a6.951 6.951 0 0 1 -6.951-6.952v-17.5z" fill="#ffb69f"/><path d="m148.916 52.762v41.584a6.958 6.958 0 0 1 -13.916 0v-13.446a3.685 3.685 0 0 0 -3.685-3.685h-17.281a6.951 6.951 0 0 1 -6.951-6.952v-17.5z" fill="#ffb69f"/><path d="m39.809 160.137a11.27 11.27 0 1 0 10.98 13.77 11.282 11.282 0 0 0 -10.98-13.77z" fill="#ffb69f"/><path d="m62.429 243.377a7.3 7.3 0 1 1 -14.58.62l-.6-13.98a7.447 7.447 0 0 0 -14.88 0l-.6 13.98a7.3 7.3 0 0 1 -14.59-.289c0-.317 2.516-58.8 2.53-59.121a11.423 11.423 0 0 1 9.12-10.68 11.258 11.258 0 0 0 21.96 0 11.412 11.412 0 0 1 9.12 10.68c.007.162 1.139 26.421 2.52 58.79z" fill="#fc5d3d"/><path d="m126.97 140.8a13.45 13.45 0 0 0 -8.45 2.97v.01a13.529 13.529 0 1 0 8.45-2.98z" fill="#ffb69f"/><path d="m167.05 148.47v13.29a15 15 0 0 1 -15.1 15 3.606 3.606 0 0 0 -3.55 3.81l2.86 61.25a8.76 8.76 0 1 1 -17.5.82l-1.07-22.78a8.35 8.35 0 0 0 -8.35-7.96 8.545 8.545 0 0 0 -8.35 8.31l-1.05 22.43a8.858 8.858 0 0 1 -17.7-.64l3.17-120.16a8.937 8.937 0 0 1 17.87.14l.24 21.79v.01a13.54 13.54 0 1 0 20.01 17.62h7.1a6.047 6.047 0 0 0 6.05-6.06v-6.55a7.861 7.861 0 0 1 7.55-8 7.694 7.694 0 0 1 7.82 7.68z" fill="#72c1e8"/><path d="m216.193 160.137a11.27 11.27 0 1 0 10.98 13.77 11.283 11.283 0 0 0 -10.98-13.77z" fill="#ffb69f"/><path d="m238.813 243.377a7.3 7.3 0 1 1 -14.58.62l-.6-13.98a7.447 7.447 0 0 0 -14.88 0l-.6 13.98a7.3 7.3 0 1 1 -14.58-.62c1.378-32.3 2.513-58.6 2.52-58.79a11.423 11.423 0 0 1 9.12-10.68 11.258 11.258 0 0 0 21.96 0 11.412 11.412 0 0 1 9.12 10.68c.007.162 1.14 26.421 2.52 58.79z" fill="#fc5d3d"/><path d="m136.258 201.374-.421-8.99a2.5 2.5 0 0 1 4.994-.234l.421 8.991a2.5 2.5 0 0 1 -4.994.233zm-.889-18.974-.011-.221a2.5 2.5 0 0 1 5-.243l.01.221a2.5 2.5 0 0 1 -4.994.243z" fill="#c5e5ff"/><path d="m140.165 70.138a2.5 2.5 0 0 1 -2.5-2.5v-3.667h-4.977a2.5 2.5 0 0 1 0-5h7.477a2.5 2.5 0 0 1 2.5 2.5v6.167a2.5 2.5 0 0 1 -2.5 2.5zm-17.477-6.167h-1a2.5 2.5 0 0 1 0-5h1a2.5 2.5 0 0 1 0 5z" fill="#fbe0e2"/><path d="m188.779 116.378c-3.806-1.262-6.817-2.051-8.821-10.687a2.5 2.5 0 0 0 -4.871 0c-1.953 8.417-4.834 9.369-8.821 10.687a2.5 2.5 0 0 0 0 4.747c6.868 2.27 7.645 5.618 8.821 10.687a2.5 2.5 0 0 0 4.871 0c1.952-8.416 4.833-9.368 8.821-10.686a2.5 2.5 0 0 0 0-4.747zm-11.2 7.289a13.868 13.868 0 0 0 -4.566-4.854 13.279 13.279 0 0 0 4.52-5.1 13.647 13.647 0 0 0 4.37 5.066 13.267 13.267 0 0 0 -4.325 4.888z"/><path d="m98.266 89.528a2.5 2.5 0 0 0 -1.716-2.374c-3.82-1.261-6.822-2.068-8.822-10.687a2.5 2.5 0 0 0 -4.872 0c-1.953 8.417-4.834 9.369-8.821 10.687a2.5 2.5 0 0 0 0 4.747c6.869 2.27 7.647 5.619 8.821 10.686a2.5 2.5 0 0 0 4.872 0c1.953-8.416 4.834-9.368 8.822-10.685a2.5 2.5 0 0 0 1.716-2.374zm-12.917 4.915a13.9 13.9 0 0 0 -4.568-4.855 13.281 13.281 0 0 0 4.521-5.1 13.646 13.646 0 0 0 4.371 5.066 13.246 13.246 0 0 0 -4.324 4.889z"/><path d="m80.271 128.872c-3.826-1.261-6.824-2.073-8.823-10.686a2.5 2.5 0 0 0 -4.871 0c-1.953 8.418-4.834 9.369-8.821 10.686a2.5 2.5 0 0 0 0 4.748c6.869 2.27 7.646 5.618 8.821 10.686a2.5 2.5 0 0 0 4.871 0c1.953-8.416 4.834-9.368 8.823-10.686a2.5 2.5 0 0 0 0-4.748zm-11.2 7.29a13.865 13.865 0 0 0 -4.567-4.855 13.272 13.272 0 0 0 4.52-5.1 13.644 13.644 0 0 0 4.372 5.065 13.277 13.277 0 0 0 -4.327 4.89z"/><path d="m99.719 38.684v10.093a6.487 6.487 0 0 0 4.864 6.265v15.225a9.462 9.462 0 0 0 9.451 9.452h17.281a1.186 1.186 0 0 1 1.185 1.181v13.446a9.458 9.458 0 0 0 18.916 0v-39.3a6.484 6.484 0 0 0 4.863-6.267v-10.095a4.943 4.943 0 0 0 4.691-4.924v-3.51a2.5 2.5 0 0 0 -5 0v3.46h-55.95v-28.7a2.5 2.5 0 1 0 -4.99 0v28.75a4.944 4.944 0 0 0 4.689 4.924zm51.56.028v10.065a1.481 1.481 0 0 1 -1.479 1.479h-43.59a1.487 1.487 0 0 1 -1.491-1.479v-10.065zm-4.863 55.634a4.458 4.458 0 0 1 -8.916 0v-13.446a6.191 6.191 0 0 0 -6.185-6.185h-17.281a4.457 4.457 0 0 1 -4.451-4.452v-15h36.833z"/><circle cx="158.47" cy="20.25" r="2.5"/><path d="m158.47 12.75a2.5 2.5 0 0 0 2.5-2.5v-5.24a2.5 2.5 0 1 0 -5 0v5.24a2.5 2.5 0 0 0 2.5 2.5z"/><path d="m62.41 184.48a13.92 13.92 0 0 0 -8.868-12.362 13.744 13.744 0 1 0 -27.449 0 13.919 13.919 0 0 0 -8.883 12.352s-1.52 35.425-1.521 35.44a2.5 2.5 0 0 0 4.991.21q.11-2.559.215-4.979a8 8 0 0 0 11.311-6.579l1.414-16a2.5 2.5 0 1 0 -4.98-.441l-1.414 16a3.012 3.012 0 0 1 -6.009-.4c.008-.193.98-22.84.993-23.037a8.872 8.872 0 0 1 5.05-7.64 13.755 13.755 0 0 0 25.1 0 8.891 8.891 0 0 1 5.05 7.656s0-.249.992 23.032a3.011 3.011 0 0 1 -6.008.389l-1.415-16a2.5 2.5 0 1 0 -4.98.441l1.414 16a8 8 0 0 0 11.306 6.583c0 .106 1.211 28.28 1.211 28.386a4.793 4.793 0 0 1 -9.58.36l-.6-13.98a9.95 9.95 0 0 0 -19.88 0l-.6 13.98a4.8 4.8 0 0 1 -9.59-.18c0-.183.156-3.747.15-3.6a2.5 2.5 0 0 0 -5-.21c-.012.288-.15 3.521-.15 3.81a9.8 9.8 0 0 0 19.59.39l.589-13.98a4.931 4.931 0 0 1 4.951-4.72h.009a4.954 4.954 0 0 1 4.931 4.72l.6 13.98a9.794 9.794 0 1 0 19.57-.83c-.543-12.753-2.51-58.791-2.51-58.791zm-22.6-21.842a8.77 8.77 0 1 1 -8.54 10.712 8.765 8.765 0 0 1 8.539-10.712z"/><path d="m17.76 232.51a2.5 2.5 0 1 0 -2.5-2.59 2.5 2.5 0 0 0 2.5 2.59z"/><path d="m99.34 164.7a2.5 2.5 0 1 0 -2.5-2.56 2.507 2.507 0 0 0 2.5 2.56z"/><path d="m159.35 138.29a10.352 10.352 0 0 0 -10.17 10.5v6.55a3.559 3.559 0 0 1 -3.55 3.56h-3.272a16.042 16.042 0 0 0 -15.388-20.6 15.881 15.881 0 0 0 -6 1.173l-.193-17.52a11.438 11.438 0 0 0 -22.87-.19l-.8 30.38a2.5 2.5 0 0 0 2.431 2.57 2.471 2.471 0 0 0 2.569-2.44l.8-30.37a6.436 6.436 0 0 1 12.87.1l.23 20.64a16.159 16.159 0 0 0 -5.079 11.682v.026a16.039 16.039 0 0 0 28.94 9.55h5.76a8.587 8.587 0 0 0 8.55-8.56v-6.55a5.362 5.362 0 0 1 5.17-5.5 5.211 5.211 0 0 1 5.2 5.18v13.29a12.536 12.536 0 0 1 -12.6 12.5 6.132 6.132 0 0 0 -6.051 6.43c0 .078 2.856 61.223 2.871 61.3a6.261 6.261 0 0 1 -12.51.53l-1.071-22.78a10.843 10.843 0 0 0 -10.837-10.341 11.037 11.037 0 0 0 -10.86 10.69l-1.051 22.43a6.361 6.361 0 0 1 -12.71-.38l1.851-69.87a2.516 2.516 0 0 0 -2.431-2.57 2.452 2.452 0 0 0 -2.569 2.43l-1.84 69.71a11.36 11.36 0 0 0 22.7.91l1.051-22.43a6.048 6.048 0 0 1 5.86-5.92 5.854 5.854 0 0 1 5.839 5.58l1.071 22.77a11.262 11.262 0 0 0 22.5-1.04v-.01c0-.094-2.855-61.218-2.87-61.31a1.105 1.105 0 0 1 1.15-1.13 17.509 17.509 0 0 0 17.51-17.5v-13.29a10.219 10.219 0 0 0 -10.201-10.18zm-21.33 16.058a11.044 11.044 0 0 1 -22.087.066c0-.022 0-.043 0-.065a11.045 11.045 0 1 1 22.09 0z"/><path d="m132.853 116.28a2.5 2.5 0 0 0 -2.1 2.846l.908 5.993a2.5 2.5 0 1 0 4.943-.749l-.908-5.993a2.493 2.493 0 0 0 -2.843-2.097z"/><path d="m145.536 122.977-4.359 4.358a2.5 2.5 0 0 0 3.535 3.537l4.359-4.359a2.5 2.5 0 0 0 -3.535-3.536z"/><path d="m238.79 184.475a13.891 13.891 0 0 0 -8.863-12.359 13.744 13.744 0 1 0 -27.449-.005 13.9 13.9 0 0 0 -8.882 12.371c-.711 16.5-1.684 39.195-2.519 58.745a9.8 9.8 0 1 0 19.574.878l.6-13.98a4.932 4.932 0 0 1 4.941-4.728 4.982 4.982 0 0 1 4.943 4.728l.6 13.975a9.8 9.8 0 1 0 19.576-.833c-.111-2.688-2.456-57.481-2.521-58.792zm-22.6-21.837a8.77 8.77 0 1 1 -8.539 10.726 8.764 8.764 0 0 1 8.542-10.726zm15.33 85.85a4.781 4.781 0 0 1 -4.792-4.6l-.6-13.974a9.947 9.947 0 0 0 -19.876-.007l-.6 13.985a4.8 4.8 0 1 1 -9.584-.411c.438-10.272.852-19.93 1.212-28.341a8 8 0 0 0 11.308-6.581l1.414-16a2.5 2.5 0 0 0 -4.981-.441l-1.414 16a3.011 3.011 0 0 1 -6.008-.4c.026-.606.978-22.747.99-23.024a8.91 8.91 0 0 1 5.045-7.648 13.77 13.77 0 0 0 25.12 0 8.91 8.91 0 0 1 5.04 7.651c.009.2.4 9.211.99 23.036a3.011 3.011 0 0 1 -6.008.381l-1.414-16a2.5 2.5 0 1 0 -4.98.441l1.414 16a8 8 0 0 0 11.306 6.583c0 .009 1.212 28.339 1.212 28.348a4.781 4.781 0 0 1 -4.791 5.002z"/></svg>