<svg height="496pt" viewBox="0 0 496 496" width="496pt" xmlns="http://www.w3.org/2000/svg"><g fill="#b4dd7f"><path d="m456 328v24h-8c-22.078125 0-40-17.921875-40-40v-23.441406c.320312-.160156.640625-.398438.960938-.558594h7.039062c22.078125 0 40 17.921875 40 40zm0 0"/><path d="m440 248v17.441406c-2.640625 2.320313-5.359375 4.558594-8.160156 6.558594-22-.078125-39.839844-18-39.839844-40v-23.199219h-.078125c.15625-.242187.238281-.5625.316406-.800781h7.761719c22.078125 0 40 17.921875 40 40zm0 0"/><path d="m88 288.558594v23.441406c0 22.078125-17.921875 40-40 40h-8v-24c0-22.078125 17.921875-40 40-40h7.039062c.320313.160156.640626.398438.960938.558594zm0 0"/><path d="m103.761719 208c.078125.238281.160156.558594.316406.800781h-.078125v23.199219c0 22-17.839844 39.921875-39.839844 40-2.800781-2-5.519531-4.238281-8.160156-6.558594v-17.441406c0-22.078125 17.921875-40 40-40zm0 0"/></g><path d="m400 160c0 16.800781-2.71875 32.878906-7.761719 48-.078125.238281-.160156.558594-.316406.800781-20.320313 60-77.042969 103.199219-143.921875 103.199219s-123.601562-43.199219-143.921875-103.199219c-.15625-.242187-.238281-.5625-.316406-.800781-5.042969-15.121094-7.761719-31.199219-7.761719-48 0-83.921875 68.078125-152 152-152s152 68.078125 152 152zm0 0" fill="#ff826e"/><path d="m368 160c0 30.320312-11.28125 57.839844-29.839844 78.960938l-11.199218 11.199218c-21.121094 18.558594-48.640626 29.839844-78.960938 29.839844-66.238281 0-120-53.761719-120-120 0-30.320312 11.28125-57.839844 29.839844-78.960938l11.199218-11.199218c21.121094-18.558594 48.640626-29.839844 78.960938-29.839844 66.238281 0 120 53.761719 120 120zm0 0" fill="#ffeaa7"/><path d="m304 208v32h-96v-32h32v-96h-8.640625l-31.359375 40-24-24 40.640625-48h55.359375v128zm0 0" fill="#fcd770"/><path d="m408 472v16h-320v-16c0-17.679688 14.320312-32 32-32h256c17.679688 0 32 14.320312 32 32zm0 0" fill="#ffc729"/><path d="m344 312h-192c-17.679688 0-32 14.320312-32 32v96h256v-96c0-17.679688-14.320312-32-32-32zm0 0" fill="#fcd770"/><path d="m168 344h160v96h-160zm0 0" fill="#e6e9ed"/><path d="m192 368h112v16h-112zm0 0"/><path d="m192 400h112v16h-112zm0 0"/><path d="m200 200v48h112v-48h-32v-128h-67.070312l-47.800782 56.449219 35.589844 35.589843 31.28125-39.886718v75.847656zm27.472656-96-28.191406 35.960938-12.410156-12.410157 33.480468-39.550781h43.648438v128h32v16h-80v-16h32v-112zm0 0"/><path d="m431.105469 282.472656 2.957031-2.113281c38.777344-27.703125 61.9375-72.695313 61.9375-120.359375 0-17.648438-14.351562-32-32-32s-32 14.351562-32 32 14.351562 32 32 32v-16c-8.824219 0-16-7.175781-16-16s7.175781-16 16-16 16 7.175781 16 16c0 31.921875-11.648438 62.496094-32.089844 86.207031-.917968-24.726562-20.597656-44.6875-45.207031-46.070312 3.335937-12.847657 5.296875-26.257813 5.296875-40.136719 0-88.222656-71.777344-160-160-160s-160 71.777344-160 160c0 13.878906 1.960938 27.289062 5.304688 40.136719-24.617188 1.375-44.289063 21.335937-45.207032 46.070312-20.449218-23.710937-32.097656-54.285156-32.097656-86.207031 0-8.824219 7.175781-16 16-16s16 7.175781 16 16-7.175781 16-16 16v16c17.648438 0 32-14.351562 32-32s-14.351562-32-32-32-32 14.351562-32 32c0 47.664062 23.160156 92.65625 61.9375 120.351562l2.957031 2.113282c-19.078125 6.351562-32.894531 24.34375-32.894531 45.535156v32h16c26.472656 0 48-21.527344 48-48v-9.894531c9.703125 4.855469 19.847656 8.636719 30.257812 11.535156-8.648437 7.351563-14.257812 18.160156-14.257812 30.359375v88.808594c-18.230469 3.71875-32 19.871094-32 39.191406v24h336v-24c0-19.3125-13.769531-35.472656-32-39.191406v-88.808594c0-12.199219-5.609375-23.007812-14.257812-30.351562 10.410156-2.894532 20.546874-6.679688 30.257812-11.542969v9.894531c0 26.472656 21.527344 48 48 48h16v-32c0-21.191406-13.816406-39.183594-32.894531-45.527344zm-46.015625-40.394531c3.253906 15.179687 13.710937 27.699219 27.597656 33.824219-26.136719 18.363281-56.777344 28.097656-88.734375 28.097656h-6.671875c28.199219-13.625 51.75-35.214844 67.808594-61.921875zm46.910156 5.921875v13.742188c-.824219.683593-1.671875 1.347656-2.511719 2-16.457031-1.300782-29.488281-14.957032-29.488281-31.742188v-16c17.648438 0 32 14.351562 32 32zm-184-232c79.398438 0 144 64.601562 144 144s-64.601562 144-144 144-144-64.601562-144-144 64.601562-144 144-144zm-137.089844 226.078125c16.050782 26.699219 39.609375 48.296875 67.800782 61.921875h-6.671876c-31.960937 0-62.597656-9.734375-88.734374-28.089844 13.902343-6.132812 24.351562-18.652344 27.605468-33.832031zm-14.910156-26.078125v16c0 16.785156-13.03125 30.441406-29.480469 31.742188-.847656-.664063-1.695312-1.316407-2.519531-2.007813v-13.734375c0-17.648438 14.351562-32 32-32zm-16 96c0 17.648438-14.351562 32-32 32v-16c0-17.648438 14.351562-32 32-32zm320 160v8h-304v-8c0-13.230469 10.769531-24 24-24h256c13.230469 0 24 10.769531 24 24zm-80-40h-144v-80h144zm24-112c13.230469 0 24 10.769531 24 24v88h-32v-96h-176v96h-32v-88c0-13.230469 10.769531-24 24-24zm104 24c-17.648438 0-32-14.351562-32-32v-16c17.648438 0 32 14.351562 32 32zm0 0"/><path d="m248 48c61.761719 0 112 50.238281 112 112 0 27.054688-9.878906 53.230469-27.832031 73.710938l12.03125 10.546874c20.511719-23.394531 31.800781-53.320312 31.800781-84.257812 0-70.574219-57.425781-128-128-128-30.9375 0-60.855469 11.296875-84.257812 31.800781l10.546874 12.03125c20.480469-17.953125 46.65625-27.832031 73.710938-27.832031zm0 0"/><path d="m248 288c30.9375 0 60.855469-11.296875 84.257812-31.800781l-10.546874-12.03125c-20.480469 17.953125-46.65625 27.832031-73.710938 27.832031-61.761719 0-112-50.238281-112-112 0-27.054688 9.878906-53.230469 27.832031-73.710938l-12.03125-10.546874c-20.511719 23.394531-31.800781 53.320312-31.800781 84.257812 0 70.574219 57.425781 128 128 128zm0 0"/></svg>