<?xml version="1.0" standalone="no"?>
<!DOCTYPE svg PUBLIC "-//W3C//DTD SVG 20010904//EN"
 "http://www.w3.org/TR/2001/REC-SVG-20010904/DTD/svg10.dtd">
<svg version="1.0" xmlns="http://www.w3.org/2000/svg"
 width="700.000000pt" height="700.000000pt" viewBox="0 0 700.000000 700.000000"
 preserveAspectRatio="xMidYMid meet">
<metadata>
Created by potrace 1.11, written by Peter Selinger 2001-2013
</metadata>
<g transform="translate(0.000000,700.000000) scale(0.100000,-0.100000)"
fill="#000000" stroke="none">
<path d="M4063 6122 c-46 -7 -78 -57 -112 -175 -17 -61 -34 -119 -36 -127 -3
-12 -71 -249 -132 -455 -8 -27 -17 -59 -20 -70 -3 -11 -32 -112 -65 -225 -33
-113 -61 -212 -63 -220 -2 -8 -60 -211 -130 -450 -69 -239 -132 -457 -140
-485 -7 -27 -61 -214 -120 -415 -209 -719 -317 -1096 -335 -1160 -10 -36 -38
-135 -63 -220 -146 -498 -297 -1031 -299 -1052 -3 -35 20 -85 47 -102 34 -23
273 -89 318 -88 39 0 77 26 99 65 5 11 25 74 44 140 19 67 39 136 45 152 12
38 149 515 154 535 1 9 14 54 28 100 14 47 55 189 91 315 36 127 75 259 86
295 11 36 65 223 120 415 119 413 198 688 211 730 12 39 85 294 92 320 3 11
21 76 42 145 69 236 147 505 155 535 4 17 42 149 84 295 307 1056 294 1010
288 1047 -8 50 -54 78 -189 116 -140 40 -167 45 -200 39z"/>
<path d="M1862 5400 c-12 -5 -433 -420 -936 -923 -961 -960 -937 -934 -921
-1006 5 -22 244 -268 925 -949 975 -975 940 -944 1013 -924 30 8 251 222 271
262 7 14 11 35 10 48 -1 12 -2 30 -3 39 0 10 -346 363 -768 785 l-768 768 768
768 c422 422 768 773 768 780 5 44 4 60 -3 83 -10 28 -219 243 -259 265 -28
15 -64 17 -97 4z"/>
<path d="M5045 5396 c-16 -7 -81 -64 -143 -127 -121 -122 -142 -160 -122 -216
6 -16 340 -357 773 -790 l762 -763 -768 -768 c-422 -422 -767 -774 -768 -782
0 -8 -2 -24 -4 -34 -7 -38 25 -83 142 -199 105 -104 125 -119 158 -122 21 -2
51 3 66 10 15 8 437 424 937 925 679 679 912 918 917 940 16 73 40 47 -922
1007 -502 503 -925 918 -939 923 -33 13 -53 12 -89 -4z"/>
</g>
</svg>
