<svg xmlns="http://www.w3.org/2000/svg" viewBox="0 0 128 128"><title>footballer-luis-suarez</title><g id="footballer-luis-suarez"><g id="footballers-white-male"><g id="footballers-white-male-2"><g id="Icons"><path d="M103.72,90.24c-9.46-1.84-13.58-3.26-26.48-5.76H46.94c-12.92,2.68-17.04,4-26.52,5.76a15.38,15.38,0,0,0-11.34,14.7,130.56,130.56,0,0,0,53,11.14,129.1811,129.1811,0,0,0,53-11.14A15.48,15.48,0,0,0,103.72,90.24Z" style="fill:#b9e9f9"/><path d="M103.72,95.88c-9.46-1.84-13.58-3.26-26.48-5.76H46.94c-12.92,2.68-17.04,4-26.52,5.76a14.96,14.96,0,0,0-10.36,9.52,130.4007,130.4007,0,0,0,52,10.74,129.2609,129.2609,0,0,0,52-10.72A15.06,15.06,0,0,0,103.72,95.88Z" style="fill:#92d1ea"/><path d="M103.72,90.24c-9.46-1.84-13.58-3.26-26.48-5.76a27.6,27.6,0,0,1-13.4,8.74l24,20.34a132.6383,132.6383,0,0,0,27.24-8.64A15.56,15.56,0,0,0,103.72,90.24Z" style="fill:#92d1ea"/><path d="M103.72,95.88c-9.46-1.84-13.58-3.26-26.48-5.76H70.8a31.3981,31.3981,0,0,1-6.98,3.16l24,20.34h0a131.4447,131.4447,0,0,0,13.12-3.36,134.8063,134.8063,0,0,0,12.78-4.72l.36-.14A15.08,15.08,0,0,0,103.72,95.88Z" style="fill:#7fc2d6"/><path d="M83.56,85.88h.12c-1.9-.4-4-.84-6.44-1.3H46.94l-6.36,1.3v.18c6.4,7.72,10.54,10.8,21.4,13.78C72.66,96.88,76.92,93.88,83.56,85.88Z" style="fill:#faffff"/><polyline points="31.3 105.86 35.58 105.86 35.58 97.5 31.8 97.5 31.8 101.68 35.58 101.68" style="fill:none;stroke:#3e64af;stroke-linejoin:bevel;stroke-width:1.8766000270843506px"/><path d="M46.94,73.32V84.48a28.4,28.4,0,0,0,15.14,9.28,28.28,28.28,0,0,0,15.14-9.28V73.32Z" style="fill:#e8b992"/><path d="M77.22,73.32H46.94V78.9L64.3,93.08A27.4194,27.4194,0,0,0,77.22,84.5Z" style="fill:#ddad8a"/><path d="M77.22,84.48a27.6,27.6,0,0,1-13.4,8.74l5.08,4.32c6-2.44,9.66-5.6,14.66-11.58l.12-.08C81.76,85.38,79.66,84.94,77.22,84.48Z" style="fill:#f0f7f7"/><path d="M46.92,75.18v9.3a28.4,28.4,0,0,0,15.14,9.28A28.28,28.28,0,0,0,77.2,84.48v-9.3Z" style="fill:none;stroke:#333;stroke-linecap:square;stroke-linejoin:round;stroke-width:3px"/><path d="M87.72,53.88c0-4.18-2.14-8.54-5.7-7.54V43.18c0-14.28-4.94-23.5-19.86-23.5S42.3,28.9,42.3,43.18v3.14c-3.7-1-5.84,3.26-5.84,7.54v4.22l3.34,6.46h2l1.06,6.4a11.62,11.62,0,0,0,1.64,4.28c1.46,2.26,4,4,9.04,8.54a8.36,8.36,0,0,0,5.54,2.12h6.16a8.36,8.36,0,0,0,5.46-2.14c4.98-4.6,7.58-6.28,9.04-8.54a11.48,11.48,0,0,0,1.64-4.28c1.06-6.4,1.04-6.44,1.06-6.4h2l3.18-6.4V53.88Z" style="fill:#e8b992"/><path d="M82,46.32V43.18c0-14.28-4.92-23.5-19.86-23.5a28.2774,28.2774,0,0,0-6,.6v23.6a8,8,0,0,1-2.58,5.86.9.9,0,0,0,.4,1.56c3.06.86,4.68,1.44,6.58.96.64-.16,1.76.54,1.76,1.2v3.18a3.38,3.38,0,0,0,1.3,2.84,2.2372,2.2372,0,0,1-1.3,4.06h0c-1.66,0-2.24-1.12-4.46-1.12-1.32,0-1.12,1.72-1.16,1.68a5.18,5.18,0,0,1,2.24.58,6.7991,6.7991,0,0,0,3.36.88v6.72a3.88,3.88,0,0,0,2.6,3.6,3.16,3.16,0,0,1,2,3.32c0,6.1-10.86-.48-11.04,6a8.3994,8.3994,0,0,0,3.24.68h6.16a8.36,8.36,0,0,0,5.46-2.14c4.98-4.6,7.58-6.28,9.04-8.54a11.48,11.48,0,0,0,1.64-4.28c1.06-6.4,1.04-6.44,1.06-6.4h2l3.18-6.4V53.88C87.68,49.68,85.58,45.32,82,46.32Z" style="fill:#ddad8a"/><path d="M64.48,69.2a4,4,0,0,0-2,.26,1.28,1.28,0,0,1-.86,0,5.5806,5.5806,0,0,0-2.4-.26,5.54,5.54,0,0,0-3.64,3.88c2.72,0,2.36.2,4.4.22h4.2c2,0,1.34-.22,4.58-.22C67.08,71.18,67.4,69.56,64.48,69.2Z" style="fill:#ddab85"/><path d="M65.6,73.2H59.08a.6.6,0,0,1-.6-.6V71.44a.6.6,0,0,1,.6-.6H65.7a.6.6,0,0,1,.6.6V72.6a.6.6,0,0,1-.5915.6083A.5881.5881,0,0,1,65.6,73.2Z" style="fill:#fff"/><line x1="62.3" y1="65.8" x2="62.3" y2="67.82" style="fill:none;stroke:#cca183;stroke-linecap:round;stroke-miterlimit:10;stroke-width:1.5255999565124512px"/><line x1="60.42" y1="75.58" x2="64.48" y2="75.58" style="fill:none;stroke:#cca183;stroke-linecap:round;stroke-miterlimit:10;stroke-width:1.5255999565124512px"/><line x1="62.04" y1="81.6" x2="62.54" y2="81.6" style="fill:none;stroke:#cca183;stroke-linecap:round;stroke-miterlimit:10;stroke-width:1.5255999565124512px"/><circle cx="71.16" cy="54.4" r="1.6" style="fill:#333"/><circle cx="53" cy="54.4" r="1.6" style="fill:#333"/><path d="M55.44,72.84c.44-.52.84-1.02,1.32-1.54a3.24,3.24,0,0,1,2.18-.98h0c1.12,0,2.26.1,3.38.2h-.14c1.1-.14,2.22-.18,3.32-.22h0a3.26,3.26,0,0,1,2.18,1c.48.52.88,1.02,1.32,1.54a.38.38,0,0,1,0,.5.36.36,0,0,1-.44,0l-1.48-1.28a2,2,0,0,0-1.46-.44h0c-1.1.18-2.2.34-3.3.44h-.04c-1.12-.12-2.24-.3-3.36-.44h0a2,2,0,0,0-1.46.46l-1.52,1.28a.38.38,0,0,1-.5,0,.32.32,0,0,1,0-.52Z" style="fill:#c6916d"/><path d="M81.58,56c0-6.66,11.4-12.8,5.72-26.54-4.96-12-20.64-8.94-20.64-15.58-9.16,0-24.8,3.58-29.76,15.58-5.8,14,5.7,19.88,5.7,26.54,0-2,0-6.54,3.44-8.86a1.24,1.24,0,0,0,.3325-1.7218L46.36,45.4,42.9,42.56a2.2,2.2,0,0,1,1.02-3.28,20.74,20.74,0,0,1,17.58.92,1.4,1.4,0,0,0,1.2,0,20.74,20.74,0,0,1,17.58-.92,2.2,2.2,0,0,1,1.02,3.28L77.8,45.4a1.24,1.24,0,0,0,.3018,1.7275l.0182.0125C81.54,49.46,81.58,53.98,81.58,56Z" style="fill:#333;stroke:#333;stroke-linejoin:round;stroke-width:2.213200092315674px"/><path d="M87.72,53.88c0-4.18-2.14-8.54-5.7-7.54V43.18c0-14.28-4.94-23.5-19.86-23.5S42.3,28.9,42.3,43.18v3.14c-3.7-1-5.84,3.26-5.84,7.54v4.22l3.34,6.46h2l1.06,6.4a11.62,11.62,0,0,0,1.64,4.28c1.46,2.26,4,4,9.04,8.54a8.36,8.36,0,0,0,5.54,2.12h6.16a8.36,8.36,0,0,0,5.46-2.14c4.98-4.6,7.58-6.28,9.04-8.54a11.48,11.48,0,0,0,1.64-4.28c1.06-6.4,1.04-6.44,1.06-6.4h2l3.18-6.4V53.88Z" style="fill:none;stroke:#333;stroke-linejoin:round;stroke-width:3px"/><path d="M46.94,84.48c-12.92,2.68-17.04,4-26.52,5.76a15.38,15.38,0,0,0-11.34,14.7,130.56,130.56,0,0,0,53,11.14,129.1811,129.1811,0,0,0,53-11.14,15.48,15.48,0,0,0-11.36-14.7c-9.46-1.84-13.58-3.26-26.48-5.76" style="fill:none;stroke:#333;stroke-linecap:square;stroke-linejoin:round;stroke-width:3px"/><path d="M56.96,64.36a5.18,5.18,0,0,1,2.54.66h0a5.32,5.32,0,0,0,5.08,0h0a5.4,5.4,0,0,1,2.5-.66" style="fill:none;stroke:#c6916d;stroke-linecap:round;stroke-miterlimit:10;stroke-width:1.5255999565124512px"/><path d="M47.44,50.42a12,12,0,0,1,2.9-1.1,11.1621,11.1621,0,0,1,3.16-.18,19.4388,19.4388,0,0,1,5.64,2h0a.46.46,0,0,1,.24.6.48.48,0,0,1-.46.28,24.5474,24.5474,0,0,1-2.96-.52c-.94-.18-1.86-.28-2.74-.42a14.5989,14.5989,0,0,0-5.5.12h0a.48.48,0,0,1-.54-.36A.5.5,0,0,1,47.44,50.42Z" style="fill:#333"/><path d="M77.32,51.28a14.58,14.58,0,0,0-5.5-.12c-.9.14-1.8.24-2.74.42a24.5474,24.5474,0,0,1-2.96.52.44.44,0,0,1-.4782-.3982A.4162.4162,0,0,1,65.64,51.66a.46.46,0,0,1,.28-.46h0a19.4388,19.4388,0,0,1,5.64-2,12.8619,12.8619,0,0,1,3.16.18,10.3613,10.3613,0,0,1,2.9,1.1.46.46,0,0,1,.18.62.48.48,0,0,1-.52.24Z" style="fill:#333"/></g></g></g></g></svg>