<svg xmlns="http://www.w3.org/2000/svg" viewBox="0 0 128 128"><title>footballer-neymar-jr</title><g id="footballer-neymar-jr"><g id="footballers-neymar-jr"><g id="footballers-neymar-jr-2"><g id="Icons"><path d="M109.18,91.32c-9.86-2-12.18-3.24-25.64-5.88H52c-13.44,2.84-15.78,4-25.64,5.88a16.52,16.52,0,0,0-11.82,15.8,124.86,124.86,0,0,0,53.24,11.82,124.26,124.26,0,0,0,53.24-11.82C120.98,101.2,117.06,93.32,109.18,91.32Z" style="fill:#f4cf16"/><path d="M109.18,91.32c-9.86-2-14.16-3.28-27.6-6a24.64,24.64,0,0,1-13.04,8.52l26.2,22.22a119.32,119.32,0,0,0,26.28-8.96C120.98,101.2,117.06,93.32,109.18,91.32Z" style="fill:#ddb819"/><rect x="64.62" y="94.04" width="6.3" height="24.16" style="fill:#3e7a17"/><path d="M91.42,87.4c-2.48-.54-4.44-1.3-7.88-2H52c-3.42.72-5.4,1.44-7.88,2l4,9.86h6.92a30.7392,30.7392,0,0,0,12.8,5.88,30.74,30.74,0,0,0,12.7-5.88h6.92Z" style="fill:#3e7a17"/><path d="M53.96,75.58v11.1a25.82,25.82,0,0,0,13.8,8.62,25.82,25.82,0,0,0,13.8-8.62V75.58Z" style="fill:#e8b992"/><path d="M53.96,79.84l17,14.4.42-.16c.52-.2.98-.44,1.48-.64a24.1394,24.1394,0,0,0,8.7-6.74V75.58H53.96Z" style="fill:#dba983"/><path d="M53.96,85.68a24,24,0,0,0,13.8,9.62,25.04,25.04,0,0,0,14-9.86" style="fill:none;stroke:#333;stroke-linecap:round;stroke-linejoin:round;stroke-width:3px"/><path d="M53.96,85.68c-13.44,2.84-17.74,3.7-27.6,5.64s-9.08,6.28-11.82,15.8a124.86,124.86,0,0,0,53.24,11.82,124.26,124.26,0,0,0,53.24-11.82c-2-7.88-2-13.88-11.82-15.8s-13.9-3.24-27.36-5.88" style="fill:none;stroke:#333;stroke-linecap:round;stroke-linejoin:round;stroke-width:3px"/><polyline points="31.32 98.24 33.26 98.24 33.26 107.12" style="fill:none;stroke:#3e7a17;stroke-linejoin:bevel;stroke-width:1.97160005569458px"/><rect x="37.2" y="98.24" width="3.94" height="7.88" style="fill:none;stroke:#3e7a17;stroke-linejoin:bevel;stroke-width:1.97160005569458px"/><path d="M100.54,107.68l-4.22,2.4-4.22-2.4a3.36,3.36,0,0,1-1.7-2.94V98.26h11.82v6.48A3.26,3.26,0,0,1,100.54,107.68Z" style="fill:#f4cf16;stroke:#2e5b10;stroke-linecap:square;stroke-linejoin:bevel;stroke-width:1.97160005569458px"/><line x1="53.96" y1="85.68" x2="53.96" y2="75.58" style="fill:none;stroke:#333;stroke-linejoin:round;stroke-width:3px"/><line x1="81.56" y1="85.38" x2="81.56" y2="75.58" style="fill:none;stroke:#333;stroke-linejoin:round;stroke-width:3px"/><path d="M93.76,45.48a5.04,5.04,0,0,0-5.26-.8V38.5c0-10.78-4.7-20.12-20.7-20.12s-20.66,9.24-20.66,20v6.18a5.06,5.06,0,0,0-5.26.9c-2.38,2-2,5.44-1.3,9.34.82,4.9,4,9.1,8.44,7.02a32.3122,32.3122,0,0,0,0,4.82c.4,6,3.6,7.5,9.16,13.28a12.8,12.8,0,0,0,9.6,3.48,12.86,12.86,0,0,0,9.68-3.38c5.54-5.78,8.76-7.36,9.14-13.36a27.7221,27.7221,0,0,0-.06-4.82c4.44,2,7.64-2.12,8.46-7.02C95.72,50.92,96.14,47.38,93.76,45.48Z" style="fill:#e8b992"/><path d="M88.54,44.68V38.5c0-10.78-4.7-20.12-20.7-20.12a33.2584,33.2584,0,0,0-5.74.48V42.02c0,4-4,4-4,6a5.64,5.64,0,0,1,5.72,3.4h3a1,1,0,0,1,1,1v4.22a.94.94,0,0,0,.68.9,1.8,1.8,0,0,1,1.32,1.88,2,2,0,0,1-2,2c-1.48,0-.96-.44-2.96-.44a3.12,3.12,0,0,0-2.18.66.44.44,0,0,0,.34.7c3.2.12,2.14,1.06,4.78,1.1v8a3.52,3.52,0,0,0,2,2c1.64,0,2.28,2,2.28,3.6a3,3,0,0,1-3,3h-3a4,4,0,0,0-3.7,2.56,17.22,17.22,0,0,0,6,.84,14.64,14.64,0,0,0,10-4.36c4.94-5,7.82-6.72,8.18-12.38a27.7274,27.7274,0,0,0-.02-4.86c4.44,2,7.64-2.12,8.46-7.02.66-4,1.08-7.46-1.3-9.36A4.92,4.92,0,0,0,88.54,44.68Z" style="fill:#ddad8a"/><line x1="67.78" y1="63.8" x2="67.78" y2="65.78" style="fill:none;stroke:#d3a484;stroke-linecap:round;stroke-miterlimit:10;stroke-width:1.5px"/><path d="M41.88,45.48c-2.38,2-2,5.44-1.3,9.34.82,4.9,3.82,9.1,8.24,7.02h.2a32.3122,32.3122,0,0,0,0,4.82c.28,4.24,2,6.24,4.9,9.08a45.8834,45.8834,0,0,1,0-10.34,5.82,5.82,0,0,0-1.9-6.16l-1.34-1.4a4,4,0,0,1-1.22-2.88V50.6a11.26,11.26,0,0,0-2.32-6A5.06,5.06,0,0,0,41.88,45.48Z" style="fill:#ddad8a"/><path d="M93.76,45.58c2.38,2,2,5.44,1.3,9.34-.82,4.9-3.82,9.1-8.24,7.02h-.28a32.3122,32.3122,0,0,1,0,4.82c-.28,4.24-2,6.24-4.9,9.08a45.8834,45.8834,0,0,0,0-10.34,5.82,5.82,0,0,1,2-6.16L85.02,58a4,4,0,0,0,1.22-2.88V50.7a11.26,11.26,0,0,1,2.32-6A5.06,5.06,0,0,1,93.76,45.58Z" style="fill:#d3a484"/><path d="M52.84,48.54a12,12,0,0,1,2.9-1.1,11.1621,11.1621,0,0,1,3.16-.18,19.4388,19.4388,0,0,1,5.64,2h0a.46.46,0,0,1,.24.6.48.48,0,0,1-.46.28,24.5474,24.5474,0,0,1-2.96-.52c-.94-.18-1.86-.28-2.74-.42a14.5989,14.5989,0,0,0-5.5.12h0a.48.48,0,0,1-.54-.36A.52.52,0,0,1,52.84,48.54Z" style="fill:#333"/><path d="M82.74,49.4a14.58,14.58,0,0,0-5.5-.12c-.9.14-1.8.24-2.74.42a24.5474,24.5474,0,0,1-2.96.52.44.44,0,0,1-.4782-.3982A.4162.4162,0,0,1,71.06,49.78a.46.46,0,0,1,.28-.46h0a19.4388,19.4388,0,0,1,5.64-2,12.8619,12.8619,0,0,1,3.16.18,10.3613,10.3613,0,0,1,2.9,1.1.46.46,0,0,1-.32.84Z" style="fill:#333"/><path d="M93.76,45.48a5.04,5.04,0,0,0-5.26-.8V38.5c0-10.78-4.7-20.12-20.7-20.12s-20.66,9.24-20.66,20v6.18a5.06,5.06,0,0,0-5.26.9c-2.38,2-2,5.44-1.3,9.34.82,4.9,4,9.1,8.44,7.02a32.3122,32.3122,0,0,0,0,4.82c.4,6,3.6,7.5,9.16,13.28a12.8,12.8,0,0,0,9.6,3.48,12.86,12.86,0,0,0,9.68-3.38c5.54-5.78,8.76-7.36,9.14-13.36a27.7221,27.7221,0,0,0-.06-4.82c4.44,2,7.64-2.12,8.46-7.02C95.72,50.92,96.14,47.38,93.76,45.48Z" style="fill:none;stroke:#343433;stroke-linejoin:round;stroke-width:3px"/><path d="M70.66,67.16a5.66,5.66,0,0,0-2.36.26,1.22,1.22,0,0,1-.84,0,5.7391,5.7391,0,0,0-2.36-.26c-1.34.2-1.48,1.04-4.18,2.5l2.38,1.46a4.58,4.58,0,0,0,2.54.82h4.14a4.42,4.42,0,0,0,2.56-.82L75,69.72C72.28,68.26,72,67.36,70.66,67.16Z" style="fill:#ddab85"/><path d="M74.98,69.84c-2,0-2.52-.78-4.48-.78a13.4564,13.4564,0,0,0-2.58.34,15.0388,15.0388,0,0,0-2.58-.34c-1.88,0-2.3.72-4.42.72" style="fill:none;stroke:#c6916d;stroke-linecap:round;stroke-miterlimit:10;stroke-width:1.5px"/><path d="M62.98,62.32a4.52,4.52,0,0,1,2.44.74h0a4.46,4.46,0,0,0,4.9,0h0a4.5793,4.5793,0,0,1,2.44-.74" style="fill:none;stroke:#c6916d;stroke-linecap:round;stroke-miterlimit:10;stroke-width:1.5px"/><path d="M41.1,27.6l4.4-2.26L45.36,44.2s4,1.52,4,10V41.52l4.22-4.22V22.58H83.06V37.32l4.22,6.32V54.18c0-8.52,3.68-9.88,3.68-9.88V31l2.12-9.56-4.78,2-4-10.8-1.32,3.64L75.66,7.84l1.06,6.32A43.5,43.5,0,0,0,59.86,9.94l5.06,2.68A28,28,0,0,0,41.1,27.6Z" style="fill:#343433;stroke:#343433;stroke-linecap:round;stroke-linejoin:round;stroke-width:2.106600046157837px"/><path d="M83.04,22.58S77.16,38.34,64.08,45.84L72.54,26.8s-8.46,16.86-16.9,21.04L66.18,28.88S57.76,41.5,49.32,45.7l4.22-12.62L49.32,37.3V20.46h33.7v2.12Z" style="fill:#343433;stroke:#343433;stroke-linecap:round;stroke-linejoin:round;stroke-width:2.106600046157837px"/><path d="M79.38,22.08a14.8812,14.8812,0,0,1-.6,4.62,20.2034,20.2034,0,0,1-1.76,4.32,15.5836,15.5836,0,0,1-2.92,3.64,20.6028,20.6028,0,0,1-3.56,2.84.46.46,0,0,1-.6385-.1247c-.0077-.0114-.0149-.0232-.0215-.0353a.52.52,0,0,1,0-.6h0A34.1522,34.1522,0,0,0,72.8,33.5a38.0083,38.0083,0,0,0,2.4-3.66,21.9931,21.9931,0,0,0,2-3.8,21.564,21.564,0,0,0,1.26-4.1h0a.46.46,0,0,1,.5228-.3871l.0372.0071A.5.5,0,0,1,79.38,22.08Z" style="fill:#444"/><path d="M78.64,23.6a19.2409,19.2409,0,0,1-3.08,4.92,27.4024,27.4024,0,0,1-4.18,4,23.5412,23.5412,0,0,1-5.04,2.82,31.44,31.44,0,0,1-5.44,1.78.48.48,0,0,1-.5788-.3547L60.32,36.76a.46.46,0,0,1,.22-.52h0a51.7113,51.7113,0,0,0,5.04-2.4c1.6-.88,3.06-2,4.56-2.98a32.802,32.802,0,0,0,4.18-3.46,24.6212,24.6212,0,0,0,3.48-4.16h0a.48.48,0,0,1,.74-.2A.44.44,0,0,1,78.64,23.6Z" style="fill:#444"/><path d="M69.9,22.92a24.0035,24.0035,0,0,1-4,5.24,36.7975,36.7975,0,0,1-5.14,4.16,31.0616,31.0616,0,0,1-6,2.86,41.4932,41.4932,0,0,1-6.28,1.8.46.46,0,0,1-.5529-.3428L47.92,36.6a.48.48,0,0,1,.3-.54h0a58.8351,58.8351,0,0,0,5.84-2.48c1.84-.96,3.68-2,5.48-3.06a41.3,41.3,0,0,0,5.1-3.62,28.7219,28.7219,0,0,0,4.38-4.44h0a.48.48,0,0,1,.6788-.0012L69.7,22.46A.48.48,0,0,1,69.9,22.92Z" style="fill:#444"/><line x1="65.94" y1="73.42" x2="69.94" y2="73.42" style="fill:none;stroke:#d3a484;stroke-linecap:round;stroke-miterlimit:10;stroke-width:1.5px"/><line x1="67.54" y1="79.32" x2="68.04" y2="79.32" style="fill:none;stroke:#d3a484;stroke-linecap:round;stroke-miterlimit:10;stroke-width:1.5px"/><circle cx="59.38" cy="53.28" r="1.48" style="fill:#343433"/><circle cx="76.16" cy="53.28" r="1.48" style="fill:#343433"/></g></g></g></g></svg>