<svg xmlns="http://www.w3.org/2000/svg" viewBox="0 0 128 128"><title>girl-in-ballcap</title><g id="girl-in-ballcap"><g id="baseball-caps-2-asian-female"><g id="baseball-caps-2-asian-female-2"><g id="Icons"><path d="M69.74,67.432A24.8931,24.8931,0,1,1,94.4123,42.54,24.8116,24.8116,0,0,1,69.74,67.432Zm0-46.3994A21.5084,21.5084,0,1,0,91.0275,42.54,21.4231,21.4231,0,0,0,69.74,21.0326Z" style="fill:#333"/><path d="M69.7892,109.891a14.3481,14.3481,0,0,1-9.165-3.2959A56.8776,56.8776,0,0,1,47.4933,90.8168l2.6133-1.4727a53.8809,53.8809,0,0,0,12.4355,14.9443,11.3882,11.3882,0,0,0,14.502-.0039A53.5082,53.5082,0,0,0,89.4132,89.4427l2.6133,1.4746a56.5212,56.5212,0,0,1-13.0654,15.6748A14.3634,14.3634,0,0,1,69.7892,109.891Z" style="fill:#333"/><path d="M117,102.48a10.84,10.84,0,0,0-8.4-8.4L89,89.8c-2.2-.48-4.42-.86-6.64-1.18V78.32H57.16V88.58c-2.34.32-4.66.74-6.98,1.24L30.9,94.06a10.84,10.84,0,0,0-8.4,8.4l-1.06,4.22c.58.46,20.26,10.5,48.3,10.5s47.72-10,48.3-10.5Z" style="fill:#e6b790"/><path d="M69.74,102.36v14.82c28,0,47.72-10,48.3-10.5l-1.04-4.2a10.84,10.84,0,0,0-8.4-8.4L89,89.8c-2.2-.48-4.42-.86-6.64-1.18V78.32H57.16v7.36l10,10.34A9.5,9.5,0,0,1,69.74,102.36Z" style="fill:#ddad8a"/><path d="M87.44,95.18l12,2a65.6741,65.6741,0,0,0,7.68-3.48l-18.26-4c-2.2-.48-4.42-.86-6.64-1.18A6.36,6.36,0,0,0,87.44,95.18Z" style="fill:#d8ab8d"/><path d="M117,102.48a10.84,10.84,0,0,0-8.4-8.4l-17.88-4A55.18,55.18,0,0,1,78,105.44a12.88,12.88,0,0,1-16.42,0A55.5619,55.5619,0,0,1,48.8,90.08l-17.9,4a10.84,10.84,0,0,0-8.4,8.4l-1.06,4.2c.58.46,20.26,10.5,48.3,10.5s47.72-10,48.3-10.5Z" style="fill:#528bdd"/><path d="M118.04,106.68l-.38-1.54a11.44,11.44,0,0,0-7.8-6c-.1,0-16.38-3.08-22.34-4a54.9245,54.9245,0,0,1-9.54,10.3,12.88,12.88,0,0,1-16.42,0A54.3576,54.3576,0,0,1,52,95.12c-2.16.3-4.32.64-6.46,1.04-7.58,1.42-14.24,2.66-16,3.02a11.44,11.44,0,0,0-7.8,6l-.4,1.52c.58.46,20.26,10.5,48.3,10.5S117.44,107.14,118.04,106.68Z" style="fill:#3f77d1"/><path d="M69.7892,109.891a14.3481,14.3481,0,0,1-9.165-3.2959A56.8776,56.8776,0,0,1,47.4933,90.8168l2.6133-1.4727a53.8809,53.8809,0,0,0,12.4355,14.9443,11.3882,11.3882,0,0,0,14.502-.0039A53.5082,53.5082,0,0,0,89.4132,89.4427l2.6133,1.4746a56.5212,56.5212,0,0,1-13.0654,15.6748A14.3634,14.3634,0,0,1,69.7892,109.891Z" style="fill:#333"/><path d="M69.74,118.68c-29.5625,0-49.0967-10.7168-49.2324-10.8242a1.5,1.5,0,0,1-.5225-1.5429l1.0606-4.2a12.3106,12.3106,0,0,1,9.5478-9.501c8.8926-1.9766,26.08-5.4082,26.252-5.4424a1.5,1.5,0,0,1,.5878,2.9414c-.1728.0352-17.3281,3.46-26.2089,5.4336a9.3441,9.3441,0,0,0-7.2559,7.2412l-.7842,3.1074C27.298,107.8646,45.2365,115.68,69.74,115.68c24.8906,0,42.5547-7.82,46.5625-9.7773l-.7588-3.0625a9.358,9.358,0,0,0-7.25-7.291c-19.3594-4.2276-26.127-5.42-26.1924-5.4317a1.5,1.5,0,0,1,.5156-2.955c.0674.0117,6.8965,1.2148,26.3028,5.4521a12.3334,12.3334,0,0,1,9.5488,9.56l1.0273,4.1455a1.5,1.5,0,0,1-.4765,1.4961C117.9533,108.7357,97.6222,118.68,69.74,118.68Zm-48.3008-12h0Z" style="fill:#333"/><rect x="80.84" y="80.4798" width="3" height="12.5801" style="fill:#333"/><rect x="55.6398" y="82.5404" width="3" height="10.5195" style="fill:#333"/><path d="M55.54,72.64a8.52,8.52,0,0,0,.34-12,8.2786,8.2786,0,0,0-2.44-1.88h0a8.52,8.52,0,0,0-4,11.32,8.72,8.72,0,0,0,1.82,2.54h0a8.48,8.48,0,0,0-.3314,11.988l.0114.012.34.34a8.5,8.5,0,0,0-2.3,8.76,4.76,4.76,0,0,0,4.84,3.46,4.58,4.58,0,0,0,3.62-2.88,8.46,8.46,0,0,0-2-9.3h0a8.48,8.48,0,0,0,.3314-11.988L55.76,73c-.12-.12-.22-.24-.34-.34Z" style="fill:#333"/><path d="M52.56,95.06a10.72,10.72,0,0,1,1.8-10c-2-2.88-3.74-6-1-10.14a2.72,2.72,0,0,0,0-3,8.2993,8.2993,0,0,1-1.4-4.68,8.54,8.54,0,0,1,3.58-6.94,8.5625,8.5625,0,0,0-2.22-1.56,8.52,8.52,0,0,0-4,11.34,8.7611,8.7611,0,0,0,1.86,2.58,8.5,8.5,0,0,0-.34,12l.34.34a8.5,8.5,0,0,0-2,9.32,4.54,4.54,0,0,0,5.14,2.82A4.38,4.38,0,0,1,52.56,95.06Z" style="fill:#454749"/><path d="M53.31,98.7552a6.0334,6.0334,0,0,1-5.583-3.8623,9.8324,9.8324,0,0,1,1.4219-9.8818A10.0079,10.0079,0,0,1,49.1545,72.68a10.1323,10.1323,0,0,1-1.1885-1.915,10.0147,10.0147,0,0,1,4.707-13.3389,1.5,1.5,0,0,1,1.293,0,10.0015,10.0015,0,0,1,3.5576,15.2608,10.0055,10.0055,0,0,1,.25,12.0742.4972.4972,0,0,0,.0137.5576,10.0889,10.0889,0,0,1,1.1767,9.7344,6.0814,6.0814,0,0,1-5.1465,3.6816C53.6466,98.7484,53.4767,98.7552,53.31,98.7552Zm.0127-38.2715a7.0114,7.0114,0,0,0-2.6513,8.9844,7.134,7.134,0,0,0,1.5419,2.124,1.5,1.5,0,0,1-.0019,2.1768,7,7,0,0,0-.2656,9.8965c.0859.0908.1748.18.2656.2656a1.5,1.5,0,0,1-.0059,2.1836,6.8975,6.8975,0,0,0-1.7343,7.5664,3.1327,3.1327,0,0,0,3.1113,2.0635,3.0441,3.0441,0,0,0,2.6523-1.9375,7.0833,7.0833,0,0,0-.8808-6.7354,3.5226,3.5226,0,0,1-.0215-4.0537,7.008,7.008,0,0,0-.9092-9.2754,1.5,1.5,0,0,1,.33-2.4365,7.0408,7.0408,0,0,0,.0332-9.64A7.1427,7.1427,0,0,0,53.3224,60.4837Z" style="fill:#333"/><path d="M53.32,97.9a13.84,13.84,0,0,0-6.54,6.58,4,4,0,0,0,1.8132,5.3584q.0432.0213.0868.0416a4,4,0,0,0,1.72.4h5.86a4.0168,4.0168,0,0,0,3.7-5.54A13.76,13.76,0,0,0,53.32,97.9Z" style="fill:#333"/><path d="M50.26,107.92a13.74,13.74,0,0,1,6.54-6.48,13.677,13.677,0,0,1,1.8,1.06,14,14,0,0,0-5.16-4.56,13.84,13.84,0,0,0-6.54,6.58,4,4,0,0,0,1.8132,5.3584q.0432.0213.0868.0416a4,4,0,0,0,1.24.36A4.34,4.34,0,0,1,50.26,107.92Z" style="fill:#454749"/><path d="M50.3507,111.76a5.5212,5.5212,0,0,1-2.4355-.5742,5.4991,5.4991,0,0,1-2.4775-7.374,15.3524,15.3524,0,0,1,7.2353-7.2647,1.4838,1.4838,0,0,1,1.2324-.0283,13.9234,13.9234,0,0,1,7.4912,7.6934,5.735,5.735,0,0,1,.32,1.624,5.66,5.66,0,0,1-5.3868,5.9219L50.4,111.76Zm3.0049-12.1924a12.3766,12.3766,0,0,0-5.2187,5.5518,2.5014,2.5014,0,0,0,1.1133,3.38,2.5645,2.5645,0,0,0,1.1357.2607H56.26a2.6177,2.6177,0,0,0,1.7715-.8652,2.6509,2.6509,0,0,0,.69-1.917,2.6864,2.6864,0,0,0-.1407-.7344A10.8693,10.8693,0,0,0,53.3556,99.5677Z" style="fill:#333"/><path d="M55.92,100.34H50.78a2.5431,2.5431,0,0,1-2.54-2.54v-.62a2.5431,2.5431,0,0,1,2.54-2.54h5.14a2.5431,2.5431,0,0,1,2.54,2.54v.62A2.5431,2.5431,0,0,1,55.92,100.34Zm0-2.7h0Z" style="fill:#333"/><path d="M69.74,23.74c16.88,0,22,9.64,22,21v4.2c3.64,0,4.8,3.58,4.2,8.4-.5,4.1-2.1,8.4-6.3,8.4v3.14c0,6.3-5.02,9.14-10.88,15.24a10,10,0,0,1-9.08,3.66,10.1,10.1,0,0,1-9.08-3.66c-5.86-6.1-10.88-8.94-10.88-15.24V65.74c-4.2,0-5.8-4.3-6.3-8.4-.6-4.82.56-8.4,4.2-8.4v-4.2C47.7,33.44,52.86,23.74,69.74,23.74Z" style="fill:#efc8a5"/><path d="M96,57.44c.6-4.82-.56-8.4-4.2-8.4v-4.2c0-11.36-5.16-21-22-21a35.1945,35.1945,0,0,0-5.64.42V46.48a7.8,7.8,0,0,1-2.54,5.76.9.9,0,0,0,.4,1.54c2,.52,3.3,1.2,3.76,3.04a.98.98,0,0,0,1.54.58,3.5,3.5,0,0,1,1.16-.64.98.98,0,0,1,1.22.96v3.72c0,2,2,2.22,1.88,4a2,2,0,0,1-1.82,1.5c-1.72,0-1.46-.8-2.78-.8a1.22,1.22,0,0,0-1.34,1.22c2,0,2,1.3,4,1.3V76.8h0a.8.8,0,0,0,.62.76,3.26,3.26,0,0,1,2.42,2.84c0,1.28-.72,2.62-3.04,3.08s-5.14-2-6.14,0v3.04a10.28,10.28,0,0,0,6.22,1.32,10.1,10.1,0,0,0,9.08-3.66c5.86-6.1,10.88-8.94,10.88-15.24v-3.2C93.9,65.74,95.44,61.44,96,57.44Z" style="fill:#e6b790"/><path d="M69.64,71.0306a.65.65,0,0,1-.65-.65v-1.4a.65.65,0,0,1,1.3008,0v1.4A.65.65,0,0,1,69.64,71.0306Z" style="fill:#ddad8a"/><path d="M54.7,54.52a6.9588,6.9588,0,0,1,2.62-1.08,8.8806,8.8806,0,0,1,2.82,0,22.4235,22.4235,0,0,1,2.66.62,16.739,16.739,0,0,0,2.44.56h0a1.02,1.02,0,0,1-.22,2h-.14a18.2391,18.2391,0,0,1-2.64-1,23.7968,23.7968,0,0,0-2.4-.94,7.3188,7.3188,0,0,0-2.4-.32,3.82,3.82,0,0,0-2.3.76.36.36,0,1,1-.44-.56Z" style="fill:#333"/><path d="M83.88,55.1a3.64,3.64,0,0,0-2.3-.74,8,8,0,0,0-2.44.4,23.7968,23.7968,0,0,0-2.4.94,15.76,15.76,0,0,1-2.66.98,1.04,1.04,0,0,1-1.22-.76,1.02,1.02,0,0,1,.76-1.22h.16a14.52,14.52,0,0,0,2.42-.54,22.4188,22.4188,0,0,1,2.66-.72,8.8806,8.8806,0,0,1,2.82,0A7.159,7.159,0,0,1,84.3,54.5a.36.36,0,1,1-.42.58Z" style="fill:#333"/><path d="M63.44,75.4906a.6509.6509,0,0,1-.583-.9375l.56-1.1406a.65.65,0,0,1,1.1661.5742l-.5606,1.1406A.65.65,0,0,1,63.44,75.4906Z" style="fill:#ddad8a"/><path d="M76.381,75.4906a.6493.6493,0,0,1-.58-.3555l-.58-1.1406a.65.65,0,0,1,1.1582-.59l.58,1.1407a.6508.6508,0,0,1-.5781.9453Z" style="fill:#ddad8a"/><path d="M69.64,69.2709a4.4981,4.4981,0,0,1-2.291-.5694,3.2573,3.2573,0,0,0-1.709-.4306.65.65,0,0,1,0-1.3008,4.4983,4.4983,0,0,1,2.291.5693,3.606,3.606,0,0,0,3.418,0A4.4983,4.4983,0,0,1,73.64,66.97a.65.65,0,1,1,0,1.3008,3.2573,3.2573,0,0,0-1.709.4306A4.4981,4.4981,0,0,1,69.64,69.2709Z" style="fill:#c6916d"/><path d="M71.44,71.94a3.68,3.68,0,0,1-1.56.4c-.4,0-.44,0-1.36-.4-1.6-.64-1.7,1.32-4.66,2.4l1.84,1.88a4.3,4.3,0,0,0,3.1,1.12h2a5,5,0,0,0,3.34-1.2l1.72-1.8C73.08,73.32,73.06,71.3,71.44,71.94Z" style="fill:#ddab85"/><path d="M69.8957,75.0248l-.2041-.0684a6.4318,6.4318,0,0,0-3.8789-.2012,9.3344,9.3344,0,0,1-1.9131.2354.65.65,0,1,1,0-1.3008,8.2128,8.2128,0,0,0,1.66-.209,7.6424,7.6424,0,0,1,4.3438.1768,7.8277,7.8277,0,0,1,4.3486-.1729A8.1549,8.1549,0,0,0,75.9,73.69a.65.65,0,0,1,0,1.3008,9.28,9.28,0,0,1-1.8985-.2305,6.6192,6.6192,0,0,0-3.9013.1983Z" style="fill:#c6916d"/><ellipse cx="78.7" cy="58" rx="1.7" ry="1.2" style="fill:#333"/><ellipse cx="59.94" cy="58" rx="1.86" ry="1.2" style="fill:#333"/><path d="M68.6281,89.3548a11.8579,11.8579,0,0,1-9.1924-4.3593c-1.3437-1.3955-2.62-2.5938-3.8555-3.752C51.48,77.3968,48.24,74.3587,48.24,68.9V67.0775c-2.4229-.5371-5.4463-2.6416-6.29-9.5557-.4648-3.7382.09-6.623,1.6036-8.3369A5.0359,5.0359,0,0,1,46.14,47.62V44.74c.0361-10.2676,4.16-22.5,23.6006-22.5,19.4228,0,23.5,12.2354,23.5,22.5v2.88a5.0363,5.0363,0,0,1,2.5859,1.5654c1.5137,1.7149,2.0684,4.5987,1.6016,8.3408-.8428,6.91-3.8652,9.0147-6.2881,9.5518V68.9c0,5.4209-3.24,8.4345-7.3428,12.25-1.2734,1.1845-2.5888,2.4082-3.9677,3.8408a11.6471,11.6471,0,0,1-10.128,4.3164C69.3429,89.3392,68.9845,89.3548,68.6281,89.3548ZM69.74,25.24c-13.624,0-20.5547,6.5625-20.6006,19.5049V48.94a1.5,1.5,0,0,1-1.5,1.5,2.2727,2.2727,0,0,0-1.8369.7314c-.9024,1.0206-1.2207,3.2022-.875,5.9834.3945,3.2344,1.5488,7.085,4.8125,7.085a1.5,1.5,0,0,1,1.5,1.5V68.9c0,4.16,2.543,6.5449,6.3926,10.1552,1.2158,1.1416,2.5957,2.4346,4.0088,3.9063.0293.03.0566.0625.083.0947a8.8674,8.8674,0,0,0,7.8232,3.252,1.5723,1.5723,0,0,1,.3037,0,8.64,8.64,0,0,0,7.6738-3.24c.0293-.0371.0606-.0722.0928-.1064,1.4551-1.5147,2.8789-2.8389,4.1358-4.0078C85.6,75.3763,88.14,73.014,88.14,68.9V65.74a1.5,1.5,0,0,1,1.5-1.5c3.2627,0,4.417-3.8506,4.8105-7.081.3477-2.7852.0293-4.9668-.873-5.9874A2.2727,2.2727,0,0,0,91.74,50.44a1.5,1.5,0,0,1-1.5-1.5v-4.2C90.24,31.8,83.3429,25.24,69.74,25.24Z" style="fill:#333"/><path d="M69.74,19.44c-18,0-22.98,14.92-22.98,23.2,0,5.32,3.02,6.88,3.02,12.4,0-14.58,7.84-16.4,20-22.96,12.12,6.56,20,7.56,20,22.96,0-4.62,3.02-7.1,3.02-12.4C92.72,34.28,87.82,19.44,69.74,19.44Z" style="fill:#333"/><path d="M69.74,19.44c-18,0-22.98,14.92-22.98,23.18,0,7.24,3.02,9.1,3.02,14.64V52.84c16.42-.1,21.86-4.68,26-10a1.36,1.36,0,0,1,2.16,0c2.16,2.96,5.38,5.54,11.68,7.64v6.7c0-4.62,3.02-7.4,3.02-14.64C92.72,34.28,87.82,19.44,69.74,19.44Z" style="fill:#333"/><path d="M89.02,57.18a19.32,19.32,0,0,1,1.34-6.52,24.2208,24.2208,0,0,0,1.26-6,24.641,24.641,0,0,0-2.26-12,19.8,19.8,0,0,0-8-8.92,23.38,23.38,0,0,0-11.68-2.78A23.4993,23.4993,0,0,0,58.04,23.8a19.78,19.78,0,0,0-8,8.88,24.56,24.56,0,0,0-2.32,12,22.5581,22.5581,0,0,0,1.38,6,18,18,0,0,1,1.24,6.56h0a.7.7,0,0,1-1.38,0,16.4394,16.4394,0,0,0-1.48-6,23.0412,23.0412,0,0,1-1.74-6.44,26.82,26.82,0,0,1,2-13.18,22,22,0,0,1,8.88-10.38,24.62,24.62,0,0,1,13.12-3.36A24.86,24.86,0,0,1,82.82,21.3a22.14,22.14,0,0,1,8.62,10.3,26.78,26.78,0,0,1,2.1,13.16,25.999,25.999,0,0,1-1.66,6.46,18.5774,18.5774,0,0,0-1.58,6,.7.7,0,0,1-.7.68A.74.74,0,0,1,89.02,57.18Z" style="fill:#333"/><path d="M49.12,57.18l-.2-4.32a.82.82,0,0,1,.778-.86H49.8c2.56-.18,5.12-.32,7.62-.72a38.44,38.44,0,0,0,7.3-1.72,19.3186,19.3186,0,0,0,6.24-3.58,30.8992,30.8992,0,0,0,4.84-5.52h0a1.42,1.42,0,0,1,1.9872-.29l.0128.01a1.6619,1.6619,0,0,1,.4.44,16.62,16.62,0,0,0,4.9,5.52,29.1813,29.1813,0,0,0,6.86,3.5h0a.92.92,0,0,1,.6.9c0,2.24-.18,4.46-.28,6.7a.7.7,0,0,1-1.38,0c0-2.24-.22-4.46-.3-6.7l.84.9a30.8587,30.8587,0,0,1-7.62-3.3,18.7408,18.7408,0,0,1-6-6h2.44a25.8407,25.8407,0,0,1-5.32,6.18,22.0007,22.0007,0,0,1-7.3,3.82,49.2815,49.2815,0,0,1-15.76,1.62l.86-.88-.2,4.32a.68.68,0,0,1-1.34,0Z" style="fill:#333"/><path d="M46.42,47.44c16-11.38,31.7-11.12,47.7.78l.6-14.7a10.22,10.22,0,0,0-6.58-10L73.9,18.1a10.2,10.2,0,0,0-7.22,0L52.44,23.44a10.2,10.2,0,0,0-6.6,10Z" style="fill:#528bdd"/><path d="M53.86,42.9c13.44-6.56,26.76-4.8,40.26,5.24l.6-14.68a10.26,10.26,0,0,0-2.76-7.36L81.68,22.22a10.2,10.2,0,0,0-7.22,0L60.24,27.56a10.2,10.2,0,0,0-6.6,10Z" style="fill:#3f77d1"/><path d="M94.12,49.72a1.5,1.5,0,0,1-.8955-.2969c-15.462-11.499-30.4873-11.749-45.9356-.7607a1.5006,1.5006,0,0,1-2.3681-1.16l-.58-14a11.6726,11.6726,0,0,1,7.57-11.4668l14.2422-5.34a11.6954,11.6954,0,0,1,8.2763.0009L88.673,22.1175a11.7014,11.7014,0,0,1,7.5459,11.4678l-.6,14.6963A1.5,1.5,0,0,1,94.12,49.72Zm-24.39-12.0625q11.5254,0,23.0039,7.74l.4864-11.9394a8.7054,8.7054,0,0,0-5.6143-8.5362l-14.24-5.42a8.6926,8.6926,0,0,0-6.1563.001L52.966,24.8441a8.6815,8.6815,0,0,0-5.628,8.5293l.47,11.3154Q58.7268,37.6576,69.7306,37.6576Z" style="fill:#333"/><path d="M92.5,53.3a4,4,0,0,1-2.44-.78c-11.2-8.6-29.4-8.6-40.6,0a4.24,4.24,0,0,1-4.9,0,2.26,2.26,0,0,1-.64-3.08,2,2,0,0,1,.64-.64c16.9-12.98,33.5-12.98,50.4,0a2.26,2.26,0,0,1,.64,3.12,2,2,0,0,1-.64.64A4,4,0,0,1,92.5,53.3Z" style="fill:#b3bdc6"/><path d="M69.74,44.1c-10.62,0-19.84,3.5-24.76,8.68a4.26,4.26,0,0,0,4.46-.28c11.2-8.6,29.4-8.6,40.6,0a4,4,0,0,0,2.44.78,4.22,4.22,0,0,0,2-.52C89.62,47.6,80.36,44.1,69.74,44.1Z" style="fill:#9aa6af"/><path d="M92.6349,54.8021c-.0488,0-.0986,0-.1484-.0019A5.4628,5.4628,0,0,1,89.17,53.7269c-10.7139-8.2246-28.1065-8.2256-38.7969-.0176a5.7652,5.7652,0,0,1-6.68.0352,3.7383,3.7383,0,0,1-1.041-5.1074,3.503,3.503,0,0,1,1.0439-1.0655c17.3008-13.2587,34.8428-13.2578,52.1416.0118a3.7685,3.7685,0,0,1,1.0166,5.1591,3.4744,3.4744,0,0,1-1.1035,1.0918A5.4324,5.4324,0,0,1,92.6349,54.8021ZM92.5,51.8c.0449,0,.0908.0009.1367.0019a2.5185,2.5185,0,0,0,1.4531-.4639.6819.6819,0,0,0,.2363-.2109.77.77,0,0,0-.1963-1.0781c-.0283-.0186-.0566-.0391-.0839-.06-16.3418-12.5508-32.23-12.5508-48.5723,0-.0391.03-.08.0576-.1211.084a.4951.4951,0,0,0-.1592.1592.76.76,0,0,0,.209,1.0459,2.7558,2.7558,0,0,0,3.1914.0166c11.65-8.9473,30.6836-8.9453,42.3789.0351a2.4654,2.4654,0,0,0,1.502.47Z" style="fill:#333"/><circle cx="62.14" cy="31.5" r="1.94" style="fill:#4b9ae8"/><circle cx="69.74" cy="31.5" r="1.94" style="fill:#4b9ae8"/><circle cx="77.36" cy="31.5" r="1.94" style="fill:#4b9ae8"/></g></g></g></g></svg>