<svg xmlns="http://www.w3.org/2000/svg" viewBox="0 0 128 128"><title>mick-jagger</title><g id="mick-jagger"><path d="M117.4452,98.14a14.34,14.34,0,0,0-11.02-10.5c-6.6-1.56-19.14-1.32-42-1.32s-35.3-.2-42,1.36a14.34,14.34,0,0,0-11.02,10.5l-1.58,4.94s21.7,12.6,54.6,12.6,54.6-12.6,54.6-12.6Z" style="fill:#378ca4"/><path d="M104.7652,94.5h-80.74a10.32,10.32,0,0,0-6.58,2.28c-3.02,2.54-7.62,6.18-7.62,6.34a124.46,124.46,0,0,0,54.6,12.6,124.46,124.46,0,0,0,54.6-12.6l-7.6-6.24A10.52,10.52,0,0,0,104.7652,94.5Z" style="fill:#2e7a90"/><path d="M94.3052,44.54c-2.18-7.56-4-11.14-6.26-17.9-2.98-9.16-7.16-14-12.74-15.02a14.68,14.68,0,0,0-13.32,4.7s-10.16-12-19.38,5.14c-3.48,7.32-10.84,24.96-10,33.32.68,7.16,7.14,12,7.14,12a5.3,5.3,0,0,1-5.06,3.08,8.6,8.6,0,0,0,8.64,4.88,12.9,12.9,0,0,0,.8,8.86h40.64a12.9,12.9,0,0,0,.78-8.86c6.18.8,8.66-2,8.66-2a11.8393,11.8393,0,0,1-3.78-3.54A28.78,28.78,0,0,0,94.3052,44.54Z" style="fill:#6b4932"/><path d="M84.7266,85.0205a1.5014,1.5014,0,0,1-1.4385-1.9292,38.4283,38.4283,0,0,0,1.4433-7.5068l.1563-1.7227,1.6826.398c4.6875,1.11,6.4863-1.7749,6.5606-1.898a1.5,1.5,0,0,1,2.5976,1.5005,8.2907,8.2907,0,0,1-8.1865,3.6016,41.4873,41.4873,0,0,1-1.3789,6.4848A1.5011,1.5011,0,0,1,84.7266,85.0205Z" style="fill:#333"/><path d="M49.8252,73.76v8.4c0,12.58,5.48,13.14,14.64,23.06,9.18-10,14.66-10.48,14.66-23.06v-8.4Z" style="fill:#edccc3"/><path d="M79.0252,82.16v-8.4h-29.2v2l21.4,23.2C76.2052,93.36,79.0252,91.18,79.0252,82.16Z" style="fill:#e5c4bd"/><path d="M64.4252,82.12c2.6,0,7.26.9,10.56-3.48,4.46-6,9.04-4.58,9.24-17.1a7.04,7.04,0,0,0,6.66-6.26c.6-3.78,1-7.16-1.1-8.96-1.58-1.48-2.28-1.58-3.58-1.1,0,0,.2-5.76.2-8.34,0-11.04-5.52-20-22-20s-22,9.14-22,20.18c0,2.58.2,8.34.2,8.34-1.3-.48-2-.38-3.58,1.1-2,1.8-1.6,5.18-1.1,8.96a7.04,7.04,0,0,0,6.66,6.26c.2,12.42,4.68,10.94,9.24,17.1C57.1252,83.02,61.8252,82.12,64.4252,82.12Z" style="fill:#edccc3"/><path d="M89.8252,46.32c-1.58-1.48-2.28-1.58-3.58-1.1,0,0,.2-5.76.2-8.34,0-11.04-5.52-20-22-20a34.1917,34.1917,0,0,0-6.54.6v25.2c-.1,1.52-.94,1.82-2.14,2.6a.58.58,0,0,0,.22,1.04c2,.4,4.84,1.18,6,3.06a.4.4,0,0,0,.5655.0145l.0145-.0145c1.04-1.2,2-.9,2-.24v7.9s1.02.1,1.24,1.66c.18,1.2,0,2-1.24,2-1.62,0-2.48-1.14-4.68-1.14-1.3,0-.72,2-.76,2,.76,0,1.44-.62,2-.26a6.82,6.82,0,0,0,3.3.86v6.62a3.1359,3.1359,0,0,0,.1.6h-7.7l1.52,3.48a2.14,2.14,0,0,0,2.38,1.28,20.3724,20.3724,0,0,1,3.7-.32,21.7341,21.7341,0,0,1,4,.34h.24a4.2425,4.2425,0,0,1,.24,1.44c0,6-10.84-.58-10.88,6v.22a19.5212,19.5212,0,0,0,6.44.42c2.6,0,7.26.9,10.56-3.48,4.46-6,9.04-4.58,9.24-17.1a7.04,7.04,0,0,0,6.66-6.26C91.4852,51.5,91.8252,48.12,89.8252,46.32Z" style="fill:#e5c2ba"/><path d="M58.3852,59.52a5.44,5.44,0,0,0-2.76,1.2,7.06,7.06,0,0,0-2.66,4.68h0a13.52,13.52,0,0,0-4.94-7.28,7.28,7.28,0,0,1-3-6.5v-2a6,6,0,0,0-2.16-4.34l-.24-.12h0c-1.3-.48-2-.38-3.58,1.1-2,1.8-1.6,5.18-1.1,8.96a7.04,7.04,0,0,0,6.66,6.26c.2,12.42,4.68,10.94,9.24,17.1a8.68,8.68,0,0,0,1.66,1.66c-1.02-2.66-2.86-8.54-1.34-13.54a18.2776,18.2776,0,0,1,1.38-2.98,19.2757,19.2757,0,0,1,2.98-4.2h-.14Z" style="fill:#e5c2ba"/><path d="M70.5652,59.52a5.3,5.3,0,0,1,2.74,1.2,7.5588,7.5588,0,0,1,1.84,2.16,7.7806,7.7806,0,0,1,.82,2.52h0a13.66,13.66,0,0,1,4.92-7.28,7.28,7.28,0,0,0,2.94-6.5v-2a6,6,0,0,1,2.16-4.34,1.4971,1.4971,0,0,0,.26-.12h0c1.3-.48,2-.38,3.58,1.1,2,1.8,1.6,5.18,1.1,8.96a7.04,7.04,0,0,1-6.66,6.26c-.2,12.42-4.68,10.94-9.24,17.1a9.224,9.224,0,0,1-1.64,1.66c1.02-2.66,2.84-8.54,1.34-13.54a22.3993,22.3993,0,0,0-1.38-2.98,20.7363,20.7363,0,0,0-2.98-4.2h.2Z" style="fill:#ddb9b3"/><path d="M64.3848,65.38a1,1,0,0,1-1-1v-1.4a1,1,0,0,1,2,0v1.4A1,1,0,0,1,64.3848,65.38Z" style="fill:#d8b3ad"/><path d="M64.4648,63.4507a5.06,5.06,0,0,1-2.7734-.9087,1.94,1.94,0,0,0-2.2324-.2852.7914.7914,0,0,1-.669-1.4345,3.4754,3.4754,0,0,1,3.7159.3628,3.1511,3.1511,0,0,0,3.9179.0014,3.5055,3.5055,0,0,1,3.7334-.3652.7913.7913,0,0,1-.664,1.4365,1.9686,1.9686,0,0,0-2.2569.2866A5.0664,5.0664,0,0,1,64.4648,63.4507Z" style="fill:#b58985"/><path d="M89.8252,46.32c-1.58-1.48-2.28-1.58-3.58-1.1,0,0,.2-5.76.2-8.34,0-11.04-5.52-20-22-20s-22,9.14-22,20.18c0,2.58.2,8.34.2,8.34-1.3-.48-2-.38-3.58,1.1-1.9,1.7-1.64,4.84-1.18,8.4h0c11.14-5.48,14.52-6.28,16-22,.3-2.68,2.9-3.88,5.68-4a35.6569,35.6569,0,0,1,5.66-.1,4.34,4.34,0,0,1,3.88,3.38c1.1,5.08,2.38,11.54,9.74,15.22,9.26,4.68,8.86,8,10.74,10.54a3.1978,3.1978,0,0,0,.26.3,7.2808,7.2808,0,0,0,.98-2.84C91.4852,51.5,91.8252,48.12,89.8252,46.32Z" style="fill:#e5c2ba"/><path d="M89.8252,46.32c-1.58-1.48-2.28-1.58-3.58-1.1,0,0,.2-5.76.2-8.34,0-11.04-5.52-20-22-20a23.0789,23.0789,0,0,0-3.38.16h-.24a15.5468,15.5468,0,0,0-2.94.42V29.1a9.8623,9.8623,0,0,1,1.74-.24,35.6569,35.6569,0,0,1,5.66-.1,4.34,4.34,0,0,1,3.88,3.38c1.1,5.08,2.38,11.54,9.74,15.22,9.26,4.68,8.86,8,10.74,10.54a3.1978,3.1978,0,0,0,.26.3h0a6.8206,6.8206,0,0,0,.6-1.28v-.1a7.0623,7.0623,0,0,0,.34-1.46C91.4852,51.5,91.8252,48.12,89.8252,46.32Z" style="fill:#ddb9b3"/><path d="M59.5852,50.06c-.96-.24-1.88-.5-2.8-.7a17.9954,17.9954,0,0,0-2.72-.46,16.3192,16.3192,0,0,0-2.7-.4,6.1192,6.1192,0,0,0-2.56.44h0a.46.46,0,0,1-.6171-.2058.4679.4679,0,0,1-.0229-.0542.5.5,0,0,1,.12-.54,5.9988,5.9988,0,0,1,2.98-1.3,9.8765,9.8765,0,0,1,3.16,0,11.9978,11.9978,0,0,1,2.96.92,17.8761,17.8761,0,0,1,2.64,1.48.48.48,0,0,1,.13.6663l-.0095.0137A.48.48,0,0,1,59.5852,50.06Z" style="fill:#333"/><path d="M44.5852,52.44l-.16-5.14a20.5736,20.5736,0,0,1,0-2.72,14.1764,14.1764,0,0,1,.56-2.74,19.1829,19.1829,0,0,0,.84-4.76V33.34a7.6528,7.6528,0,0,1,.1-1.52,9.2593,9.2593,0,0,1,2.8-5.4,14.9384,14.9384,0,0,1,4.9-3.08,29.8186,29.8186,0,0,1,10.74-2,28.3,28.3,0,0,1,10.76,2,15.38,15.38,0,0,1,4.9,2.98,9.62,9.62,0,0,1,2.8,5.44,9.6417,9.6417,0,0,1,0,1.52v3.74a19.1968,19.1968,0,0,0,.86,4.76,15.8174,15.8174,0,0,1,.74,2.74,20.5736,20.5736,0,0,1,0,2.72l-.22,5.14a.9.9,0,0,1-.9382.86h-.0018a.92.92,0,0,1-.88-.86l-.22-5.14a12.4416,12.4416,0,0,0-.78-4.68,21.7016,21.7016,0,0,1-1.26-5.26c-.12-.9-.18-1.78-.22-2.66v-1.3a4.48,4.48,0,0,0-.08-1.02,8.18,8.18,0,0,0-6-5.54,30.9586,30.9586,0,0,0-9.36-1.5,29.4969,29.4969,0,0,0-9.42,1.42,8.18,8.18,0,0,0-5.92,5.62,8.6682,8.6682,0,0,0-.14,1.04v1.3a12.001,12.001,0,0,1-.2,2.66,23.722,23.722,0,0,1-1.26,5.26,12,12,0,0,0-.82,4.68l-.28,5.14a.9.9,0,0,1-.9382.86h-.0018a.9.9,0,0,1-.9-.86Z" style="fill:#333"/><path d="M61.6494,83.6992c-2.7119,0-6.2851-.4922-9.0039-3.9526a21.8264,21.8264,0,0,0-3.78-3.8633c-2.8759-2.4453-5.3789-4.5728-5.7422-12.8442a8.4987,8.4987,0,0,1-6.6894-7.4146c-.51-3.854-1.041-7.873,1.5889-10.24a5.4457,5.4457,0,0,1,3.0254-1.7183c-.06-1.918-.1426-4.9121-.1426-6.6069,0-13.9805,8.3457-21.68,23.5-21.68s23.5,7.6357,23.5,21.5c0,1.6953-.083,4.69-.1426,6.6074a5.5109,5.5109,0,0,1,3.0478,1.7378c2.8086,2.4053,2.1143,6.7773,1.5557,10.29a8.4607,8.4607,0,0,1-6.6787,7.3438c-.3652,8.3745-2.9043,10.5107-5.8232,12.9648a20.9761,20.9761,0,0,0-3.6748,3.711c-3.335,4.4257-7.9268,4.2314-10.6729,4.1176-.7969-.0332-1.4131-.0317-2.2178.0015C62.8027,83.6753,62.2471,83.6992,61.6494,83.6992Zm-20.17-37.05c-.332,0-.6631.2285-1.4287.9458-1.4776,1.33-1.0508,4.5523-.6387,7.6685a5.5256,5.5256,0,0,0,5.2451,4.9585,1.4993,1.4993,0,0,1,1.4278,1.4736c.1289,7.9961,1.957,9.55,4.7236,11.9024a24.6288,24.6288,0,0,1,4.2226,4.3295c2.3409,2.98,5.5567,2.8394,8.1387,2.73.8955-.039,1.58-.04,2.4737-.0019,2.5712.1089,5.7636.2422,8.1435-2.9175a23.7833,23.7833,0,0,1,4.1465-4.21c2.707-2.2758,4.6631-3.92,4.792-12.0117a1.5,1.5,0,0,1,1.4287-1.4741,5.5136,5.5136,0,0,0,5.2393-4.9258c.5507-3.4785.88-6.4013-.585-7.6572-1.2285-1.1489-1.375-1.0918-2.084-.8315a1.5,1.5,0,0,1-2.0185-1.46c.0019-.0571.1992-5.7632.1992-8.2876,0-12.2759-6.8975-18.5-20.5-18.5s-20.5,6.2847-20.5,18.68c0,2.5244.1972,8.2309.1992,8.2881a1.5,1.5,0,0,1-2.0186,1.4594A1.8276,1.8276,0,0,0,41.48,46.6489Z" style="fill:#333"/><path d="M94.7052,63.92a35.64,35.64,0,0,0-.4-19.38c-2.18-7.56-4-11.14-6.26-17.9-2.98-9.16-7.16-14-12.74-15.02a14.68,14.68,0,0,0-13.32,4.7s-10.16-12-19.38,5.14c-3.48,7.16-10.64,24.46-10,32.92l1.48,5.94,1.74-2.76c3.38-8.36,12.92-4.78,15.3-22,1.1-8.14,5.78-9.64,12.24-9.84,0,0,8.54-.7,10,9.64,1.88,14.32,19.38,10,18.2,29.84Z" style="fill:#6b4932"/><path d="M60.9252,25.48a9.86,9.86,0,0,1,6.9.58,11.48,11.48,0,0,1,5.16,5.06,20.34,20.34,0,0,1,1.4,3.34,24.9153,24.9153,0,0,0,1.08,3.06,16.4207,16.4207,0,0,0,3.54,5.04c2.94,2.94,7.36,4.9,10.34,8.98a14.8387,14.8387,0,0,1,1.72,3.24,15.6,15.6,0,0,1,.76,3.54,21.0592,21.0592,0,0,1-.36,6.92c-.36-4.54-1.28-9.06-4-12.18s-7-4.88-10.52-8.34a16.5,16.5,0,0,1-4-6.14,28.0012,28.0012,0,0,1-.98-3.42,15.5631,15.5631,0,0,0-.94-3.02,10.8,10.8,0,0,0-3.84-4.86A10.56,10.56,0,0,0,60.9252,25.48Z" style="fill:#333"/><path d="M59.1052,14.32a11.5,11.5,0,0,0-4.98-2c-3.48,0-7.64,1.78-11.62,9.24-3.48,7.06-10.68,24.36-10,32.76l1.32,5.42c1.4-13.82,8.16-31.12,10.94-36.78C49.9652,13.7,55.3252,13.12,59.1052,14.32Z" style="fill:#826149"/><rect x="77.5654" y="73.7598" width="3" height="14.6201" style="fill:#333"/><path d="M62.7852,16a3.8,3.8,0,0,0,4.28,0,14.42,14.42,0,0,1,11.24-2.78,7.9972,7.9972,0,0,1,2.12.68,12.2,12.2,0,0,0-6.36-3.38A14.7,14.7,0,0,0,60.9252,15C61.5852,15.3,62.1852,15.7,62.7852,16Z" style="fill:#826149"/><path d="M39.7441,68.08a1.4951,1.4951,0,0,1-.8984-.2993c-.2852-.2139-7-5.3272-7.7334-13.0591-1.0107-10.7012,10.0293-33.877,10.1406-34.11,3.3526-6.23,7.2393-9.5869,11.585-10.04,5.8447-.6055,10.1142,4.3486,10.293,4.56a1.5,1.5,0,0,1-2.2881,1.9395h0c-.0342-.04-3.4414-3.9648-7.7129-3.5137-3.291.3521-6.3877,3.1831-9.2041,8.4136-4.1446,8.65-10.5147,25.186-9.8272,32.4678.61,6.4243,6.4864,10.896,6.5459,10.94a1.5,1.5,0,0,1-.9,2.7007Z" style="fill:#333"/><circle cx="55.2052" cy="51.7598" r="1.5" style="fill:#3a3a3a"/><path d="M68.9852,49.18a17.871,17.871,0,0,1,2.64-1.48,11.9991,11.9991,0,0,1,2.98-.92,9.7811,9.7811,0,0,1,3.14,0,6,6,0,0,1,2.98,1.3.48.48,0,0,1,.0012.6788l-.0012.0012a.5.5,0,0,1-.56.12h0a6,6,0,0,0-2.56-.44,16.6266,16.6266,0,0,0-2.7.4,18.39,18.39,0,0,0-2.72.46c-.92.2-1.84.46-2.8.7a.5.5,0,0,1-.6-.34A.54.54,0,0,1,68.9852,49.18Z" style="fill:#333"/><circle cx="73.7652" cy="51.7598" r="1.5" style="fill:#3a3a3a"/><path d="M90.4248,70.7a1.5,1.5,0,0,1-1.0254-2.5942h0c.3584-.3389,8.7315-8.4717,3.4922-23.2857-1.002-2.8969-1.8271-5.2173-2.5937-7.375C89.07,33.99,88.01,31.0063,86.62,26.79c-2.7685-8.5132-6.5576-13.0953-11.584-14.0142a13.1046,13.1046,0,0,0-11.9345,4.206,1.5,1.5,0,1,1-2.2325-2.0029A16.1147,16.1147,0,0,1,75.55,9.82c6.2363,1.14,10.7822,6.3838,13.9219,16.0362,1.3769,4.1782,2.4316,7.1469,3.6533,10.5839.7695,2.1651,1.5967,4.4927,2.5986,7.39,5.9151,16.7251-3.8574,26.0781-4.2763,26.4683A1.4984,1.4984,0,0,1,90.4248,70.7Z" style="fill:#333"/><path d="M44.0059,84.22a1.5,1.5,0,0,1-1.378-.9062,14.1593,14.1593,0,0,1-1.0429-7.3384,10.7482,10.7482,0,0,1-8.462-5.3706,1.5,1.5,0,0,1,2.6036-1.49,7.7515,7.7515,0,0,0,7.5224,3.8536l2.1709-.2271-.5664,2.1079a11.15,11.15,0,0,0,.5283,7.2764A1.5,1.5,0,0,1,44.0059,84.22Z" style="fill:#333"/><path d="M42.0652,64.32a5.78,5.78,0,0,1-2.12,4.64,11.6809,11.6809,0,0,1-4.92,2.34h0a1.5329,1.5329,0,0,1-.72-2.98h.46a9.26,9.26,0,0,0,4.36-.6A5,5,0,0,0,42.0652,64.32Z" style="fill:#333"/><path d="M87.8252,66.32a5.2,5.2,0,0,0,2.58,3.8,11.1612,11.1612,0,0,0,4.34,1.52,1.52,1.52,0,0,1-.48,3l-.44-.32h0a13.6588,13.6588,0,0,1-4.42-3.26A6,6,0,0,1,87.8252,66.32Z" style="fill:#333"/><path d="M64.4248,117.22C31.5,117.22,9.9727,104.94,9.0723,104.417a1.4994,1.4994,0,0,1-.6768-1.751l1.58-4.98A17.0157,17.0157,0,0,1,22.06,86.1846c1.8027-.45,16.2851-1.3965,19.17-1.5821l.1914,2.9942c-6.5742.4219-17.4463,1.2016-18.6328,1.498a14.009,14.009,0,0,0-9.9473,9.48l-1.21,3.8125c4.6982,2.4273,24.72,11.8325,52.7939,11.8325,28.1191,0,48.1045-9.4033,52.7949-11.8315l-1.2041-3.7949a14.0164,14.0164,0,0,0-9.956-9.4986c-.9756-.2417-5.9991-.5581-10.0362-.8125-4.88-.3076-7.917-.5068-8.8388-.7217l.6816-2.9218c.7256.1694,4.95.4355,8.3457.6494,5.6367.355,9.417.6094,10.5733.8955a17.0265,17.0265,0,0,1,12.0957,11.521l1.5742,4.9614a1.4994,1.4994,0,0,1-.6768,1.751C118.8779,104.94,97.3506,117.22,64.4248,117.22Z" style="fill:#333"/><rect x="62.9248" y="103.1196" width="3" height="12.6001" style="fill:#333"/><path d="M41.3252,86.1v17.02l14.7-6.34c-6.32-6.3-6.2-8.62-6.2-17.02Z" style="fill:#378ca4"/><path d="M87.5252,86.1v17.02l-14.76-6.34c6.34-6.3,6.36-8.62,6.36-17.02Z" style="fill:#378ca4"/><path d="M64.3652,106.72a1.4947,1.4947,0,0,1-1.0312-.4106c-.8594-.8135-1.6758-1.58-2.4512-2.3067-2.1094-1.977-3.9414-3.6958-5.51-5.3359L41.7969,104.498a1.5,1.5,0,0,1-2.0918-1.3784V86.1a1.5018,1.5018,0,0,1,.6-1.2l8.4-6.3a1.5,1.5,0,0,1,2.4,1.2c0,10.9233,3.2207,13.9429,11.8291,22.0142q.6944.65,1.4316,1.3442.71-.6679,1.3809-1.2939C74.3906,93.772,77.625,90.7441,77.625,79.8a1.5,1.5,0,0,1,2.4-1.2l8.4,6.3a1.5021,1.5021,0,0,1,.6,1.2v16.98a1.5,1.5,0,0,1-2.0908,1.3789L73.3818,98.65c-1.5859,1.6606-3.4443,3.4-5.5849,5.4038-.7608.7124-1.5606,1.4614-2.4014,2.2559A1.4979,1.4979,0,0,1,64.3652,106.72Zm-21.66-19.87v13.9932l10.5635-4.5371c-3.0469-3.7276-4.6944-7.5025-5.0762-13.5713Zm32.7783,9.4375,10.542,4.5176V86.85l-5.4873-4.1152C80.1572,88.7891,78.5156,92.5669,75.4834,96.2871Z" style="fill:#333"/><rect x="48.165" y="73.7197" width="3" height="8.4399" style="fill:#333"/><path d="M66.4852,66.32c-.68,0-1.3.42-2,.44s-.52-.22-1.74-.44c-2.16-.4-4.44,2.2-6,2.62l2.32,2a5.88,5.88,0,0,0,3.74,1.5h2.58a8.16,8.16,0,0,0,4.62-1.5l2.18-2C69.0252,67.88,69.0252,66.04,66.4852,66.32Z" style="fill:#d8b3ad"/><path d="M56.8252,70.93a.75.75,0,0,1-.75-.75V68.5a.75.75,0,0,1,1.5,0v1.68A.75.75,0,0,1,56.8252,70.93Z" style="fill:#d8b3ad"/><path d="M71.8252,70.93a.75.75,0,0,1-.75-.75V68.5a.75.75,0,0,1,1.5,0v1.68A.75.75,0,0,1,71.8252,70.93Z" style="fill:#d8b3ad"/><path d="M71.8252,69.98a8.8764,8.8764,0,0,1-2.5859-.4151A7.63,7.63,0,0,0,67.0254,69.2a15.4109,15.4109,0,0,0-2.458.3076l-.1211.0254-.1221-.0249a15.6987,15.6987,0,0,0-2.5234-.3086,8.98,8.98,0,0,0-2.1856.3267,11.2164,11.2164,0,0,1-2.83.394.6.6,0,0,1,0-1.2,10.0732,10.0732,0,0,0,2.5517-.3613A10.1035,10.1035,0,0,1,61.8252,68a16.935,16.935,0,0,1,2.6191.3081A16.6263,16.6263,0,0,1,67,68h.0039a8.7422,8.7422,0,0,1,2.5557.4087,7.78,7.78,0,0,0,2.2656.3711.6.6,0,0,1,0,1.2Z" style="fill:#af8582"/><path d="M56.0052,26.84a22,22,0,0,1,9.82-3.8,11.0186,11.0186,0,0,1,5.66.9,13.1989,13.1989,0,0,1,4.34,3.68c2.22,2.94,3.62,6,5.52,8.68a17.44,17.44,0,0,0,7.58,6.18,13.68,13.68,0,0,1-9.4-4.7c-2.48-2.66-4-5.82-6-8.3a10.9407,10.9407,0,0,0-3.32-3,9.5986,9.5986,0,0,0-4.38-1.1A38.8967,38.8967,0,0,0,56.0052,26.84Z" style="fill:#333"/><path d="M68.7452,27.74a36.7785,36.7785,0,0,0-9.78-.76,9.12,9.12,0,0,0-7.14,4.6c-1.68,2.58-2.76,5.8-4.54,8.82a14.9212,14.9212,0,0,1-3.4,4.12,8.38,8.38,0,0,1-4.88,1.88,12,12,0,0,0,6.18-7.06,63.9963,63.9963,0,0,1,4.12-9.38,11.9985,11.9985,0,0,1,4-4,10.64,10.64,0,0,1,5.48-1.34A20.68,20.68,0,0,1,68.7452,27.74Z" style="fill:#333"/><path d="M35.8252,57.56a10.32,10.32,0,0,1,2.8-5.1c1.42-1.4,2.98-2.5,4.26-3.72a21.781,21.781,0,0,0,5.42-8.98c.66-1.7,1.1-3.42,1.64-5.28a19.36,19.36,0,0,1,2.44-5.48,7.66,7.66,0,0,1,5.18-3.44,19.9987,19.9987,0,0,1,5.8.16,33.9967,33.9967,0,0,0-5.42,1.26,6.28,6.28,0,0,0-3.62,3.34,20.72,20.72,0,0,0-1.68,5,56.8485,56.8485,0,0,1-1.56,5.56,27.0231,27.0231,0,0,1-2.6,5.36,17,17,0,0,1-4.14,4.4c-1.6,1.22-3.32,2-4.8,3.04A12.38,12.38,0,0,0,35.8252,57.56Z" style="fill:#333"/></g></svg>