<svg xmlns="http://www.w3.org/2000/svg" viewBox="0 0 128 128"><title>barack-obama</title><g id="barack-obama"><path d="M115.92,100.9a12.72,12.72,0,0,0-9.38-9.86C96.42,88.52,76.96,83.6,76.96,83.6V74.14l-27.22.32v9.12L20.1,91.04a12.72,12.72,0,0,0-9.38,9.86l-.62,4.2.22.12a131.0007,131.0007,0,0,0,53.04,11.14,130.9607,130.9607,0,0,0,53.02-11.12h0Z" style="fill:#a98265"/><path d="M115.92,100.9a12.72,12.72,0,0,0-9.38-9.86l-9.8-2.44A135.84,135.84,0,0,0,75,85a29.4592,29.4592,0,0,1-9.56,6.54h-4.4a32.5411,32.5411,0,0,1-9.52-6.52A135.63,135.63,0,0,0,29.98,88.6L20.1,91.04a12.72,12.72,0,0,0-9.38,9.86l-.62,4.2.22.12a131.0007,131.0007,0,0,0,53.04,11.14,130.9607,130.9607,0,0,0,53.02-11.12h0Z" style="fill:#485668"/><path d="M106.54,96.78l-9.8-2.44a137.458,137.458,0,0,0-28.8-4c-.78.42-1.62.84-2.5,1.22H61.06c-.84-.4-1.64-.82-2.38-1.22a137.6389,137.6389,0,0,0-28.7,4L20.1,96.78a12.72,12.72,0,0,0-9.1,8.78,131.22,131.22,0,0,0,52.28,10.8,131.2208,131.2208,0,0,0,52.28-10.8A12.72,12.72,0,0,0,106.54,96.78Z" style="fill:#3b485b"/><path d="M63.36,116.36q4.88,0,9.66-.36c-5.7-17.36-4.82-14.72-5.6-17.04l3.12-4.14a2.44,2.44,0,0,0,0-2.88A2.58,2.58,0,0,0,68.4,90.9H61.92a2.44,2.44,0,0,0-2.28,1.56,2.6,2.6,0,0,0,.4,2.46l3,4-6,17.28C59.16,116.3,61.24,116.36,63.36,116.36Z" style="fill:#d1d0bd"/><path d="M75,85a29.4592,29.4592,0,0,1-9.56,6.54h-4.4a33.04,33.04,0,0,1-9.5-6.5c-2.22.18-4.46.42-6.66.72.38,13.42,2.16,22,5.84,30h0c4,.38,8.44.6,12.62.6h0c4,0,8.24-.2,12.48-.6h0c3.68-7.88,5.46-16.56,5.86-30C79.26,85.4,77.02,85.16,75,85Z" style="fill:#eee"/><rect x="48.2601" y="74.4798" width="3" height="9.1202" transform="translate(-0.3465 0.2192) rotate(-0.2515)" style="fill:#333"/><rect x="75.4599" y="74.1595" width="3" height="9.4404" style="fill:#333"/><path d="M74.96,103.1l1.28,1.7a1.12,1.12,0,0,0,.4.28,1,1,0,0,0,1.3-.54L82.34,87Z" style="fill:#d1d0bd"/><g id="_Path_2" data-name=" Path 2"><path d="M61.04,91.54l-9.06,11.72s.38.64.8,1.44c.68,1.26,1.46.34,1.48.32,1.12-1.48,9.02-12.62,9.02-12.62Z" style="fill:#d1d0bd"/></g><g id="_Path_3" data-name=" Path 3"><path d="M57.02,94.88l4.56,6a2,2,0,0,0,2.7792.5254q.0727-.05.1408-.1054a2,2,0,0,0,.4-.42l4.66-6a2,2,0,0,0-.295-2.813q-.07-.0567-.145-.107a2,2,0,0,0-1.22-.4H58.74a2,2,0,0,0-1.72,3.32Z" style="fill:#2f62ab"/><path d="M63.2367,103.2513a3.4973,3.4973,0,0,1-2.8955-1.5254L55.8568,95.83a3.5,3.5,0,0,1,2.958-5.77H67.9a3.4927,3.4927,0,0,1,2.12.7c.0156.0078.0972.0684.1763.1309a3.5,3.5,0,0,1,.5293,4.9336L66.0844,101.8a3.3251,3.3251,0,0,1-.6592.6806c-.0537.044-.1338.1045-.2168.1612A3.4877,3.4877,0,0,1,63.2367,103.2513ZM58.51,93.0462a.5005.5005,0,0,0-.3721.834l.0762.0928,4.56,6a.5263.5263,0,0,0,.74.1934.6954.6954,0,0,0,.16-.1524L68.3754,93.96a.5266.5266,0,0,0,.1279-.3916.4973.4973,0,0,0-.1826-.3359l-.1006-.0723a.5858.5858,0,0,0-.3071-.1006l-9.3452-.01A.5691.5691,0,0,0,58.51,93.0462Z" style="fill:#333"/></g><path d="M56.22,116.14q3.54.18,7.14.18t7.08-.18l-6-15.26H62.1Z" style="fill:#2f62ab"/><path d="M63.36,117.82c-2.42,0-4.8482-.0615-7.2159-.1817l-2.0678-.1054L61.0707,99.38h4.3911l7.1362,18.15-2.0805.1074C68.1889,117.7582,65.7807,117.82,63.36,117.82Zm-4.9893-3.0879c3.2866.1172,6.6558.1162,9.9043.001L63.4179,102.38h-.2886Z" style="fill:#333"/><g id="_Path_8" data-name=" Path 8"><path d="M47.08,79.24l-2.84,7.8,7.5,16.52,9.32-12A29.9994,29.9994,0,0,1,47.08,79.24Z" style="fill:#eee"/><path d="M51.74,105.06a1.3272,1.3272,0,0,1-.1753-.0107,1.4979,1.4979,0,0,1-1.19-.8692l-7.5-16.52a1.4976,1.4976,0,0,1-.0439-1.1328l2.84-7.8008a1.5,1.5,0,0,1,2.7017-.249A28.3171,28.3171,0,0,0,61.6532,90.182a1.5,1.5,0,0,1,.5913,2.2978l-9.32,12A1.5007,1.5007,0,0,1,51.74,105.06Zm-5.8808-18.082,6.22,13.7,6.6436-8.5537a31.2049,31.2049,0,0,1-11.2559-9.5625Z" style="fill:#333"/></g><g id="_Path_9" data-name=" Path 9"><path d="M51.7,105.06a1.3272,1.3272,0,0,1-.1753-.0107,1.4978,1.4978,0,0,1-1.19-.8692l-7.5-16.52a1.4981,1.4981,0,0,1-.044-1.1328l2.84-7.8008a1.5,1.5,0,0,1,2.7041-.2451A28.27,28.27,0,0,0,61.6249,90.16a1.5011,1.5011,0,0,1,.5278,2.3877L52.8847,104.48A1.5008,1.5008,0,0,1,51.7,105.06Zm-5.8809-18.082,6.22,13.7,6.6552-8.5694a31.3659,31.3659,0,0,1-11.268-9.5449Z" style="fill:#333"/></g><g id="_Path_10" data-name=" Path 10"><path d="M79.5,79.24,82.34,87l-7.58,16.54-9.32-12A30,30,0,0,0,79.5,79.24Z" style="fill:#eee"/><path d="M74.76,105.04a1.5007,1.5007,0,0,1-1.1846-.58l-9.32-12a1.5,1.5,0,0,1,.5971-2.3A28.3161,28.3161,0,0,0,78.21,78.474a1.5,1.5,0,0,1,2.6987.25l2.84,7.7607a1.5014,1.5014,0,0,1-.0449,1.1407l-7.58,16.54a1.5015,1.5015,0,0,1-1.1914.8652A1.4484,1.4484,0,0,1,74.76,105.04Zm-6.9781-12.93,6.645,8.5557,6.2925-13.73-1.6064-4.3887A31.2028,31.2028,0,0,1,67.7821,92.1107Z" style="fill:#333"/></g><g id="_Path_12" data-name=" Path 12"><path d="M74.7,105.06a1.5008,1.5008,0,0,1-1.1846-.58l-9.32-12a1.4994,1.4994,0,0,1,.2647-2.1044,1.4779,1.4779,0,0,1,.5791-.2764A28.3036,28.3036,0,0,0,78.1479,78.4769a1.5,1.5,0,0,1,2.7006.2471l2.84,7.7607a1.4993,1.4993,0,0,1-.045,1.14l-7.58,16.56a1.5,1.5,0,0,1-1.191.8663A1.478,1.478,0,0,1,74.7,105.06ZM67.7353,92.1468l6.6313,8.5381,6.293-13.748L79.0561,82.556A31.1931,31.1931,0,0,1,67.7353,92.1468Z" style="fill:#333"/></g><path d="M87.22,114.14a43.401,43.401,0,0,0,8-19.76L90,88.96l2.9-3.04L81.82,82.36c-.18,15.4-2,24.84-6,33.36C79.86,115.36,83.68,114.8,87.22,114.14Z" style="fill:#3b485b"/><path d="M75.82,117.22a1.5006,1.5006,0,0,1-1.3574-2.1377c3.9883-8.4951,5.6856-17.9805,5.8579-32.74a1.5,1.5,0,0,1,1.959-1.41l11.08,3.5605a1.5,1.5,0,0,1,.6265,2.4629l-1.9078,2,4.2232,4.3838a1.5023,1.5023,0,0,1,.4053,1.2451A45.0325,45.0325,0,0,1,88.43,115.0267a1.5018,1.5018,0,0,1-.9346.5879c-3.8882.7246-7.771,1.2637-11.5415,1.6C75.9091,117.2181,75.8642,117.22,75.82,117.22Zm11.4-3.08h0ZM83.286,84.4066c-.2807,12.7764-1.7915,21.667-5.0542,29.5625,2.6758-.3,5.397-.7,8.125-1.1953A42.0465,42.0465,0,0,0,93.6293,94.891l-4.71-4.89a1.5007,1.5007,0,0,1-.0048-2.0761l1.2485-1.3086Z" style="fill:#333"/><path d="M39.48,114.14a43.1591,43.1591,0,0,1-8-19.76l5.22-5.42-2.84-3.02,11.08-3.56c.18,15.4,2,24.84,6,33.36C46.86,115.36,43.04,114.8,39.48,114.14Z" style="fill:#3b485b"/><path d="M50.94,117.24a1.338,1.338,0,0,1-.14-.0068c-3.8213-.3555-7.7222-.8994-11.5943-1.6182a1.497,1.497,0,0,1-.935-.5859,44.8,44.8,0,0,1-8.2778-20.4463,1.5021,1.5021,0,0,1,.4057-1.2432l4.23-4.3916-1.8623-1.98a1.5,1.5,0,0,1,.6338-2.455l11.08-3.56a1.5,1.5,0,0,1,1.9589,1.41c.1724,14.76,1.87,24.2451,5.858,32.7392A1.5,1.5,0,0,1,50.94,117.24Zm-10.5986-4.4668c2.7295.4932,5.4707.8975,8.1831,1.208-3.26-7.8926-4.77-16.7822-5.0508-29.5537L36.579,86.642l1.2139,1.291a1.5,1.5,0,0,1-.0122,2.0683L33.07,94.892A41.8066,41.8066,0,0,0,40.3417,112.7728Z" style="fill:#333"/><path d="M63.8134,117.8607h-.895A130.2386,130.2386,0,0,1,9.4887,106.47a1.5016,1.5016,0,0,1-.8682-1.6172l.7-4.2A14.2215,14.2215,0,0,1,19.8192,89.5843c10.0371-2.48,15.2139-3.5244,15.2652-3.5351l.5908,2.9414c-.05.01-5.1733,1.0449-15.1353,3.5058a11.1972,11.1972,0,0,0-8.2675,8.6915l-.5015,3.01a127.2378,127.2378,0,0,0,51.1572,10.6631c.291-.001.5835-.001.8755,0A127.1143,127.1143,0,0,0,114.8461,104.24l-.4136-3.1445a11.22,11.22,0,0,0-8.2563-8.6c-4.5591-1.1446-14.958-3.6114-15.0625-3.6358l.6924-2.92c.1044.0254,10.5224,2.4961,15.0991,3.6455a14.2561,14.2561,0,0,1,10.4863,11.0234l.5757,4.3555a1.5005,1.5005,0,0,1-.877,1.5654A130.1129,130.1129,0,0,1,63.8134,117.8607Z" style="fill:#333"/><circle cx="65.44" cy="113.52" r="1.06" style="fill:#5c8fcc"/><circle cx="61.18" cy="111.22" r="1.04" style="fill:#5c8fcc"/><circle cx="63.76" cy="106.56" r="1.04" style="fill:#5c8fcc"/><circle cx="63.36" cy="96.22" r="1.06" style="fill:#5c8fcc"/><rect x="84.2" y="96.34" width="6.3" height="4.2" style="fill:#fff"/><rect x="84.2" y="96.34" width="6.3" height="0.84" style="fill:#ba362a"/><rect x="84.2" y="98.02" width="6.3" height="0.84" style="fill:#ba362a"/><rect x="84.2" y="96.34" width="2.52" height="2.52" style="fill:#2f62ab"/><rect x="84.2" y="99.7" width="6.3" height="0.84" style="fill:#ba362a"/><g id="graduates-black-male"><g id="Icons"><path d="M89.44,43.7a5.06,5.06,0,0,0-5.34-.9V34.62c0-10.92-4.74-20.22-20.74-20.22S42.72,23.7,42.72,34.52V42.7a5.06,5.06,0,0,0-5.26.9c-2.38,1.9-2,5.44-1.3,9.34.82,4.9,3.82,9.1,8.26,7.02a.1.1,0,0,1,.16,0h0a32.3122,32.3122,0,0,0,0,4.82c.4,6,3.62,8,9.16,13.8,2.46,2.68,6,2.86,9.6,2.86s7.22-.18,9.68-2.8c5.54-5.78,8.76-7.82,9.14-13.8a32.3266,32.3266,0,0,0-.06-4.7.12.12,0,0,1,.12-.12h0c4.44,2,7.44-2.12,8.26-7.02C91.3,49.04,91.72,45.5,89.44,43.7Z" style="fill:#ad8165"/><path d="M84.1,42.8V34.62c0-10.92-4.74-20.22-20.74-20.22a32.5976,32.5976,0,0,0-6,.54v26a4.3,4.3,0,0,1-4,4,9.16,9.16,0,0,1,5.42,1.86,4,4,0,0,0,2.68,1.12h.64a1.36,1.36,0,0,1,1.36,1.36h0V54.1a2.9,2.9,0,0,0,1.18,2.34,2,2,0,0,1-1.18,3.62h0c-1.48,0-2-1-4-1-1.18,0-1,1.54-1.04,1.5a4.3607,4.3607,0,0,1,2,.52,6.36,6.36,0,0,0,3,.76h0V71.3a3.7,3.7,0,0,1,4,3.78c0,2.94-9,2.62-9.9,6h0a13.52,13.52,0,0,0,5.84.58c3.6,0,7.22-.18,9.68-2.8,5.54-5.78,8.76-7.82,9.14-13.8a32.3263,32.3263,0,0,0-.08-4.92.12.12,0,0,1,.12-.12h0c4.44,2,7.44-2.12,8.26-7.02.68-4,1.1-7.5-1.18-9.3A5.06,5.06,0,0,0,84.1,42.8Z" style="fill:#a0775c"/><path d="M61.5434,83.09a12.2619,12.2619,0,0,1-8.89-3.8164c-1.1211-1.17-2.1665-2.1885-3.0884-3.0879-3.6889-3.5957-6.1259-5.9707-6.4814-11.3066-.0728-.9688-.103-1.95-.0908-2.9317a5.6782,5.6782,0,0,1-3.4878-.6035c-2.375-1.2461-4.1782-4.2959-4.8242-8.1572-.7364-4.1006-1.2036-8.3262,1.8432-10.7588A6.4079,6.4079,0,0,1,41.22,40.8343V34.52c0-14.1436,7.6558-21.62,22.14-21.62,14.55,0,22.24,7.5107,22.24,21.7207v6.3047a6.5768,6.5768,0,0,1,4.8066,1.6269c2.9815,2.3936,2.3975,6.6231,1.542,10.7529-.6367,3.8116-2.3784,6.7627-4.7685,8.04a5.7967,5.7967,0,0,1-3.4741.6465c.0263.98.01,1.9629-.0489,2.9384-.3388,5.336-2.7832,7.7227-6.4834,11.335-.916.8945-1.9541,1.9082-3.0708,3.0732a13.0673,13.0673,0,0,1-10.7422,3.6172A12.3928,12.3928,0,0,1,61.5434,83.09ZM44.497,58.42a1.6112,1.6112,0,0,1,.9673.3222l.1689.128.4849.6406-.0425.5615a30.9613,30.9613,0,0,0,0,4.5947c.28,4.2012,2.0527,5.9288,5.5835,9.3711.9389.9151,2.0034,1.9522,3.164,3.1631A9.2682,9.2682,0,0,0,63.0912,79.96l.228-.0381.2286.0323A10.0855,10.0855,0,0,0,71.98,77.2191c1.1084-1.1582,2.1655-2.19,3.0981-3.1006,3.542-3.458,5.3194-5.1933,5.585-9.373a30.89,30.89,0,0,0-.0576-4.4776L80.6,60.14a1.6216,1.6216,0,0,1,1.62-1.62h.3223l.2939.1328a3.1638,3.1638,0,0,0,2.9292.0469c1.5176-.8116,2.7569-3.09,3.2349-5.9463.8042-3.8867,1.0225-6.6817-.49-7.877l-.0723-.06a3.5763,3.5763,0,0,0-3.7568-.6328L82.6,45.057V34.6205C82.6,22.0238,76.3065,15.9,63.36,15.9c-12.8789,0-19.14,6.0908-19.14,18.62V44.9271l-2.0644-.8379a3.54,3.54,0,0,0-3.7012.6338c-1.6524,1.3213-1.544,3.91-.8179,7.9522.4878,2.914,1.7368,5.2119,3.2627,6.0136a2.9576,2.9576,0,0,0,2.5547.0547l.1318-.1777.6851-.13A1.6059,1.6059,0,0,1,44.497,58.42Z" style="fill:#343433"/><circle cx="53.86" cy="50.86" r="1.5" style="fill:#333"/><circle cx="72.04" cy="50.86" r="1.5" style="fill:#333"/><path d="M49.3,46.44a3.8194,3.8194,0,0,1,2.3-1.4,7.4609,7.4609,0,0,1,2.66-.12,8.26,8.26,0,0,1,4.62,2.2,19.499,19.499,0,0,1-4.9-.22l-2.26-.32A17.9928,17.9928,0,0,0,49.3,46.44Z" style="fill:#333"/><path d="M77.32,46.44a17.9928,17.9928,0,0,0-2.42.14l-2.26.32a19.56,19.56,0,0,1-4.9.22,8.1194,8.1194,0,0,1,4.62-2.2,7.0586,7.0586,0,0,1,2.66.12A3.86,3.86,0,0,1,77.32,46.44Z" style="fill:#333"/><path d="M53.44,70.6205a1,1,0,0,1-1-1V66.32a4.0012,4.0012,0,0,1,1.5762-3.1768l3.7388-2.84a1,1,0,0,1,1.21,1.5937l-3.74,2.84a1.9879,1.9879,0,0,0-.7852,1.581v3.3028A1,1,0,0,1,53.44,70.6205Z" style="fill:#a0775c"/><path d="M73.28,70.64a1,1,0,0,1-1-1v-3.3a2.0356,2.0356,0,0,0-.79-1.6074L67.827,61.89a1,1,0,1,1,1.2256-1.58l3.66,2.84A4.0444,4.0444,0,0,1,74.28,66.3421V69.64A1,1,0,0,1,73.28,70.64Z" style="fill:#ad8165"/><path d="M63.4,64.83a.75.75,0,0,1-.75-.75V62.46a.75.75,0,1,1,1.5,0v1.62A.75.75,0,0,1,63.4,64.83Z" style="fill:#936b55"/><path d="M63.4013,62.9613a5.9047,5.9047,0,0,1-2.8648-.7451,4.5392,4.5392,0,0,0-2.1391-.5459.75.75,0,1,1,.0048-1.5,6.0372,6.0372,0,0,1,2.8555.73,4.3921,4.3921,0,0,0,4.2788.003,6.0425,6.0425,0,0,1,2.8609-.7334H68.4a.75.75,0,0,1,.0024,1.5,4.5455,4.5455,0,0,0-2.1445.5488A5.8921,5.8921,0,0,1,63.4013,62.9613Z" style="fill:#674848"/></g></g><path d="M63.44,10.14c-21.84,0-26,20.92-22,30.92,2,0,4,1.5,4,7.42v-7.2c0-2-.78-4.48,0-6.3a11.52,11.52,0,0,0,1.34-5c.14-2.1.18-5.16,2.26-6.6,4.12-2.9,6.64-.26,14.4-.26s10.28-2.64,14.4.26c2,1.44,2.1,4.5,2.26,6.6a11.52,11.52,0,0,0,1.34,5c.78,1.82,0,4.3,0,6.3v7.2c0-6,2-7.42,4-7.42C89.44,31.06,85.28,10.14,63.44,10.14Z" style="fill:#333"/><path d="M81.44,49.4574a.9773.9773,0,0,1-.9775-.9776v-7.2a19.0967,19.0967,0,0,1,.1758-2.1972,7.8841,7.8841,0,0,0-.0967-3.7178,12.43,12.43,0,0,1-1.4185-5.3506l-.0268-.3554c-.1421-1.96-.3189-4.3995-1.8267-5.4854-2.22-1.5625-3.8193-1.2852-6.7275-.7812a38.77,38.77,0,0,1-7.1021.706,38.7684,38.7684,0,0,1-7.1015-.706c-2.9072-.5049-4.5064-.7813-6.7359.788-1.5522,1.0743-1.7,3.48-1.8183,5.4121l-.0283.4522a12.53,12.53,0,0,1-1.4527,5.3945,8.0529,8.0529,0,0,0-.0615,3.6436,19.0967,19.0967,0,0,1,.1758,2.1972v7.2a.9776.9776,0,1,1-1.9551,0c0-2.9394-.5244-6.4423-3.0225-6.4423a.9774.9774,0,0,1-.9077-.6143c-2.2949-5.7373-2.0566-15.3291,2.8389-22.56,2.9961-4.4257,8.91-9.7011,20.0688-9.7011s17.0728,5.2754,20.0694,9.7011c4.895,7.23,5.1333,16.8223,2.8384,22.56a.9775.9775,0,0,1-.9078.6143c-2.0053,0-3.0224,2.1679-3.0224,6.4423A.9774.9774,0,0,1,81.44,49.4574Zm-7.6611-28.418a7.5977,7.5977,0,0,1,4.624,1.541c2.2583,1.626,2.481,4.6953,2.6436,6.9366l.0283.3886a10.657,10.657,0,0,0,1.2285,4.6153,9.151,9.151,0,0,1,.2769,4.792,17.42,17.42,0,0,0-.1626,1.9667v.0323A3.9427,3.9427,0,0,1,84.745,40.13,24.0512,24.0512,0,0,0,81.89,19.9593c-2.7309-4.0332-8.1484-8.8418-18.45-8.8418s-15.7192,4.8086-18.45,8.8418A24.0515,24.0515,0,0,0,42.1347,40.13a3.943,3.943,0,0,1,2.3276,1.1817V41.28A17.3941,17.3941,0,0,0,44.3,39.3129a9.1938,9.1938,0,0,1,.2412-4.7178,10.7379,10.7379,0,0,0,1.2617-4.6494l.0293-.4727c.1372-2.2314.3242-5.2861,2.6514-6.8965,2.8843-2.03,5.1084-1.6455,8.188-1.1113a37.0618,37.0618,0,0,0,6.768.6777,37.0643,37.0643,0,0,0,6.7686-.6777A21.3912,21.3912,0,0,1,73.7787,21.0394Z" style="fill:#333"/><path d="M63.64,77.65h-.5a.75.75,0,0,1,0-1.5h.5a.75.75,0,1,1,0,1.5Z" style="fill:#7f5e47"/><path d="M65.86,66.54a1.76,1.76,0,0,0-1.06.14l-.84.38a1.74,1.74,0,0,1-.96,0l-.62-.14a3.2,3.2,0,0,0-2,.2L56.22,69c2.2.36,3.56,2.66,5.66,2.64a30.1487,30.1487,0,0,0,3.74,0c2.16-.22,3.18-1.78,5.34-4.64A18,18,0,0,1,65.86,66.54Z" style="fill:#916953"/><path d="M55.48,70.6a.4893.4893,0,0,1-.1841-.0352.4994.4994,0,0,1-.2808-.6484l.72-1.82a.5.5,0,1,1,.93.3671l-.72,1.82A.5.5,0,0,1,55.48,70.6Z" style="fill:#936b55"/><path d="M71.2807,68.38a.5.5,0,0,1-.4576-.2968l-.72-1.62a.5.5,0,0,1,.9141-.4062l.72,1.62a.5.5,0,0,1-.4565.7031Z" style="fill:#936b55"/><path d="M56.2,68.76c2.52-.24,5.06-.34,7.58-.38a10,10,0,0,0,3.48-.4c1.1-.38,2.3-1,3.46-1.42a.34.34,0,0,1,.32.6,33.8753,33.8753,0,0,1-3.32,2,8.28,8.28,0,0,1-4,.74,73.7544,73.7544,0,0,1-7.58-.44.32.32,0,0,1-.3054-.3339A.3239.3239,0,0,1,55.84,69.08a.32.32,0,0,1,.36-.32Z" style="fill:#674848"/></g></svg>