<svg xmlns="http://www.w3.org/2000/svg" viewBox="0 0 128 128"><title>nikola-tesla</title><g id="nikola-tesla"><path d="M122.6738,91.7905a12.7,12.7,0,0,0-9.38-9.84c-4.78-1.2-29.12-5.82-29.12-5.82v-11.16h-29.86v11.16s-24.34,4.62-29.2,5.82a12.7,12.7,0,0,0-9.38,9.84l-.62,4.22.22.12a135.2206,135.2206,0,0,0,54,11.14,135.2014,135.2014,0,0,0,54-11.14l.22-.12Z" style="fill:#d1afaa"/><path d="M86.0338,76.3505l27.08,5.6a12.7,12.7,0,0,1,9.38,9.84l.62,4.22c-2.26,1.38-22.96,10.36-49.18,11.16C84.6538,96.3705,85.8938,80.0505,86.0338,76.3505Z" style="fill:#444649"/><path d="M85.4738,82.0505a137.9819,137.9819,0,0,1,17.78,3.2l9.86,2.44a12.7,12.7,0,0,1,9.1,8.78,131.26,131.26,0,0,1-48.26,10.64C81.6538,99.4105,84.4538,88.7705,85.4738,82.0505Z" style="fill:#383838"/><path d="M52.4538,76.3505l-27.02,5.6a12.7,12.7,0,0,0-9.38,9.84l-.7,4.22c2.26,1.38,22.96,10.36,49.18,11.16C53.8338,96.3705,52.5938,80.0505,52.4538,76.3505Z" style="fill:#444649"/><path d="M53.1138,82.0505a137.9819,137.9819,0,0,0-17.78,3.2l-9.8,2.44a12.7,12.7,0,0,0-9.1,8.78,131.2606,131.2606,0,0,0,48.1,10.64C56.8338,99.4105,54.0338,88.7705,53.1138,82.0505Z" style="fill:#383838"/><rect x="28.0039" y="81.1904" width="2.0996" height="19.9199" style="fill:#444649"/><rect x="30.084" y="80.7705" width="2.0996" height="20.96" style="fill:#383838"/><rect x="108.4038" y="81.1904" width="2.0996" height="19.9199" style="fill:#383838"/><rect x="106.3042" y="80.7705" width="2.0996" height="20.96" style="fill:#444649"/><path d="M50.3338,44.6905a41.1713,41.1713,0,0,1,0-4.16,9.3851,9.3851,0,0,1,.16-2.1,18.6279,18.6279,0,0,1,.38-2.14l.1.98a17,17,0,0,1-2.86-7.3,14.7194,14.7194,0,0,1,1.2-8l3.38,1.72a11.32,11.32,0,0,0-1.54,6,14.3791,14.3791,0,0,0,1.8,6.34v.12a1.02,1.02,0,0,1,.16.96,17.4078,17.4078,0,0,0-.56,1.8q-.24.96-.42,2a36.9146,36.9146,0,0,0-.5,4Z" style="fill:#343433"/><path d="M90.3138,35.5505v-6.24c0-12.46-6-21.04-21.1-21.04s-21.1,8.58-21.1,21.04v6.24c-7.12,0-2.5,19,2.1,19.7v2a8.52,8.52,0,0,0,2.1,5.7l8.54,9.86a8.54,8.54,0,0,0,6.5,2.98h3.76a8.56,8.56,0,0,0,6.5-2.98l8.54-9.86a8.62,8.62,0,0,0,2.08-5.84v-2C93.6338,53.8105,97.1138,35.5505,90.3138,35.5505Z" style="fill:#edccc3"/><path d="M53.9738,48.5905c-3.86-3.52-3.68-5.02-3.68-6.6v-1.42l2.66-2.66a3.28,3.28,0,0,0,.98-2.36v-22.32c-4,3.72-5.82,9.32-5.82,16v6.24c-7.12,0-2.5,19,2.1,19.7v2a8.52,8.52,0,0,0,2.1,5.7l4,4.56v-14.46A4.94,4.94,0,0,0,53.9738,48.5905Z" style="fill:#e5c2ba"/><path d="M90.2338,21.1105c-1.56-2.14-3.8,0-4,0-.64.42-2.96-1.24-6.56-2.14a17.9993,17.9993,0,0,0-10.36.46,16.976,16.976,0,0,0-4.68-1.02c-5.48-.56-9.48,2.26-12,3.34-1.88-2-4-1.46-4.6,0a14,14,0,0,0,1.44,14.2l.84,7.36a2.26,2.26,0,0,0,2-1.6,23.3577,23.3577,0,0,1,1.34-6,1.48,1.48,0,0,0,0-1.26c-.78-1.74-2.74-3.76-1.86-7.86,2.76.74,5.12-1.04,8.28-1.82a12,12,0,0,1,7.68.52,3.64,3.64,0,0,0,2.68.22,13.38,13.38,0,0,1,7.86-1.04c3.18.6,6.24,2,9.14,1.44,1.14,4-.32,6.52-1.46,9.08a1.28,1.28,0,0,0,0,1.36,19.7812,19.7812,0,0,1,1.14,5.76,1.36,1.36,0,0,0,1.32,1.18l.68-7.48C93.1138,30.0505,92.0538,23.5705,90.2338,21.1105Zm-37.54.76h0s.06.04,0-.04Z" style="fill:#e5c2ba"/><path d="M90.3138,35.5505v-6.24c0-12.46-6-21.04-21.1-21.04a31.2021,31.2021,0,0,0-6.2.6c0,8.4.18,22.6.18,24.48,0,4-4,4.18-4,6.18h7.72a2.42,2.42,0,0,1,3.26-.12h0v13.3a2,2,0,0,1-1.06.4c-1.48,0-2-1.16-4-1.16-1.68,0-2.16,1.9-1.84,1.9,2.14-1.32,3.22,1.18,5.86,1.22v8.56a1.02,1.02,0,0,0,1,1,3,3,0,0,1,0,6h-3.02a4,4,0,0,0-4,3.42v.58a8.6205,8.6205,0,0,0,4.22,1.16h3.78a8.56,8.56,0,0,0,6.5-2.98l8.54-9.86a8.62,8.62,0,0,0,2.08-5.84v-2C93.6338,53.8105,97.1138,35.5505,90.3138,35.5505Z" style="fill:#e5c2ba"/><path d="M91.1138,30.0505a24.12,24.12,0,0,0-1.9-10,4.54,4.54,0,0,0-2.32.92c-.64.42-2.96-1.24-6.56-2.14a17.9993,17.9993,0,0,0-10.36.46,16.976,16.976,0,0,0-4.68-1.02h-2.14v6a17.08,17.08,0,0,1,4.9.9,3.3,3.3,0,0,0,2.42,0,13.379,13.379,0,0,1,7.86-1.08c3.18.6,5.38,2.42,9.3,1.72,1.16,4-.32,6.52-1.46,9.08a1.34,1.34,0,0,0,0,1.36,19.2607,19.2607,0,0,1,1.34,5.76,1.36,1.36,0,0,0,1.32,1.18l.92-7.44a16.7284,16.7284,0,0,0,1.36-2.18Z" style="fill:#ddb9b3"/><path d="M54.8538,49.5105a6,6,0,0,0,6.1,1.2.56.56,0,0,1,.56.94,15.86,15.86,0,0,0-5.34,10.8Z" style="fill:#e9c7be"/><path d="M83.6338,49.5105a6,6,0,0,1-6,1.2.56.56,0,0,0-.56.94,15.86,15.86,0,0,1,5.34,10.8Z" style="fill:#e1bdb6"/><path d="M82.1938,52.9505v14.44l4-4.56a8.52,8.52,0,0,0,2.04-5.72v-1.9c4.62-.7,9.22-19.7,2.1-19.7v-6.22c0-6.76-1.78-12.36-5.8-16v22.24a3.28,3.28,0,0,0,.98,2.36l2.66,2.66v1.42c0,1.58.16,3.08-3.68,6.6A4.94,4.94,0,0,0,82.1938,52.9505Z" style="fill:#ddb9b3"/><path d="M90.2538,35.5505c7.12,0,2.52,19-3.64,21.76l.5-11.8C88.9538,43.2505,87.6338,37.1105,90.2538,35.5505Z" style="fill:#d1afaa"/><path d="M70.0938,61.1105h-7.6l1.52,3.48a2.16,2.16,0,0,0,2.38,1.3,20.2994,20.2994,0,0,1,7.4,0,2.16,2.16,0,0,0,2.38-1.3l1.52-3.48Z" style="fill:#e5c2ba"/><path d="M71.2738,57.6505c-.68,0-1.3.42-2,.44s-.5-.22-1.72-.44c-2.18-.4-4.44,2.2-6,2.62l2.3,2a5.88,5.88,0,0,0,3.76,1.5h2.56a8.16,8.16,0,0,0,4.62-1.5l2.18-2C73.8138,59.1105,73.8138,57.2905,71.2738,57.6505Z" style="fill:#d8b3ad"/><path d="M76.2738,61.3905a7.12,7.12,0,0,1-1.84-.12,14.3059,14.3059,0,0,0-1.68-.38,13.3549,13.3549,0,0,0-3.28.34h-.24a8.4808,8.4808,0,0,1-1.72-.24,4.6577,4.6577,0,0,0-1.66,0,14.3225,14.3225,0,0,1-3.64.4h0a.24.24,0,0,1-.2229-.256l.0029-.024a.24.24,0,0,1,.24-.24,19.2309,19.2309,0,0,0,3.46-.82,4.818,4.818,0,0,1,2-.12,14.6366,14.6366,0,0,1,1.88.24h-.24c.6,0,1.22-.14,1.82-.2a5.3212,5.3212,0,0,1,1.86,0,20.0056,20.0056,0,0,0,3.36.88.26.26,0,0,1,.2608.2592c0,.0069,0,.0139-.0008.0208a.28.28,0,0,1-.2882.2716A.2864.2864,0,0,1,76.2738,61.3905Z" style="fill:#af8582"/><path d="M48.1138,35.5505c-7.12,0-2.5,19,3.66,21.76l-.56-11.8C49.4338,43.2505,50.7338,37.1105,48.1138,35.5505Z" style="fill:#ddb9b3"/><path d="M71.124,77.29H67.3818a10.0484,10.0484,0,0,1-7.6255-3.5009L51.22,63.9326a10.0022,10.0022,0,0,1-2.4663-6.7v-.958c-3.72-2.1328-6.144-10.67-5.7476-15.9375.3091-4.1064,2.1314-5.5615,3.6475-6.0527V29.3105c0-14.5351,8.0264-22.54,22.6-22.54,14.561,0,22.58,8.0049,22.58,22.54v4.9737c1.5171.49,3.3408,1.9463,3.6445,6.0576.39,5.2734-2.0693,13.8164-5.8247,15.9385v.97a9.9835,9.9835,0,0,1-2.3525,6.666l-8.5537,9.877A10.047,10.047,0,0,1,71.124,77.29Zm-3.7324-3h3.7305a7.0542,7.0542,0,0,0,5.3545-2.457L85.02,61.9678a7.0036,7.0036,0,0,0,1.6343-4.6807L86.6538,55.25a1.5,1.5,0,0,1,1.2793-1.4834c1.8081-.2695,4.9663-7.6279,4.5537-13.2031-.1723-2.3311-.8965-3.5127-2.1528-3.5127a1.5,1.5,0,0,1-1.5-1.5v-6.24c0-12.9658-6.5879-19.54-19.58-19.54-13.0059,0-19.6,6.5742-19.6,19.54v6.24a1.5,1.5,0,0,1-1.5,1.5c-1.2554,0-1.98,1.1816-2.1558,3.5117-.4194,5.5732,2.6915,12.9336,4.48,13.2041A1.5,1.5,0,0,1,51.7539,55.25v2a7.02,7.02,0,0,0,1.73,4.7139l8.5434,9.8642a7.0544,7.0544,0,0,0,5.356,2.4619Z" style="fill:#333"/><path d="M88.1738,11.6505c-4.56-4.84-12.3-8.84-18.94-5.02-6.66-3.82-14.4.18-18.96,5.02-10.14,10.78-2,15.42-2,24,2,1.82,2,4.84,2,7.62a27.3976,27.3976,0,0,1,1-8c-3.64-6-2.24-9.72-.98-12.36,3.14,5.58,7.28-5.12,18.94,0,10.98-4.82,15.84,4.16,19.04-.14,1.32,2.34,2.66,6.34-1.16,12.34a20.4814,20.4814,0,0,1,1.1,8h0c0-5.06,0-5.76,2.1-7.62C90.3738,27.1105,98.3138,22.4305,88.1738,11.6505Z" style="fill:#343433"/><path d="M90.4938,20.4105a14.94,14.94,0,0,1,1.22,8,16.84,16.84,0,0,1-2.88,7.3v-1.1a10.5264,10.5264,0,0,1,.52,2.24c.1.72.16,1.42.2,2.12a36.0384,36.0384,0,0,1,0,4.16h-1.22a36.9445,36.9445,0,0,0-.48-4c-.12-.64-.26-1.28-.44-1.9a7.8429,7.8429,0,0,0-.62-1.66,1,1,0,0,1,0-.98v-.14a14,14,0,0,0,1.8-6.32,11.4412,11.4412,0,0,0-1.52-6Z" style="fill:#343433"/><path d="M69.2538,59.8305a8.7608,8.7608,0,0,1-3.78.9h-4a1.06,1.06,0,0,0-1.02.74l-.5,1.52h-.52v-2.86a3,3,0,0,1,1.88-2.72c.8-.34,2.18-.92,3.58-1.46a11.48,11.48,0,0,1,8.62,0c1.4.54,2.78,1.12,3.58,1.46a3,3,0,0,1,2.02,2.72v2.86h-.52l-.5-1.52a1.06,1.06,0,0,0-1.02-.74h-3.96A8.6009,8.6009,0,0,1,69.2538,59.8305Z" style="fill:#343433"/><path d="M87.4138,43.1105c0-1.38-.12-2.74,0-4.24a5.9988,5.9988,0,0,1,.68-2.42,8.5569,8.5569,0,0,1,1.56-1.84l-.4.88c-.16-4.34,2-8.16,2.52-11.6a11.52,11.52,0,0,0-3.3-9.52,21.8,21.8,0,0,0-8.58-6.48,10.94,10.94,0,0,0-9.68.34,1.86,1.86,0,0,1-1.88,0h0a10.98,10.98,0,0,0-9.64-.26,21.4989,21.4989,0,0,0-8.58,6.44,11.3,11.3,0,0,0-3.28,9.48c.58,3.44,2.72,7.26,2.58,11.6l-.4-.88a6.8807,6.8807,0,0,1,2,4.24,23.62,23.62,0,0,1,.1,4.26.88.88,0,0,1-1.74,0,21.593,21.593,0,0,0-.4-3.88,4.88,4.88,0,0,0-1.6-2.84,1.14,1.14,0,0,1-.42-.82h0a16.9217,16.9217,0,0,0-1.14-5.32,45.9878,45.9878,0,0,1-1.88-5.74,12.3,12.3,0,0,1,.34-6.58,19.118,19.118,0,0,1,3.12-5.56,25.4994,25.4994,0,0,1,9.78-7.78,16.158,16.158,0,0,1,6.44-1.36,12.9193,12.9193,0,0,1,6.52,1.76h-2a12.92,12.92,0,0,1,6.54-1.7,16.4794,16.4794,0,0,1,6.4,1.38,25.3,25.3,0,0,1,9.76,7.74,18.3191,18.3191,0,0,1,3.16,5.52,12.3609,12.3609,0,0,1,.4,6.54,44.348,44.348,0,0,1-1.84,5.76,17.7582,17.7582,0,0,0-1.14,5.34h0a1.14,1.14,0,0,1-.4.8,6.5365,6.5365,0,0,0-1.24,1.22,3.779,3.779,0,0,0-.52,1.5c-.18,1.24-.2,2.66-.26,4h0a.84.84,0,0,1-.8588.8207l-.0212-.0007A.88.88,0,0,1,87.4138,43.1105Z" style="fill:#343433"/><path d="M69.2539,55.6611a5.09,5.09,0,0,1-2.7637-.9033c-.8183-.4853-1.269-.7539-2.2622-.291a.791.791,0,1,1-.6689-1.4336,3.5129,3.5129,0,0,1,3.74.3652,3.5647,3.5647,0,0,0,1.9551.6807,3.49,3.49,0,0,0,1.9375-.68,3.5,3.5,0,0,1,3.7344-.3672.7909.7909,0,1,1-.6641,1.4356,1.9634,1.9634,0,0,0-2.2549.2881A5.02,5.02,0,0,1,69.2539,55.6611Z" style="fill:#b58985"/><path d="M70.2538,21.1105V8.15a.84.84,0,0,1,.3-.68,6.7792,6.7792,0,0,1,4-1.84,19.998,19.998,0,0,0-2,3.32.94.94,0,0,0,.49,1.2357l.01.0043a.642.642,0,0,0,.28,0,7.1181,7.1181,0,0,1,2.36.62,8.5193,8.5193,0,0,0-3.22,3.14.44.44,0,0,0-.018.622l.018.018a.3408.3408,0,0,0,.24,0,5.16,5.16,0,0,1,2.54.92,4.78,4.78,0,0,0-2.98,2.58,5.4,5.4,0,0,1,3.88,2.3,18.1954,18.1954,0,0,0-4.7,1.28.86.86,0,0,1-1.1251-.4619l-.0149-.0381A.8087.8087,0,0,1,70.2538,21.1105Z" style="fill:#444"/><path d="M53.5738,13.2305a22.54,22.54,0,0,1,11.26-6c-5.52-1.56-9.44,1.64-12.2,4.8-3.34,3.78-7.66,9.18-4.12,13.46C47.9938,21.2905,49.3538,17.7305,53.5738,13.2305Z" style="fill:#444;fill-rule:evenodd"/><path d="M69.4738,107.2705h4.46c12.16-12.22,12.12-31.58,12.12-31.58h0l-16.8,14.28-16.82-14.28h0s0,19.34,12.1,31.56C66.1538,107.2305,67.8138,107.2705,69.4738,107.2705Z" style="fill:#d1d8db"/><path d="M73.9336,108.7705h-4.46c-.6748,0-1.3491-.0068-2.0215-.0127-.9755-.01-1.9453-.02-2.9-.0078a1.4511,1.4511,0,0,1-1.084-.4443C51.0762,95.791,50.9336,76.5049,50.9336,75.69a1.5,1.5,0,0,1,2.4707-1.1435l15.8491,13.456L85.082,74.5479a1.5,1.5,0,0,1,2.4717,1.14c.0015.8154-.102,20.125-12.5566,32.6406A1.5006,1.5006,0,0,1,73.9336,108.7705Zm-8.4443-3.0254c.66,0,1.3247.0059,1.9921.0127.6626.0059,1.3272.0127,1.9922.0127h3.8277c8.2148-8.5918,10.4331-20.7734,11.0317-26.6484L70.2256,91.1133a1.4984,1.4984,0,0,1-1.9424.001L54.1606,79.124c.608,5.8721,2.8374,18.0332,11.003,26.6211Z" style="fill:#333"/><path d="M69.1138,107.2705c1.7,0,3.36,0,5-.12l-3.54-8.9h-3.08l-3.02,8.86C65.9738,107.2305,67.4738,107.2705,69.1138,107.2705Z" style="fill:#6e4847"/><path d="M69.1138,108.4141c-1.8575,0-3.3169-.05-4.7315-.1631a1.1443,1.1443,0,0,1-.9912-1.51l3.02-8.86a1.144,1.144,0,0,1,1.0826-.7745h3.08a1.1433,1.1433,0,0,1,1.063.7207l3.54,8.9a1.1439,1.1439,0,0,1-.98,1.5635C72.5156,108.4141,70.8633,108.4141,69.1138,108.4141Zm-3.0747-2.3506c.9228.0429,1.9174.0635,3.0747.0635,1.15,0,2.2583,0,3.3476-.0362l-2.6635-6.6972H68.312Z" style="fill:#333"/><path d="M90.5138,18.8105a19.0836,19.0836,0,0,1-.84,3.12,5.3607,5.3607,0,0,1-2.4,3.02,3.88,3.88,0,0,1-2.18.32,8.6625,8.6625,0,0,1-1.78-.4l-2.92-.98a13.3782,13.3782,0,0,0-5.4-.78,15.3979,15.3979,0,0,0-5.22,1.42,2,2,0,0,1-1.48,0h0a17.2782,17.2782,0,0,0-5.02-1.32,12,12,0,0,0-5.1.8c-.86.3-1.72.7-2.66,1.1a7.3406,7.3406,0,0,1-3.52.86,3.36,3.36,0,0,1-2-1,5.3413,5.3413,0,0,1-1.02-1.56,18.7177,18.7177,0,0,1-.92-3.04.9.9,0,0,1,.66-1.04.86.86,0,0,1,1,.54h0a15.2418,15.2418,0,0,0,1.18,2.5,3.1209,3.1209,0,0,0,.72.84.82.82,0,0,0,.58.2,6.6819,6.6819,0,0,0,2.1-.9c.84-.46,1.72-.98,2.7-1.44a14.72,14.72,0,0,1,6.42-1.52,15.4994,15.4994,0,0,1,6.44,1.46h-1.52a16.88,16.88,0,0,1,6.62-1.42,16.4383,16.4383,0,0,1,6.6,1.38l2.8,1.24a3,3,0,0,0,2,.4c.44,0,1.02-.76,1.44-1.58a25.0907,25.0907,0,0,0,1.14-2.68h0a.864.864,0,1,1,1.66.48Z" style="fill:#333"/><path d="M90.1538,20.6105a14.5,14.5,0,0,1,1.2,7.82,16.681,16.681,0,0,1-2.78,7.16v-.82a11.1663,11.1663,0,0,1,.54,2.18c.12.7.18,1.38.24,2a35.8269,35.8269,0,0,1,0,4.14.5.5,0,0,1-.98,0,37.256,37.256,0,0,0-.38-4c-.12-.66-.24-1.3-.4-2a10.3611,10.3611,0,0,0-.6-1.74l-.1-.24.22-.44a14.2821,14.2821,0,0,0,2-6.46,11.7,11.7,0,0,0-1.54-6.26,1.51,1.51,0,1,1,2.62-1.5v.12Z" style="fill:#343433"/><path d="M50.4538,43.1105a35.4376,35.4376,0,0,1,0-4.12,12.543,12.543,0,0,1,.2-2c.1-.62.22-1.36.4-2.1v.72a16.7785,16.7785,0,0,1-2.76-7,14.34,14.34,0,0,1,1.04-7.68h0a1.52,1.52,0,0,1,2-.78,1.5,1.5,0,0,1,.7945,1.9669l-.0145.0331v.12a11.8392,11.8392,0,0,0-1.4,6.16,14.46,14.46,0,0,0,1.88,6.32l.2.38-.12.34a16.4375,16.4375,0,0,0-.52,1.84,19.7015,19.7015,0,0,0-.38,2,32.3566,32.3566,0,0,0-.4,4,.5.5,0,0,1-.98,0Z" style="fill:#343433"/><path d="M69.3594,108.7705A137.1319,137.1319,0,0,1,14.7573,97.3867a1.5,1.5,0,0,1-.8833-1.6211l.7-4.2207a13.858,13.858,0,0,1,10.522-11.0566l18.333-3.8067.61,2.9375-18.3,3.8a10.84,10.84,0,0,0-8.209,8.6387l-.5034,3.0381a134.0982,134.0982,0,0,0,52.3305,10.6748,134.0944,134.0944,0,0,0,52.0845-10.6748l-.5078-3.06a10.8518,10.8518,0,0,0-8.1675-8.626l-18.2573-3.79.61-2.9375,18.3,3.8A13.8722,13.8722,0,0,1,123.89,91.5254l.7037,4.24a1.5,1.5,0,0,1-.8834,1.6211A137.0947,137.0947,0,0,1,69.3594,108.7705Z" style="fill:#333"/><path d="M60.9938,77.2705a31.6389,31.6389,0,0,1-8-9.02.22.22,0,0,0-.42,0v7.78s2.54,10.28,16.68,12.84Z" style="fill:#d1d8db"/><path d="M69.2544,90.37a1.463,1.463,0,0,1-.2676-.0244C54.062,87.6445,51.231,76.8486,51.1177,76.39a1.4827,1.4827,0,0,1-.044-.3593V68.25a1.5148,1.5148,0,0,1,.0689-.45,1.7209,1.7209,0,0,1,3.1885-.2353,29.9834,29.9834,0,0,0,7.5747,8.5146,1.5088,1.5088,0,0,1,.3095.3213l8.26,11.6a1.5,1.5,0,0,1-1.2212,2.37ZM54.0737,75.8252c.3374,1.1191,2.6421,7.585,11.5894,10.5889l-5.7622-8.0918a32.96,32.96,0,0,1-5.8272-5.82Z" style="fill:#333"/><path d="M77.4938,77.2705a31.6419,31.6419,0,0,0,8-9.02.22.22,0,0,1,.42,0v7.78s-2.52,10.18-16.66,12.74Z" style="fill:#d1d8db"/><path d="M69.2534,90.2705a1.5,1.5,0,0,1-1.2187-2.374l8.24-11.5a1.53,1.53,0,0,1,.3071-.3174,29.9834,29.9834,0,0,0,7.5747-8.5146,1.7205,1.7205,0,0,1,3.1885.2353,1.5148,1.5148,0,0,1,.0689.45v7.78a1.4969,1.4969,0,0,1-.044.36c-.1123.4541-2.9248,11.1543-17.8486,13.8555A1.463,1.463,0,0,1,69.2534,90.2705Zm9.3311-11.9473-5.72,7.9825c8.8824-2.9952,11.2173-9.417,11.5489-10.4844V72.502A32.952,32.952,0,0,1,78.5845,78.3232Z" style="fill:#333"/><path d="M52.4938,75.5705a74.6767,74.6767,0,0,0,.92,8.38l15.84,8.76,15.86-8.42a68.0007,68.0007,0,0,0,.96-8.24l-16.74,13.82Z" style="fill:#6e4847"/><path d="M69.2539,93.9043a1.1882,1.1882,0,0,1-.5771-.1494l-15.84-8.7608a1.1921,1.1921,0,0,1-.6-.8466,76.4444,76.4444,0,0,1-.9346-8.5137,1.1928,1.1928,0,0,1,1.9634-.9727L69.3447,88.3145l15.97-13.1836a1.1927,1.1927,0,0,1,1.95.9853A69.3845,69.3845,0,0,1,86.2881,84.5a1.1935,1.1935,0,0,1-.6148.8438l-15.86,8.4208A1.195,1.195,0,0,1,69.2539,93.9043ZM54.4976,83.1865l14.768,8.168L84.0386,83.51c.2676-1.5733.479-3.1631.6333-4.7549L70.0933,90.79a1.1874,1.1874,0,0,1-1.5313-.0107l-14.6733-12.46C54.0381,79.9492,54.2417,81.5762,54.4976,83.1865Z" style="fill:#333"/><polygon points="63.614 88.87 67.094 99.11 71.434 99.11 74.874 88.87 63.614 88.87" style="fill:#6e4847"/><path d="M71.4336,100.2539h-4.34a1.1438,1.1438,0,0,1-1.0831-.7754l-3.48-10.24a1.1438,1.1438,0,0,1,1.083-1.5117h11.26a1.1435,1.1435,0,0,1,1.0845,1.5078l-3.44,10.24A1.1443,1.1443,0,0,1,71.4336,100.2539Zm-3.52-2.2871h2.6982l2.6714-7.9531H65.21Z" style="fill:#333"/><polygon points="60.994 77.27 60.914 88.87 69.234 88.87 60.994 77.27" style="fill:#d1d8db"/><path d="M69.2339,90.3965h-8.32a1.5272,1.5272,0,0,1-1.5264-1.5371l.08-11.6a1.5264,1.5264,0,0,1,2.771-.8731l8.24,11.6a1.5264,1.5264,0,0,1-1.2446,2.41Zm-6.7832-3.0527h3.8262l-3.79-5.335Z" style="fill:#333"/><polygon points="77.494 77.27 77.574 88.87 69.234 88.87 77.494 77.27" style="fill:#d1d8db"/><path d="M77.5737,90.3965h-8.34A1.5268,1.5268,0,0,1,67.99,87.9844l8.26-11.6a1.5265,1.5265,0,0,1,2.77.875l.08,11.6a1.5272,1.5272,0,0,1-1.5264,1.5371Zm-5.3789-3.0527h3.8418L76,82Z" style="fill:#333"/><path d="M53.6338,41.1105l1.9-1.48a9.3558,9.3558,0,0,1,1.04-.76,3.04,3.04,0,0,1,1.38-.38h6.88a1,1,0,0,1,1,1,1.02,1.02,0,0,1-1.02,1h-.12l-6.82-.94h0a1.9982,1.9982,0,0,0-.94.16,7.6465,7.6465,0,0,0-.96.58l-2,1.28a.3.3,0,0,1-.419-.0667.2957.2957,0,0,1-.021-.0333A.32.32,0,0,1,53.6338,41.1105Z" style="fill:#333"/><path d="M84.4938,41.6305l-2-1.28a7.6537,7.6537,0,0,0-.96-.58,1.9986,1.9986,0,0,0-.94-.16h0l-6.82.94a1.02,1.02,0,0,1-1.12-.86,1,1,0,0,1,.8406-1.1373l.0194-.0027h7a3.04,3.04,0,0,1,1.38.38,9.3558,9.3558,0,0,1,1.04.76l1.9,1.48a.32.32,0,0,1,0,.44A.3.3,0,0,1,84.4938,41.6305Z" style="fill:#333"/><path d="M60.1738,41.6705a1.5,1.5,0,1,0,1.5,1.5,1.52,1.52,0,0,0-1.5-1.5" style="fill:#333"/><path d="M54.7938,43.1105a4.44,4.44,0,0,0,2.5-1.28,5.0994,5.0994,0,0,1,2.94-.94,5.8,5.8,0,0,1,3,.9,9.6588,9.6588,0,0,1,2.32,2.1.5.5,0,0,1,0,.7.48.48,0,0,1-.6785.0215l-.0215-.0215h0a6.28,6.28,0,0,0-4.5-2.9,4.4593,4.4593,0,0,0-2.66.68,4.74,4.74,0,0,1-2.78,1.18h0a.16.16,0,0,1-.16-.16C54.6538,43.1105,54.7138,43.1105,54.7938,43.1105Z" style="fill:#e5c2ba"/><path d="M54.7938,42.7505c1.08.1,2.28-.7,3.6-.94a9.22,9.22,0,0,1,4,.2,8.5787,8.5787,0,0,0-3.78.3,10.1311,10.1311,0,0,0-1.72.78,4.7413,4.7413,0,0,1-2,.66h0a.5.5,0,0,1-.52-.46.52.52,0,0,1,.46-.54Z" style="fill:#333"/><path d="M61.7939,45.4307h-3.24a.5.5,0,1,1,0-1h3.24a.5.5,0,1,1,0,1Z" style="fill:#e5c2ba"/><path d="M78.3138,41.6705a1.5,1.5,0,1,1-1.5,1.5,1.52,1.52,0,0,1,1.5-1.5" style="fill:#333"/><path d="M83.6938,43.4105a4.74,4.74,0,0,1-2.78-1.18,4.4593,4.4593,0,0,0-2.66-.68,6.28,6.28,0,0,0-4.5,2.9h0a.5022.5022,0,1,1-.82-.58h0a9.655,9.655,0,0,1,2.32-2.1,5.7993,5.7993,0,0,1,3-.9,5.1,5.1,0,0,1,2.94.94,4.44,4.44,0,0,0,2.5,1.28.18.18,0,0,1,.16.16.16.16,0,0,1-.16.16Z" style="fill:#ddb9b3"/><path d="M83.6938,43.7505a4.74,4.74,0,0,1-2-.66,10.1346,10.1346,0,0,0-1.72-.78,8.5789,8.5789,0,0,0-3.78-.3,9.22,9.22,0,0,1,4-.2c1.32.24,2.52,1.04,3.6.94a.5.5,0,0,1,0,1h-.1Z" style="fill:#333"/><path d="M79.9336,45.4307h-3.24a.5.5,0,0,1,0-1h3.24a.5.5,0,0,1,0,1Z" style="fill:#ddb9b3"/><path d="M42.1338,83.9905c.86,6.76,7.6,16.9,13.72,22.54,4.78.5,8.26.62,8.68.62-12-13.38-12.14-34.6-12.16-35.52l-10.86,4.88,4.52,3.34Z" style="fill:#444649"/><path d="M64.5337,108.65c-.44,0-3.9375-.1162-8.8359-.6279a1.5066,1.5066,0,0,1-.86-.3887C48.5967,101.8818,41.5815,91.5371,40.646,84.18a1.4984,1.4984,0,0,1,.396-1.2178l2.7407-2.9092-3.1606-2.3359a1.5,1.5,0,0,1,.2768-2.5742l10.86-4.88a1.4992,1.4992,0,0,1,2.1142,1.3359c.064,3.7119.9244,22.4493,11.7774,34.55a1.5,1.5,0,0,1-1.1167,2.502ZM56.51,105.09c1.8281.1846,3.44.3116,4.7324.3975C53.03,94.4414,51.3154,79.95,50.9614,73.91l-6.4941,2.9179,2.458,1.8164a1.4994,1.4994,0,0,1,.2,2.2344l-3.397,3.6065C44.876,90.7363,51.0532,99.9131,56.51,105.09Z" style="fill:#333"/><path d="M96.3538,83.9905c-.86,6.76-7.62,16.92-13.74,22.56-2.8.3-5.7.5-8.68.62h0c12-13.38,12.14-34.62,12.16-35.54l10.86,4.88-4.52,3.34Z" style="fill:#444649"/><path d="M73.9331,108.6709a1.5,1.5,0,0,1-1.1162-2.502C83.67,94.0674,84.53,75.3145,84.5928,71.6777A1.5646,1.5646,0,0,1,85.2891,70.4a1.5058,1.5058,0,0,1,1.4194-.1377l10.86,4.88a1.5,1.5,0,0,1,.2768,2.5742L94.688,80.05l2.7549,2.9092a1.4974,1.4974,0,0,1,.3989,1.2207C96.918,91.44,89.7456,102.0176,83.63,107.6533a1.4961,1.4961,0,0,1-.857.3887c-2.7182.291-5.6723.5019-8.7793.6279C73.9736,108.6709,73.9536,108.6709,73.9331,108.6709ZM87.5044,73.9092c-.36,6.1084-2.0845,20.5674-10.273,31.59,1.6382-.1035,3.2183-.2334,4.7256-.3877,5.4649-5.1845,11.6519-14.3711,12.8018-20.624l-3.4141-3.6055a1.5,1.5,0,0,1,.1973-2.2373L94,76.8281Z" style="fill:#333"/><rect x="52.814" y="64.9707" width="3" height="5.3398" style="fill:#333"/><rect x="82.6738" y="64.9707" width="3" height="5.3398" style="fill:#333"/></g></svg>