<svg xmlns="http://www.w3.org/2000/svg" viewBox="0 0 128 128"><title>robot-01</title><g id="robot-01"><g id="robot-2"><g id="robot-2-2"><g id="Icons"><path d="M108,98.5H28v-10a16,16,0,0,1,16-16H92a16,16,0,0,1,16,16Z" style="fill:#708eba"/><path d="M96,76.5H44a12,12,0,0,0-12,12v10h76v-10a15.74,15.74,0,0,0-2.88-9.12A15.74,15.74,0,0,0,96,76.5Z" style="fill:#4a6199"/><path d="M108,100H28a1.5,1.5,0,0,1-1.5-1.5v-10A17.52,17.52,0,0,1,44,71H92a17.52,17.52,0,0,1,17.5,17.5v10A1.5,1.5,0,0,1,108,100ZM29.5,97h77V88.5A14.5167,14.5167,0,0,0,92,74H44A14.5167,14.5167,0,0,0,29.5,88.5Z" style="fill:#333"/><path d="M119.22,101.98a12.4,12.4,0,0,0-9.12-9.6,244.5571,244.5571,0,0,0-42-3.9,239.1361,239.1361,0,0,0-42,4,11.68,11.68,0,0,0-9.12,9.6L16,106.5l.2.12C32,113.6,49.64,116.5,68,116.5a128.461,128.461,0,0,0,52-10h0Z" style="fill:#7cbdd6"/><path d="M110,97.98l-9.54-2.38a134.0024,134.0024,0,0,0-32.38-4H68a133.7812,133.7812,0,0,0-32.38,4L26,97.98a13.26,13.26,0,0,0-9.1,8.96C32.54,113.7,50,116.5,68,116.5a128.58,128.58,0,0,0,51.18-9.6A13.16,13.16,0,0,0,110,97.98Z" style="fill:#61a6c9"/><path d="M67.3467,118.5015A138.2267,138.2267,0,0,1,15.25,108.354a1.9989,1.9989,0,0,1-1.2021-2.2871l.9677-4.3623a13.7565,13.7565,0,0,1,10.67-11.1812A237.17,237.17,0,0,1,68.09,86.48a243.2778,243.2778,0,0,1,42.3682,3.9321,13.65,13.65,0,0,1,10.7344,11.24l.7783,4.5078a2.0008,2.0008,0,0,1-1.2236,2.1958A140.171,140.171,0,0,1,67.9941,118.5C67.7793,118.501,67.5615,118.5015,67.3467,118.5015Zm-49.0254-13.231a134.3175,134.3175,0,0,0,49.67,9.23c.1309.0005.2637.0005.3955.0005a135.5032,135.5032,0,0,0,49.3662-9.2617l-.5039-2.9185-.0039-.0229a9.6581,9.6581,0,0,0-7.5635-7.962A239.127,239.127,0,0,0,68.09,90.48a233.0028,233.0028,0,0,0-41.622,3.9658,9.7209,9.7209,0,0,0-7.5117,7.9468c-.0069.04-.0147.0805-.0235.1206Z" style="fill:#333"/><path d="M54,68.5V82.62A14,14,0,0,0,68,96.48h0A14,14,0,0,0,82,82.62V68.5Z" style="fill:#6ad3b8"/><path d="M54,72.7,75.72,94.18A13.82,13.82,0,0,0,82,82.62V68.5H54Z" style="fill:#65bca6"/><path d="M68,85c-10.1514,0-14.2471-5.9688-14.416-6.2227l.831-.5556C54.4541,78.28,58.4111,84,68,84c9.6211,0,13.5459-5.72,13.584-5.7773l.832.5546C82.2471,79.0312,78.1514,85,68,85Z" style="fill:#51a58d"/><path d="M68,89c-10.1514,0-14.2471-5.9688-14.416-6.2227l.831-.5556C54.4541,82.28,58.4111,88,68,88c9.6211,0,13.5459-5.72,13.584-5.7773l.832.5546C82.2471,83.0312,78.1514,89,68,89Z" style="fill:#51a58d"/><path d="M68,93c-10.1514,0-14.2471-5.9688-14.416-6.2227l.831-.5556C54.4541,86.28,58.4111,92,68,92c9.6211,0,13.5459-5.72,13.584-5.7773l.832.5546C82.2471,87.0312,78.1514,93,68,93Z" style="fill:#51a58d"/><path d="M67.99,79.11c-5.0507,0-11.1875-.74-13.2636-2.8164l.707-.7071c1.51,1.5093,6.5557,2.5235,12.5566,2.5235s11.0469-1.0142,12.5567-2.5235l.707.7071C79.1768,78.37,73.04,79.11,67.99,79.11Z" style="fill:#5d6268"/><path d="M68.001,98.48H68A16.0518,16.0518,0,0,1,52,82.64V68.5a2,2,0,0,1,2-2H82a2,2,0,0,1,2,2V82.62A16.0562,16.0562,0,0,1,68.001,98.48ZM56,70.5V82.62a12.0007,12.0007,0,0,0,24-.02V70.5Z" style="fill:#333"/><circle cx="68" cy="106.5" r="10" style="fill:#61a6c9"/><path d="M60.72,108.6A10.68,10.68,0,0,1,71.4,97.92a10.82,10.82,0,0,1,4.76,1.12A10.68,10.68,0,1,0,63.24,115.5,10.6,10.6,0,0,1,60.72,108.6Z" style="fill:#7cbdd6"/><circle cx="68" cy="106.5" r="4" style="fill:#81e2c7"/><path d="M66,108.5a3.999,3.999,0,0,0,.36,1.64,3.9848,3.9848,0,0,0,5.28-5.28A3.9848,3.9848,0,0,0,66,108.5Z" style="fill:#6ad3b8"/><path d="M68,111.5a5,5,0,1,1,5-5A5.0059,5.0059,0,0,1,68,111.5Zm0-8a3,3,0,1,0,3,3A3.0033,3.0033,0,0,0,68,103.5Z" style="fill:#333"/><path d="M68,118.5a12,12,0,1,1,12-12A12.0134,12.0134,0,0,1,68,118.5Zm0-20a8,8,0,1,0,8,8A8.0092,8.0092,0,0,0,68,98.5Z" style="fill:#333"/><path d="M68,16.36c-16.96,0-22.7,9.02-22.58,20.74a42.3081,42.3081,0,0,0,.22,4.54l2.1,15.64c.2,11.72,7.64,16,9.46,18.56A12.3,12.3,0,0,0,68,80.4a12.3,12.3,0,0,0,10.8-4.56c1.82-2.46,9.26-6.84,9.46-18.56l2-15.64a42.3081,42.3081,0,0,0,.22-4.54C90.7,25.38,84.96,16.36,68,16.36Z" style="fill:#61a6c9"/><path d="M52.18,60.52,50,44.88a42.3081,42.3081,0,0,1-.22-4.54C49.64,26.12,55.42,19.6,72.36,19.6A31.0207,31.0207,0,0,1,86.2,22.96c-3.5-3.82-9.32-6.6-18.28-6.6-16.96,0-22.7,9.02-22.58,20.74a42.2822,42.2822,0,0,0,.22,4.54l2.1,15.64c.2,11.72,7.64,16,9.46,18.56a8.44,8.44,0,0,0,4.4,3.18C59.72,76.56,52.38,72.16,52.18,60.52Z" style="fill:#7cbdd6"/><path d="M48,54.42v5.66c1.22,9.62,7.58,13.5,9.24,15.76.26.34.54.62.8.92V64.5a9.8,9.8,0,0,0-9.5129-10.079Q48.2637,54.4135,48,54.42Z" style="fill:#708eba"/><path d="M48.2,59.94c1.22,9.56,7.58,13.56,9.24,15.76.18.24.36.46.56.68v-6.4A10,10,0,0,0,48.2,59.94Z" style="fill:#61a6c9"/><path d="M66.7891,82.459a14.2463,14.2463,0,0,1-11.1514-5.37c-.0234-.0293-.0459-.06-.0674-.09a15.3822,15.3822,0,0,0-1.501-1.5844c-2.8388-2.7774-8.1142-7.9375-8.3261-17.982l-2.086-15.5264A44.86,44.86,0,0,1,43.42,37.09c-.0713-6.9814,1.8379-12.5029,5.6758-16.38,4.17-4.2134,10.53-6.35,18.9043-6.35,8.4014,0,14.7695,2.1479,18.9268,6.3842,3.8164,3.8882,5.6845,9.4038,5.5537,16.3936a44.06,44.06,0,0,1-.2315,4.707L90.2578,57.4263c-.2129,10.1611-5.5566,15.3413-8.4326,18.1289a15.8307,15.8307,0,0,0-1.418,1.4741A14.283,14.283,0,0,1,68,82.4082C67.5957,82.4419,67.19,82.459,66.7891,82.459ZM68,78.4c.0645,0,.13.0029.1943.0093a10.2576,10.2576,0,0,0,9.043-3.8184,17.4761,17.4761,0,0,1,1.8047-1.9077c2.8154-2.73,7.0713-6.855,7.2178-15.4375a2.0556,2.0556,0,0,1,.0166-.22l2-15.64a40.3878,40.3878,0,0,0,.2041-4.2758c.11-5.9239-1.3731-10.4712-4.4082-13.5645C80.6943,20.1045,75.2871,18.36,68,18.36c-7.2666,0-12.67,1.7373-16.0615,5.1635C48.88,26.6138,47.3594,31.1748,47.42,37.08a40.9325,40.9325,0,0,0,.209,4.3569l2.0938,15.5772a2.2971,2.2971,0,0,1,.0175.2319c.1446,8.48,4.3457,12.59,7.126,15.3091a17.85,17.85,0,0,1,1.9268,2.0737,10.2648,10.2648,0,0,0,9.0127,3.7808C67.87,78.4028,67.9355,78.4,68,78.4Z" style="fill:#333"/><path d="M78,46.5a3,3,0,1,0,3,3,3.08,3.08,0,0,0-3-3" style="fill:#6ad3b8"/><path d="M78,54a4.5,4.5,0,0,1,0-9l.0381.0005a4.5766,4.5766,0,0,1,4.4609,4.4609A4.5119,4.5119,0,0,1,78,54Zm-.0195-6A1.5,1.5,0,1,0,79.5,49.5,1.571,1.571,0,0,0,77.9805,48Z" style="fill:#333"/><path d="M58,46.5a3,3,0,1,0,3,3,3.08,3.08,0,0,0-3-3" style="fill:#6ad3b8"/><path d="M58,54a4.5,4.5,0,0,1,0-9l.0381.0005a4.5766,4.5766,0,0,1,4.4609,4.4609A4.5119,4.5119,0,0,1,58,54Zm-.02-6a1.5,1.5,0,1,0,1.52,1.5A1.571,1.571,0,0,0,57.9805,48Z" style="fill:#333"/><path d="M68,12.48a29.8794,29.8794,0,0,0-10,2v12a10,10,0,0,0,20,0v-12A29.3993,29.3993,0,0,0,68,12.48Z" style="fill:#61a6c9"/><path d="M58,14.5v12a10,10,0,0,0,10,10h0a3.7,3.7,0,0,0-2.48-3.44A6.9,6.9,0,0,1,61,26.5V16.66a23.04,23.04,0,0,1,7-1.16,27.18,27.18,0,0,1,9.04,1.86L78,14.5a29.3993,29.3993,0,0,0-10-2A29.3993,29.3993,0,0,0,58,14.5Z" style="fill:#86c7e0"/><path d="M68,37.98a11.5131,11.5131,0,0,1-11.5-11.5v-12a1.4993,1.4993,0,0,1,.959-1.3989,31.299,31.299,0,0,1,10.5019-2.1006c.0245,0,.0518,0,.0733,0a30.8139,30.8139,0,0,1,10.5107,2.102A1.5,1.5,0,0,1,79.5,14.48v12A11.5131,11.5131,0,0,1,68,37.98ZM59.5,15.5278V26.48a8.5,8.5,0,0,0,17,0V15.5249a27.8007,27.8007,0,0,0-8.498-1.5444A28.2941,28.2941,0,0,0,59.5,15.5278Z" style="fill:#333"/><path d="M68,55.48a1,1,0,0,1-1-1V37.22a1,1,0,0,1,2,0V54.48A1,1,0,0,1,68,55.48Z" style="fill:#333"/><path d="M58,77.8a1,1,0,0,1-.7559-.3452l-.2529-.2827c-.1973-.2158-.3955-.4365-.5859-.6851a16.1753,16.1753,0,0,0-1.5147-1.5854c-2.5361-2.461-6.7812-6.58-7.8808-14.26A.972.972,0,0,1,47,60.5v-6a1,1,0,0,1,1-1,11.0125,11.0125,0,0,1,11,11V76.8a1,1,0,0,1-1,1ZM49,60.4282c1.0176,6.9585,4.7871,10.6153,7.2842,13.0381.2519.2451.4931.4785.7158.7017V64.5a9.0129,9.0129,0,0,0-8-8.9448Z" style="fill:#333"/><path d="M88,54.42v5.66c-1.22,9.62-7.58,13.5-9.24,15.76-.26.34-.54.62-.8.92V64.5a9.8,9.8,0,0,1,9.5129-10.079Q87.7363,54.4135,88,54.42Z" style="fill:#708eba"/><path d="M87.8,59.94C86.58,69.5,80.22,73.5,78.56,75.7c-.18.24-.36.46-.56.68v-6.4A10,10,0,0,1,87.8,59.94Z" style="fill:#61a6c9"/><path d="M78,77.8a1,1,0,0,1-1-1V64.5a11.0125,11.0125,0,0,1,11-11,1,1,0,0,1,1,1v6a.972.972,0,0,1-.01.1416c-1.1,7.68-5.3447,11.7988-7.8808,14.26a16.2349,16.2349,0,0,0-1.5088,1.5776c-.1963.2564-.3945.4771-.5918.6929l-.2529.2827A1,1,0,0,1,78,77.8Zm9-22.2446A9.0129,9.0129,0,0,0,79,64.5v9.668c.2227-.2232.4629-.4566.7158-.7017,2.4971-2.4228,6.2666-6.08,7.2842-13.0381Z" style="fill:#333"/><path d="M45.14,37.22,38,44.5V56.34l9.56,4.3S48.32,43.96,45.14,37.22Z" style="fill:#708eba"/><polygon points="42 40.02 38 44.5 38.02 56.34 42 58.12 42 40.02" style="fill:#89a5c6"/><path d="M47.56,62.64a1.9914,1.9914,0,0,1-.82-.1762l-9.56-4.3A2,2,0,0,1,36,56.34V44.5a1.9978,1.9978,0,0,1,.5723-1.4l7.14-7.28a2,2,0,0,1,3.2363.5469C50.3027,43.4736,49.59,60.03,49.5576,60.7314A2,2,0,0,1,47.56,62.64ZM40,55.0464l5.6377,2.5361c.0459-4.644-.1758-11.8252-1.3477-16.64L40,45.3169Z" style="fill:#333"/><rect x="42" y="49.5" width="4" height="2" style="fill:#333"/><path d="M90.86,37.22,98,44.5V56.34l-9.56,4.3S87.68,43.96,90.86,37.22Z" style="fill:#708eba"/><polygon points="94 40.02 98 44.5 97.98 56.34 94 58.12 94 40.02" style="fill:#89a5c6"/><path d="M88.44,62.64a2,2,0,0,1-1.998-1.9087c-.0322-.7016-.7451-17.2578,2.6094-24.3647a2,2,0,0,1,3.2363-.5469l7.14,7.28A1.9978,1.9978,0,0,1,100,44.5V56.34a2,2,0,0,1-1.18,1.8238l-9.56,4.3A1.9914,1.9914,0,0,1,88.44,62.64ZM91.709,40.9424c-1.1729,4.8159-1.3936,11.9975-1.3467,16.64L96,55.0464v-9.73Z" style="fill:#333"/><rect x="98" y="49" width="6" height="3" style="fill:#333"/><circle cx="107" cy="50.5" r="3" style="fill:#6ad3b8"/><path d="M107,55a4.5,4.5,0,1,1,4.5-4.5A4.505,4.505,0,0,1,107,55Zm0-6a1.5,1.5,0,1,0,1.5,1.5A1.5017,1.5017,0,0,0,107,49Z" style="fill:#333"/><rect x="32" y="49" width="6" height="3" style="fill:#333"/><circle cx="29" cy="50.5" r="3" style="fill:#6ad3b8"/><path d="M29,55a4.5,4.5,0,1,1,4.5-4.5A4.505,4.505,0,0,1,29,55Zm0-6a1.5,1.5,0,1,0,1.5,1.5A1.5017,1.5017,0,0,0,29,49Z" style="fill:#333"/><rect x="90" y="49.5" width="4" height="2" style="fill:#333"/><rect x="61" y="64.5" width="2" height="4" style="fill:#333"/><rect x="65" y="64.5" width="2" height="4" style="fill:#333"/><rect x="69" y="64.5" width="2" height="4" style="fill:#333"/><rect x="73" y="64.5" width="2" height="4" style="fill:#333"/><path d="M68,30.5h0a4,4,0,0,1-4-4v-15a4,4,0,0,1,4-4h0a4,4,0,0,1,4,4v15A4,4,0,0,1,68,30.5Z" style="fill:#61a6c9"/><path d="M69,10.5a2,2,0,0,1,2,2v14a4,4,0,0,1-4,4h0v-18a2,2,0,0,1,2-2" style="fill:#6d9dc9"/><path d="M68,32a5.5066,5.5066,0,0,1-5.5-5.5v-15a5.5,5.5,0,0,1,11,0v15A5.5066,5.5066,0,0,1,68,32ZM68,9a2.5026,2.5026,0,0,0-2.5,2.5v15a2.5,2.5,0,0,0,5,0v-15A2.5026,2.5026,0,0,0,68,9Z" style="fill:#333"/><path d="M54,94.5H40v-6a6,6,0,0,1,6-6h8Z" style="fill:#61a6c9"/><path d="M46,82.5a6,6,0,0,0-6,6v3.86a6.2,6.2,0,0,1,6-5.86h8v-4Z" style="fill:#7cbdd6"/><path d="M56,94.5H52v-10H46a4.0042,4.0042,0,0,0-4,4v6H38v-6a8.0092,8.0092,0,0,1,8-8h8a2,2,0,0,1,2,2Z" style="fill:#333"/><rect x="44" y="88" width="6" height="1" style="fill:#333"/><rect x="44" y="90" width="6" height="1" style="fill:#333"/><rect x="44" y="92" width="6" height="1" style="fill:#333"/><path d="M82,94.5H96v-6a6,6,0,0,0-6-6H82Z" style="fill:#61a6c9"/><path d="M90,82.5a6,6,0,0,1,6,6v3.86a6.2,6.2,0,0,0-6-5.86H82v-4Z" style="fill:#7cbdd6"/><path d="M98,94.5H94v-6a4.0042,4.0042,0,0,0-4-4H84v10H80v-12a2,2,0,0,1,2-2h8a8.0092,8.0092,0,0,1,8,8Z" style="fill:#333"/><rect x="86" y="88" width="6" height="1" style="fill:#333"/><rect x="86" y="90" width="6" height="1" style="fill:#333"/><rect x="86" y="92" width="6" height="1" style="fill:#333"/><path d="M60.001,117.5a1,1,0,0,1-.8418-.4585l-3.3-5.12a9.2965,9.2965,0,0,0-5.84-3.8613l-2.2226-.461a15.353,15.353,0,0,1-10.6934-8.1953l-4.0078-8.4766a1,1,0,0,1,1.8086-.8544l4,8.46a13.3351,13.3351,0,0,0,9.291,7.1065l2.2276.4619a11.3,11.3,0,0,1,7.1025,4.7138l3.3154,5.1436a1,1,0,0,1-.84,1.5415Z" style="fill:#333"/><path d="M75.999,117.5a1,1,0,0,1-.84-1.5415l3.3-5.12A11.3192,11.3192,0,0,1,85.58,106.1l2.2168-.459a13.3474,13.3474,0,0,0,9.3066-7.125l3.9922-8.4433a1,1,0,0,1,1.8086.8544l-4,8.46a15.3658,15.3658,0,0,1-10.709,8.2139l-2.2119.458a9.3154,9.3154,0,0,0-5.8584,3.8857l-3.2842,5.0967A1,1,0,0,1,75.999,117.5Z" style="fill:#333"/></g></g></g></g></svg>