<svg xmlns="http://www.w3.org/2000/svg" viewBox="0 0 128 128"><title>robot-02</title><g id="robot-02"><path d="M97.19,88.6745C86.152,85.92,80.7714,84.11,62.1127,84.11a130.7029,130.7029,0,0,0-34.9648,4.565c-6.8535,1.72-5.8408,1.8935-9.0352,11.4331a103.8382,103.8382,0,0,0,44,10.0009c24.1793,0,43.56-9.6358,44-9.9991C104.154,94.978,103.4034,90.2339,97.19,88.6745Z" style="fill:#8c8880"/><path d="M39.88,85.91l24.1563,24.1516c23.2685-.49,41.6479-9.5989,42.0766-9.9524-1.9589-5.1313-2.7094-9.8755-8.9228-11.435C86.1518,85.92,80.7714,84.11,62.1127,84.11A126.9852,126.9852,0,0,0,39.88,85.91Z" style="fill:#666054"/><path d="M97.19,94.7c-11.0381-2.7546-16.4185-4.5649-35.0772-4.5649A130.7073,130.7073,0,0,0,27.1479,94.7c-5.2783,1.3247-5.8945,1.75-7.3565,6.2249a105.59,105.59,0,0,0,42.3213,9.1833,107.2994,107.2994,0,0,0,42.1114-9.0639C102.9682,98.0939,101.2426,95.7174,97.19,94.7Z" style="fill:#666054"/><path d="M97.19,94.7c-11.0381-2.7546-16.4185-4.5649-35.0772-4.5649a132.8992,132.8992,0,0,0-16.9965,1.01l18.92,18.9162a108.8121,108.8121,0,0,0,38.5591-8.303l.0615-.0258c.4516-.1919.8442-.3658,1.2119-.53.0869-.0391.19-.084.2725-.1214.0317-.0144.0517-.0241.0825-.0383C102.9677,98.0934,101.2421,95.7174,97.19,94.7Z" style="fill:#5b5446"/><path d="M76.9018,86.2633a15.04,15.04,0,0,0-.0889-1.6c-3.9258-.3572-8.5947-.5542-14.7-.5542a136.0778,136.0778,0,0,0-14.93.7656c-.0424.4576-.07.9195-.07,1.3882a14.8946,14.8946,0,1,0,29.7891,0Z" style="fill:#544c3e"/><path d="M97.19,88.6745C86.152,85.92,80.7714,84.11,62.1127,84.11a130.7029,130.7029,0,0,0-34.9648,4.565c-6.8535,1.72-5.8408,1.8935-9.0352,11.4331a103.8382,103.8382,0,0,0,44,10.0009c24.1793,0,43.56-9.6358,44-9.9991C104.154,94.978,103.4034,90.2339,97.19,88.6745Z" style="fill:none;stroke:#333;stroke-linejoin:round;stroke-width:4px"/><path d="M52.1127,76.1344h20a0,0,0,0,1,0,0v10a10,10,0,0,1-10,10h0a10,10,0,0,1-10-10v-10A0,0,0,0,1,52.1127,76.1344Z" style="fill:#959fa0"/><path d="M72.1127,80.1344c-2.7006,2.6667-17.2993,2.6667-20,0" style="fill:none;stroke:#5d6268;stroke-linejoin:round;stroke-width:2px"/><path d="M72.1127,84.1344c-2.7006,2.6667-17.2993,2.6667-20,0" style="fill:none;stroke:#5d6268;stroke-linejoin:round;stroke-width:2px"/><path d="M72.1127,88.1344c-2.7006,2.6667-17.2993,2.6667-20,0" style="fill:none;stroke:#5d6268;stroke-linejoin:round;stroke-width:2px"/><path d="M52.1127,76.1344h20a0,0,0,0,1,0,0v10a10,10,0,0,1-10,10h0a10,10,0,0,1-10-10v-10A0,0,0,0,1,52.1127,76.1344Z" style="fill:none;stroke:#333;stroke-linejoin:round;stroke-width:4px"/><ellipse cx="62.1127" cy="72.8223" rx="17.6875" ry="8.4511" style="fill:#626b6b"/><path d="M62.1127,64.3712c-9.7685,0-17.6875,3.7837-17.6875,8.4511,0,2.2116,1.7925,4.2184,4.7028,5.7246a12.8475,12.8475,0,0,0,3.9276-1.4224l2.5473-1.4152a13.3261,13.3261,0,0,1,13.02,0L71.17,77.1245a12.8475,12.8475,0,0,0,3.9276,1.4224c2.91-1.5062,4.7027-3.513,4.7027-5.7246C79.8,68.1549,71.8813,64.3712,62.1127,64.3712Z" style="fill:#516060"/><ellipse cx="62.1127" cy="73.1344" rx="18" ry="9" style="fill:none;stroke:#333;stroke-linejoin:round;stroke-width:4px"/><path d="M43.3527,101.6212H86.9118a5.4,5.4,0,0,1,2.3183.5253,5.4283,5.4283,0,0,0-5.3379-4.4539H40.3332a5.43,5.43,0,0,0-5.43,5.43v2.9408c1.0044.2649,2.016.5119,3.0317.748A5.4256,5.4256,0,0,1,43.3527,101.6212Z" style="fill:#8c8880"/><path d="M62.1127,110.1085a103.565,103.565,0,0,0,26-3.4792v-4.4949a4,4,0,0,0-4-4h-44a4,4,0,0,0-4,4v4.5144A103.0959,103.0959,0,0,0,62.1127,110.1085Z" style="fill:#8c8880"/><path d="M62.1127,110.1085a103.565,103.565,0,0,0,26-3.4792v-4.4949h-46a2,2,0,0,0-2,2v3.4829A101.66,101.66,0,0,0,62.1127,110.1085Z" style="fill:#666054"/><path d="M62.1127,110.1085a103.565,103.565,0,0,0,26-3.4792v-4.4949a4,4,0,0,0-4-4h-44a4,4,0,0,0-4,4v4.5144A103.0959,103.0959,0,0,0,62.1127,110.1085Z" style="fill:none;stroke:#333;stroke-linejoin:round;stroke-width:3px"/><path d="M94.1127,74.1344H77.0916a9.8114,9.8114,0,0,1-5.4549-1.6562l-4.069-2.7219a9.811,9.811,0,0,0-10.91,0l-4.069,2.7219a9.8115,9.8115,0,0,1-5.455,1.6562H30.1127a8,8,0,0,1-8-8v-30a8,8,0,0,1,8-8h64a8,8,0,0,1,8,8v30A8,8,0,0,1,94.1127,74.1344Z" style="fill:#acb6b7"/><path d="M32.1127,34.1344a4,4,0,0,0-4,4v34a7.9573,7.9573,0,0,0,.2159,1.7842,7.9752,7.9752,0,0,0,1.7841.2158h17.021a9.8111,9.8111,0,0,0,5.4551-1.6562l4.0689-2.722a9.812,9.812,0,0,1,10.91,0l4.0689,2.722a9.811,9.811,0,0,0,5.455,1.6562h17.021a8,8,0,0,0,8-8v-30a7.9573,7.9573,0,0,0-.2158-1.7842,7.9819,7.9819,0,0,0-1.7842-.2158Z" style="fill:#90a0a3"/><path d="M28.1127,50.1344h28a0,0,0,0,1,0,0v14a4,4,0,0,1-4,4h-20a4,4,0,0,1-4-4v-14A0,0,0,0,1,28.1127,50.1344Z" style="fill:#7f9193"/><circle cx="42.1587" cy="50.1836" r="14" style="fill:#b5c1c6"/><circle cx="42.1587" cy="50.1836" r="10" style="fill:#a1acb2"/><circle cx="42.1587" cy="50.1836" r="7" style="fill:#333"/><circle cx="42.1587" cy="50.1836" r="14" style="fill:none;stroke:#333;stroke-linejoin:round;stroke-width:2px"/><circle cx="40.0179" cy="47.9955" r="2" style="fill:#ccc"/><circle cx="44.7556" cy="52.7096" r="1.0035" style="fill:#aaa"/><path d="M68.0667,50.1344h28a0,0,0,0,1,0,0v14a4,4,0,0,1-4,4h-20a4,4,0,0,1-4-4v-14A0,0,0,0,1,68.0667,50.1344Z" style="fill:#7f9193"/><circle cx="82.1127" cy="50.1836" r="14" style="fill:#b5c1c6"/><circle cx="82.1127" cy="50.1836" r="10" style="fill:#a1acb2"/><circle cx="82.1127" cy="50.1836" r="14" style="fill:none;stroke:#333;stroke-linejoin:round;stroke-width:2px"/><circle cx="82.1127" cy="50.1836" r="7" style="fill:#333"/><circle cx="79.9719" cy="47.9955" r="2" style="fill:#ccc"/><circle cx="84.7096" cy="52.7096" r="1.0035" style="fill:#aaa"/><line x1="62.1127" y1="22.1344" x2="62.1127" y2="28.1093" style="fill:none;stroke:#333;stroke-linejoin:round;stroke-width:4px"/><path d="M94.1127,74.1344H77.0916a9.8114,9.8114,0,0,1-5.4549-1.6562l-4.069-2.7219a9.811,9.811,0,0,0-10.91,0l-4.069,2.7219a9.8115,9.8115,0,0,1-5.455,1.6562H30.1127a8,8,0,0,1-8-8v-30a8,8,0,0,1,8-8h64a8,8,0,0,1,8,8v30A8,8,0,0,1,94.1127,74.1344Z" style="fill:none;stroke:#333;stroke-linejoin:round;stroke-width:4px"/><line x1="58.1127" y1="76.1344" x2="66.1127" y2="76.1344" style="fill:none;stroke:#333;stroke-miterlimit:10;stroke-width:2px"/><circle cx="62.1127" cy="16.1344" r="6" style="fill:#708eba"/><path d="M59.1351,18.9409a5.9933,5.9933,0,0,1,8.2883-5.5432,5.9876,5.9876,0,1,0-7.599,8.28A5.9335,5.9335,0,0,1,59.1351,18.9409Z" style="fill:#82a6d1"/><circle cx="62.1127" cy="16.1344" r="6" style="fill:none;stroke:#333;stroke-miterlimit:10;stroke-width:4px"/></g></svg>