<svg xmlns="http://www.w3.org/2000/svg" viewBox="0 0 128 128"><title>robot-03</title><g id="robot-03"><g id="robot-1"><g id="robot-1-2"><g id="Icons"><path d="M86.5,84.14c-2.56,6-12,10-22,10s-19.42-4-22-10a202.2007,202.2007,0,0,0-22,4c-9.78,2.46-9.74,14.5-10,16a145.6416,145.6416,0,0,0,54,10,147.1617,147.1617,0,0,0,54-10c-.14-1.12,0-13.5-10-16A203.525,203.525,0,0,0,86.5,84.14Z" style="fill:#87b5d8"/><path d="M108.28,94.6l-10-2.48A139.6656,139.6656,0,0,0,64.6,87.98h-.1a139.5411,139.5411,0,0,0-33.7,4.16l-10,2.48a12.88,12.88,0,0,0-9.22,8.88A132.6027,132.6027,0,0,0,64.5,114.42a132.54,132.54,0,0,0,53-10.94A12.88,12.88,0,0,0,108.28,94.6Z" style="fill:#6d9dc9"/><path d="M64.5,94.14a32.9815,32.9815,0,0,0,16-3.84V70.14h-32V90.28A32.98,32.98,0,0,0,64.5,94.14Z" style="fill:#6d9dc9"/><rect x="48.5" y="86.1401" width="32" height="4" style="fill:#3c6782"/><rect x="48.5" y="78.1401" width="32" height="4" style="fill:#3c6782"/><rect x="78.5" y="70.1401" width="4" height="20" style="fill:#333"/><rect x="46.5" y="70.1401" width="4" height="20" style="fill:#333"/><rect x="34.5" y="95.1401" width="10" height="2" style="fill:#333"/><rect x="34.5" y="99.1401" width="10" height="2" style="fill:#333"/><rect x="84.5" y="95.1401" width="10" height="2" style="fill:#333"/><rect x="84.5" y="99.1401" width="10" height="2" style="fill:#333"/><circle cx="64.5" cy="104.14" r="4" style="fill:#fcaa06"/><path d="M64.5,109.64a5.5,5.5,0,1,1,5.5-5.5A5.5065,5.5065,0,0,1,64.5,109.64Zm0-8a2.5,2.5,0,1,0,2.5,2.5A2.5026,2.5026,0,0,0,64.5,101.64Z" style="fill:#333"/><path d="M63.5078,116.1436A146.9622,146.9622,0,0,1,9.7715,106.0029a2.0006,2.0006,0,0,1-1.2422-2.2041c.0205-.1255.0361-.3374.0605-.6162.8457-9.5747,4.6885-15.2886,11.4219-16.9819a204.864,204.864,0,0,1,22.24-4.0449A2.0018,2.0018,0,0,1,44.3369,83.35C46.4922,88.3613,55.16,92.14,64.5,92.14c9.3564,0,18.0244-3.7768,20.16-8.7846a1.996,1.996,0,0,1,2.0888-1.2,206.3574,206.3574,0,0,1,22.2158,4.039c4.8672,1.2168,10.794,5.21,11.4981,17.3545.01.1587.0156.2788.0234.354a2.04,2.04,0,0,1-1.2617,2.1011,148.5426,148.5426,0,0,1-54.04,10.1372c-.2325,0-.4619-.0005-.6934-.0015C64.1641,116.1421,63.835,116.1436,63.5078,116.1436ZM12.6406,102.8213A143.35,143.35,0,0,0,64.4873,112.14a144.6517,144.6517,0,0,0,51.9121-9.3369c-.6279-7.2094-3.4463-11.4883-8.3848-12.7226a202.2023,202.2023,0,0,0-20.3808-3.7774C84.12,92.1611,74.9209,96.14,64.5,96.14c-10.4033,0-19.6025-3.98-23.1309-9.8379A200.9615,200.9615,0,0,0,20.9658,90.085C14.1338,91.8037,12.9746,99.4341,12.6406,102.8213Z" style="fill:#333"/><path d="M64.5,16.14c-17.64,0-23.6,9.38-23.48,21.58a46.5692,46.5692,0,0,0,.22,4.74l2.18,16.26c.2,12.2,8,16.74,9.84,19.3A12.8,12.8,0,0,0,64.5,82.76a12.8,12.8,0,0,0,11.24-4.74c2-2.56,9.64-7.1,9.84-19.3l2.18-16.26a45.9988,45.9988,0,0,0,.22-4.74C88.1,25.52,82.14,16.14,64.5,16.14Z" style="fill:#87b5d8"/><path d="M64.5,16.14c-17.64,0-23.6,9.38-23.48,21.58a46.5692,46.5692,0,0,0,.22,4.74l2.18,16.26a27.3545,27.3545,0,0,0,.34,3.76,80.4673,80.4673,0,0,0,20.74,2,79.6636,79.6636,0,0,0,20.74-2,26.7828,26.7828,0,0,0,.34-3.76l2.18-16.26a45.9988,45.9988,0,0,0,.22-4.74C88.1,25.52,82.14,16.14,64.5,16.14Z" style="fill:#dadbc8"/><path d="M48.04,62.14,45.86,45.88a45.9956,45.9956,0,0,1-.22-4.74c-.14-14.8,5.88-21.58,23.48-21.58a32.5187,32.5187,0,0,1,14.4,3.5c-3.62-4.04-9.7-6.92-19.02-6.92-17.64,0-23.6,9.38-23.48,21.58a46.5692,46.5692,0,0,0,.22,4.74l2.18,16.26c.2,12.2,8,16.74,9.84,19.3a8.9205,8.9205,0,0,0,4.58,3.32C55.88,78.76,48.26,74.14,48.04,62.14Z" style="fill:#9fc8e2"/><path d="M43.76,62.46h0l4.32.2v-.6L45.9,45.8a45.9988,45.9988,0,0,1-.22-4.74c-.14-14.8,5.88-21.58,23.48-21.58a32.5194,32.5194,0,0,1,14.32,3.46c-.22-.26-.46-.52-.7-.76-3.74-3.54-9.6-6.04-18.28-6.04a27.9994,27.9994,0,0,0-15.22,3.62,16.9939,16.9939,0,0,0-3.18,2.6,14.7933,14.7933,0,0,0-1.84,2.34,17.28,17.28,0,0,0-1.4,2.62c-.14.3-.26.62-.38.94a26.22,26.22,0,0,0-1.46,9.48,41.41,41.41,0,0,0,.2,4.38v.34L43.4,58.72a16.4432,16.4432,0,0,0,.12,2A12.8152,12.8152,0,0,0,43.76,62.46Z" style="fill:#efefe1"/><path d="M63.3691,84.4087c-3.1269,0-8.1377-.3506-11.7187-5.2007a15.3775,15.3775,0,0,0-1.52-1.5967c-2.9727-2.89-8.4952-8.26-8.708-18.74l-2.1651-16.146a48.8644,48.8644,0,0,1-.2383-5.0147c-.07-7.1655,1.878-12.8159,5.79-16.7671C49.11,16.6016,55.7344,14.4,64.5,14.4s15.39,2.2017,19.69,6.5439c3.9121,3.9512,5.86,9.6016,5.79,16.7955a48.0835,48.0835,0,0,1-.2305,4.9169L87.5771,58.8716c-.2158,10.6606-5.8056,16.018-8.8144,18.9009a17.4529,17.4529,0,0,0-1.4463,1.479c-3.7978,5.1455-9.3252,5.1464-12.2949,5.1469l-.8555.0049C63.918,84.4058,63.6514,84.4087,63.3691,84.4087ZM64.5,18.4c-7.6582,0-13.3271,1.8027-16.8477,5.3589C44.5186,26.9229,42.96,31.6133,43.02,37.7a44.8948,44.8948,0,0,0,.211,4.5649l2.1718,16.189a2.288,2.288,0,0,1,.0176.2329c.1455,8.9072,4.57,13.21,7.499,16.0562a17.4849,17.4849,0,0,1,1.9649,2.11c2.6728,3.62,6.6221,3.58,9.24,3.55l.8965-.0049c2.7344,0,6.4785-.0009,9.11-3.5664a19.366,19.366,0,0,1,1.8642-1.9477c2.9619-2.8369,7.4365-7.125,7.585-16.1973a2.288,2.288,0,0,1,.0176-.2329l2.18-16.26a44.0555,44.0555,0,0,0,.2032-4.4648c.0595-6.1162-1.4991-10.8066-4.6328-13.9707C77.8271,20.2026,72.1582,18.4,64.5,18.4Z" style="fill:#333"/><path d="M75.94,35.74a11.44,11.44,0,1,0-19.5,8,11.22,11.22,0,0,1,3,7.68H69.56A11.22,11.22,0,0,1,72.5,43.8,10.98,10.98,0,0,0,75.94,35.74Z" style="fill:#f29f1c"/><path d="M59.5,46.14a11.4,11.4,0,0,1,8-19.5,11.5794,11.5794,0,0,1,5.34,1.3A11.44,11.44,0,1,0,56.5,43.8a11.22,11.22,0,0,1,3,7.68h2.8A11.48,11.48,0,0,0,59.5,46.14Z" style="fill:#f9bf08"/><path d="M60.38,51.5v3.18a3.74,3.74,0,0,0,3.74,3.74h.74a3.74,3.74,0,0,0,3.74-3.74V51.5Z" style="fill:#7f8587"/><path d="M62.98,56.82V56.4a2.76,2.76,0,0,1,2.76-2.76h2.88V51.5H60.38v3.18a3.76,3.76,0,0,0,2.94,3.66A3.6007,3.6007,0,0,1,62.98,56.82Z" style="fill:#929799"/><path d="M69.56,52.42H59.44a1.0011,1.0011,0,0,1-1-1.0039A10.19,10.19,0,0,0,55.708,44.42a12.4384,12.4384,0,0,1,.0869-17.6846,12.2859,12.2859,0,0,1,8.834-3.5532A12.4547,12.4547,0,0,1,76.94,35.7412a12.02,12.02,0,0,1-3.7539,8.7857A10.1664,10.1664,0,0,0,70.56,51.4155a.9994.9994,0,0,1-1,1.0044Zm-9.1563-2h8.1934a12.1855,12.1855,0,0,1,3.165-7.2949A10.0646,10.0646,0,0,0,74.94,35.7466V35.73a10.4526,10.4526,0,0,0-10.333-10.5469,10.2673,10.2673,0,0,0-7.4131,2.9815,10.3733,10.3733,0,0,0-3.1328,7.3505,10.4956,10.4956,0,0,0,3.083,7.5157A12.208,12.208,0,0,1,60.4033,50.42Z" style="fill:#333"/><path d="M64.86,59.42h-.74a4.7451,4.7451,0,0,1-4.74-4.74V51.5a1,1,0,0,1,1-1H68.6a1,1,0,0,1,1,1v3.18A4.7449,4.7449,0,0,1,64.86,59.42ZM61.38,52.5v2.18a2.7432,2.7432,0,0,0,2.74,2.74h.74A2.7423,2.7423,0,0,0,67.6,54.68V52.5Z" style="fill:#333"/><path d="M66.56,39.8H62.44a.5.5,0,0,1,0-1H66.56a.5.5,0,0,1,0,1Z" style="fill:#333"/><path d="M66.56,37.44H62.44a.5.5,0,0,1,0-1H66.56a.5.5,0,0,1,0,1Z" style="fill:#333"/><path d="M66.56,35.1H62.44a.5.5,0,0,1,0-1H66.56a.5.5,0,0,1,0,1Z" style="fill:#333"/><rect x="64" y="39.7397" width="1" height="12.2603" style="fill:#333"/><rect x="60.5" y="69.4199" width="8" height="2" style="fill:#333"/><path d="M61.3711,65.4873A71.1707,71.1707,0,0,1,44.26,63.3906l.48-1.9414a69.3178,69.3178,0,0,0,19.7159,1.9717A69.54,69.54,0,0,0,84.26,61.4492l.48,1.9414a71.4011,71.4011,0,0,1-20.2841,2.0283Q62.9165,65.4872,61.3711,65.4873Z" style="fill:#333"/></g></g></g></g></svg>