<svg xmlns="http://www.w3.org/2000/svg" viewBox="0 0 128 128"><title>traditiona-japanese-man</title><g id="traditiona-japanese-man"><circle cx="63" cy="15.7767" r="5.2" style="fill:#333"/><path d="M83,60.9767H43a9.7192,9.7192,0,0,1-9.6-11.6l2.4-13.8a27.623,27.623,0,0,1,27-21.6H63a28.0061,28.0061,0,0,1,27.2,21.4l2.4,14A9.9264,9.9264,0,0,1,83,60.9767Z" style="fill:#333"/><path d="M13.2,93.3767a7.0161,7.0161,0,0,1,5.6-4.6l29.4-5.4v-14.4H78v14.4l29.4,5.4a7.3159,7.3159,0,0,1,5.6,4.6l4.2,11a135.225,135.225,0,0,1-108,0Z" style="fill:#efc8a5"/><path d="M10.4,100.1767a12.4059,12.4059,0,0,1,9.6-9.8c19.2-4.8,14.8-3.4,28-8.2v-13.2H77.8v14c13.2,3.6,8.2,2.2,28.2,7.4a14.0776,14.0776,0,0,1,9.4,10.6l.6,3.4a131.5531,131.5531,0,0,1-53.2,11.2,130.6175,130.6175,0,0,1-53-11.2Z" style="fill:#e6b790"/><path d="M10.4,100.1767a12.4059,12.4059,0,0,1,9.6-9.8c19.2-4.8,14.8-3.4,28-8.2v-13.2H77.8v14c13.2,3.6,8.2,2.2,28.2,7.4a14.0776,14.0776,0,0,1,9.4,10.6l.6,3.4a131.5531,131.5531,0,0,1-53.2,11.2,130.6175,130.6175,0,0,1-53-11.2Z" style="fill:#e6b790"/><path d="M116,104.3767l-.6-3.4a13.1336,13.1336,0,0,0-9.4-10.6c-20-5-15-3.8-28.2-7.4v-14H48v6.8l13.2,11.8a5.0352,5.0352,0,0,1,1.8,4v24.2A134.2088,134.2088,0,0,0,116,104.3767Z" style="fill:#ddad8a"/><path d="M89.2,85.3767l-9.2-9.2-16.8,29-16.8-29-9.4,9.2h0l-18,3a7.4663,7.4663,0,0,0-5.8,4.8l-4,10.8a135.225,135.225,0,0,0,108,0l-4-10.8a8.3007,8.3007,0,0,0-5.8-4.8l-18.2-3Z" style="fill:#725948"/><path d="M40.6,96.9767l-27.4-4-4.2,11.4a137.6216,137.6216,0,0,0,38.8,10.4Z" style="fill:#674e3d"/><path d="M85.4,96.9767l27.4-4,4.2,11.4a137.6216,137.6216,0,0,1-38.8,10.4Z" style="fill:#674e3d"/><path d="M90,104.9767l4.2-2.4a1.275,1.275,0,0,1,1.2,0l4.2,2.4a1.2093,1.2093,0,0,1,.6,1.2v4.8l-10.2,1.2a1.2093,1.2093,0,0,1-.6-1.2v-4.8A1.7287,1.7287,0,0,1,90,104.9767Z" style="fill:#cbbd95"/><path d="M36,104.9767l-4.2-2.4a1.275,1.275,0,0,0-1.2,0l-4.2,2.4a1.2093,1.2093,0,0,0-.6,1.2v4.8l10.2,1.2a1.2093,1.2093,0,0,0,.6-1.2v-4.8A1.7287,1.7287,0,0,0,36,104.9767Z" style="fill:#cbbd95"/><path d="M63.2,117.0991a136.6568,136.6568,0,0,1-54.6-11.3476,1.5,1.5,0,0,1-.8067-1.896l4-10.8a8.9175,8.9175,0,0,1,6.9776-5.7613l17.9814-2.997a1.5,1.5,0,0,1,.4942,2.9589l-18,3a5.9509,5.9509,0,0,0-4.6465,3.8589l-3.499,9.4458a134.0348,134.0348,0,0,0,104.1972,0l-3.5049-9.4633a6.8287,6.8287,0,0,0-4.73-3.8594l-17.91-2.982a1.5,1.5,0,0,1,.4942-2.9589l18,3A9.7971,9.7971,0,0,1,114.585,93l4.0214,10.856a1.4994,1.4994,0,0,1-.8066,1.896A136.6568,136.6568,0,0,1,63.2,117.0991Z" style="fill:#333"/><path d="M63,115.5767a129.3016,129.3016,0,0,1-15.2-1L37,85.7767l9.4-9.4,22.4,39C66.8,115.5767,64.8,115.5767,63,115.5767Z" style="fill:#886b56"/><path d="M63,115.5767a129.3016,129.3016,0,0,1-15.2-1L37,85.7767l5.6-5.6,20.6,35.4Z" style="fill:#7f6351"/><path d="M63,117.0767a130.4974,130.4974,0,0,1-15.3789-1.0108,1.4992,1.4992,0,0,1-1.2256-.9624l-10.8-28.8a1.4989,1.4989,0,0,1,.3438-1.5874l9.4-9.4a1.5,1.5,0,0,1,2.3614.3135l22.3994,39a1.5,1.5,0,0,1-1.1514,2.24A59.4825,59.4825,0,0,1,63,117.0767Zm-14.1172-3.8833A125.4827,125.4827,0,0,0,63,114.0767c1.0381,0,2.1582,0,3.3-.0406L46.0752,78.8228l-7.332,7.3315Z" style="fill:#333"/><path d="M63,115.5767c-1.8,0-3.8,0-5.8-.2l22.6-39,9.2,9.4-10.8,29A131.2842,131.2842,0,0,1,63,115.5767Z" style="fill:#886b56"/><path d="M66.8,115.5767l19.2-33,3.2,3.2-10.8,29C74.4,115.1767,70.6,115.3767,66.8,115.5767Z" style="fill:#7f6351"/><path d="M63,117.0767a59.4825,59.4825,0,0,1-5.9492-.2076,1.5005,1.5005,0,0,1-1.1485-2.2446l22.6-39a1.5,1.5,0,0,1,2.37-.2974l9.2,9.4a1.5,1.5,0,0,1,.333,1.5728l-10.8,29a1.4988,1.4988,0,0,1-1.2334.9668A131.7248,131.7248,0,0,1,63,117.0767Zm-3.29-3.04c1.1386.04,2.2558.04,3.29.04a130.649,130.649,0,0,0,14.1172-.6885L87.2617,86.1455l-7.1533-7.31Z" style="fill:#333"/><path d="M49.7,79.7769h-3v-10.8a1.5,1.5,0,0,1,1.5-1.5H78a1.5,1.5,0,0,1,1.5,1.5v10.6h-3v-9.1H49.7Z" style="fill:#333"/><path d="M84.8,43.7767v-4.4c0-11.8-4-23.8-21.6-23.8s-21.6,12-21.6,23.8v4.4c-.2,0-6.4,0-4.4,10.8a8.1159,8.1159,0,0,0,6.4,6.4c0,7.6,2.2,8.6,9.4,16.2,2.8,3.6,6.2,3.2,10,3.2s7.2.4,10-3.2c7.4-7.6,9.4-8.6,9.4-16.2a8.1159,8.1159,0,0,0,6.4-6.4C91.2,43.7767,85,43.7767,84.8,43.7767Z" style="fill:#efc8a5"/><path d="M89,54.7767c2.2-10.8-4.2-10.8-4.4-10.8v-4.4c0-11.8-4-23.8-21.6-23.8a33.7135,33.7135,0,0,0-6.6.6v23.2c-.2,1.6-1,1.8-2.2,2.6-.4.2-.2,1,.2,1,2,.4,4.8,1.2,6,3a.277.277,0,0,0,.4,0c.2-.2.2,0,.2-.2a3.0753,3.0753,0,0,1,1.2-.8h.6c.2.2.2.2.2.4v6a3.6313,3.6313,0,0,0,1.2,2.8,2.1,2.1,0,0,1,1,1.8,2.22,2.22,0,0,1-2.2,2.2c-1.6,0-2.2-1-4.4-1-1.2,0-1,1.6-1.2,1.6a4.0317,4.0317,0,0,1,2.2.6,6.333,6.333,0,0,0,3.2.8v6.6a3.8434,3.8434,0,0,0,2.6,3.6c1,.4,1.8,1.2,1.8,3.2,0,6-10.8-.6-10.8,6,2,.8,4.2.6,6.4.6,3.8,0,7.2.4,10-3.2,7.4-7.6,9.4-8.6,9.4-16.2A7.6635,7.6635,0,0,0,89,54.7767Z" style="fill:#e6b790"/><path d="M84.8,43.7767a5.9013,5.9013,0,0,0-2.2,4.4v4.4a7.1253,7.1253,0,0,1-3,6.4,10.927,10.927,0,0,0-3.6,8.6v6.6c5-5,6.4-6.6,6.4-13.2a8.1159,8.1159,0,0,0,6.4-6.4c2.4-10.8-3.8-10.8-4-10.8Z" style="fill:#ddad8a"/><path d="M41.6,43.7767a5.9013,5.9013,0,0,1,2.2,4.4v4.4a7.1253,7.1253,0,0,0,3,6.4,10.927,10.927,0,0,1,3.6,8.6v6.6c-5-5-6.4-6.6-6.4-13.2a8.1159,8.1159,0,0,1-6.4-6.4c-2.6-10.8,3.8-10.8,4-10.8Z" style="fill:#e6b790"/><path d="M65.0273,82.0132c-.3359,0-.6709-.0034-1.0058-.0069L63,82l-1.0215.0063c-3.5254.0333-7.1836.07-10.209-3.7685-.997-1.0508-1.8965-1.9741-2.707-2.8062-4.707-4.8325-6.8232-7.0048-7.0635-13.2006a9.7131,9.7131,0,0,1-6.3945-7.3555c-.8789-4.7451-.3877-8.2749,1.459-10.4942a6.1281,6.1281,0,0,1,2.9131-1.9584V39.3765c0-16.6319,8.03-25.4234,23.2236-25.4234s23.2227,8.7915,23.2227,25.4234v3.0483a5.9063,5.9063,0,0,1,2.8583,1.9624c1.7911,2.2319,2.1622,5.7788,1.1036,10.5415A9.682,9.682,0,0,1,84.0039,62.23c-.2158,6.3554-2.1934,8.35-7.4512,13.6523-.708.7149-1.4824,1.4961-2.3291,2.3648C71.4854,81.7134,68.2363,82.0132,65.0273,82.0132ZM63,78.7529c.3545,0,.7061.0034,1.0537.0069,3.2559.0307,5.6152.0551,7.6651-2.58a1.6408,1.6408,0,0,1,.1181-.1358c.877-.9008,1.6787-1.7094,2.4111-2.4477,5.4043-5.4512,6.5293-6.5855,6.5293-12.62a1.6228,1.6228,0,0,1,1.3243-1.5957,6.5158,6.5158,0,0,0,5.1025-5.1031c1.0508-4.729.3311-6.8789-.4551-7.8589A2.6689,2.6689,0,0,0,84.8,45.4a1.6233,1.6233,0,0,1-1.623-1.6235v-4.4C83.1768,24.4541,76.6426,17.2,63.2,17.2S43.2227,24.4541,43.2227,39.3765v4.4A1.6234,1.6234,0,0,1,41.6,45.4a2.8412,2.8412,0,0,0-2.041,1.0571c-.8252.9917-1.627,3.1543-.7627,7.8237a6.5163,6.5163,0,0,0,5.1025,5.1,1.6228,1.6228,0,0,1,1.3243,1.5957c0,5.86,1.1835,7.0756,6.166,12.19.834.856,1.7607,1.8081,2.79,2.894.0361.0381.07.0782.1025.12,2.0489,2.6347,4.4083,2.6108,7.6651,2.58C62.2939,78.7563,62.6455,78.7529,63,78.7529Z" style="fill:#333"/><path d="M62.9385,61.749a4.7979,4.7979,0,0,1-2.7549-.8725A4.5231,4.5231,0,0,0,58.2,60.3882a.8116.8116,0,0,1,0-1.6231,6.1524,6.1524,0,0,1,2.7627.6856l.1084.0654a3.42,3.42,0,0,0,3.8994-.0278A6.2,6.2,0,0,1,67.8,58.7651a.8116.8116,0,0,1,0,1.6231,4.5447,4.5447,0,0,0-2.0361.5146A5.3185,5.3185,0,0,1,62.9385,61.749Z" style="fill:#c6916d"/><path d="M66,65.3767a5.3006,5.3006,0,0,0-2.6.2h-1a5.3006,5.3006,0,0,0-2.6-.2c-1.4.2-1.6,1.2-4.6,2.8l2.6,1.6a4.5918,4.5918,0,0,0,2.8.8H65a6.51,6.51,0,0,0,2.8-.8l2.6-1.6C67.8,66.5767,67.4,65.5767,66,65.3767Z" style="fill:#ddab85"/><path d="M70.6,68.3767a6.8039,6.8039,0,0,1-2-.2,5.84,5.84,0,0,0-1.8-.4,11.0742,11.0742,0,0,0-3.6.4h-.4a11.0742,11.0742,0,0,0-3.6-.4,5.84,5.84,0,0,0-1.8.4,3.4083,3.4083,0,0,1-2,0,.4.4,0,0,1,0-.8,5.84,5.84,0,0,0,1.8-.4l1.8-.6a8.8816,8.8816,0,0,1,4,.2h-.4a14.4689,14.4689,0,0,1,4.2-.2c.8.2,1.4.4,2,.6a5.84,5.84,0,0,0,1.8.4.43.43,0,0,1,.4.4C71,68.3767,70.8,68.3767,70.6,68.3767Z" style="fill:#c6916d"/><ellipse cx="54.2" cy="50.5767" rx="2.2" ry="1" style="fill:#333"/><path d="M46.4,45.7767c1-.2,2.2-.6,3.2-.8a19.4041,19.4041,0,0,1,3.4-.2c2.2.2,4.4,1,6.4,1.2l-.4,2.4c-1.2-.4-2.2-.8-3.2-1.2a17.6,17.6,0,0,0-3-1,10.9682,10.9682,0,0,0-6.2.4Z" style="fill:#333"/><ellipse cx="72.2" cy="50.5767" rx="2.2" ry="1" style="fill:#333"/><path d="M79.6,46.5767a10.9682,10.9682,0,0,0-6.2-.4,17.6,17.6,0,0,0-3,1c-1,.4-2,.8-3.2,1.2l-.4-2.4c1.8-.2,4-1,6.4-1.2a19.4041,19.4041,0,0,1,3.4.2c1.2.2,2.2.6,3.2.8Z" style="fill:#333"/><path d="M67,28.9767a11.0417,11.0417,0,0,0-8,0,.8813.8813,0,0,1-1.2-.8v-12.4H68.2v12.4C68.4,28.7767,67.6,29.1767,67,28.9767Z" style="fill:#333"/><path d="M63,15.7767c-20.4,0-21.6,17-21.6,23.8v6c2.4,0,2.2,6.4,2.2,6.4h.8v-14a18.6,18.6,0,1,1,37.2,0v14h.8s-.2-6.4,2.2-6.4v-6C84.8,32.7767,83.4,15.7767,63,15.7767Z" style="fill:#333"/></g></svg>