<svg xmlns="http://www.w3.org/2000/svg" viewBox="0 0 128 128"><title>traditional-african-man</title><g id="traditional-african-man"><g id="traditional-attire-african-male"><g id="traditional-attire-african-male-2"><g id="Icons"><path d="M116.76,98.24a11.28,11.28,0,0,0-9-9c-2.66-.66-9.42-2.32-17-4-3.62-.8-7.28-1.42-10.94-1.88V75.24H49.76v8a99.8884,99.8884,0,0,0-11.04,2c-7.3,1.7-14,3.28-17.04,4a11.28,11.28,0,0,0-9,9l-.92,5a130.5,130.5,0,0,0,53.06,11,130.6613,130.6613,0,0,0,52.94-11Z" style="fill:#a37c62"/><path d="M64.82,114.24a130.5194,130.5194,0,0,0,52.94-11l-.98-4.92a11.58,11.58,0,0,0-8.54-8.96C86.5,83.9,87.6,84.7,79.76,83.7v-9h-30v3.04c2.76,3.34,6.96,8.5,11.4,14a16,16,0,0,1,3.58,10V114.2Z" style="fill:#a0775c"/><rect x="48.3198" y="75.2402" width="3" height="12" style="fill:#333"/><rect x="78.3198" y="75.2402" width="3" height="12" style="fill:#333"/><path d="M86.84,44.7v-5c0-12.72-6.58-21.5-22-21.5s-22,8.8-22,21.5v5c-3.82,0-4.58,3.74-3.68,8,.76,3.54,2.68,8.48,5.68,8.48v5c0,4.6,6.36,11.52,12.98,15a17.58,17.58,0,0,0,7,1.04,15.22,15.22,0,0,0,6.5-1.04c6.62-3.48,13.52-10.4,13.52-15V61.2c3,0,5.22-4.96,6-8.48C91.76,48.44,90.68,44.8,86.84,44.7Z" style="fill:#a88064"/><path d="M48.84,60.24a9.8206,9.8206,0,0,1-1.7-2.84.18.18,0,0,0-.18-.12.1672.1672,0,0,0-.16.16,2.32,2.32,0,0,1-2,2.3V66.2c0,3.3,3.56,7.8,8,11.36V68.24C52.86,64.42,50.64,62.36,48.84,60.24Z" style="fill:#a0775c"/><path d="M86.84,44.7v-5c0-12.72-6.58-21.5-22-21.5a34,34,0,0,0-6.48.62V39.4c0,4.24-4.3,4.24-4.3,6.36a10.84,10.84,0,0,1,6.46,2.58h3.24a1.08,1.08,0,0,1,1.08,1.06v4.22A3.06,3.06,0,0,0,66.1,56.1a2.1206,2.1206,0,0,1-1.24,3.84c-.0134,0-.0269,0-.04,0-1.6,0-.96-.92-3.1-.92-1.44,0-2,.58-2,1.08a.46.46,0,0,0,0,.4.52.52,0,0,0,.38.2c3.72,0,1.72,1.14,4.74,1.18V70.6a1.08,1.08,0,0,0,1.08,1.06,3.18,3.18,0,1,1,0,6.36H62.68a4.26,4.26,0,0,0-4.14,3.26v.2a20.82,20.82,0,0,0,6.28.74,15.22,15.22,0,0,0,6.5-1.04c6.62-3.48,13.52-10.4,13.52-15v-5c3,0,5.22-4.96,6-8.48C91.76,48.44,90.68,44.8,86.84,44.7Z" style="fill:#a0775c"/><path d="M87.76,45h0a4.6191,4.6191,0,0,0-.96-.14v-5c0-12.7-6.58-21.5-22-21.5s-22,8.8-22,21.5v5a4.0012,4.0012,0,0,0-1,.16h0s3.54.34,5,5.56v-10l2-2.24c2-2-.14-8.48,4-10a69.06,69.06,0,0,1,24,0c4.14,1.52,2,8,4,10l2,2.24v10C84.3,45.26,87.76,45,87.76,45Z" style="fill:#836552"/><path d="M87.76,45h0a4.6191,4.6191,0,0,0-.96-.14h0v-5c0-6.36-1.64-11.74-5.22-15.52h0c-3.58-3.74-9.04-6-16.7-6a22.1191,22.1191,0,0,0-3.3.16H61.3a25.8659,25.8659,0,0,0-2.9.44h0v8.62a69.7629,69.7629,0,0,1,18.46.78c4.14,1.52,2,8,4,10l2,2.24v10C84.3,45.26,87.76,45,87.76,45Z" style="fill:#7c5e4d"/><path d="M64.84,18.2c-9.42,0-15.52,3.3-18.86,8.74L83.76,27C80.4,21.5,74.28,18.2,64.84,18.2Z" style="fill:#755849"/><path d="M87.16,45h-.2c-1.66,0-4.12,1.6-4.12,3.26v6c0,2.98,0,4-2,6a10.78,10.78,0,0,0-4,8v9.32c4.46-3.56,8-8,8-11.36V61.2c3,0,5.22-4.96,6-8.48a14.0054,14.0054,0,0,0,.3-2.32v-.44C91.04,47.24,89.76,45.2,87.16,45Z" style="fill:#916953"/><path d="M63.8359,83.7676a18.9628,18.9628,0,0,1-6.5307-1.1582,1.4958,1.4958,0,0,1-.1831-.0816C50.4937,79.0439,43.34,71.8105,43.34,66.2V62.4316c-3.63-1.3471-5.2153-7.3867-5.6464-9.3964-.4375-2.08-.88-5.9253,1.0571-8.3765A4.9049,4.9049,0,0,1,41.32,42.9541V39.24c0-14.5351,8.3457-22.54,23.5-22.54s23.5,8.0049,23.5,22.54v3.708a5.251,5.251,0,0,1,2.7979,1.854c1.4765,1.877,1.91,4.8775,1.1885,8.2334-.6968,3.1441-2.6709,8.18-5.9664,9.3951V66.2c0,5.4351-7.434,12.707-14.3222,16.3276a1.5316,1.5316,0,0,1-.1465.0674,16.9233,16.9233,0,0,1-7.0537,1.1475Q64.3253,83.7676,63.8359,83.7676Zm-5.4077-3.9424a15.994,15.994,0,0,0,6.3091.9175,1.42,1.42,0,0,1,.1714,0,13.7558,13.7558,0,0,0,5.7856-.9082C77.3223,76.3262,83.34,69.8438,83.34,66.2v-5a1.5,1.5,0,0,1,1.5-1.5c1.7447,0,3.7535-3.7769,4.5357-7.3047.5151-2.3975.28-4.6-.6157-5.7383a2.437,2.437,0,0,0-1.979-.9175A1.5,1.5,0,0,1,85.32,44.24v-5c0-12.9658-6.8969-19.54-20.5-19.54s-20.5,6.5742-20.5,19.54v5A1.5,1.5,0,0,1,42.8589,45.74a2.1323,2.1323,0,0,0-1.7544.7789c-.8486,1.0737-1.0269,3.2768-.4771,5.893C41.52,56.564,43.3311,59.7,44.84,59.7a1.5,1.5,0,0,1,1.5,1.5v5C46.34,69.9878,52.09,76.4609,58.4282,79.8252Z" style="fill:#333"/><circle cx="55.3198" cy="49.98" r="1.5" style="fill:#333"/><path d="M64.1782,115.7417a131.1525,131.1525,0,0,1-53.021-11.1279,1.5,1.5,0,0,1-.8681-1.6675l1-5a12.6951,12.6951,0,0,1,10.1933-10.18c1.292-.333,5.8765-1.2895,11.1851-2.3974,6.0351-1.2593,12.876-2.6871,16.7519-3.5894A1.5,1.5,0,0,1,50.1,84.7012c-3.91.91-10.7686,2.3418-16.82,3.6045-5.274,1.1-9.8282,2.0507-11.1494,2.3881a9.7592,9.7592,0,0,0-7.897,7.8238l-.7656,3.8281A127.7533,127.7533,0,0,0,64.813,112.74a128.7294,128.7294,0,0,0,51.2383-10.3945l-.7622-3.8115a9.7254,9.7254,0,0,0-7.8067-7.82c-1.5234-.3755-7.5449-1.648-13.92-2.9952-5.2217-1.1035-10.6895-2.2588-14.125-3.0141a1.5,1.5,0,0,1,.6445-2.93c3.43.7539,8.8877,1.9072,14.1011,3.0088,6.4014,1.3525,12.4473,2.63,13.938,3a12.6677,12.6677,0,0,1,10.1128,10.1787l.9966,4.9834a1.5,1.5,0,0,1-.8682,1.6675A131.9188,131.9188,0,0,1,64.8145,115.74Q64.4965,115.7417,64.1782,115.7417Z" style="fill:#333"/><path d="M49.98,45a9.9989,9.9989,0,0,1,2.64-1,10.54,10.54,0,0,1,2.86-.16A17.262,17.262,0,0,1,60.6,45.7h0a.42.42,0,0,1,.2243.55l-.0043.01a.46.46,0,0,1-.4.26,25.1014,25.1014,0,0,1-2.66-.44c-.86-.16-1.68-.26-2.5-.38a13.6193,13.6193,0,0,0-5,.12h0a.4.4,0,0,1-.4746-.3079L49.78,45.48A.44.44,0,0,1,49.98,45Z" style="fill:#333"/><circle cx="73.4398" cy="49.98" r="1.5" style="fill:#333"/><path d="M78.5,45.78a13.6,13.6,0,0,0-5-.12c-.82.12-1.64.22-2.5.38a24.268,24.268,0,0,1-2.7.48.42.42,0,0,1-.44-.399V46.12a.4.4,0,0,1,.26-.4h0a17.68,17.68,0,0,1,5.12-1.86,11.4,11.4,0,0,1,2.86.16,10,10,0,0,1,2.64,1,.4.4,0,0,1,.1716.539L78.9,45.58a.38.38,0,0,1-.44.22Z" style="fill:#333"/><path d="M64.7612,63.0415a5.9073,5.9073,0,0,1-2.8647-.7451,4.54,4.54,0,0,0-2.14-.5464.75.75,0,0,1,.003-1.5h.0029a6.0513,6.0513,0,0,1,2.855.731,4.3847,4.3847,0,0,0,4.2788.0029,6.057,6.057,0,0,1,2.86-.7339h.003a.75.75,0,0,1,.0029,1.5,4.5458,4.5458,0,0,0-2.145.5493A5.8881,5.8881,0,0,1,64.7612,63.0415Z" style="fill:#674848"/><path d="M67.02,66.14a1.38,1.38,0,0,0-.9,0l-1.36.62-1.36-.62a1.34,1.34,0,0,0-.88,0,14.9972,14.9972,0,0,0-4.44,2.14.88.88,0,0,0-.12,1.34l1.46,1.52a3.82,3.82,0,0,0,2.8,1.22h5.12a3.82,3.82,0,0,0,2.8-1.22l1.42-1.54a.88.88,0,0,0-.0519-1.2434q-.0327-.03-.0681-.0566A14.78,14.78,0,0,0,67.02,66.14Z" style="fill:#916953"/><path d="M71.76,69.24c-1.24.1-2.42,0-3.54,0A10.1991,10.1991,0,0,0,65,69.7h-.48a9.9992,9.9992,0,0,0-3.22-.44,34.9831,34.9831,0,0,1-3.58,0,.34.34,0,1,1,0-.68h0c1.12-.14,2.26-.44,3.48-.64a8.0009,8.0009,0,0,1,3.8.26h-.4a10.1785,10.1785,0,0,1,3.72-.24c1.22.14,2.34.48,3.44.6a.36.36,0,0,1,.32.36A.42.42,0,0,1,71.76,69.24Z" style="fill:#674848"/><path d="M40.6587,66.36a5.18,5.18,0,0,1-.0972-10.3594L40.66,57v1a3.1969,3.1969,0,0,0-2.2906.9746A3.18,3.18,0,1,0,43.84,61.1191l2-.038a5.1871,5.1871,0,0,1-5.08,5.2783C40.7261,66.36,40.6924,66.36,40.6587,66.36Z" style="fill:#333"/><path d="M40.66,64.04A2.96,2.96,0,1,0,43.62,67h0A2.96,2.96,0,0,0,40.66,64.04Z" style="fill:#3882b2"/><path d="M40.66,70.96A3.96,3.96,0,1,1,44.62,67,3.9644,3.9644,0,0,1,40.66,70.96Zm0-5.92A1.96,1.96,0,1,0,42.62,67,1.9624,1.9624,0,0,0,40.66,65.04Z" style="fill:#333"/><path d="M89.001,66.36c-.0337,0-.0674-.0005-.1011-.001a5.1806,5.1806,0,0,1-5.08-5.2783l2,.038a3.1805,3.1805,0,1,0,3.24-3.1181L89,56a5.202,5.202,0,0,1,3.7314,1.5879,5.18,5.18,0,0,1-3.73,8.7725Z" style="fill:#333"/><path d="M89,64.04A2.96,2.96,0,1,1,86.04,67h0A2.96,2.96,0,0,1,89,64.04Z" style="fill:#3882b2"/><path d="M89,70.96A3.96,3.96,0,1,1,92.96,67,3.9648,3.9648,0,0,1,89,70.96Zm0-5.92A1.96,1.96,0,1,0,90.96,67,1.9624,1.9624,0,0,0,89,65.04Z" style="fill:#333"/><path d="M85.58,21.42c0,2.32-1.88,2-4.2,2H48.58c-2.32,0-4.2.34-4.2-2V13.2A4.2,4.2,0,0,1,48.58,9H81.4a4.2,4.2,0,0,1,4.2,4.2v8.22Z" style="fill:#a42b2b"/><path d="M47.1274,24.9365a4.4855,4.4855,0,0,1-3.3193-.9721A3.4194,3.4194,0,0,1,42.88,21.42V13.2a5.7062,5.7062,0,0,1,5.7-5.7H81.4a5.7062,5.7062,0,0,1,5.7,5.7v8.22a1.5326,1.5326,0,0,1-.0278.2891,3.284,3.284,0,0,1-.918,2.2446c-1.0371,1.021-2.4936.9956-4.041.9741-.2378-.0039-.4824-.0078-.7329-.0078H48.58c-.26,0-.5147.0044-.7617.0088C47.5884,24.9326,47.3574,24.9365,47.1274,24.9365ZM48.58,10.5a2.703,2.703,0,0,0-2.7,2.7v8.22a1.0724,1.0724,0,0,0,.0561.4361,8.2684,8.2684,0,0,0,1.83.0732c.2632-.0044.5352-.0093.8135-.0093h32.8c.2666,0,.5273.0039.78.0078a6.5818,6.5818,0,0,0,1.892-.1181c-.0083-.0127.0274-.1314.0274-.39a1.5092,1.5092,0,0,1,.02-.2456V13.2a2.703,2.703,0,0,0-2.7-2.7Z" style="fill:#333"/><rect x="50.41" y="8.6074" width="2.9998" height="15.1851" transform="translate(-2.4577 17.3141) rotate(-18.506)" style="fill:#333"/><rect x="58.9598" y="8.6105" width="2.9998" height="15.1789" transform="translate(-2.0202 19.9516) rotate(-18.4361)" style="fill:#333"/><rect x="67.5197" y="8.6041" width="3.0002" height="15.1916" transform="translate(-1.5645 22.8352) rotate(-18.5794)" style="fill:#333"/><rect x="76.0798" y="8.6041" width="3.0002" height="15.1916" transform="translate(-1.1184 25.5626) rotate(-18.5794)" style="fill:#333"/><path d="M78.92,78.46c2.78,6.86-3.88,14.38-14.28,14.38-9.62,0-17.42-7.16-14.18-14.38-16.38,10-7.18,30,14.22,30S95.54,88.48,78.92,78.46Z" style="fill:#3f3a39"/><path d="M84.88,83.92a19.4405,19.4405,0,0,0-6-5.46C81.66,85.32,75,92.84,64.6,92.84c-9.62,0-17.42-7.16-14.18-14.38a18.9994,18.9994,0,0,0-6,5.46c0,10.78,10,16.34,20.3,16.34C75.6,100.26,85.76,94,84.88,83.92Z" style="fill:#333"/><path d="M71.38,91.66l13.26,8a13.5805,13.5805,0,0,0,2.72-8v-.14l-8.96-5.4A13.34,13.34,0,0,1,71.38,91.66Z" style="fill:#bc2928"/><path d="M78.42,86.06a14,14,0,0,1-7,5.58h0l7.42,4.48a14.24,14.24,0,0,0,5.3-6.64Z" style="fill:#a42b2b"/><path d="M50.94,86.06l-8.86,5.4v.14a13.6792,13.6792,0,0,0,2.72,8l13.26-8A13.44,13.44,0,0,1,50.94,86.06Z" style="fill:#bc2928"/><path d="M50.92,86.08l-5.4,3.3a15.04,15.04,0,0,0,5.24,6.7l7.28-4.4A14.26,14.26,0,0,1,50.92,86.08Z" style="fill:#a42b2b"/><path d="M59.38,92.12v16a29.5,29.5,0,0,0,10.6,0v-16a19.7,19.7,0,0,1-5.3.72A19.9992,19.9992,0,0,1,59.38,92.12Z" style="fill:#bc2928"/><path d="M69.98,99.76V92.12h0a20.54,20.54,0,0,1-10.56,0V99.7A26.5609,26.5609,0,0,0,69.98,99.76Z" style="fill:#a42b2b"/><path d="M64.62,109.96c-11.6762,0-21.5459-6.1-24.0009-14.833C38.689,88.2627,41.814,81.5537,48.978,77.18a1.5,1.5,0,0,1,2.1543,1.8848,6.4135,6.4135,0,0,0,.6323,6.289C54.1,88.9341,59.25,91.34,64.58,91.34c5.4409,0,10.5142-2.312,12.9248-5.89a6.7119,6.7119,0,0,0,.8652-6.4263,1.5,1.5,0,0,1,2.1626-1.8491c7.1729,4.3086,10.33,10.937,8.4468,17.731C86.521,103.77,76.5044,109.96,64.62,109.96ZM47.582,81.917c-3.8784,3.4609-5.3564,7.8413-4.0752,12.3979C45.9492,103.0029,56.1631,106.96,64.62,106.96c12.3013,0,19.7515-6.6641,21.4683-12.856,1.2578-4.5371-.2847-8.8936-4.2539-12.3159a10.3225,10.3225,0,0,1-1.8413,5.3379C76.9946,91.5757,71.0889,94.34,64.58,94.34c-6.3013,0-12.4609-2.9526-15.3276-7.3476A9.8548,9.8548,0,0,1,47.582,81.917Z" style="fill:#333"/><path d="M66.3,98a1.44,1.44,0,1,1-1.44-1.42A1.46,1.46,0,0,1,66.3,98Z" style="fill:#3f3a39"/><path d="M48.78,92.34a1.2,1.2,0,1,1-1.2-1.2h0A1.2,1.2,0,0,1,48.78,92.34Z" style="fill:#3f3a39"/><path d="M82.92,92.34a1.2,1.2,0,1,1-1.2-1.2h0A1.2,1.2,0,0,1,82.92,92.34Z" style="fill:#3f3a39"/></g></g></g></g></svg>