<svg xmlns="http://www.w3.org/2000/svg" viewBox="0 0 128 128"><title>batman</title><g id="superhero-batman"><path d="M103.92,87.02a4.14,4.14,0,0,1-1.28-.58,51.3,51.3,0,0,0-20.6-8.22V67.84H51.86V78.22a51.52,51.52,0,0,0-20.64,8.22,4.5771,4.5771,0,0,1-1.24.54c-13.16,3.18-14.18,5.14-16.84,16.2,15.32,6.34,31.7,11.66,54,11.42a134.3588,134.3588,0,0,0,53.62-11.42C118.16,92.34,117.16,90.22,103.92,87.02Z" style="fill:#eed1c9"/><path d="M103.92,87.02a4.14,4.14,0,0,1-1.28-.58,51.3,51.3,0,0,0-20.6-8.22V67.84H51.86V78.22a51.52,51.52,0,0,0-20.64,8.22,4.5771,4.5771,0,0,1-1.24.54c-13.16,3.18-14.18,5.14-16.84,16.2,15.32,6.34,31.7,11.66,54,11.42a134.3588,134.3588,0,0,0,53.62-11.42C118.16,92.34,117.16,90.22,103.92,87.02Z" style="fill:#e5c2ba"/><path d="M29.98,92.98a3.9993,3.9993,0,0,0,1.24-.54,55.06,55.06,0,0,1,15.26-7.1,7.22,7.22,0,0,0,5.38-6.94v-.16a51.5189,51.5189,0,0,0-20.64,8.22,4.5771,4.5771,0,0,1-1.24.54c-13.16,3.16-14.18,5.12-16.84,16.18l1.44.58C16.62,97.32,19.36,95.54,29.98,92.98Z" style="fill:#eed1c9"/><path d="M67.14,114.64a134.3611,134.3611,0,0,0,53.62-11.46c-2.6-10.88-3.6-13-16.84-16.2a4.14,4.14,0,0,1-1.28-.58,51.3,51.3,0,0,0-20.6-8.22V67.82H51.88v3.82c2.6,3.16,7.52,9.02,11.7,14.18a15.12,15.12,0,0,1,3.38,9.52v19.3A.42.42,0,0,0,67.14,114.64Z" style="fill:#d8b3ad"/><path d="M82.06,78.38a7.22,7.22,0,0,0,5.3,6.94,55.9989,55.9989,0,0,1,15.22,7.1,4.3583,4.3583,0,0,0,1.28.58c10.74,2.58,13.5,4.46,15.5,10.82l1.4-.64c-2.6-10.88-3.6-13-16.84-16.2a4.14,4.14,0,0,1-1.28-.58,51.3,51.3,0,0,0-20.6-8.22v.18Z" style="fill:#eed1c9"/><rect x="80.5602" y="67.8398" width="3" height="13.2197" style="fill:#333"/><rect x="50.36" y="67.8398" width="3" height="13.2197" style="fill:#333"/><path d="M66.76,116.14a134.2486,134.2486,0,0,1-54.228-11.5888,1.4992,1.4992,0,0,1-.8506-1.7217c2.8125-11.6924,4.3979-14.0342,17.9692-17.2881a3.0434,3.0434,0,0,0,.7945-.3525,59.0715,59.0715,0,0,1,9.3047-4.836,47.7555,47.7555,0,0,1,11.914-3.18l.3926,2.9746a44.7513,44.7513,0,0,0-11.1655,2.98,56.1932,56.1932,0,0,0-8.8433,4.5967,6.0917,6.0917,0,0,1-1.6592.7256c-12.3838,2.97-13.2392,4.56-15.4956,13.86a131.2393,131.2393,0,0,0,51.8731,10.83h.374a131.6588,131.6588,0,0,0,51.8862-10.83c-2.34-9.5577-3.5493-11.0342-15.4389-13.9112a5.6643,5.6643,0,0,1-1.7686-.7959,56.0832,56.0832,0,0,0-8.8091-4.5762,44.6572,44.6572,0,0,0-11.1245-2.9589l.3906-2.9746A47.6553,47.6553,0,0,1,94.15,80.2519a59.1245,59.1245,0,0,1,9.3178,4.8448,2.7266,2.7266,0,0,0,.8516.3925c13.5283,3.2735,15.1118,5.6211,17.9194,17.3409a1.5,1.5,0,0,1-.8515,1.7216A134.6748,134.6748,0,0,1,67.1461,116.14Z" style="fill:#333"/><path d="M86.8,42.86v-4c0-10.84-3.8-22-20-22s-20,11.16-20,22v4c-.16,0-4,0-2,10,.62,3,.98,5.36,4,6,0,7.1,2,8,8.76,14.96,2.6,3.36,5.8,3.04,9.24,3.04s6.56.32,9.24-3.04c6.76-6.96,8.76-7.86,8.76-14.96,3-.64,3.36-3,4-6C90.8,42.86,86.96,42.8,86.8,42.86Z" style="fill:#eed1c9"/><path d="M67.12,60.48a3.3,3.3,0,0,1-2-.68l-4.16-3.04H48.8a1.5,1.5,0,0,1,0-3H61.92l5.02,3.64a.24.24,0,0,0,.3,0l5.06-3.66H84.8a1.5,1.5,0,0,1,0,3H73.36L69.14,59.8A3.1,3.1,0,0,1,67.12,60.48Z" style="fill:#e5c2ba"/><path d="M56.23,61.19a3.7446,3.7446,0,0,1,1.4766-3.0283l3.74-2.84.9073,1.1954-3.74,2.84a2.2377,2.2377,0,0,0-.8833,1.8115Z" style="fill:#e5c2ba"/><path d="M44.8,52.86c.62,3,.98,5.36,4,6,0,6,1.44,7.58,6,12.16V64.86a9.62,9.62,0,0,0-3.24-8,6.64,6.64,0,0,1-2.76-6v-6a6.78,6.78,0,0,0-2-4v2C46.64,42.86,42.8,42.86,44.8,52.86Z" style="fill:#e5c2ba"/><path d="M86.8,42.86v-4c0-10.84-3.8-22-20-22a31.7189,31.7189,0,0,0-6,.52V36.86a4.34,4.34,0,0,1-4,4s6,0,8,4h2v6a2.82,2.82,0,0,0,1.18,2.32A2.0034,2.0034,0,0,1,66.8,56.8h0c-1.48,0-2-1-4-1-1.18,0-1,1.54-1.04,1.5a4.2,4.2,0,0,1,2,.52,6.2,6.2,0,0,0,3,.78h0v9.06s4-.84,4,3.14c0,5.5-10-.54-10,5.44a17.7393,17.7393,0,0,0,5.9.56c3.46,0,6.64.28,9.24-3.04,6.8-6.92,8.8-7.82,8.8-14.92,3-.64,3.36-3,4-6C90.8,42.86,86.96,42.8,86.8,42.86Z" style="fill:#e5c2ba"/><path d="M77.65,61.1611l-1.5-.0019a2.2852,2.2852,0,0,0-.8872-1.8047l-3.7363-2.8369.9072-1.1954,3.74,2.84A3.7982,3.7982,0,0,1,77.65,61.1611Z" style="fill:#eed1c9"/><path d="M84.8,53.76H72.3l-5.06,3.66a.24.24,0,0,1-.3,0l-.18-.24v3.16h.36a3.1,3.1,0,0,0,2-.66l4.24-2.92H84.9a1.5,1.5,0,0,0,0-3Z" style="fill:#d8b3ad"/><path d="M84.8,58.86c3-.64,3.36-3,4-6,2-10-1.84-10-2-10v-2a6.68,6.68,0,0,0-2,4v6a6.72,6.72,0,0,1-2.76,6,9.5,9.5,0,0,0-3.24,8v6.16C83.36,66.44,84.8,64.86,84.8,58.86Z" style="fill:#d8b3ad"/><path d="M66.94,61.85a.75.75,0,0,1-.75-.75v-2a.75.75,0,0,1,1.5,0v2A.75.75,0,0,1,66.94,61.85Z" style="fill:#ddb7b1"/><path d="M67,73.39h-.5a.75.75,0,0,1,0-1.5H67a.75.75,0,0,1,0,1.5Z" style="fill:#ba8d86"/><path d="M69.66,62.8a5.7786,5.7786,0,0,0-2.3.38,1.5,1.5,0,0,1-.84,0,5.62,5.62,0,0,0-2.36-.28c-1.34.2-1.48,1.06-4.18,2.52l2.38,1.46a4.4206,4.4206,0,0,0,2.54.82h4.06a4.4206,4.4206,0,0,0,2.54-.82l2.46-1.4C71.36,63.9,70.98,63,69.66,62.8Z" style="fill:#d6b3b0"/><path d="M73.96,65.98a7.33,7.33,0,0,1-2.4434-.42,6.1,6.1,0,0,0-2.0366-.36,15.5263,15.5263,0,0,0-2.4585.3086l-.1225.0254-.1226-.0264a14.8611,14.8611,0,0,0-2.48-.3076,5.7237,5.7237,0,0,0-1.8584.3184A7.8939,7.8939,0,0,1,59.9,65.92a.6.6,0,1,1,0-1.1992,6.6928,6.6928,0,0,0,2.1939-.3526A6.92,6.92,0,0,1,64.32,64a16.1242,16.1242,0,0,1,2.581.3076A16.8143,16.8143,0,0,1,69.4542,64h.0044a7.2476,7.2476,0,0,1,2.4156.414A6.2327,6.2327,0,0,0,73.96,64.78a.6.6,0,1,1,0,1.1992Z" style="fill:#af8582"/><path d="M52.06,42.28a12,12,0,0,1,2.9-1.1A11.1621,11.1621,0,0,1,58.12,41a19.4388,19.4388,0,0,1,5.64,2h0a.46.46,0,0,1,.24.6.48.48,0,0,1-.46.28,24.5474,24.5474,0,0,1-2.96-.52c-.94-.18-1.86-.28-2.74-.42a14.5989,14.5989,0,0,0-5.5.12h0a.48.48,0,0,1-.54-.36A.5.5,0,0,1,52.06,42.28Z" style="fill:#333"/><path d="M81.94,43.18a14.58,14.58,0,0,0-5.5-.12c-.9.14-1.8.24-2.74.42a24.5474,24.5474,0,0,1-2.96.52.44.44,0,0,1-.4782-.3982c-.0012-.0139-.0019-.0278-.0018-.0418a.46.46,0,0,1,.28-.46h0a19.4388,19.4388,0,0,1,5.64-2,12.86,12.86,0,0,1,3.18.08,10.3613,10.3613,0,0,1,2.9,1.1.4624.4624,0,0,1-.34.86h0Z" style="fill:#333"/><circle cx="57.98" cy="47.38" r="1.3" style="fill:#333"/><circle cx="75.9" cy="47.38" r="1.3" style="fill:#333"/><path d="M126.4,98.14a15.28,15.28,0,0,0-10.6-12L84.56,79.18H49.82L18.58,86.16a15.28,15.28,0,0,0-10.6,12l-.62,3.76a148.2788,148.2788,0,0,0,59.78,12.72h.1a148.2788,148.2788,0,0,0,59.78-12.72Z" style="fill:#656e70"/><path d="M126.4,98.14a15.32,15.32,0,0,0-10.6-12L84.56,79.18H63.18L96.4,111.7a150.857,150.857,0,0,0,30.62-9.78Z" style="fill:#5e6668"/><path d="M18.58,86.16a15.26,15.26,0,0,0-10,9.6,6,6,0,0,0,6.62-1.74,7.08,7.08,0,0,1,3.34-2l27.12-7.34a5.56,5.56,0,0,0,4.12-5.38Z" style="fill:#787f80"/><path d="M67.2428,116.08H67.14A148.85,148.85,0,0,1,6.7536,103.292,1.5,1.5,0,0,1,5.88,101.68l.62-3.82A16.7048,16.7048,0,0,1,18.1427,84.665L51.44,74.4463l.88,2.8672-33.3,10.22A13.716,13.716,0,0,0,9.4581,98.3564l-.4311,2.6553A145.8223,145.8223,0,0,0,67.1417,113.08H67.24a145.8782,145.8782,0,0,0,58.1108-12.125l-.4306-2.6114a13.71,13.71,0,0,0-9.5577-10.8095L81.5983,76.6064l.9238-2.8535,33.74,10.92a16.6891,16.6891,0,0,1,11.6162,13.17l.622,3.7734a1.4989,1.4989,0,0,1-.872,1.6152A148.8819,148.8819,0,0,1,67.2428,116.08Z" style="fill:#333"/><path d="M95.36,73.72a6.34,6.34,0,0,1-3.02-5.4V36.78c0-10.84-.86-15.4-3.28-36.34a1.38,1.38,0,0,0-2.62-.46L82.62,8.9A30,30,0,0,0,67.1,5.02,29.84,29.84,0,0,0,51.6,8.9L47.8-.02A1.4,1.4,0,0,0,45.96-.7,1.38,1.38,0,0,0,45.18.36C42.76,21.42,41.9,25.98,41.9,36.78V68.32a6.34,6.34,0,0,1-3.02,5.4L18.54,86.22l5.78-.6A31.76,31.76,0,0,1,42.86,89.3c22.82,12.36,25.66,12.34,48.66,0a31.88,31.88,0,0,1,18.42-3.64l5.82.6ZM84.84,58.86c0,7.1-2,8-8.76,14.96-2.72,3.36-5.82,3.04-9.28,3.04s-6.64.32-9.24-3.04c-6.76-6.96-8.76-7.86-8.76-14.96V55.98H61.36l4.62,3.36a1.72,1.72,0,0,0,2,0l4.62-3.36h12Z" style="fill:#333"/><path d="M92.3,71.86V68.38h0V36.78c0-10.92-.92-15.86-3.28-36.34a1.36,1.36,0,0,0-.8-1.1,1.34,1.34,0,0,0-1.7989.596L86.4-.02,82.62,8.9A30.0005,30.0005,0,0,0,67.78,5.02a171.5,171.5,0,0,0-6.9,29.78c-.26,1.7-.84,4.3-3.24,5.04a.36.36,0,0,0-.23.4545l.01.0255,4.22,1.7a2.42,2.42,0,0,1,1.72,2.38c0,1.78-2.22,1.66-2.48,1.66H58.42a30.2412,30.2412,0,0,0-2.32,10h5.26l4.92-12.42a1.42,1.42,0,0,1,.58,1.12v15h.16c1.1,0,2-1.22,5.68-3.72h12c-.54,3.6,1.88,7-4.9,14-6.4,6.52-6,6.98-12.8,6.96h0c-6.26-.14-2.6,0-6.16-.22l7,6.98a15.38,15.38,0,0,0,19.28,2l13.18-8.88ZM85.36,40.72l-2,4.22a2,2,0,0,1-1.88,1.18h-8.4c-.26,0-2.46.12-2.46-1.66a2.4,2.4,0,0,1,1.6-2.38c1.14-.44,10.46-4.24,10.46-4.24a2.0463,2.0463,0,0,1,2.68,2.88Z" style="fill:#222"/><path d="M49.36,40.42a2.2,2.2,0,0,1,1.74,0l10.46,4.24a2.42,2.42,0,0,1,1.62,2.4c0,1.78-2.22,1.64-2.48,1.64H52.3a2,2,0,0,1-1.88-1.18l-2-4.22a2,2,0,0,1,.94-2.88Z" style="fill:#777"/><path d="M85.36,43.18l-2,4.22a2,2,0,0,1-1.88,1.18h-8.4c-.26,0-2.46.14-2.46-1.64a2.42,2.42,0,0,1,1.6-2.4c1.14-.44,10.46-4.24,10.46-4.24a2.2,2.2,0,0,1,1.74,0,2,2,0,0,1,.94,2.88Z" style="fill:#777"/></g></svg>