<svg xmlns="http://www.w3.org/2000/svg" viewBox="0 0 128 128"><title>traditional-japanese-woman</title><g id="traditional-japanese-woman"><path d="M66,122.05l28.2-38.2s21-3.4,22.4,29.6A126.1443,126.1443,0,0,1,66,124.05a125.202,125.202,0,0,1-50.4-10.6C17,80.65,38,83.85,38,83.85Z" style="fill:#6681af"/><path d="M115.2,113.85c-5-26.2-25.8-23.8-25.8-23.8l-23.4,32L42.8,90.25S22,87.85,17,114.05A124.1137,124.1137,0,0,0,115.2,113.85Z" style="fill:#526b99"/><path d="M89.6,89.65c-3.2-1-9-3.6-10.6-6v-8H53.4v8c-1.6,3-6.8,5.4-10.6,6a27.8479,27.8479,0,0,0,38.4,8.4,33.517,33.517,0,0,0,8.4-8.4Z" style="fill:#e6b790"/><path d="M53.4,75.65v1.4l11,11.4a8.2872,8.2872,0,0,1,2.2,6,5.1237,5.1237,0,0,0,5,5.2h1.2a6.5113,6.5113,0,0,0,6.2-6.2V75.85H53.4Z" style="fill:#d8a782"/><path d="M42.7983,90.95a1.5,1.5,0,0,1-.2319-2.9814c3.4-.5372,7.832-2.6128,9.3335-4.9258V75.65a1.5,1.5,0,0,1,3,0v7.8a1.4985,1.4985,0,0,1-.1763.7056c-1.8642,3.4965-7.414,6.101-11.6894,6.7758A1.4894,1.4894,0,0,1,42.7983,90.95Z" style="fill:#333"/><path d="M89.6006,91.15a1.5028,1.5028,0,0,1-.4478-.0689c-2.2944-.7168-9.313-3.4677-11.4008-6.6a1.5,1.5,0,0,1-.252-.832v-8a1.5,1.5,0,0,1,3,0v7.4927c1.5034,1.7148,6.0688,3.9887,9.5474,5.0757a1.5,1.5,0,0,1-.4468,2.9321Z" style="fill:#333"/><polygon points="50.4 82.45 66.2 103.25 82.2 82.45 92 87.05 66.4 122.05 40.6 87.05 50.4 82.45" style="fill:#edf7f6"/><polygon points="92 87.05 66.4 122.05 62.2 116.45 86.6 84.45 92 87.05" style="fill:#d5e7e5"/><polygon points="69.2 107.25 73.2 112.45 91.8 87.05 86.6 84.45 69.2 107.25" style="fill:#d5e7e5"/><path d="M38.2,94.85h1.6a1.7206,1.7206,0,0,1,1.6,1.6h0v1.4a1.7206,1.7206,0,0,1-1.6,1.6H38.4a1.7206,1.7206,0,0,1-1.6-1.6h0v-1.4A1.319,1.319,0,0,1,38.2,94.85Z" style="fill:#6681af"/><path d="M43.6,102.25H45a1.7206,1.7206,0,0,1,1.6,1.6h0v1.4a1.7206,1.7206,0,0,1-1.6,1.6H43.6a1.7206,1.7206,0,0,1-1.6-1.6h0v-1.4a1.5775,1.5775,0,0,1,1.6-1.6Z" style="fill:#6681af"/><path d="M49,109.85h1.4a1.7206,1.7206,0,0,1,1.6,1.6h0v1.6a1.7206,1.7206,0,0,1-1.6,1.6H49a1.7206,1.7206,0,0,1-1.6-1.6h0v-1.4a1.5309,1.5309,0,0,1,1.6-1.8Z" style="fill:#6681af"/><path d="M54.2,117.25h1.4a1.7206,1.7206,0,0,1,1.6,1.6h0v1.4a1.7206,1.7206,0,0,1-1.6,1.6H54.2a1.7206,1.7206,0,0,1-1.6-1.6h0v-1.4a1.7206,1.7206,0,0,1,1.6-1.6Z" style="fill:#6681af"/><rect x="34.8" y="84.6863" width="3.0001" height="41.3271" transform="translate(-51.7027 36.9993) rotate(-33.1518)" style="fill:#333"/><path d="M92.8,94.85h1.4a1.7206,1.7206,0,0,1,1.6,1.6h0v1.4a1.7206,1.7206,0,0,1-1.6,1.6H92.8a1.7206,1.7206,0,0,1-1.6-1.6h0v-1.4c-.2-1,.6-1.6,1.6-1.6Z" style="fill:#6681af"/><path d="M87.4,102.25h1.4a1.7206,1.7206,0,0,1,1.6,1.6h0v1.4a1.7206,1.7206,0,0,1-1.6,1.6H87.4a1.7206,1.7206,0,0,1-1.6-1.6h0v-1.4a1.5775,1.5775,0,0,1,1.6-1.6Z" style="fill:#6681af"/><path d="M82,109.85h1.4a1.7206,1.7206,0,0,1,1.6,1.6h0v1.6a1.7206,1.7206,0,0,1-1.6,1.6H82a1.7206,1.7206,0,0,1-1.6-1.6h0v-1.4a1.5309,1.5309,0,0,1,1.6-1.8Z" style="fill:#6681af"/><path d="M76.6,117.25H78a1.7206,1.7206,0,0,1,1.6,1.6h0v1.4a1.7206,1.7206,0,0,1-1.6,1.6H76.6a1.7206,1.7206,0,0,1-1.6-1.6h0v-1.4a1.5775,1.5775,0,0,1,1.6-1.6Z" style="fill:#6681af"/><rect x="75.3913" y="103.8499" width="41.218" height="2.9999" transform="translate(-44.6021 128.7083) rotate(-57.0911)" style="fill:#333"/><polygon points="60.391 113.363 58.01 111.538 81.745 80.579 92.637 85.692 91.363 88.408 82.656 84.321 60.391 113.363" style="fill:#333"/><polygon points="65.006 104.157 49.939 84.323 41.237 88.408 39.963 85.692 50.861 80.577 67.395 102.343 65.006 104.157" style="fill:#333"/><path d="M66,125.55a126.5125,126.5125,0,0,1-51.001-10.7256,1.4994,1.4994,0,0,1-.8974-1.438c.538-12.6069,3.9653-21.5947,10.186-26.7129a18.9317,18.9317,0,0,1,13.9385-4.3061,1.5,1.5,0,0,1,.9839.5962l26.7944,36.5552,26.9893-36.56a1.4993,1.4993,0,0,1,.9667-.59,18.7543,18.7543,0,0,1,13.91,4.1871c6.2476,5.0927,9.689,14.12,10.228,26.8305a1.4987,1.4987,0,0,1-.8974,1.4375A126.986,126.986,0,0,1,66,125.55ZM95.0132,85.2749,67.502,122.541a123.9533,123.9533,0,0,0,47.5488-10.0547c-.6323-11.271-3.6836-19.2094-9.0757-23.605A16.0316,16.0316,0,0,0,95.0132,85.2749ZM17.15,112.4863A123.5015,123.5015,0,0,0,64.5,122.541L37.1919,85.2852a16.3816,16.3816,0,0,0-11.0454,3.7436C20.8047,93.4565,17.78,101.3457,17.15,112.4863Z" style="fill:#333"/><path d="M66.2,6.25c-21,0-24.2,22.4-24.2,22.4H90.4S87.2,6.25,66.2,6.25Z" style="fill:#444"/><path d="M66.2,10.05c-23.4,0-27,22.4-27,22.4H93S89.6,10.05,66.2,10.05Z" style="fill:#333"/><path d="M66,12.25a34.19,34.19,0,0,0-6.4,0,21.7785,21.7785,0,0,0-6.2,1.6,13.3344,13.3344,0,0,0-5,3.8,19.9644,19.9644,0,0,0-3,5.8,15.6558,15.6558,0,0,1,2.4-6.4,14.3689,14.3689,0,0,1,5-4.8,18.6669,18.6669,0,0,1,6.6-2.4,26.8669,26.8669,0,0,1,7-.6,1.5033,1.5033,0,1,1-.2,3Z" style="fill:#444"/><path d="M66,12.25a26.2083,26.2083,0,0,0-5.6,0,12.36,12.36,0,0,0-5.4,1.8,16.683,16.683,0,0,0-2.4,1.6c-.6.8-1.4,1.4-2,2.2a18.6074,18.6074,0,0,0-2.4,5.4,19.56,19.56,0,0,1,1.8-5.8,12.0288,12.0288,0,0,1,1.8-2.6,12.5569,12.5569,0,0,1,2.4-2.2A22.1579,22.1579,0,0,1,60,9.85a23.8861,23.8861,0,0,1,6.6-.8,1.5033,1.5033,0,0,1-.2,3c-.2.2-.2.2-.4.2Z" style="fill:#444"/><path d="M66.2,12.25a21.3584,21.3584,0,0,0-5,.6,18.8635,18.8635,0,0,0-4.6,2,15.38,15.38,0,0,0-3.6,3.6,20.8762,20.8762,0,0,0-2.2,4.8,15.4287,15.4287,0,0,1,1.4-5.2,14.462,14.462,0,0,1,3.4-4.4,19.4739,19.4739,0,0,1,4.8-3A17.7306,17.7306,0,0,1,66,9.25a1.5457,1.5457,0,0,1,1.6,1.4,1.5208,1.5208,0,0,1-1.2,1.6Z" style="fill:#444"/><path d="M66,9.25a39.6532,39.6532,0,0,1,7,.6,29.2472,29.2472,0,0,1,6.6,2.4,14.3689,14.3689,0,0,1,5,4.8c1.4,1.8,1.8,4.2,2.4,6.4a12.43,12.43,0,0,0-3-5.8,12.5988,12.5988,0,0,0-5.2-4,21.7785,21.7785,0,0,0-6.2-1.6,34.2083,34.2083,0,0,0-6.4,0h0a1.5573,1.5573,0,0,1-1.8-1.2c-.2-.8.6-1.6,1.6-1.6Z" style="fill:#444"/><path d="M66,9.25a23.8861,23.8861,0,0,1,6.6.8,17.27,17.27,0,0,1,5.8,2.8,23.9705,23.9705,0,0,1,2.4,2.2,12.0288,12.0288,0,0,1,1.8,2.6,19.56,19.56,0,0,1,1.8,5.8,16.5067,16.5067,0,0,0-2.4-5.4,10.4827,10.4827,0,0,0-2-2.2,16.683,16.683,0,0,0-2.4-1.6,13.2889,13.2889,0,0,0-5.4-1.8,26.19,26.19,0,0,0-5.6,0h0a1.5573,1.5573,0,0,1-1.8-1.2,1.6054,1.6054,0,0,1,1.2-2Z" style="fill:#444"/><path d="M66.2,9.25a17.7306,17.7306,0,0,1,5.6,1.4,19.4739,19.4739,0,0,1,4.8,3,14.462,14.462,0,0,1,3.4,4.4,15.4287,15.4287,0,0,1,1.4,5.2,17.6109,17.6109,0,0,0-2.2-4.8,12.3462,12.3462,0,0,0-3.6-3.6,13.43,13.43,0,0,0-4.6-2,21.3584,21.3584,0,0,0-5-.6h0a1.5033,1.5033,0,1,1-.2-3Z" style="fill:#444"/><path d="M43.4883,28.8643l-2.9766-.4268C40.5454,28.2,44.1514,4.7466,66.2,4.7466S91.8545,28.2,91.8882,28.4375l-2.9766.4268a31.67,31.67,0,0,0-4.07-10.712A20.6891,20.6891,0,0,0,66.2,7.7534,20.69,20.69,0,0,0,47.5581,18.1523,31.67,31.67,0,0,0,43.4883,28.8643Z" style="fill:#333"/><path d="M78.8,27.05V13.85s-7.2-2.2-12.6-2.2-12.6,2.2-12.6,2.2v13" style="fill:#222"/><path d="M79.832,27.05H77.7686V14.626A49.7206,49.7206,0,0,0,66.2,12.6816,49.6368,49.6368,0,0,0,54.6318,14.626V26.85H52.5684v-13a1.0309,1.0309,0,0,1,.73-.9863c.3-.0918,7.4107-2.2456,12.9014-2.2456s12.6016,2.1538,12.9014,2.2456a1.0311,1.0311,0,0,1,.73.9863Z" style="fill:#222"/><path d="M78.8,28.05H53.6a.9448.9448,0,0,1-1-1V13.85a1.0206,1.0206,0,0,1,.8-1c.2,0,7.4-2.4,13-2.4a48.9432,48.9432,0,0,1,13,2.4,1.3288,1.3288,0,0,1,.8,1v13C79.8,27.65,79.4,28.05,78.8,28.05Z" style="fill:#222"/><path d="M78.8,28.05H53.6a.9448.9448,0,0,1-1-1V13.85a1.0206,1.0206,0,0,1,.8-1c.2,0,7.4-2.4,13-2.4a48.9432,48.9432,0,0,1,13,2.4,1.3288,1.3288,0,0,1,.8,1v13C79.8,27.65,79.4,28.05,78.8,28.05Z" style="fill:#e8a146"/><path d="M90.4,25.85a8.401,8.401,0,0,0-6.2-3H48.4a7.76,7.76,0,0,0-6.2,3c-9.6,11.8-11,22.4-10.4,35,.2,4.8,4.8,6,6,6H95a5.8908,5.8908,0,0,0,6-6C101.2,48.45,100,37.65,90.4,25.85Z" style="fill:#333"/><path d="M66.2,27.25c15.2,0,19.8,9,19.8,19.2,0,.6-.2,3-.2,3.6,3.2,0,4.4,3.4,4,7.8-.4,3.8-1.8,7.8-5.4,7.8a11.6177,11.6177,0,0,1-.2,2c-.4,5.8-4.4,9-9.6,14.6-3.4,3.6-5.8,3.4-8.2,3.4s-4.8.4-8.2-3.4c-5.4-5.6-9.4-8.8-9.6-14.6a11.6928,11.6928,0,0,0-.2-2c-3.6,0-5-4.2-5.4-7.8-.6-4.4.6-7.8,4-7.8,0-.6-.2-3-.2-3.6C46.4,36.25,50.8,27.25,66.2,27.25Z" style="fill:#efc8a5"/><path d="M85.8,50.25c0-.6.2-3,.2-3.6,0-10.2-4.4-19.2-19.8-19.2a46.005,46.005,0,0,0-5.6.4v17.6a8.2149,8.2149,0,0,1-2.6,5.8.9071.9071,0,0,0,.4,1.6,5.5791,5.5791,0,0,1,3.8,3.8,1.1058,1.1058,0,0,0,1.6.6,1.7287,1.7287,0,0,1,1.2-.6,1.0013,1.0013,0,0,1,1.2,1v4.2a2.2985,2.2985,0,0,0,1.2,1.8c1.2.6.4,2.8-1.2,2.8h0a4.7764,4.7764,0,0,1-1.8-.4c-1.4-.8-2.8.8-2.6,1.4s.6,0,2.2.6a10.6133,10.6133,0,0,0,2.2.6v7.4c0,.4.2.6.6.8,2.6.6,4,5-.6,5.8h0a2.3756,2.3756,0,0,0-2,2.4v1h2.2c2.4,0,4.8.4,8.2-3.4,5.4-5.6,9.4-8.8,9.6-14.6a11.6928,11.6928,0,0,1,.2-2c3.6,0,5-4.2,5.4-7.8C90.2,53.45,89,50.25,85.8,50.25Z" style="fill:#e6b790"/><path d="M66,87.15a12.9614,12.9614,0,0,1-9.49-4.07c-.6924-.7183-1.3687-1.4033-2.0142-2.0571-4.2817-4.3365-7.3809-7.4751-7.7866-12.9966-.0518-.3145-.09-.5928-.12-.8369-3.0147-.7212-4.94-3.8467-5.481-8.9825-.2241-2.4653-.0957-5.81,1.7788-7.8627a4.786,4.786,0,0,1,2.1445-1.3658c-.0092-.14-.019-.2842-.0283-.4282-.0527-.7915-.1035-1.583-.1035-1.9,0-13.542,7.3657-20.7,21.3-20.7s21.3,7.1577,21.3,20.7c0,.3164-.05,1.1084-.103,1.9-.0093.14-.0191.2808-.0279.4185a4.6787,4.6787,0,0,1,2.2955,1.5122c1.37,1.6411,1.8022,4.334,1.22,7.5864-.5728,5.0591-2.5694,8.2266-5.56,8.9326-.0146.1875-.0244.4024-.0244.65-.1948,5.6733-3.3794,8.8989-7.7866,13.3638-.6475.6557-1.3267,1.3442-2.0342,2.0776A12.75,12.75,0,0,1,66,87.15Zm.2-58.2c-12.3145,0-18.3,5.79-18.3,17.7,0,.2832.0493.9917.0967,1.7.0527.7915.1035,1.583.1035,1.9a1.5,1.5,0,0,1-1.5,1.5,1.89,1.89,0,0,0-1.4976.6167c-.8745.9575-1.2421,2.98-1.0087,5.5474.2519,2.39,1.0971,6.436,3.9062,6.436a1.5,1.5,0,0,1,1.5,1.5,10.21,10.21,0,0,0,.18,1.7534c.0078.0474.0137.0952.0171.1436.3071,4.4565,2.9433,7.1264,6.9336,11.1675.6538.6625,1.3388,1.3564,2.05,2.0947A9.9934,9.9934,0,0,0,66,84.15a9.6942,9.6942,0,0,0,7.31-3.13c.7265-.7534,1.414-1.45,2.0693-2.1142,4.2207-4.2759,6.7686-6.857,6.9224-11.3077a10.0622,10.0622,0,0,1,.1826-1.9384l.0195-.11A1.5,1.5,0,0,1,84,64.15c2.88,0,3.6934-4.5215,3.9092-6.4653.0039-.0347.0088-.0689.0151-.1031.4209-2.3159.21-4.2519-.563-5.1787A1.8792,1.8792,0,0,0,85.8,51.75a1.5,1.5,0,0,1-1.5-1.5c0-.3164.05-1.1084.103-1.9.0474-.7085.0967-1.4165.0967-1.7C84.5,34.74,78.5142,28.95,66.2,28.95Z" style="fill:#333"/><path d="M66,70.9a.65.65,0,0,1-.65-.65v-1.4a.65.65,0,0,1,1.3,0v1.4A.65.65,0,0,1,66,70.9Z" style="fill:#ddad8a"/><path d="M59.6,75.3a.65.65,0,0,1-.581-.9409l.6-1.2a.65.65,0,0,1,1.163.582l-.6,1.2A.65.65,0,0,1,59.6,75.3Z" style="fill:#ddad8a"/><path d="M72.4,75.3a.65.65,0,0,1-.582-.3594l-.6-1.2a.65.65,0,0,1,1.163-.581l.6,1.2a.65.65,0,0,1-.581.94Z" style="fill:#ddad8a"/><path d="M67.6,71.65a3.7678,3.7678,0,0,1-1.6.4c-.4,0-.4,0-1.4-.4-1.6-.6-1.8,1.4-4.6,2.4l1.8,1.8a4.41,4.41,0,0,0,3,1.2h2a5.431,5.431,0,0,0,3.4-1.2l1.8-1.8C69.2,73.05,69.2,71.05,67.6,71.65Z" style="fill:#ddab85"/><path d="M72,74.25a14.1659,14.1659,0,0,1-3-.2,7.0585,7.0585,0,0,0-2.8.6h-.4a15.7885,15.7885,0,0,0-2.6-.6c-1,0-2,.2-3,.2a.43.43,0,0,1-.4-.4c0-.2.2-.2.4-.4,1-.2,1.8-.4,3-.6a5.7017,5.7017,0,0,1,3.2.4H66a8.8074,8.8074,0,0,1,3.2-.4,19.85,19.85,0,0,0,3,.6.43.43,0,0,1,.4.4C72.2,74.25,72.2,74.25,72,74.25Z" style="fill:#c6916d"/><path d="M66,69a4.5832,4.5832,0,0,1-2.3354-.5791A3.136,3.136,0,0,0,62,68a.75.75,0,0,1,0-1.5,4.5832,4.5832,0,0,1,2.3354.5791,3.5021,3.5021,0,0,0,3.3292,0A4.5832,4.5832,0,0,1,70,66.5.75.75,0,0,1,70,68a3.136,3.136,0,0,0-1.6646.4209A4.5832,4.5832,0,0,1,66,69Z" style="fill:#c6916d"/><path d="M50.6,52.85a7.0123,7.0123,0,0,1,2.8-1.2,7.575,7.575,0,0,1,3,0c1,.2,1.8.4,2.8.6a12.2132,12.2132,0,0,0,2.6.6h0a1.1045,1.1045,0,0,1-.2,2.2h-.2a15.6756,15.6756,0,0,1-2.8-1,10.0468,10.0468,0,0,0-2.6-1,10.1331,10.1331,0,0,0-2.6-.4,3.4917,3.4917,0,0,0-2.4.8.375.375,0,0,1-.6,0,.7347.7347,0,0,1,.2-.6Z" style="fill:#333"/><path d="M81,53.45a3.4917,3.4917,0,0,0-2.4-.8,11.7052,11.7052,0,0,0-2.6.4,22.43,22.43,0,0,0-2.6,1,9.1318,9.1318,0,0,1-2.8,1,1.02,1.02,0,0,1-.4-2h.2a15.7885,15.7885,0,0,0,2.6-.6c.8-.2,1.8-.4,2.8-.6a7.575,7.575,0,0,1,3,0,7.0123,7.0123,0,0,1,2.8,1.2.7347.7347,0,0,1,.2.6c0,.2-.6,0-.8-.2Z" style="fill:#333"/><path d="M60.8,58.45c-1.2-.6-3.8-3.8-7.8-.6a8.997,8.997,0,0,1-1.6-.4s3.8-1.6,6.6-.6" style="fill:#333"/><path d="M60.8,58.9541a.4952.4952,0,0,1-.2246-.0537,6.3977,6.3977,0,0,1-.832-.55,9.2053,9.2053,0,0,0-1.6226-1.0107.51.51,0,0,1-.29-.0152,5.9565,5.9565,0,0,0-2.0923-.2988,5.6073,5.6073,0,0,0-2.4238,1.2178l-.1377.11H53a3.3049,3.3049,0,0,1-.9834-.2036c-.2041-.0635-.4429-.1372-.7388-.2109l-1.4668-.3662,1.3936-.587a13.7894,13.7894,0,0,1,4.3779-.9638,6.0383,6.0383,0,0,1,4.7549,1.5146,5.9392,5.9392,0,0,0,.688.4634.5037.5037,0,0,1-.2256.9541Z" style="fill:#333"/><ellipse cx="57.0001" cy="57.85" rx="1.6" ry="1" style="fill:#333"/><path d="M72,58.45c1.2-.6,3.8-3.8,7.8-.6a8.997,8.997,0,0,0,1.6-.4s-3.8-1.6-6.6-.6" style="fill:#333"/><path d="M72.0005,58.9541A.5037.5037,0,0,1,71.7749,58a5.9392,5.9392,0,0,0,.688-.4634,6.0306,6.0306,0,0,1,4.7549-1.5146,13.7955,13.7955,0,0,1,4.3774.9638l1.3931.587-1.4663.3662c-.2954.0737-.5342.1474-.7383.21a3.2916,3.2916,0,0,1-.9834.2041h-.1768l-.1377-.11a5.6189,5.6189,0,0,0-2.4179-1.2168,6.0444,6.0444,0,0,0-2.0982.2978.51.51,0,0,1-.29.0152A9.1762,9.1762,0,0,0,73.0571,58.35a6.4045,6.4045,0,0,1-.832.55A.4952.4952,0,0,1,72.0005,58.9541Z" style="fill:#333"/><ellipse cx="75.8001" cy="57.85" rx="1.6" ry="1" style="fill:#333"/><path d="M78,33.45v-8a9.4687,9.4687,0,0,0-4.4-8L70,15.25a8.2724,8.2724,0,0,0-3.8-1h0a8.2724,8.2724,0,0,0-3.8,1l-3.6,2.2a9.2219,9.2219,0,0,0-4.4,8v8a6.8326,6.8326,0,0,0,4,6.2l7.6,3.4,7.8-3.6A6.07,6.07,0,0,0,78,33.45Z" style="fill:#333"/><path d="M66,44.5532a1.501,1.501,0,0,1-.6138-.1308l-7.6-3.4a8.3383,8.3383,0,0,1-4.89-7.5723v-8a10.7725,10.7725,0,0,1,5.1582-9.3057l3.561-2.1772c.0366-.0225.0738-.043.1118-.062a9.2109,9.2109,0,0,1,8.9449,0c.038.019.0752.04.1118.062l3.6,2.2A10.9984,10.9984,0,0,1,79.5034,25.45v8a7.5443,7.5443,0,0,1-5.16,7.4048L66.63,44.415A1.5,1.5,0,0,1,66,44.5532ZM63.1279,16.5669l-3.5434,2.166A7.7385,7.7385,0,0,0,55.9033,25.45v8a5.3464,5.3464,0,0,0,3.0747,4.812L65.99,41.3984l7.18-3.3134a1.5653,1.5653,0,0,1,.1875-.0718,4.5892,4.5892,0,0,0,3.1387-4.563v-8a7.9909,7.9909,0,0,0-3.71-6.7354L69.272,16.5669a6.2073,6.2073,0,0,0-6.1441,0Z" style="fill:#333"/><path d="M90,25.85a8.401,8.401,0,0,0-6.2-3H48.2a7.76,7.76,0,0,0-6.2,3c-9.6,11.8-11,22.4-10.4,35.2.2,4.8,4.8,6,6,6H48.2V55.65a26.7312,26.7312,0,0,1,2-10.4l4.2-10.4H78l4.2,10.4a26.0476,26.0476,0,0,1,2,10.4v11.4H94.4c1.2,0,5.8-1.2,6-6C100.8,48.25,99.6,37.65,90,25.85Z" style="fill:#444"/><path d="M90,25.85a8.401,8.401,0,0,0-6.2-3H52.2a7.76,7.76,0,0,0-6.2,3c-9.6,11.8-11,22.4-10.4,35.2.2,4.8,4.8,6,6,6h6.6V55.65a26.7312,26.7312,0,0,1,2-10.4l2.4-6a6.2779,6.2779,0,0,1,5.8-4H78a9.1515,9.1515,0,0,1,6.2,5.6l1.8,4.2a26.0476,26.0476,0,0,1,2,10.4v5.8a4.9255,4.9255,0,0,1-1.8,3.8L84,66.85H94.2c1.2,0,5.8-1.2,6-6C100.8,48.25,99.6,37.65,90,25.85Z" style="fill:#333"/><path d="M78.4,35.25a15.689,15.689,0,0,0,2.8-.4c1-.2,1.8-.4,2.8-.6a17.51,17.51,0,0,0,5.2-2.4,17.6536,17.6536,0,0,1-4.4,4.2,11.34,11.34,0,0,1-2.6,1.6,12.2189,12.2189,0,0,1-2.8,1.4h0a1.97,1.97,0,0,1-1.6-3.6A.7347.7347,0,0,1,78.4,35.25Z" style="fill:#444"/><path d="M80.8,37.05a10.5658,10.5658,0,0,0,2.6.2,13.204,13.204,0,0,0,2.8-.2,17.9621,17.9621,0,0,0,5.4-1.4,25.08,25.08,0,0,1-4.8,3.2c-.8.4-1.8.8-2.8,1.2a16.6618,16.6618,0,0,1-3,.8h0a2.04,2.04,0,0,1-.8-4C80.2,37.05,80.6,37.05,80.8,37.05Z" style="fill:#444"/><path d="M82.2,40.05a8.5952,8.5952,0,0,0,2.4.4,13.204,13.204,0,0,0,2.8-.2,28.69,28.69,0,0,0,5.6-1.4,22.031,22.031,0,0,1-5,3.4l-3,1.2a8.619,8.619,0,0,1-3.4.6h-.2a2.1024,2.1024,0,0,1-.2-4.2A2.1746,2.1746,0,0,0,82.2,40.05Z" style="fill:#444"/><path d="M83.8,42.65a8.5952,8.5952,0,0,0,2.4.4H89c1.8,0,3.8-.4,5.8-.6a25.2769,25.2769,0,0,1-5.2,2.6c-1,.4-2,.6-3,1a15.8616,15.8616,0,0,1-3.4.4H83a2,2,0,0,1,0-4A1.2025,1.2025,0,0,1,83.8,42.65Z" style="fill:#444"/><path d="M84.6,45.65a8.5952,8.5952,0,0,0,2.4.4h2.8c1.8,0,3.8-.4,5.8-.6a25.2769,25.2769,0,0,1-5.2,2.6c-1,.4-2,.6-3,1a15.8616,15.8616,0,0,1-3.4.4h-.2a2,2,0,0,1,0-4A1.2025,1.2025,0,0,1,84.6,45.65Z" style="fill:#444"/><path d="M85.4,48.65c.6.2,1.6.4,2.4.6a13.204,13.204,0,0,0,2.8.2,28.5583,28.5583,0,0,0,5.8-.6,33.2743,33.2743,0,0,1-5.4,2.6,16.6618,16.6618,0,0,1-3,.8,15.8616,15.8616,0,0,1-3.4.4h-.2a2.1024,2.1024,0,0,1,.2-4.2A1.2025,1.2025,0,0,1,85.4,48.65Z" style="fill:#444"/><path d="M85.8,51.65c.6.2,1.6.4,2.4.6a13.204,13.204,0,0,0,2.8.2,28.5583,28.5583,0,0,0,5.8-.6,33.2743,33.2743,0,0,1-5.4,2.6,16.6618,16.6618,0,0,1-3,.8,15.8616,15.8616,0,0,1-3.4.4h-.2a2.1024,2.1024,0,0,1,.2-4.2A1.2025,1.2025,0,0,1,85.8,51.65Z" style="fill:#444"/><path d="M86,54.65a5.57,5.57,0,0,0,2.4.8,11.8038,11.8038,0,0,0,2.8.4,28.628,28.628,0,0,0,5.8-.2,27.1727,27.1727,0,0,1-5.6,2.2l-3,.6a9.69,9.69,0,0,1-3.4,0h-.2a2.1213,2.1213,0,1,1,.6-4.2A2.8771,2.8771,0,0,1,86,54.65Z" style="fill:#444"/><path d="M88.2,58.25l-.2-.2h0l.2.2,1.2.6,2.4.6a21.3584,21.3584,0,0,0,5,.6,46.6948,46.6948,0,0,1-5,1.4,11.7052,11.7052,0,0,1-2.6.4H87.8a1.2025,1.2025,0,0,1-.8-.2.7347.7347,0,0,1-.6-.2.6194.6194,0,0,1-.4-.2c-.2,0-.2,0-.6-.4a1.9154,1.9154,0,1,1,2.8-2.6Z" style="fill:#444"/><path d="M50.4,36.65a16.9651,16.9651,0,0,1-5.6-3,32.9418,32.9418,0,0,1-4.8-4.4h0a1.9849,1.9849,0,1,1,3-2.6c.2.2.2.4.4.6a26.0937,26.0937,0,0,0,2.8,5.2A27.7893,27.7893,0,0,0,50.4,36.65Z" style="fill:#444"/><path d="M41.6,30.05a12.5217,12.5217,0,0,0,8.6,9A14.7917,14.7917,0,0,1,38,31.45h0a2.0591,2.0591,0,1,1,3.6-2Z" style="fill:#444"/><path d="M39.6,33.05a17.4061,17.4061,0,0,0,3.2,6,11.9314,11.9314,0,0,0,6,3.8,11.9827,11.9827,0,0,1-7.2-2.4,17.2931,17.2931,0,0,1-5.6-5.8h0a2.0248,2.0248,0,0,1,3.4-2.2A.7347.7347,0,0,0,39.6,33.05Z" style="fill:#444"/><path d="M38.2,36.85a11.9913,11.9913,0,0,0,3.4,6.2,16.2427,16.2427,0,0,0,6.8,3.8,20.033,20.033,0,0,1-8-2.2,13.3343,13.3343,0,0,1-6-6.4h0a1.97,1.97,0,0,1,3.6-1.6C38,36.45,38,36.65,38.2,36.85Z" style="fill:#444"/><path d="M36.2,39.85a16.5022,16.5022,0,0,0,4,6.4,12.7907,12.7907,0,0,0,7.2,3.4,13.3786,13.3786,0,0,1-8.2-1.8,18.9822,18.9822,0,0,1-6.4-6.2h0a2.0248,2.0248,0,1,1,3.4-2.2C36,39.65,36,39.85,36.2,39.85Z" style="fill:#444"/><path d="M35,44.45a18.75,18.75,0,0,0,4.8,5.6,10.6221,10.6221,0,0,0,7,2.4,12.3627,12.3627,0,0,1-8-.8,27.77,27.77,0,0,1-6.8-4.8,1.9849,1.9849,0,0,1,2.6-3c.2.4.2.6.4.6Z" style="fill:#444"/><path d="M34.6,48.25A14.5085,14.5085,0,0,0,46,56.65a15.8532,15.8532,0,0,1-8-1,15.58,15.58,0,0,1-6.8-5.2h0a2,2,0,0,1,3.2-2.4Z" style="fill:#444"/><path d="M34.6,52.65A14.5085,14.5085,0,0,0,46,61.05a15.8532,15.8532,0,0,1-8-1,15.58,15.58,0,0,1-6.8-5.2h0a2,2,0,0,1,3.2-2.4C34.4,52.25,34.4,52.45,34.6,52.65Z" style="fill:#444"/><path d="M94.2,68.55H82.5V53.25a13.2,13.2,0,0,0-1.07-5.3906l-2.2256-5.6612A9.0958,9.0958,0,0,0,70.6,36.35h-9a9.09,9.09,0,0,0-8.5981,5.834l-2.2061,5.6142A14.6575,14.6575,0,0,0,49.7,53.25v15.3H37.6c-1.9194,0-7.2622-1.7627-7.4985-7.4375-.63-13.4311.9463-24.1772,10.7348-36.209A9.2748,9.2748,0,0,1,48.2,21.35H83.8a9.9363,9.9363,0,0,1,7.3208,3.5034l.0425.05c9.6313,11.8384,11.1718,22.6348,10.5351,36.2168C101.4624,66.7871,96.12,68.55,94.2,68.55Zm-8.7-3h8.7c.043,0,4.331-.4839,4.5015-4.5625.6191-13.2056-.7945-23.0288-9.8443-34.1645A6.8437,6.8437,0,0,0,83.8,24.35H48.2a6.2544,6.2544,0,0,0-5.0288,2.437C33.9771,38.0884,32.5015,48.2476,33.0986,60.98c.17,4.0864,4.4585,4.57,4.5015,4.57h9.1V53.25a17.623,17.623,0,0,1,1.3071-6.5571l2.1968-5.5913A12.0623,12.0623,0,0,1,61.6,33.35h9A12.0684,12.0684,0,0,1,82.002,41.1157l2.1943,5.586A16.083,16.083,0,0,1,85.5,53.25Z" style="fill:#333"/><path d="M56.2,35.05a47.1591,47.1591,0,0,1-.8-5.6,14.39,14.39,0,0,1,.6-5.8,18.11,18.11,0,0,1,2.6-5.2,10.97,10.97,0,0,1,4.4-3.6,26.7931,26.7931,0,0,0-5,9.4,21.782,21.782,0,0,0-1,5.2A47.1591,47.1591,0,0,1,56.2,35.05Z" style="fill:#444"/><path d="M60.2,35.05a46.1424,46.1424,0,0,1-1-10.6,15.4287,15.4287,0,0,1,1.4-5.2,16.681,16.681,0,0,1,3.2-4.2,46.8086,46.8086,0,0,0-1.8,4.8,40.9621,40.9621,0,0,0-1,4.8,43.5,43.5,0,0,0-.2,5.2A21.8,21.8,0,0,1,60.2,35.05Z" style="fill:#444"/><path d="M64.2,35.05a42.441,42.441,0,0,1-1-10,28.518,28.518,0,0,1,1.8-10,84.2794,84.2794,0,0,1,.2,10C65,28.45,65,31.85,64.2,35.05Z" style="fill:#444"/><path d="M71.8,35.05a46.7123,46.7123,0,0,1-.8-5.2,41.8041,41.8041,0,0,1-.2-5,20.5337,20.5337,0,0,0-1-4.8,46.8086,46.8086,0,0,0-1.8-4.8,13.0476,13.0476,0,0,1,3.2,4.2,15.4287,15.4287,0,0,1,1.4,5.2,24.4249,24.4249,0,0,1-.2,5.4A21.3584,21.3584,0,0,1,71.8,35.05Z" style="fill:#444"/><path d="M67.8,35.05a42.441,42.441,0,0,1-1-10v-5a41.8041,41.8041,0,0,1,.2-5,24.6145,24.6145,0,0,1,1.8,10A41.4114,41.4114,0,0,1,67.8,35.05Z" style="fill:#444"/><path d="M75.8,35.05a47.1591,47.1591,0,0,1-.8-5.6,23.8658,23.8658,0,0,0-1-5.2,30.5223,30.5223,0,0,0-5-9.4,15.1448,15.1448,0,0,1,4.4,3.6,15.8777,15.8777,0,0,1,2.6,5.2,14.0332,14.0332,0,0,1,.6,5.8A47.1591,47.1591,0,0,1,75.8,35.05Z" style="fill:#444"/></g></svg>