<svg xmlns="http://www.w3.org/2000/svg" viewBox="0 0 128 128"><title>brazilian-native-woman</title><g id="brazilian-native-woman"><g id="traditional-attire-native-female"><g id="traditional-attire-native-female-2"><g id="Icons"><g id="Women"><path d="M66.8579,18.0066c-18.88,0-24,13.4-24,27.2v31.06a12.94,12.94,0,0,0,12.94,12.94h22.1a12.94,12.94,0,0,0,12.96-12.92v-31.08C90.8579,31.4066,85.7979,18.0066,66.8579,18.0066Z" style="fill:#333"/><path d="M77.9185,90.7065H55.7979a14.456,14.456,0,0,1-14.44-14.44v-31.06c0-18.5078,9.0562-28.7,25.5-28.7,16.6821,0,25.5,9.9244,25.5,28.7v31.06A14.4612,14.4612,0,0,1,77.9185,90.7065Zm-11.0606-71.2c-14.93,0-22.5,8.647-22.5,25.7v31.06a11.4527,11.4527,0,0,0,11.44,11.44H77.916A11.4529,11.4529,0,0,0,89.3579,76.2842V45.2065C89.3579,28.1533,81.7876,19.5063,66.8579,19.5063Z" style="fill:#333"/><path d="M115.6779,99.4066a8,8,0,0,0-5.68-6.38l-31.14-8.52v-10h-24v10l-31.14,8.52a8,8,0,0,0-5.7,6.38l-1.16,7.02a123.4024,123.4024,0,0,0,50,10,123.801,123.801,0,0,0,50-10Z" style="fill:#dcb091"/><path d="M93.7979,94.9866l16.2,4a8,8,0,0,1,5.68,6.38l.24,1.42a123.7007,123.7007,0,0,1-49.06,9.64,123.801,123.801,0,0,0,50-10l-1.18-7.02a8,8,0,0,0-5.68-6.38l-11.5-3.38v.26A23.5634,23.5634,0,0,1,93.7979,94.9866Z" style="fill:#e6f2f0"/><path d="M23.7179,99.0066l16.82-4.14a32.7481,32.7481,0,0,1-4-4.96v-.6l-12.66,3.72a8,8,0,0,0-5.7,6.38l-1.32,7.02.94.38.22-1.42A8,8,0,0,1,23.7179,99.0066Z" style="fill:#e6f2f0"/><path d="M23.8379,109.1466a124.001,124.001,0,0,0,43.02,7.28,123.7021,123.7021,0,0,0,49.06-9.7l-.24-1.42a8,8,0,0,0-5.68-6.38l-16.2-4a55.7268,55.7268,0,0,1-6.36,4.44c-15.22,9.5-34.96,7.6-46.9-4.58l-16.82,4.14a8,8,0,0,0-5.7,6.38l-.22,1.42.56.22c1.74.72,3.5,1.42,5.28,2Z" style="fill:#d5e7e5"/><path d="M66.8579,21.4866c16,0,21,9.18,21,20v4c3.46,0,4.56,3.4,4,8-.48,3.9-2,8-6,8v3c0,6-4.78,8.7-10.36,14.5a9.6,9.6,0,0,1-8.64,3.5,9.6,9.6,0,0,1-8.64-3.5c-5.58-5.8-10.36-8.5-10.36-14.5v-3c-4,0-5.52-4.1-6-8-.56-4.6.54-8,4-8v-4C45.8579,30.7266,50.8579,21.4866,66.8579,21.4866Z" style="fill:#dcb091"/><path d="M91.8579,53.4866c.56-4.6-.54-8-4-8v-4c0-10.82-5-20-21-20a33.7294,33.7294,0,0,0-5.54.42v19.46a7.8,7.8,0,0,1-2.46,5.76.9.9,0,0,0,.4,1.54,5.16,5.16,0,0,1,3.6,3.76.98.98,0,0,0,1.54.58,3.4981,3.4981,0,0,1,1.16-.64.98.98,0,0,1,1.22.96v4.14a2.22,2.22,0,0,0,1.24,1.88c1.14.64.32,2.8-1.24,2.8h0a3.3812,3.3812,0,0,1-1.78-.46c-1.48-.74-2.86.78-2.54,1.36s.68,0,2.16.7a5.3214,5.3214,0,0,0,2.2.54v7.36a.8.8,0,0,0,.62.76c2.62.62,4,4.98-.62,6h0a2.48,2.48,0,0,0-1.96,2.32v1.78a9.0611,9.0611,0,0,0,2,0,9.6,9.6,0,0,0,8.64-3.5c5.58-5.8,10.36-8.5,10.36-14.5v-2.98C89.8579,61.4866,91.3779,57.3866,91.8579,53.4866Z" style="fill:#cba082"/><path d="M66.8579,46.3066c-6.32,0-12.8,2.32-18,2.22v7.34a4,4,0,0,0,2.88,3.78,63.8815,63.8815,0,0,0,30.24,0,4,4,0,0,0,2.88-3.78v-7.34C79.6579,48.7266,73.1779,46.3066,66.8579,46.3066Z" style="fill:#ad554b"/><path d="M58.7179,47.2266a.88.88,0,0,0,.44,1.46,5.16,5.16,0,0,1,3.7,3.76.98.98,0,0,0,1.54.58,3.4981,3.4981,0,0,1,1.16-.64.98.98,0,0,1,1.22.96v4.14a2.22,2.22,0,0,0,1.24,1.88,1.303,1.303,0,0,1,.14,2,63.5429,63.5429,0,0,0,13.72-1.78,4,4,0,0,0,2.98-3.7v-7.36c-5.2.2-11.68-2.22-18-2.22A46.5322,46.5322,0,0,0,58.7179,47.2266Z" style="fill:#9f4d43"/><path d="M65.81,84.0415A11.2843,11.2843,0,0,1,57.0322,79.86c-1.27-1.3169-2.4775-2.45-3.646-3.5455-3.9267-3.6821-7.0283-6.5908-7.0283-11.8286V62.8179c-2.3169-.5367-5.18-2.5757-5.9888-9.1485-.4375-3.5947.1-6.3623,1.5547-8.0048a4.858,4.858,0,0,1,2.4341-1.4913v-2.687c0-13.8642,7.9907-21.5,22.5-21.5s22.5,7.6358,22.5,21.5v2.687a4.8576,4.8576,0,0,1,2.4341,1.4913c1.4546,1.6425,1.9922,4.41,1.5547,8.0029-.8086,6.5742-3.6719,8.6137-5.9888,9.15v1.6684c0,5.2-3.103,8.084-7.0312,11.7359-1.2066,1.1211-2.4537,2.2807-3.7593,3.6338a11.09,11.09,0,0,1-9.7085,4.1377C66.5078,84.0259,66.1572,84.0415,65.81,84.0415Zm1.0483-61.0552c-12.9394,0-19.5,6.2241-19.5,18.5v4a1.5,1.5,0,0,1-1.5,1.5,2.0506,2.0506,0,0,0-1.6885.6675c-.8437.9526-1.1435,3.0127-.8227,5.6514.375,3.0469,1.4624,6.6811,4.5112,6.6811a1.5,1.5,0,0,1,1.5,1.5v3c0,3.9385,2.419,6.2066,6.08,9.64,1.1538,1.0815,2.4609,2.3076,3.8008,3.7.0307.0322.06.0654.0879.1a8.3082,8.3082,0,0,0,7.374,3.0678,1.5251,1.5251,0,0,1,.3125,0,8.121,8.121,0,0,0,7.248-3.0576,1.3576,1.3576,0,0,1,.0957-.11c1.3814-1.4356,2.7339-2.6929,3.9273-3.8023,3.6572-3.3994,6.0737-5.6455,6.0737-9.5381v-3a1.5,1.5,0,0,1,1.5-1.5c3.0488,0,4.1362-3.6342,4.5112-6.6831.3208-2.6367.021-4.6968-.8227-5.6494a2.0506,2.0506,0,0,0-1.6885-.6675,1.5,1.5,0,0,1-1.5-1.5v-4C86.3579,29.21,79.7974,22.9863,66.8579,22.9863Z" style="fill:#333"/><path d="M66.8579,17.2066c18,0,24,14.14,24,22v4c0,6.9-6,6-6,12,0-6-2.94-7.22-6-8-8-2-10-4-12-8.18-2,4.18-4,6.18-12,8.18-3.06.78-6,2-6,8,0-6-6-5.1-6-12v-4C42.8579,31.3466,48.8579,17.2266,66.8579,17.2066Z" style="fill:#333"/><path d="M84.8579,56.2065a1,1,0,0,1-1-1c0-5.2744-2.2739-6.2734-5.2471-7.0307-7.1523-1.7886-9.7963-3.666-11.7529-7-1.957,3.334-4.6011,5.2119-11.7573,7.001-2.9688.7563-5.2427,1.7553-5.2427,7.03a1,1,0,1,1-2,0c0-2.457-1.1123-3.4834-2.521-4.7822-1.6308-1.5044-3.479-3.21-3.479-7.2178v-4c0-8.8818,6.7871-22.98,24.999-23h.001c18.2129,0,25,14.1075,25,23v4c0,4.0083-1.8481,5.7134-3.479,7.2178-1.4087,1.2988-2.521,2.3252-2.521,4.7822A1,1,0,0,1,84.8579,56.2065Zm-18-18.18a1,1,0,0,1,.9019.5683c1.8164,3.7959,3.438,5.666,11.3408,7.6416,2.4009.6118,4.918,1.5552,6.0869,4.6577a13.4914,13.4914,0,0,1,1.8354-1.94c1.521-1.4033,2.835-2.6152,2.835-5.7476v-4c0-8.1191-6.2441-21-23-21-16.7554.0186-23,12.8907-23,21v4c0,3.1324,1.314,4.3443,2.835,5.7476a13.4914,13.4914,0,0,1,1.8354,1.94c1.169-3.1025,3.6846-4.0454,6.0825-4.6567,7.9073-1.9766,9.5288-3.8467,11.3453-7.6426A1,1,0,0,1,66.8579,38.0264Z" style="fill:#333"/><path d="M42.3379,33.5866a40.3806,40.3806,0,0,0-1.38,8.46c4.72-2.96,15.6-3.5,26-3.5s21.06.54,25.84,3.44a39.4978,39.4978,0,0,0-1.4-8.5c-4.54-3.2-13.76-5.42-24.54-5.42S46.8579,30.3266,42.3379,33.5866Z" style="fill:#d5e7e5"/><rect x="64.6321" y="30.9105" width="4.38" height="4.38" transform="translate(-3.8422 56.9206) rotate(-44.98)" style="fill:#b9cdca"/><path d="M40.958,43.5464a1.5,1.5,0,0,1-1.4976-1.583A41.92,41.92,0,0,1,40.8916,33.19a1.5,1.5,0,0,1,.5688-.82c4.9639-3.58,14.6954-5.8032,25.3975-5.8032,10.6865,0,20.4209,2.1816,25.4043,5.6939a1.504,1.504,0,0,1,.5806.8222,41.11,41.11,0,0,1,1.4531,8.8228A1.5,1.5,0,0,1,92.02,43.2686c-4.7607-2.8882-16.5835-3.2222-25.062-3.2222-8.5806,0-20.5283.3389-25.2031,3.271A1.5011,1.5011,0,0,1,40.958,43.5464Zm2.6865-9.0391a38.9849,38.9849,0,0,0-.9609,5.0547c4.6392-1.7295,12.353-2.5156,24.2744-2.5156,8.2886,0,18.1484.311,24.12,2.49a38.1366,38.1366,0,0,0-.9814-5.1186c-4.5894-2.958-13.6074-4.8516-23.2388-4.8516C57.2188,29.5664,48.209,31.4951,43.6445,34.5073Z" style="fill:#333"/><path d="M41.1779,28.9666a26,26,0,0,0,7.36,18.24,26.24,26.24,0,0,0,0-36.48A26.3,26.3,0,0,0,41.1779,28.9666Z" style="fill:#d5e7e5"/><path d="M55.9179,28.9666a26.22,26.22,0,0,0-7.38-18.24v36.48A26.2,26.2,0,0,0,55.9179,28.9666Z" style="fill:#b9cdca"/><path d="M42.0179,22.4466l6.52,6.52,6.52-6.52a26.6373,26.6373,0,0,0-2.58-6.42l-4,4-4-4A25.5212,25.5212,0,0,0,42.0179,22.4466Z" style="fill:#5e463a"/><path d="M48.5379,28.9666l6.52-6.52a26.6373,26.6373,0,0,0-2.58-6.42l-4,4Z" style="fill:#735343"/><path d="M48.5381,48.7065a1.498,1.498,0,0,1-1.0752-.4541,27.3443,27.3443,0,0,1-7.7852-19.29A27.6671,27.6671,0,0,1,47.458,9.686a1.4992,1.4992,0,0,1,1.0786-.4594h.0015a1.4978,1.4978,0,0,1,1.0781.4575,27.6292,27.6292,0,0,1,0,38.5649A1.5831,1.5831,0,0,1,48.5381,48.7065ZM48.5405,12.96a24.6644,24.6644,0,0,0-5.8628,16.0073v.0058A24.3447,24.3447,0,0,0,48.5356,44.979,24.6229,24.6229,0,0,0,48.5405,12.96Z" style="fill:#333"/><path d="M59.7779,33.1066a1.36,1.36,0,0,1-1.32,1.32,1.32,1.32,0,0,1-1.3-1.32,1.3,1.3,0,0,1,1.3-1.3h0A1.32,1.32,0,0,1,59.7779,33.1066Z" style="fill:#b9cdca"/><path d="M76.6579,33.1066a1.3,1.3,0,1,1-1.3-1.3,1.3,1.3,0,0,1,1.3,1.3Z" style="fill:#b9cdca"/><path d="M66.6128,106.9282c-12.3887,0-24.3652-5.6826-31.3828-16.2094a1.5,1.5,0,1,1,2.4961-1.6641c10.292,15.437,32.2363,19.52,48.9175,9.1a32.0693,32.0693,0,0,0,10.5869-9.1577,1.5,1.5,0,1,1,2.415,1.78,34.93,34.93,0,0,1-11.4971,9.9711A40.6251,40.6251,0,0,1,66.6128,106.9282Z" style="fill:#333"/><path d="M65.48,117.9341a124.068,124.068,0,0,1-49.2134-10.1289,1.5,1.5,0,0,1-.8882-1.6231l1.16-7.02a9.5438,9.5438,0,0,1,6.7685-7.5781L54.4619,83.06l.792,2.8935-31.14,8.52a6.5255,6.5255,0,0,0-4.6162,5.18l-.9673,5.853a121.1588,121.1588,0,0,0,48.3115,9.4205,121.3392,121.3392,0,0,0,48.34-9.42l-.9834-5.8515a6.5325,6.5325,0,0,0-4.6157-5.1875L78.4619,85.9531l.792-2.8935,31.14,8.52a9.5524,9.5524,0,0,1,6.7637,7.582l1.1792,7.0166a1.5,1.5,0,0,1-.8882,1.6275,124.3724,124.3724,0,0,1-50.6059,10.1211C66.3887,117.9316,65.9331,117.9341,65.48,117.9341Z" style="fill:#343433"/><rect x="60.7298" y="101.7171" width="12.2" height="12.2" transform="translate(-56.6642 78.8347) rotate(-45)" style="fill:#ae4355"/><rect x="65.104" y="106.0912" width="3.48" height="3.48" transform="translate(-56.67 78.8488) rotate(-45)" style="fill:#e4b351"/><path d="M66.83,117.9438h0a1.5,1.5,0,0,1-1.0606-.4394l-8.6264-8.627a1.4993,1.4993,0,0,1,0-2.1211L65.769,98.13a1.4993,1.4993,0,0,1,2.1211,0l8.627,8.6264a1.5,1.5,0,0,1,0,2.1211l-8.627,8.627A1.5,1.5,0,0,1,66.83,117.9438Zm-6.5054-10.1269,6.5054,6.5054,6.5054-6.5054L66.83,101.3115Z" style="fill:#333"/><polygon points="80.438 83.227 66.838 88.427 53.218 83.227 45.978 91.267 66.838 98.767 87.698 91.267 80.438 83.227" style="fill:#d4c898"/><polygon points="80.438 83.227 66.838 88.427 53.218 83.227 49.578 87.367 66.838 93.567 84.078 87.367 80.438 83.227" style="fill:#eee5bc"/><path d="M66.8379,100.2666a1.4947,1.4947,0,0,1-.5073-.0884l-20.86-7.5a1.5,1.5,0,0,1-.6074-2.4155l7.24-8.04a1.5033,1.5033,0,0,1,1.65-.3975l13.0845,4.9956,13.0649-4.9951a1.5,1.5,0,0,1,1.649.3955l7.26,8.04a1.5,1.5,0,0,1-.6059,2.417l-20.86,7.5A1.4947,1.4947,0,0,1,66.8379,100.2666ZM48.5874,90.6108l18.2505,6.5616,18.2475-6.5606-5.0717-5.6172-12.64,4.833a1.4935,1.4935,0,0,1-1.0708.0005L53.644,84.9951Z" style="fill:#333"/><path d="M66.8379,95.0664a1.4919,1.4919,0,0,1-.5068-.0884l-17.26-6.2a1.4994,1.4994,0,0,1-.62-2.4018l3.64-4.14a1.4981,1.4981,0,0,1,1.6616-.4111l13.0845,4.9956,13.0649-4.9951a1.4978,1.4978,0,0,1,1.6622.4106l3.64,4.14a1.5,1.5,0,0,1-.6187,2.4018l-17.24,6.2A1.498,1.498,0,0,1,66.8379,95.0664ZM52.1611,86.7007l14.6763,5.272,14.6582-5.2715L80,85,67.3735,89.8276a1.4935,1.4935,0,0,1-1.0708.0005L53.6562,85Z" style="fill:#333"/><circle cx="75.8579" cy="54.4866" r="1.5" style="fill:#333"/><path d="M81.3779,51.1266c-.86-.1-1.72-.24-2.54-.26a12.14,12.14,0,0,0-2.42,0,18.0587,18.0587,0,0,0-2.46.26,10.5228,10.5228,0,0,1-2.78.16.46.46,0,0,1-.401-.5123l.001-.0077a.42.42,0,0,1,.34-.38h0a21.8042,21.8042,0,0,0,2.4-.86,8.7565,8.7565,0,0,1,2.72-.68,10.3954,10.3954,0,0,1,2.84.32,11.5571,11.5571,0,0,1,2.58,1.02.46.46,0,0,1,.2006.6188l-.0006.0012a.42.42,0,0,1-.46.24Z" style="fill:#333"/><circle cx="57.8979" cy="54.4866" r="1.5" style="fill:#333"/><path d="M52.0779,50.2666a11.5571,11.5571,0,0,1,2.58-1.02,10.3954,10.3954,0,0,1,2.84-.32,8.62,8.62,0,0,1,2.72.68,21.8042,21.8042,0,0,0,2.4.86h0a.46.46,0,0,1,.3247.5637l-.0047.0163a.48.48,0,0,1-.38.34,11.4451,11.4451,0,0,1-2.78-.16c-.86-.12-1.68-.18-2.46-.26a12.2,12.2,0,0,0-2.42,0,22.3173,22.3173,0,0,0-2.54.26h0a.46.46,0,0,1-.519-.3923l-.001-.0077A.46.46,0,0,1,52.0779,50.2666Z" style="fill:#333"/><path d="M68.7379,67.4266a4.64,4.64,0,0,1-1.82.42c-.48,0-.52,0-1.58-.42-1.88-.66-2,1.64-5.46,2.76l2.16,1.72a4.22,4.22,0,0,0,3.18,1.16h3.28a4.8,4.8,0,0,0,3.42-1.26l2-1.62C70.6179,69.1066,70.6179,66.7266,68.7379,67.4266Z" style="fill:#916953"/><path d="M59.6772,71.3267a.5.5,0,0,1-.4482-.72l.56-1.14a.5.5,0,0,1,.8974.44l-.56,1.14A.5.5,0,0,1,59.6772,71.3267Z" style="fill:#cba082"/><path d="M74.0786,71.3267a.5.5,0,0,1-.4507-.2828l-.56-1.16a.5.5,0,0,1,.9-.4346l.56,1.16a.5.5,0,0,1-.45.7173Z" style="fill:#b28a6f"/><path d="M66.8579,65.4365a4.5832,4.5832,0,0,1-2.3354-.5791,3.137,3.137,0,0,0-1.6646-.4209.75.75,0,1,1,0-1.5,4.5836,4.5836,0,0,1,2.3355.5791,3.5019,3.5019,0,0,0,3.3291,0,4.5832,4.5832,0,0,1,2.3354-.5791.75.75,0,0,1,0,1.5,3.1366,3.1366,0,0,0-1.6645.4209A4.5836,4.5836,0,0,1,66.8579,65.4365Z" style="fill:#674848"/><path d="M73.0991,70.748a2.6613,2.6613,0,0,1-1.2524-.2978,5.1861,5.1861,0,0,0-2.1753-.4644,9.3052,9.3052,0,0,0-2.69.2857l-.12.03-.12-.0289a10.9014,10.9014,0,0,0-2.5-.2866,6.2357,6.2357,0,0,0-2.2324.4014,4.3852,4.3852,0,0,1-1.771.3188.5.5,0,1,1,0-1,3.45,3.45,0,0,0,1.4272-.2583,7.2412,7.2412,0,0,1,2.5533-.4614,11.2312,11.2312,0,0,1,2.6362.2857,10.3363,10.3363,0,0,1,2.8623-.2857,6.1268,6.1268,0,0,1,2.5415.5523,1.8419,1.8419,0,0,0,1.19.19.5.5,0,0,1,.1.9951C73.3818,70.7407,73.2334,70.748,73.0991,70.748Z" style="fill:#674848"/></g></g></g></g></g></svg>