<svg xmlns="http://www.w3.org/2000/svg" viewBox="0 0 128 128"><title>charlie-chaplin</title><g id="charlie-chaplin"><path d="M112.16,105.22c-2.12-4.8-3.46-5.02-8.4-6.3a149.46,149.46,0,0,0-44-6.4,151.8391,151.8391,0,0,0-44,6.3c-4.94,1.28-6.28,1.5-8.4,6.3-3.04,6.82-4.2,10.44-4.2,10.44a159.64,159.64,0,0,0,56.6,10.46,159.66,159.66,0,0,0,56.6-10.46A109.04,109.04,0,0,0,112.16,105.22Z" style="fill:#827a6a"/><path d="M104.2,107.22a157.5,157.5,0,0,0-44.54-6.3,160.6611,160.6611,0,0,0-44.56,6.3,14.86,14.86,0,0,0-9.68,9.36,164.3412,164.3412,0,0,0,54.24,9.44,168.638,168.638,0,0,0,54.22-9.52A14.84,14.84,0,0,0,104.2,107.22Z" style="fill:#726854"/><rect x="44.96" y="79.92" width="29.4" height="18.9" style="fill:#edccc3;stroke:#333;stroke-miterlimit:10;stroke-width:3px"/><path d="M82.76,50.52v-6.2c0-12.46-8-18.94-23.1-18.94s-23.1,6.42-23.1,18.94v6.2c-4,0-4.12,4.14-3.18,8.54.76,3.6,3.26,8.26,5.28,8.26,0,10,10.36,19.64,15.2,22.18a12,12,0,0,0,5.8.92,12,12,0,0,0,5.8-.92c4.86-2.56,15.2-12.14,15.2-22.22,2,0,4.52-4.62,5.28-8.22C86.96,54.66,86.8,50.52,82.76,50.52Z" style="fill:#dddbdb"/><path d="M82.76,50.52v-6.2c0-12.46-8-18.94-23.1-18.94a41.8616,41.8616,0,0,0-6.36.46V47.42a4.58,4.58,0,0,1-1.78,3.3.7.7,0,0,0,.32,1.24,8,8,0,0,1,5.64,3.82,2,2,0,0,1,2,2V62.1a2.98,2.98,0,0,0,1.24,2.44,2,2,0,0,1,1.0078,2.6428L61.72,67.2a2,2,0,0,1-2.24,1.12c-1.54,0-2-1.06-4.18-1.06-1.24,0-1.06,1.6-1.08,1.58a4.58,4.58,0,0,1,2.12.54,6.18,6.18,0,0,0,3.14.8V77.5a2.18,2.18,0,0,0,1.74,2.16,2.92,2.92,0,0,1,2.5,3.28c0,5.74-10.36-.56-10.36,5.68a5.314,5.314,0,0,0,0,.6l.46.28a12,12,0,0,0,5.8.92,12,12,0,0,0,5.8-.92c4.86-2.56,15.2-12.14,15.2-22.22,2,0,4.52-4.62,5.28-8.22C86.96,54.66,86.8,50.52,82.76,50.52Z" style="fill:#ccc"/><path d="M62.06,74.32a3.5606,3.5606,0,0,0-2,.3.86.86,0,0,1-.7,0,3.52,3.52,0,0,0-2-.3c-1.14.2-1.26,1.22-3.56,2.94l2,1.72a3.18,3.18,0,0,0,2.16.96H61.4a3.18,3.18,0,0,0,2.16-.96l2-1.66C63.42,75.6,63.18,74.52,62.06,74.32Z" style="fill:#aaa9a9"/><path d="M65.7,77.32c-1.68,0-2.12-.92-3.8-.92a9.2845,9.2845,0,0,0-2.18.4,9.0983,9.0983,0,0,0-2.18-.4c-1.6,0-2,.86-3.76.86" style="fill:none;stroke:#666;stroke-linecap:round;stroke-miterlimit:10;stroke-width:1.5px"/><line x1="59.66" y1="73.1" x2="59.66" y2="73.16" style="fill:none;stroke:#ae887b;stroke-linecap:round;stroke-miterlimit:10;stroke-width:1.0499999523162842px;opacity:0.11999999731779099;isolation:isolate"/><circle cx="49.58" cy="59.18" r="1.58" style="fill:#333"/><circle cx="69.74" cy="59.18" r="1.58" style="fill:#333"/><path d="M60.38,70.96H58.96c-2.4,0-4.34,1.08-4.34,3.04v.32a.4.4,0,0,0,.436.36l.004,0H64.3a.4.4,0,0,0,.44-.356l0-.004h0v-.34C64.72,72.04,62.78,70.96,60.38,70.96Z" style="fill:#333;stroke:#333;stroke-miterlimit:10;stroke-width:2.0999999046325684px"/><line x1="58.6" y1="82.04" x2="60.7" y2="82.04" style="fill:none;stroke:#666;stroke-linecap:round;stroke-miterlimit:10;stroke-width:1.5px"/><path d="M80.66,44.58V56.86c0-1.68,0-5.64,3.2-5.64,0-4.4,2.56-2.24,2.56-6.34,0-3.04-1.84-9.06-8-9.06A18.88,18.88,0,0,1,80.66,44.58Z" style="fill:#333;stroke:#333;stroke-linecap:round;stroke-linejoin:round;stroke-width:3px"/><path d="M38.66,44.58V56.86c0-1.68,0-5.64-3.2-5.64,0-4.4-2.56-2.24-2.56-6.34,0-3.04,1.84-9.06,8-9.06A18.88,18.88,0,0,0,38.66,44.58Z" style="fill:#333;stroke:#333;stroke-linecap:round;stroke-linejoin:round;stroke-width:3px"/><path d="M82.76,50.52v-6.2c0-12.46-8-18.94-23.1-18.94s-23.1,6.42-23.1,18.94v6.2c-4,0-4.12,4.14-3.18,8.54.76,3.6,3.26,8.26,5.28,8.26,0,10,10.36,19.64,15.2,22.18a12,12,0,0,0,5.8.92,12,12,0,0,0,5.8-.92c4.86-2.56,15.2-12.14,15.2-22.22,2,0,4.52-4.62,5.28-8.22C86.96,54.66,86.8,50.52,82.76,50.52Z" style="fill:none;stroke:#333;stroke-linejoin:round;stroke-width:3px"/><path d="M82.76,37.92V22.8c0-12-10.5-18.5-23.1-18.48s-23.1,6.78-23.1,19v14.6s6.4,4.2,23.1,4.2S82.76,37.92,82.76,37.92Z" style="fill:#444"/><path d="M82.76,22.8c0-9-6-14.92-14.28-17.3h-2.3c-12.52,0-23.12,6.7-23.12,18.92V39.04a24.6778,24.6778,0,0,0,7.18,2.58,87.1579,87.1579,0,0,0,9.42.5c16.78,0,23.1-4.2,23.1-4.2Z" style="fill:#333"/><path d="M82.76,37.92V22.8c0-12-10.5-18.5-23.1-18.48s-23.1,6.78-23.1,19v14.6s6.4,4.2,23.1,4.2S82.76,37.92,82.76,37.92Z" style="fill:none;stroke:#333;stroke-linejoin:round;stroke-width:3px"/><path d="M59.66,48.42c-21,0-35.7-6.3-35.7-12.6l12.6,2.1h46.2l12.6-2.1c0,6.3-12.6,12.6-35.7,12.6" style="fill:#333;stroke:#333;stroke-linejoin:round;stroke-width:3px"/><path d="M59.66,33.7c-16.78,0-23.1-4.2-23.1-4.2v8.42s6.4,4.2,23.1,4.2,23.1-4.2,23.1-4.2V29.5S76.44,33.7,59.66,33.7Z" style="fill:#444;stroke:#333;stroke-linejoin:round;stroke-width:3px"/><path d="M44.28,98.8c2.62,8.42,8.1,14.88,15.38,25.66h0c5.54-9.88,12-16,15.18-25.68Z" style="fill:#d1d8db;stroke:#333;stroke-linejoin:round;stroke-width:3px"/><path d="M59.66,126.1c2.8,0,5.54,0,8.22-.22L60.8,104.6H58.34l-7.08,21.26Q55.38,126.1,59.66,126.1Z" style="fill:#383a39;stroke:#333;stroke-miterlimit:10;stroke-width:3px"/><path d="M43.92,85.22v9.34s5.74,9.54,15.74,9.54v-4a7.18,7.18,0,0,0-4.3-6C44.96,88.32,43.92,85.22,43.92,85.22Z" style="fill:#d1d8db;stroke:#333;stroke-linejoin:round;stroke-width:3px"/><path d="M75.42,85.22v9.34s-5.76,9.54-15.76,9.54v-4a7.18,7.18,0,0,1,4.3-6C74.36,88.32,75.42,85.22,75.42,85.22Z" style="fill:#d1d8db;stroke:#333;stroke-linejoin:round;stroke-width:3px"/><path d="M45.1,100.32a26.36,26.36,0,0,0,14.56,4v-3.38c-5.78-2.3-11.64-4-16.58-8.62A36,36,0,0,0,45.1,100.32Z" style="fill:#383a39;stroke:#333;stroke-miterlimit:10;stroke-width:3px"/><path d="M76.28,92.32c-4.94,4.58-10.82,6.36-16.62,8.66v3.48a26.28,26.28,0,0,0,14.68-4.14A35.56,35.56,0,0,0,76.28,92.32Z" style="fill:#383a39;stroke:#333;stroke-miterlimit:10;stroke-width:3px"/><path d="M54.62,100.72l3.04,4.5h4.2l2.94-4.4a1.22,1.22,0,0,0-1.02-2H55.66a1.2,1.2,0,0,0-1.2393,1.1593c0,.0136-.0007.0271-.0007.0407A1.1,1.1,0,0,0,54.62,100.72Z" style="fill:#383a39;stroke:#333;stroke-miterlimit:10;stroke-width:3px"/><path d="M14.96,98.8a69.6979,69.6979,0,0,1,4.2,23.12" style="fill:none;stroke:#827a6a;stroke-miterlimit:10;stroke-width:3px"/><path d="M13.46,98.8a69.6979,69.6979,0,0,1,4.2,23.12" style="fill:none;stroke:#726854;stroke-miterlimit:10;stroke-width:3px"/><path d="M105.86,98.8a69.7,69.7,0,0,0-4.2,23.12" style="fill:none;stroke:#827a6a;stroke-miterlimit:10;stroke-width:3px"/><path d="M104.28,98.8a69.7,69.7,0,0,0-4.2,23.12" style="fill:none;stroke:#726854;stroke-miterlimit:10;stroke-width:3px"/><path d="M59.66,126.1h4.3l24.36-22-5.24-5.78,8-3.8L76.46,81.78c0,19.06-6,23.76-18.84,44.2Z" style="fill:#726854;stroke:#333;stroke-linejoin:round;stroke-width:3px"/><path d="M30.96,104.2c17.88,14.72,23.16,19.02,26.54,21.88h4.4c-17.66-22.66-18.94-31.36-18.94-44.2L28.24,94.62l8,3.8Z" style="fill:#726854;stroke:#333;stroke-linejoin:round;stroke-width:3px"/><path d="M29.94,95.48c-4.84.98-9.5,2.16-14.38,3.42s-6.28,1.52-8.4,6.32c-3.04,6.84-4.2,10.46-4.2,10.46a160.14,160.14,0,0,0,56.7,10.42,160.16,160.16,0,0,0,56.7-10.44s-1.16-3.62-4.2-10.46c-2.12-4.78-3.46-5.02-8.4-6.3s-9.5-2.42-14.32-3.4" style="fill:none;stroke:#333;stroke-linejoin:round;stroke-width:3px"/><path d="M42.84,57.22a9.2017,9.2017,0,0,1,1.5-3.08,8.7793,8.7793,0,0,1,2.62-2.4,6.3,6.3,0,0,1,3.56-.72,8.24,8.24,0,0,1,3.34.92.56.56,0,0,1,.2671.7456L54.12,52.7a.54.54,0,0,1-.54.32h0a11.5819,11.5819,0,0,0-2.9,0,8,8,0,0,0-2.5.88,11.4207,11.4207,0,0,0-4.26,3.68h0a.6.6,0,0,1-.82.1A.58.58,0,0,1,42.84,57.22Z" style="fill:#333"/><path d="M65.52,52.6a8.82,8.82,0,0,1,3.16-.84,8.9389,8.9389,0,0,1,3.32.36,7.0991,7.0991,0,0,1,2.82,1.8,8.94,8.94,0,0,1,2,2.6.58.58,0,0,1-.24.78.62.62,0,0,1-.64,0h0a18.4232,18.4232,0,0,0-2.26-1.64,15.9976,15.9976,0,0,0-2.4-1.06,8.882,8.882,0,0,0-2.52-.7,12.5808,12.5808,0,0,0-2.74-.12h0a.54.54,0,0,1-.5785-.4985c-.001-.0138-.0015-.0277-.0015-.0415A.54.54,0,0,1,65.52,52.6Z" style="fill:#333"/><path d="M46.1,58.88A5.76,5.76,0,0,1,52,58" style="fill:none;stroke:#333;stroke-linecap:round;stroke-miterlimit:10"/><path d="M72.96,58.88a5.76,5.76,0,0,0-6-.88" style="fill:none;stroke:#333;stroke-linecap:round;stroke-miterlimit:10"/><path d="M54.96,68.84a4.78,4.78,0,0,1,2.44.74h0a4.46,4.46,0,0,0,4.9,0h0a4.8609,4.8609,0,0,1,2.46-.74" style="fill:none;stroke:#666;stroke-linecap:round;stroke-miterlimit:10;stroke-width:1.5px"/></g></svg>