<svg xmlns="http://www.w3.org/2000/svg" viewBox="0 0 128 128"><title>dalai-lama</title><g id="dalai-lama"><g id="civil-rights-dalai-lama"><g id="civil-rights-dalai-lama-2"><g id="Icons"><path d="M117.38,97.52a12.12,12.12,0,0,0-8.92-9.38l-9.32-2.32a131.1245,131.1245,0,0,0-31.68-3.8h-.2a130.142,130.142,0,0,0-31.68,3.8l-9.32,2.32a12,12,0,0,0-8.92,9.38l-.66,4,.2.12a124.66,124.66,0,0,0,50.5,10.6,124.8592,124.8592,0,0,0,50.46-10.58h.1Z" style="fill:#9e4159"/><path d="M96.34,92.46a23.04,23.04,0,0,1-5.18,10.14,18.18,18.18,0,0,1-9.66,6,25.7,25.7,0,0,0,8.92-6.58A37.26,37.26,0,0,0,96.34,92.46Z" style="fill:#333"/><path d="M106.68,94.88a22.78,22.78,0,0,1-8,10,23.62,23.62,0,0,1-12,4.38,34.0009,34.0009,0,0,0,11.4-5.2A32.42,32.42,0,0,0,106.68,94.88Z" style="fill:#333"/><path d="M112.68,97.68a15.12,15.12,0,0,1-5.42,7.08,15.56,15.56,0,0,1-8.4,2.98,26.5394,26.5394,0,0,0,7.82-3.72A24.1994,24.1994,0,0,0,112.68,97.68Z" style="fill:#333"/><path d="M108.44,93.62,99.12,91.3c-1.66-.42-3.32-.78-5-1.14a11.2028,11.2028,0,0,0,.4-2.94c0-9.52-12.2-17.24-27.24-17.24S40.04,77.7,40.04,87.22a10.7175,10.7175,0,0,0,.42,2.98c-1.64.34-3.26.7-4.88,1.1l-9.32,2.32a12,12,0,0,0-8.66,8.4A124.7,124.7,0,0,0,67.36,112.3a124.98,124.98,0,0,0,49.76-10.28A12.14,12.14,0,0,0,108.44,93.62Z" style="fill:#8e3246"/><path d="M67.28,78.02c14,0,25.42,5.46,27.04,14,.12-.68.2-4.18.2-4.88,0-9.52-12.2-17.24-27.24-17.24S40.04,77.7,40.04,87.22a39.6658,39.6658,0,0,0,.2,4.88C41.86,83.54,53.34,78.02,67.28,78.02Z" style="fill:#9e4159"/><path d="M96.02,92.02h-3v-4.8c0-8.6787-11.5469-15.74-25.74-15.74S41.54,78.541,41.54,87.22v4.8h-3v-4.8c0-10.333,12.8926-18.74,28.74-18.74s28.74,8.4072,28.74,18.74Z" style="fill:#333"/><path d="M101.4,107.56a110.9605,110.9605,0,0,0,4.12-20.14l-6.4-1.6q-2-.52-4.14-.96a55.6212,55.6212,0,0,1-8.6,22.88C93.08,108.54,96.1,109.06,101.4,107.56Z" style="fill:#f4bc62"/><path d="M85.64,110.9a125.5792,125.5792,0,0,0,15.6-3.32c1.52-5.64,3.12-12,3.58-14.86l-5.7-1.42c-1.7-.42-3.42-.8-5.14-1.16A145.5023,145.5023,0,0,1,85.64,110.9Z" style="fill:#f7a159"/><path d="M94.8994,110.0156a62.75,62.75,0,0,1-7.3916-.63l-1.3052-.1572a1.5,1.5,0,0,1-1.0761-2.3125,54.4542,54.4542,0,0,0,8.3676-22.2627,1.4991,1.4991,0,0,1,1.7886-1.2627c1.4561.3,2.8745.6289,4.2149.9766l6.3862,1.5976a1.5,1.5,0,0,1,1.1274,1.6182,112.8075,112.8075,0,0,1-4.1753,20.4121,1.5008,1.5008,0,0,1-1.0268,1.0078A24.3211,24.3211,0,0,1,94.8994,110.0156Zm6.501-2.456h0Zm-12.4946-1.0264c4.7963.5732,7.3877.791,11.2973-.2041a109.89,109.89,0,0,0,3.6758-17.7734l-5.1226-1.2813c-.8222-.2139-1.6694-.4189-2.5356-.6133A57.5817,57.5817,0,0,1,88.9058,106.5332Z" style="fill:#333"/><path d="M82.1,85.26V78.02H52.46V85.2l-1.6.2c0,7.66,8.78,13.26,16.42,15.5,7.64-2.24,16.42-7.58,16.42-15.5C83.18,85.38,82.68,85.32,82.1,85.26Z" style="fill:#eab8a2"/><path d="M66.42,100.68l.88.28c5.66-1.66,12-5.04,14.82-9.88V78.02H52.46v6.84l10.9,10.9A12.78,12.78,0,0,1,66.42,100.68Z" style="fill:#e2ad9a"/><path d="M36.88,94.02c1.64,1.88,3.24,3.62,4.94,5.24a67.1389,67.1389,0,0,0,5.32,4.54c1.84,1.42,3.78,2.84,5.74,4.22s4,2.64,6,4.12a26.0956,26.0956,0,0,1-7.14-2,29.4736,29.4736,0,0,1-6.44-3.8,25.797,25.797,0,0,1-5.26-5.38A18.2784,18.2784,0,0,1,36.88,94.02Z" style="fill:#333"/><path d="M28.88,98.02a48.1588,48.1588,0,0,1,4,3.38c1.26,1.1,2.46,2.16,3.72,3.14s2.58,1.86,4,2.76,2.86,1.7,4.38,2.74A14.68,14.68,0,0,1,34.68,107,16.6,16.6,0,0,1,28.88,98.02Z" style="fill:#333"/><path d="M92.2,46.02c0-2.5-.7-14.88-4.86-21.66-2.48-4-10-8-20-8s-17.52,4-20,8c-4.16,6.78-4,19.5-4,22-6,0-4,11.28-3.56,13.16.88,3.62,3,5.5,4.94,5.54A83.2723,83.2723,0,0,0,47.1,74.3a11.258,11.258,0,0,0,1.8,3.34,121.502,121.502,0,0,0,8.22,9.38c2.8,2.64,7.3,2.98,10.1,2.98s7.3-.34,10-2.98a110.7671,110.7671,0,0,0,8.22-9.38,11.26,11.26,0,0,0,1.8-3.34,76.9633,76.9633,0,0,0,2.38-9.24c2,0,4-2,4.94-5.54C95.16,57.54,98.2,46.02,92.2,46.02Z" style="fill:#eab8a2"/><path d="M92.2,46.02c0-2.5-.7-14.88-4.86-21.66-2.48-4-10-8-20-8a34.4037,34.4037,0,0,0-6.92.68V46.02a8.34,8.34,0,0,1-2.7,6,.96.96,0,0,0,.42,1.64c3.2.9,4.9,1.52,6.88,1,.66-.16,1.84.58,1.84,1.26v3.34a3.58,3.58,0,0,0,1.36,2.98,2.34,2.34,0,0,1-1.36,4.24c-1.74,0-2.34-1.16-4.68-1.16-1.38,0-1.16,1.8-1.22,1.76a5.2809,5.2809,0,0,1,2.34.6,7.1994,7.1994,0,0,0,3.5.92v7.04a4,4,0,0,0,2.66,3.74,3.28,3.28,0,0,1,2,3.46c0,6.24-10.84-.18-11.5,5.8a19.6591,19.6591,0,0,0,7.26,1.22c2.8,0,7.3-.34,10-2.98a110.7671,110.7671,0,0,0,8.22-9.38,11.26,11.26,0,0,0,1.8-3.34,76.9633,76.9633,0,0,0,2.38-9.24c2,0,4-2,4.94-5.54C95.16,57.54,98.2,46.02,92.2,46.02Z" style="fill:#e2ad9a"/><path d="M69.62,72.62a5.6617,5.6617,0,0,0-2.36.26,1.2192,1.2192,0,0,1-.84,0,5.7409,5.7409,0,0,0-2.36-.26c-1.18.18-1.44.86-3.34,2a.58.58,0,0,0,0,1l1.54.94a4.58,4.58,0,0,0,2.54.82h4.14a4.4194,4.4194,0,0,0,2.54-.82l1.56-.88a.58.58,0,0,0,.3-.5.62.62,0,0,0-.28-.52C71.14,73.52,70.8,72.78,69.62,72.62Z" style="fill:#d1a193"/><path d="M87.66,24.68c-2.48-4.04-10.42-8.66-20.4-8.66s-18,4.62-20.4,8.66c-3.76,6.1-4.44,16.4-4.54,20.2l5.04,3.36L49.1,37.78a3.08,3.08,0,0,1,1.58-2.22l1.44-.72a3.14,3.14,0,0,0,1.56-1.86,20.34,20.34,0,0,1,5.86-9.3,5.52,5.52,0,0,1,3.7-1.42H71.5a5.5,5.5,0,0,1,3.36,1.14,15.66,15.66,0,0,1,6.1,9.44,3.18,3.18,0,0,0,1.62,2l1.32.66a3.02,3.02,0,0,1,1.64,2.22l1.74,10.46,4.86-2.42C92.2,43.16,91.78,31.4,87.66,24.68Z" style="fill:#d7a992"/><path d="M92.18,44.8c-.16-4-1.1-14.48-4.84-20.54a10.9619,10.9619,0,0,0-2.16-2.46c1.78,10.3,3.02,21.24,2.16,26.46Z" style="fill:#aaa"/><path d="M47.34,24.26c-3.82,6.22-4,17.38-4,21.14l4,2.86c-.86-5.22.38-16.14,2.16-26.46A11.4828,11.4828,0,0,0,47.34,24.26Z" style="fill:#aaa"/><path d="M67.3218,91.7734A16.014,16.014,0,0,1,56.29,87.39a102.9093,102.9093,0,0,1-8.5278-8.8134,12.7812,12.7812,0,0,1-2.0835-3.8379,67.986,67.986,0,0,1-1.6562-7.2451c-2.5674-.9776-4.91-4.4707-5.7-7.7188-.09-.3857-2.1036-9.1924,1.021-13.1318a4.8256,4.8256,0,0,1,2.4775-1.6768c-.0747-4.3418-.1431-14.7412,3.7407-21.07C48.3159,19.4443,56.8823,14.72,67.34,14.72c10.4317,0,18.7495,4.6133,21.5747,9.17,3.8819,6.3262,3.9707,16.8487,3.9366,21.0752a4.7446,4.7446,0,0,1,2.4575,1.669c3.062,3.9.94,12.7666.8481,13.1426-.8174,3.3613-2.998,6.8242-5.5259,7.7461a60.7515,60.7515,0,0,1-1.8647,7.2021,12.7481,12.7481,0,0,1-2.0449,3.7988,99.99,99.99,0,0,1-8.376,8.8711A16.009,16.009,0,0,1,67.3218,91.7734ZM67.34,17.72c-9.9526,0-17.2334,4.5313-19.2246,7.7491-3.541,5.7714-3.3511,16.35-3.2886,19.8251.0074.4.0132.7266.0132.9659a1.5,1.5,0,0,1-1.5,1.5,1.92,1.92,0,0,0-1.646.747c-1.7075,2.1524-1.0429,8.0518-.4536,10.5713.7984,3.2832,3.168,5.6514,4.1465,5.6826a1.499,1.499,0,0,1,1.4351,1.2676,64.9007,64.9007,0,0,0,1.72,7.8194,9.6843,9.6843,0,0,0,1.54,2.8281,100.2615,100.2615,0,0,0,8.252,8.5185A13.0727,13.0727,0,0,0,76.29,85.21a97.2687,97.2687,0,0,0,8.0992-8.5723,9.6959,9.6959,0,0,0,1.53-2.8565,57.6754,57.6754,0,0,0,1.9444-7.7832A1.5,1.5,0,0,1,89.34,64.76c.8648,0,3.0572-2.2178,3.9024-5.6944.6211-2.54,1.3662-8.4648-.2935-10.58A1.8651,1.8651,0,0,0,91.34,47.76a1.5,1.5,0,0,1-1.5-1.5l.0054-.711c.0366-3.5039.1475-14.166-3.4839-20.0849C84.0356,21.7129,76.5762,17.72,67.34,17.72Z" style="fill:#333"/><path d="M86.68,58.18a6.52,6.52,0,0,1-6.3978,6.64H76.28a4.92,4.92,0,0,1-4-2.26l-2.22-3.5a4.3979,4.3979,0,0,1-.64-1.84,3.28,3.28,0,0,0-3.42,0,4.1415,4.1415,0,0,1-.64,1.84l-2.2,3.48a4.84,4.84,0,0,1-4,2.26H54.68a6.54,6.54,0,0,1-6.4-6.64V56.8a5.2378,5.2378,0,0,1,.14-1.14h0a4.12,4.12,0,0,1,3.78-3.08h9.52a4.0006,4.0006,0,0,1,2.82,1.18,3.7426,3.7426,0,0,1,.82,1.22,5.58,5.58,0,0,1,4,0,3.8211,3.8211,0,0,1,.82-1.24,3.72,3.72,0,0,1,2.84-1.18h9.66C84.8,52.7,86.68,54.14,86.68,58.18Z" style="fill:#d5a18a"/><path d="M82.52,50.76H73a2.6,2.6,0,0,0-2,.9,3.64,3.64,0,0,0-.32,4.36l2.2,3.7a3.68,3.68,0,0,0,3.1,1.84H80.1a5.62,5.62,0,0,0,5.28-5.9V54.22a3.14,3.14,0,0,0-2.78-3.36" style="fill:#cfa883"/><path d="M65.4341,55.1426l-1.9883-2.2461a5.8072,5.8072,0,0,1,7.6885,0L69.146,55.1426A2.8064,2.8064,0,0,0,65.4341,55.1426Z" style="fill:#333"/><path d="M54.52,61.38h4a3.72,3.72,0,0,0,3.1-1.84l2.22-3.78a3.6,3.6,0,0,0-.4-4.24,2.6,2.6,0,0,0-2-.74H52.06a3.1,3.1,0,0,0-2.92,3.24v1.46a5.62,5.62,0,0,0,5.28,5.9.12.12,0,0,1,.1,0" style="fill:#cfa883"/><path d="M56.68,53.42l-4,4.46a2.68,2.68,0,0,0,2,.8h1.34l4.66-5.32Z" style="fill:#d2ac86"/><path d="M54.52,62.94a7.1551,7.1551,0,0,1-6.7778-7.4776L47.74,54.02a4.5881,4.5881,0,0,1,4.2071-4.7539c.0439-.0039.0883-.0058.1328-.0058H61.6a4.13,4.13,0,0,1,3.1348,1.4179,5.1252,5.1252,0,0,1,.5556,6.0069l-2.226,3.6894A5.1978,5.1978,0,0,1,58.7153,62.94ZM52.1572,52.26a1.6157,1.6157,0,0,0-1.4189,1.6865l.0019,1.5928a4.1523,4.1523,0,0,0,3.8687,4.4033L58.68,59.94a2.18,2.18,0,0,0,1.8008-1.0889l2.2348-3.7051a2.1325,2.1325,0,0,0-.2417-2.4951,1.15,1.15,0,0,0-.855-.3906Z" style="fill:#333"/><path d="M75.98,63.06a5.2221,5.2221,0,0,1-4.3989-2.5908l-2.19-3.6827a5.148,5.148,0,0,1,.4785-6.1123A4.09,4.09,0,0,1,73.019,49.26H82.52q.0638,0,.1275.0058l.0683.0059A4.654,4.654,0,0,1,86.88,54.291v1.3682a7.12,7.12,0,0,1-6.6914,7.3974Zm-2.9956-10.8a1.1043,1.1043,0,0,0-.85.3808,2.1529,2.1529,0,0,0-.1924,2.5684l2.227,3.7441A2.1994,2.1994,0,0,0,76.0151,60.06H80.1a4.118,4.118,0,0,0,3.7822-4.3233L83.88,54.22a1.5538,1.5538,0,0,1,.0083-.1582A1.6432,1.6432,0,0,0,82.4526,52.26H72.9844Z" style="fill:#333"/><path d="M49.98,53.26h-2.1a1.5,1.5,0,1,1,0-3h2.1a1.5,1.5,0,1,1,0,3Z" style="fill:#333"/><path d="M86.6,53.26H84.48a1.5,1.5,0,0,1,0-3H86.6a1.5,1.5,0,0,1,0,3Z" style="fill:#333"/><path d="M82.1,92.44a1.5,1.5,0,0,1-1.5-1.5V81.92a1.5,1.5,0,1,1,3,0v9.02A1.5,1.5,0,0,1,82.1,92.44Z" style="fill:#333"/><path d="M67.1021,102.7393,66.2583,99.86C73.9365,97.6094,82.2,92.1426,82.2,85.46h3C85.2,93.7305,76.11,100.0977,67.1021,102.7393Z" style="fill:#333"/><path d="M52.46,92.44a1.5,1.5,0,0,1-1.5-1.5V81.92a1.5,1.5,0,0,1,3,0v9.02A1.5,1.5,0,0,1,52.46,92.44Z" style="fill:#333"/><path d="M95.8159,109.2188c-15.0351,0-23.35-3.1983-29.5307-6.43l-1.1241-.5879C58.1216,98.5283,49.36,93.957,49.36,85.46h3c0,6.6787,7.538,10.6113,14.1884,14.082l1.1284.59c4.3028,2.2491,13.2569,6.9248,33.6509,5.9493l.1446,2.996Q98.4946,109.2208,95.8159,109.2188Z" style="fill:#333"/><path d="M67.1748,113.7393a125.3617,125.3617,0,0,1-50.9-10.7276,1.38,1.38,0,0,1-.1665-.0859l-.2-.12a1.5,1.5,0,0,1-.708-1.53l.66-4A13.5506,13.5506,0,0,1,25.9023,86.6826l9.3155-2.3193c1.3838-.35,2.9126-.7022,4.8071-1.11l.6309,2.9336c-1.8584.3994-3.3545.7451-4.708,1.0869l-9.3252,2.3223a10.528,10.528,0,0,0-7.81,8.208l-.4678,2.8389A122.3615,122.3615,0,0,0,67.18,110.7393c.12,0,.2417-.001.3618,0a122.5623,122.5623,0,0,0,48.7549-10.044l-.3823-2.8359a10.648,10.648,0,0,0-7.8013-8.126L98.7773,87.27c-1.2856-.334-2.6538-.6513-4.06-.9414l.6055-2.9375c1.456.3,2.8745.6289,4.2148.9766l9.3252,2.4619a13.6786,13.6786,0,0,1,10.0088,10.5361l.5547,4.0938a1.5,1.5,0,0,1-1.2149,1.6758,125.14,125.14,0,0,1-50.833,10.6045Z" style="fill:#333"/><ellipse cx="58.0002" cy="54.2995" rx="2" ry="1.24" style="fill:#605842"/><path d="M78.2,53.42l-3.66,4.26.28.5a1.32,1.32,0,0,0,1.12.68H77.4l4.76-5.32Z" style="fill:#d2ac86"/><ellipse cx="76.8802" cy="54.2995" rx="2" ry="1.24" style="fill:#605842"/><path d="M73.34,76H60.46a1,1,0,0,1,0-2H73.34a1,1,0,1,1,0,2Z" style="fill:#aa7e74"/><path d="M67.0068,69.958a6.5932,6.5932,0,0,1-2.13-.3525l-3.5015-.9619a1,1,0,1,1,.53-1.9278l3.56.98a4.6326,4.6326,0,0,0,3.0113.0176l3.1655-.9883a1,1,0,0,1,.5957,1.91l-3.14.98A6.48,6.48,0,0,1,67.0068,69.958Z" style="fill:#aa7e74"/><path d="M68,80H66a1,1,0,0,1,0-2h2a1,1,0,0,1,0,2Z" style="fill:#aa7e74"/></g></g></g></g></svg>