<svg xmlns="http://www.w3.org/2000/svg" viewBox="0 0 128 128"><title>andy-warhol</title><g id="andy-warhold"><path d="M83.86,45.98H32.24a49.1988,49.1988,0,0,0,0,21.06l3.5-1.52,1.74,8.92,4.42-2,11.14.96H63.18l11.16-.96,4.42,2,1.72-8.92,3.44,1.54A48.66,48.66,0,0,0,83.86,45.98Z" style="fill:#b8cad1"/><path d="M36.18,47.18a26.5587,26.5587,0,0,0,3.18-2.46,38.678,38.678,0,0,0,2.98-2.74,28.6831,28.6831,0,0,0,4.76-6.9,32.2353,32.2353,0,0,1-1.52,4,30.1465,30.1465,0,0,1-2,3.82,19.0207,19.0207,0,0,1-2.82,3.38,15.0974,15.0974,0,0,1-3.64,2.6.9.9,0,0,1-1.22-.32.88.88,0,0,1,.2753-1.2137q.0221-.0138.0447-.0263Z" style="fill:#bec5c7"/><path d="M33.9,46.46a36.72,36.72,0,0,0-1.32,10,66.3952,66.3952,0,0,0,.78,10.36l-1.66-.84,3.46-1.48h0a1.12,1.12,0,0,1,1.46.6.5793.5793,0,0,1,0,.26l1.44,8.96-1.18-.6,4.44-2h0a.5.5,0,0,1,.34,0l11.08,1.74L41.7,73.22h.4l-4.4,2a.84.84,0,0,1-1.1192-.3983L36.58,74.82h0v-.16h0l-2-8.88,1.58.82-3.38,1.52a1.14,1.14,0,0,1-1.5278-.5147L31.24,67.58V67.3h0a68.0083,68.0083,0,0,1-1.48-10.82,39.1221,39.1221,0,0,1,.9-11A1.72,1.72,0,0,1,34,46.3h0Z" style="fill:#333"/><path d="M85.52,45.54a39.1221,39.1221,0,0,1,.9,11,64.4409,64.4409,0,0,1-1.38,10.72h0a1.14,1.14,0,0,1-1.3183.928L83.68,68.18h-.32L79.94,66.6l1.58-.82-2,8.88h0a.84.84,0,0,1-1,.64h-.18l-4.4-2h.4l-11.22.16L74.2,71.72h.36l4.44,2-1.18.6,1.54-8.96a1.1,1.1,0,0,1,1.2537-.921l.0063.001h.26l3.5,1.54-1.64.88a66.39,66.39,0,0,0,.82-10.36,37.498,37.498,0,0,0-1.3-10h0a1.72,1.72,0,0,1,1.1-2.14,1.74,1.74,0,0,1,2.14,1.16h0Z" style="fill:#333"/><path d="M103.5,96.74a7.74,7.74,0,0,0-5.76-6.46c-3-.86-26.54-7.1-26.54-7.1V74.44H44.88v8.74s-23.52,6.24-26.56,7.1a7.74,7.74,0,0,0-5.76,6.46l-1.2,7.1a106.4207,106.4207,0,0,0,46.7,10.14,106.4194,106.4194,0,0,0,46.62-10.14Z" style="fill:#414242"/><path d="M83.36,92.12l4.56-4.54L71.16,83.12V74.44H44.88v2.14L60.5,92.12A16.18,16.18,0,0,0,83.36,92.12Z" style="fill:#3a3a3a"/><path d="M58,81.56a14.5606,14.5606,0,0,0,7.5-1.58c6.58-4,8.26-5.5,9.6-10.54.84-3.1,1.48-7.54,1.48-7.54,2,0,6-4.34,6.84-7.82.9-4.28,0-7.82-4-7.82V40.94c0-12.16-6.88-21.86-21.5-21.86s-21.44,9.7-21.44,21.86v5.18c-4,0-4.82,3.54-4,7.82.74,3.48,4.88,7.82,6.84,7.82,0,0,.66,4.44,1.48,7.54,1.34,5.04,3.02,6.52,9.6,10.54A14.56,14.56,0,0,0,58,81.56Z" style="fill:#edccc3"/><path d="M32.4,51.98c0-7.4,5.64-5.64,5.64-5.64h0c1.5.78,1.5,2.1,1.5,3.72s-.18,11.56-.18,11.82C34.06,61.56,32.4,55.68,32.4,51.98Z" style="fill:#e5c2ba"/><line x1="51.1" y1="68.66" x2="50.42" y2="70.02" style="fill:none;stroke:#d1a9a3;stroke-linecap:round;stroke-miterlimit:10"/><path d="M79.02,43.74l.48.68V40.94c0-12.16-6.88-21.86-21.5-21.86s-21.52,9.7-21.52,21.86v5.18c-3.88,0-4.8,3.48-4,7.68,2.84-.54,12.82-3,18.3-10.96,4.96-6.9,10.76-11.7,20.78-11.14l.42.68A13.2154,13.2154,0,0,0,73.5,34.5C75.84,37.16,76.74,40.3,79.02,43.74Z" style="fill:#e5c2ba"/><path d="M79.06,46.5V41.46c0-11.74-8-24-21.08-24a19.4992,19.4992,0,0,0-5.86.92V43.4c0,4-4,2.56-4,3.26,6.88.42,6.36,2.52,9,2.52a.88.88,0,0,1,.9191.8391c.0006.0136.0009.0273.0009.0409v.92c0,6.52,3.78,10.78-.28,10.78-1.48,0-1.1-.66-3.04-1-1.2-.22-.9,1.14-.9,1.14,2.46.5,1.72,1.18,4.22,1.2V73.98c3.6.54,4,1.26,4,3.2s-1.32,2.12-4,2.12c-4.14,0-5.12.64-5.52,1.38a16.6008,16.6008,0,0,0,5.4.96,15.2,15.2,0,0,0,6.3-1.36c6.3-3.32,11.24-9.46,12-13.8.22-1.1.68-4.84.68-4.84,3,0,4.82-4.36,5.54-7.72C83.36,49.72,82.84,46.5,79.06,46.5Z" style="fill:#e5c2ba"/><line x1="54.22" y1="62" x2="49.76" y2="66.84" style="fill:none;stroke:#e5c2ba;stroke-linecap:round;stroke-miterlimit:10"/><line x1="62.02" y1="62" x2="66.48" y2="66.84" style="fill:none;stroke:#edccc3;stroke-linecap:round;stroke-miterlimit:10"/><line x1="58.12" y1="63.3" x2="58.12" y2="65.26" style="fill:none;stroke:#d1a9a3;stroke-linecap:round;stroke-miterlimit:10"/><path d="M58.12,79.74V77.52s-.12,2.22,1.46,2.22" style="fill:none;stroke:#e5c2ba;stroke-linecap:round;stroke-linejoin:round"/><path d="M83.08,51.98c0-7.4-5.64-5.64-5.64-5.64h0c-1.5.78-1.5,2.1-1.5,3.72v11.3C81.36,61.02,83.08,55.68,83.08,51.98Z" style="fill:#ddbbb6"/><path d="M79.06,43.78V41.46a26,26,0,0,0-8-18.78A22.68,22.68,0,0,0,58,19.08a29.0371,29.0371,0,0,0-5.88.6V40.8a1.3408,1.3408,0,0,1,0,.4c4.6-6,10.32-10,19.5-9.46l.42.68a13.2154,13.2154,0,0,0,1.52,2.12c2.34,2.62,3.24,5.76,5.52,9.2Z" style="fill:#ddbbb6"/><path d="M45.18,43.38l.84-.52a9.82,9.82,0,0,1,8.54-.74h0a9.66,9.66,0,0,0,6.8,0h0a9.58,9.58,0,0,1,8.58.88l.72.44" style="fill:none;stroke:#edccc3;stroke-linecap:round;stroke-miterlimit:10"/><path d="M47.74,38.12a9.76,9.76,0,0,1,6.82,0h0a9.44,9.44,0,0,0,6.8,0h0a9.66,9.66,0,0,1,6.94,0" style="fill:none;stroke:#edccc3;stroke-linecap:round;stroke-miterlimit:10"/><path d="M45.18,44.38l.84-.52a9.82,9.82,0,0,1,8.54-.8h0a9.66,9.66,0,0,0,6.86,0h0a9.58,9.58,0,0,1,8.58.88l.72.44" style="fill:none;stroke:#e5c2ba;stroke-linecap:round;stroke-miterlimit:10"/><path d="M47.74,39.14a9.76,9.76,0,0,1,6.82,0h0a9.44,9.44,0,0,0,6.86,0h0a9.66,9.66,0,0,1,6.94,0" style="fill:none;stroke:#e5c2ba;stroke-linecap:round;stroke-miterlimit:10"/><path d="M54.1,35.06h0a15.62,15.62,0,0,0,7.8,0h0" style="fill:none;stroke:#edccc3;stroke-linecap:round;stroke-miterlimit:10"/><line x1="64.86" y1="68.66" x2="65.54" y2="70.02" style="fill:none;stroke:#d1a9a3;stroke-linecap:round;stroke-miterlimit:10"/><path d="M53.9,61.98c2,.6,2.28,1.4,4,1.4s2-.82,4-1.4" style="fill:none;stroke:#af8582;stroke-linecap:round;stroke-miterlimit:10;stroke-width:1.5px"/><path d="M58,81.56a14.5606,14.5606,0,0,0,7.5-1.58c6.58-4,8.26-5.5,9.6-10.54.84-3.1,1.48-7.54,1.48-7.54,2,0,6-4.34,6.84-7.82.9-4.28,0-7.82-4-7.82V40.94c0-12.16-6.88-21.86-21.5-21.86s-21.44,9.7-21.44,21.86v5.18c-4,0-4.82,3.54-4,7.82.74,3.48,4.88,7.82,6.84,7.82,0,0,.66,4.44,1.48,7.54,1.34,5.04,3.02,6.52,9.6,10.54A14.56,14.56,0,0,0,58,81.56Z" style="fill:none;stroke:#333;stroke-linejoin:round;stroke-width:3px"/><path d="M86.34,46.64l-3.12-.66-3.86.78-1.72,4.2a.68.68,0,0,1-.86.42.66.66,0,0,1-.46-.68V40.12a15.18,15.18,0,0,0-.82-4.9l7.36,2.74Z" style="fill:#333"/><path d="M86.98,40.9S84.1,23.46,74.42,21.18a4.42,4.42,0,0,0-.68-1.54c-3.5-4.58-15.34-8-29.46-3.3-12.78,4.3-16.56,24.42-16.8,26.94v.6l-1,4.1,12.66-2.66-3.28,2.92c5-1.16,8.98-2.12,12-6.3l2.1-2.44s8.12-11.58,18.12-11.24H70.7l4.66,7.72,2.86,4.4,3.64,3.74,4.48,2.46V45.2l-.86-3.5Z" style="fill:#ebf1f2"/><path d="M69.74,27.16l3.14-2.38-.6,3.9a1.6046,1.6046,0,0,1-3.16-.56A1.54,1.54,0,0,1,69.74,27.16Z" style="fill:#bec5c7"/><path d="M70.74,47.18H66.22a6.12,6.12,0,0,0-3.5,1.16,4.52,4.52,0,0,0-1.76,4.48,7.6,7.6,0,0,0,7.82,6.66c4.9,0,6.68-4.66,6.68-7.8v-.36A4.64,4.64,0,0,0,70.74,47.18Z" style="fill:#f7dad4"/><path d="M50.04,46.68H45.56a4.66,4.66,0,0,0-4.7,4.2v.38c0,3.2,1.76,8,6.64,8a7.66,7.66,0,0,0,7.8-6.8,4.7,4.7,0,0,0-1.76-4.58A6,6,0,0,0,50.04,46.68Z" style="fill:#fce0da"/><path d="M54.92,49.84l-.72-1.86a11.34,11.34,0,0,1,7.54,0l-.72,1.9A9.24,9.24,0,0,0,54.92,49.84Z" style="fill:#333"/><path d="M53.9,47.4a6.58,6.58,0,0,0-4-1.36H37.36l.3,2a2,2,0,0,1,1.78,1.6l.68,4.4h0a7.38,7.38,0,0,0,7.24,6.18,8.5,8.5,0,0,0,8.6-7.46A5.6,5.6,0,0,0,53.9,47.4Zm.24,5.1a6.56,6.56,0,0,1-6.76,6c-4.12,0-5.62-4.14-5.62-6.94v-.3a3.68,3.68,0,0,1,3.7-3.28h4.42a4.68,4.68,0,0,1,2.88.98A3.68,3.68,0,0,1,54.14,52.5Z" style="fill:#333"/><path d="M60.12,52.84a8.5,8.5,0,0,0,8.6,7.46,7.34,7.34,0,0,0,7.16-6.32h0l.7-4.42a2,2,0,0,1,1.76-1.6l.34-2H66.2a6.58,6.58,0,0,0-4,1.36A5.6,5.6,0,0,0,60.12,52.84Zm3.22-4a4.66,4.66,0,0,1,2.88-.86h4.42a3.66,3.66,0,0,1,3.7,3.3v.3c0,2.8-1.5,6.94-5.62,6.94a6.58,6.58,0,0,1-6.76-6,3.7,3.7,0,0,1,1.4-3.64Z" style="fill:#333"/><path d="M86.34,45.26l-2-3.22,3.22-.56C86.04,36.16,81,27.48,74.4,26c-1.72-5.7-15.8-10.82-30.2-4.84C31.74,26.3,28.74,39.8,26.84,47.98l13.04-3.12-4.14,3.52s7.84.5,14.26-8.84c4.82-7.02,10.72-11.72,20.74-11.16,0,.16,7.4,12,7.46,12C81.5,45.46,86.76,46.12,86.34,45.26Z" style="fill:#e0e9eb"/><path d="M87.58,42.4S84.1,23.46,74.42,21.18c-4.68-7.5-13.76-6.78-18.34-6.32,6.5,1.64,10.64,3.1,12.86,6.56-4.34-2-14.54-2.14-22.24,3.08a34.92,34.92,0,0,1,19.26-1.24,35.4185,35.4185,0,0,0-9.6,1.44,14.32,14.32,0,0,0-8.8,8.12,45.2587,45.2587,0,0,1,10.76-4.84,23.14,23.14,0,0,1,12.46.56c5.2,11.26,8.28,15.14,15.56,18l-2-4.6Z" style="fill:#bec5c7"/><path d="M71.18,83.18s23.54,6.24,26.56,7.1a7.78,7.78,0,0,1,5.78,6.46l1.18,7.1a106.44,106.44,0,0,1-46.64,10.14,106.44,106.44,0,0,1-46.7-10.14l1.2-7.1a7.74,7.74,0,0,1,5.76-6.46c3.02-.86,26.56-7.1,26.56-7.1" style="fill:none;stroke:#333;stroke-linejoin:round;stroke-width:3px"/><line x1="44.9" y1="76.48" x2="44.9" y2="87.62" style="fill:none;stroke:#333;stroke-linecap:round;stroke-linejoin:round;stroke-width:3px"/><line x1="71.22" y1="76.48" x2="71.22" y2="87.62" style="fill:none;stroke:#333;stroke-linecap:round;stroke-linejoin:round;stroke-width:3px"/><path d="M69.74,27.4a1.58,1.58,0,0,1,.86,0l.42.14a3.2764,3.2764,0,0,1,.58.32,6.1449,6.1449,0,0,1,.76.68,12.7507,12.7507,0,0,1,.98,1.34,19.993,19.993,0,0,1,1.34,2.7c.78,1.78,1.36,3.66,2,5.32a18.1183,18.1183,0,0,0,2.54,4.8,12.2205,12.2205,0,0,0,4,3.7,12.8808,12.8808,0,0,1-4.82-3.06,19.8591,19.8591,0,0,1-3.54-4.62c-1.02-1.74-1.62-3.46-2.48-5.06a19.6646,19.6646,0,0,0-1.36-2.24,5.1977,5.1977,0,0,0-.76-.86l-.3-.24h.52a1.5,1.5,0,0,1-1.7577-1.1877L68.72,29.12a1.52,1.52,0,0,1,.96-1.68Z" style="fill:#bec5c7"/><path d="M69.36,30.46a11.42,11.42,0,0,0-4.36,0A16.3224,16.3224,0,0,0,60.62,32a29.4206,29.4206,0,0,0-7.7,5.86c-2.4,2.36-4.62,4.94-7.4,7.2A15.1989,15.1989,0,0,1,40.8,47.6c-1.68.56-3.36.94-5.02,1.32h0a.5442.5442,0,0,1-.38-1.02,28,28,0,0,0,6.3-4.62,26.42,26.42,0,0,0,4.78-6.24,26.62,26.62,0,0,1-4.38,6.62,27.6815,27.6815,0,0,1-6,5.22l-.4-1.02a20.7993,20.7993,0,0,0,8.78-4.26c2.34-2.26,4.4-5,6.7-7.56a27.7592,27.7592,0,0,1,8.18-6.66,18.4412,18.4412,0,0,1,5.22-1.74,12.0006,12.0006,0,0,1,5.76.34,1.32,1.32,0,0,1,.7049,1.7286L71.04,29.72a1.3,1.3,0,0,1-1.42.78Z" style="fill:#bec5c7"/><path d="M48.6,49.26a1.72,1.72,0,1,0,1.72,1.72,1.74,1.74,0,0,0-1.72-1.72h0" style="fill:#717171"/><path d="M67.24,49.26a1.72,1.72,0,1,0,1.72,1.72,1.7,1.7,0,0,0-1.68-1.72h0" style="fill:#717171"/><circle cx="48.16" cy="53.68" r="2.7" style="fill:#fde6e1"/><path d="M48.16,50.98a2.66,2.66,0,0,0-1.24.32,1.74,1.74,0,0,0,1.68,1.4,1.7,1.7,0,0,0,1.5-.9A2.7,2.7,0,0,0,48.16,50.98Z" style="fill:#8d8d8d"/><circle cx="67.94" cy="53.68" r="2.7" style="fill:#f9e1dd"/><path d="M65.86,51.98a1.7,1.7,0,0,0,2.36.42,1.82,1.82,0,0,0,.72-1.22A2.64,2.64,0,0,0,65.86,51.98Z" style="fill:#8d8d8d"/><path d="M60.72,66.88a5.26,5.26,0,0,0-2.36.26,1.5,1.5,0,0,1-.84,0,5.5592,5.5592,0,0,0-2.36-.26c-1.34.18-1.48,1.04-4.18,2.5l2.38,1.46a4.28,4.28,0,0,0,2.54.82h4.12a4.28,4.28,0,0,0,2.54-.82l2.46-1.4C62.32,67.98,62.06,67.06,60.72,66.88Z" style="fill:#ddbab6"/><path d="M65.02,69.44c-2,0-2.5-.78-4.48-.78a13.821,13.821,0,0,0-2.56.34,13.9985,13.9985,0,0,0-2.62-.34c-1.9,0-2.3.72-4.42.72" style="fill:none;stroke:#af8582;stroke-linecap:round;stroke-miterlimit:10;stroke-width:1.2000000476837158px"/><path d="M64,75a14,14,0,0,0-6-1.1A13.8792,13.8792,0,0,0,52.1,75" style="fill:none;stroke:#e5c2ba;stroke-linecap:round;stroke-miterlimit:10"/><path d="M70.64,30.94a19.36,19.36,0,0,1,4,4.28c1.16,1.56,2.24,3.12,3.38,4.54a16.6818,16.6818,0,0,0,3.84,3.56,12.7,12.7,0,0,0,4.74,1.82l-1.68,2.12-2-4.58-1.18-2.56,2.72.28,3.24.34-1.78,1.9a51.2674,51.2674,0,0,0-1.68-6,43.0236,43.0236,0,0,0-2.42-5.78,23.3031,23.3031,0,0,0-3.36-5,9.18,9.18,0,0,0-4.52-2.9l-1.02-.24-.3-1a5.68,5.68,0,0,0-2-2.44,15.2984,15.2984,0,0,0-3.26-1.8,23.56,23.56,0,0,0-8-1.54,30.26,30.26,0,0,0-15.66,4A24.46,24.46,0,0,0,32.98,31.8a28.3756,28.3756,0,0,0-1.32,4l-1.1,4.14-2.28,8.42-1.66-2A86.666,86.666,0,0,0,35.7,44.9a19.999,19.999,0,0,0,4.36-1.48,15.9993,15.9993,0,0,0,4-2.6,22.18,22.18,0,0,1-7.52,6.22,18.9209,18.9209,0,0,1-4.7,1.6c-1.62.34-3.24.52-4.8.72l-2.24.3.58-2.2,2.16-8.4,1.08-4.22a30.7278,30.7278,0,0,1,1.4-4.36,28,28,0,0,1,12-13.64A33.6,33.6,0,0,1,59.6,12.12a26.66,26.66,0,0,1,9.08,1.86,17.7794,17.7794,0,0,1,4.2,2.38,8.8,8.8,0,0,1,3.28,4.28L74.84,19.4a12.84,12.84,0,0,1,6.34,4A25.262,25.262,0,0,1,85,29.26a47.4567,47.4567,0,0,1,2.5,6.3,52.21,52.21,0,0,1,1.66,6.56l.42,2.16-2.22-.3-3.2-.4,1.62-2.2,2,4.6,1.1,2.66-2.82-.52a14.98,14.98,0,0,1-5.88-2.38,15.7388,15.7388,0,0,1-4.26-4.5,39.0562,39.0562,0,0,1-2.74-5.12A48.12,48.12,0,0,0,70.64,30.94Z" style="fill:#333"/></g></svg>