<svg xmlns="http://www.w3.org/2000/svg" viewBox="0 0 128 128"><title>footballer-cristiano-ronaldo</title><g id="footballer-cristiano-ronaldo"><g id="footballers-cristiano-ronaldo"><g id="footballers-cristiano-ronaldo-2"><g id="Icons"><path d="M110.8679,89.3616c-9.58-2-13.74-3.14-26.82-5.72h-30.64c-13.06,2.76-17.24,3.84-26.82,5.72a16,16,0,0,0-11.5,15.32,130.1983,130.1983,0,0,0,53.62,11.5,128.8,128.8,0,0,0,53.62-11.5C122.3279,98.9816,118.5279,91.3016,110.8679,89.3616Z" style="fill:#84303a"/><path d="M110.8679,95.1616c-9.58-2-13.74-3.14-26.82-5.72h-30.64c-13.06,2.76-17.24,3.84-26.82,5.72a15.42,15.42,0,0,0-10.5,10,130.2177,130.2177,0,0,0,52.64,11.08,129.1793,129.1793,0,0,0,52.62-11.06A15.44,15.44,0,0,0,110.8679,95.1616Z" style="fill:#77252b"/><path d="M68.7279,116.2016a127.017,127.017,0,0,0,39.24-6v-4.46a17.5,17.5,0,0,0-5-12.24c-5.2-1.16-10-2.3-18.92-4h-30.64c-9.5,2-14.3,3.12-19.88,4.3a17.48,17.48,0,0,0-4.76,12v4.18A128.5787,128.5787,0,0,0,68.7279,116.2016Z" style="fill:#9e3237"/><path d="M70.5879,98.9416a32.58,32.58,0,0,0,17.34-10.96l2.24-2.76c-2.16-.46-4.62-.98-7.6-1.56h-27.64l-7.56,1.62,2.18,2.7a32.52,32.52,0,0,0,17.34,10.96l1.86.52Z" style="fill:#84303a"/><path d="M53.4079,72.1616v11.5a28.5592,28.5592,0,0,0,15.32,9.58,28.76,28.76,0,0,0,15.32-9.58v-11.5Z" style="fill:#e8b992"/><path d="M53.4079,76.6816l18.46,15.62a27.48,27.48,0,0,0,12.18-8.54v-11.6h-30.64Z" style="fill:#dba983"/><path d="M68.728,94.7412a1.4811,1.4811,0,0,1-.352-.042,30.25,30.25,0,0,1-16.125-10.082,1.501,1.501,0,0,1-.3433-.9551v-11.5a1.5,1.5,0,0,1,1.5-1.5h30.64a1.5,1.5,0,0,1,1.5,1.5v11.5a1.5,1.5,0,0,1-.3458.958A30.4527,30.4527,0,0,1,69.0835,94.6982,1.5054,1.5054,0,0,1,68.728,94.7412Zm-13.82-11.6269a27.2483,27.2483,0,0,0,13.8189,8.581,27.452,27.452,0,0,0,13.8213-8.583v-9.45h-27.64Z" style="fill:#333"/><path d="M69.1411,117.6826c-.187,0-.3735-.0019-.56-.001a130.8149,130.8149,0,0,1-54.11-11.6328,1.4981,1.4981,0,0,1-.8838-1.37A17.6,17.6,0,0,1,26.166,87.9219c.044-.0127.0884-.0235.1328-.0323,5.6006-1.1,9.3633-1.9267,14.127-2.9746,3.3774-.7431,7.2641-1.5986,12.6719-2.7412l1.4672-.3095.6206,2.9345-1.4677.3106C48.32,86.25,44.4414,87.1035,41.07,87.8447c-4.7627,1.0479-8.5288,1.876-14.1245,2.9746a14.5931,14.5931,0,0,0-10.3232,12.9043,127.8339,127.8339,0,0,0,51.9653,10.958c.1836.001.3638.001.5469.001a126.3886,126.3886,0,0,0,51.6572-10.956c-.3931-5.2618-3.9858-11.3243-10.332-12.9307-4.3985-.8613-7.73-1.6123-11.2579-2.4082-3.9887-.8994-8.51-1.9189-15.4843-3.2939l-1.4717-.29.58-2.9433,1.4717.29c7.0146,1.3828,11.5566,2.4072,15.5644,3.3115,3.5064.79,6.8184,1.5371,11.2549,2.4082,8.2837,2.0947,12.7109,10.2207,12.7109,16.8115a1.5,1.5,0,0,1-.88,1.3663A129.4243,129.4243,0,0,1,69.1411,117.6826Z" style="fill:#333"/><polygon points="43.825 107.6 41.91 107.6 41.91 98.979 38.11 98.979 38.11 97.063 42.868 97.063 43.825 98.021 43.825 107.6" style="fill:#e5d285"/><path d="M89.6079,48.8616v-6.54c.96-13.16-8-21.78-21.78-21.78s-22.74,8.6-21.86,21.78l-.32,6.5c-2.92-.46-4,3.38-3.3,6.84s1.74,8.8,5.64,8.8c.94,10.52-.7,9.44,10.68,18.72,1.82,2.24,5.48,3.06,9.12,3.06s7.32-.82,9.12-3.06c11.38-9.28,9.72-8.22,10.66-18.72,3.9,0,4.82-5.34,5.54-8.8S92.7279,48.1616,89.6079,48.8616Z" style="fill:#e8b992"/><path d="M89.6079,48.8616v-6.54c.96-13.16-8-21.78-21.78-21.78a29.606,29.606,0,0,0-6,.6v23.84a7.8,7.8,0,0,1-2.56,5.7.9.9,0,0,0,.4,1.54c3,.86,4.6,1.42,6.46.94.62-.16,1.72.54,1.72,1.18v3.14a3.38,3.38,0,0,0,1.28,2.8,2.2,2.2,0,0,1-1.28,4c-1.62,0-2.2-1.1-4.4-1.1-1.3,0-1.1,1.7-1.14,1.64a4.7611,4.7611,0,0,1,2.2.58,6.7593,6.7593,0,0,0,3.3.86v6.62a3.82,3.82,0,0,0,2.5,3.52,3.1,3.1,0,0,1,1.88,3.26c0,5.84-10.12-.12-10.8,5.38a16.4391,16.4391,0,0,0,6.4,1.1c3.64,0,7.32-.82,9.12-3.06,11.38-9.28,9.72-8.22,10.66-18.72,3.9,0,4.82-5.34,5.54-8.8S92.7279,48.1616,89.6079,48.8616Z" style="fill:#ddad8a"/><path d="M67.8281,69.3125a.65.65,0,0,1-.65-.65V66.3213a.65.65,0,1,1,1.3,0v2.3408A.65.65,0,0,1,67.8281,69.3125Z" style="fill:#cea080"/><path d="M69.2479,70.6816l-1.38.62-1.52-.38a2.68,2.68,0,0,0-2,.3l-3.84,1.86c2.82.58,2.42,1.88,5.24,2.12,0,0,2.74,0,4.18-.14,2-.24,3.22-.66,5.08-3.74a12.562,12.562,0,0,1-4.32-.72A2,2,0,0,0,69.2479,70.6816Z" style="fill:#cea080"/><path d="M59.3472,74.1719a.6342.6342,0,0,1-.2471-.05.65.65,0,0,1-.3535-.8487l.42-1.0195a.65.65,0,0,1,1.2021.4961l-.42,1.0195A.65.65,0,0,1,59.3472,74.1719Z" style="fill:#cea080"/><path d="M75.248,72.7119a.65.65,0,0,1-.6147-.4394l-.48-1.3995a.65.65,0,1,1,1.23-.4218l.48,1.3994a.6507.6507,0,0,1-.4038.8262A.6645.6645,0,0,1,75.248,72.7119Z" style="fill:#cea080"/><path d="M75.0879,71.5416a5.5779,5.5779,0,0,1-1.8,1.1l-2,.26c-1.34.14-2.68.3-4,.38s-2.7.1-4,.1h-4a.2925.2925,0,0,1-.04-.58h.34l3.9-.54c1.28-.16,2.54-.34,3.78-.4s2.5,0,3.76,0h2a5.3,5.3,0,0,0,1.66-.68.32.32,0,0,1,.4432.0914l.0168.0286A.3.3,0,0,1,75.0879,71.5416Z" style="fill:#b78767"/><path d="M67.9268,87.7217H67.8c-4.6577,0-8.27-1.2373-10.1919-3.4883-9.92-8.0918-10.3291-8.7227-10.8433-16.1621-.0478-.6943-.1-1.457-.1689-2.3037-3.8442-1.0117-4.9512-6.2188-5.64-9.46l-.0752-.3525c-.5445-2.5449-.2378-5.8965,1.6728-7.6475A3.8651,3.8651,0,0,1,45.1592,47.27l-.6763-4.7148c-.0049-.0352-.0088-.07-.0112-.1065-.4678-6.5439,1.35-12.2207,5.2568-16.417,4.1729-4.4814,10.5723-6.9492,18.02-6.9492,7.4449,0,13.8423,2.4668,18.0142,6.9473,3.91,4.1982,5.7295,9.8828,5.2617,16.4385-.0024.0361-.0063.0713-.0112.1064l-.6748,4.707a3.8993,3.8993,0,0,1,2.6567,1.043c1.6524,1.5127,2.2881,4.5156,1.6206,7.65l-.123.5811c-.7046,3.3554-1.7324,8.2509-5.4907,9.2168-.0664.8447-.1172,1.6064-.1636,2.3-.499,7.4355-.9067,8.0664-10.83,16.1611C75.437,87.251,70.6562,87.7217,67.9268,87.7217ZM45.2163,50.27a.8743.8743,0,0,0-.6362.251c-.8267.7568-1.17,2.9141-.7656,4.8076l.0756.3555c.813,3.8242,1.7383,7.2578,4.0977,7.2578a1.4994,1.4994,0,0,1,1.4936,1.3633c.125,1.3642.2061,2.5351.2769,3.56.4463,6.46.4463,6.46,9.8574,14.1357a1.4808,1.4808,0,0,1,.2163.2158c1.294,1.5928,4.2012,2.5059,7.9761,2.5059h.1211c3.7026,0,6.5581-.91,7.8545-2.5059A1.4808,1.4808,0,0,1,76,82c9.4116-7.6758,9.4116-7.6758,9.8442-14.1289.0689-1.0254.1475-2.1973.27-3.5635a1.5,1.5,0,0,1,1.4941-1.3662c2.2915,0,3.1441-3.1709,3.9487-7.0019l.1246-.59c.4814-2.2617-.0074-4.167-.7124-4.8125a1.089,1.089,0,0,0-1.2-.1621,2.0193,2.0193,0,0,1-2.5821-2.248l.8487-5.9249c.394-5.6816-1.1509-10.5654-4.4683-14.1279C79.9688,24.21,74.3511,22.082,67.748,22.082c-6.6049,0-12.2251,2.1289-15.8242,5.9942-3.3139,3.56-4.8569,8.4355-4.4634,14.1064l.8526,5.9463A2.02,2.02,0,0,1,45.7446,50.36,1.8441,1.8441,0,0,0,45.2163,50.27Zm44.94-1.7216-.0039.0263Zm-44.8139.0029.0029.02Z" style="fill:#333"/><circle cx="76.5079" cy="55.8816" r="1.48" style="fill:#333"/><circle cx="58.3879" cy="55.8816" r="1.48" style="fill:#333"/><path d="M88.8879,31.7416c.38-8.62-13.8-17.06-13.8-17.06s-5.62,1.6-18.12,4.7a12,12,0,0,0-9.88,11.78c-2.84,4-3.04,9.52-2.42,13.76l.64,4.38c2.36,1.24,3.34,6.24,3.34,6.24v-10.86l2.96-2.96v-7.26h3.16c3.1.68,6.5,1.4,10.1,2a14.3175,14.3175,0,0,0,5.76,0c2.68-.56,13.24-2.58,17.86-3.5l-4.52,4.56v4l3,3.16v10.9s.98-5,3.34-6.24l.64-4.38A20.18,20.18,0,0,0,88.8879,31.7416Z" style="fill:#333"/><path d="M86.9688,56.5713c-.0323,0-.0645-.001-.0967-.0039a.99.99,0,0,1-.8941-.9854V45.0762L83.25,42.2031a.9921.9921,0,0,1-.272-.6816v-4a.9868.9868,0,0,1,.2871-.6963l2.2495-2.27c-1.54.3007-3.2734.6367-5.0063.9736-4.0112.7783-8.1587,1.584-9.6777,1.9014a15.2431,15.2431,0,0,1-6.1617.0009c-3.5439-.5908-6.9052-1.3007-10.0078-1.98H52.5977v6.27a.99.99,0,0,1-.29.7l-2.67,2.67v10.45a.99.99,0,0,1-1.9609.1914c-.3462-1.7559-1.4209-4.8154-2.8291-5.5557a.9888.9888,0,0,1-.5186-.7324l-.64-4.38c-.4815-3.2929-.7945-9.4658,2.414-14.2187a12.984,12.984,0,0,1,10.69-12.4385c12.271-3.0459,17.9677-4.6621,18.0239-4.6787a.9911.9911,0,0,1,.7773.1016c.5933.3535,14.4,8.6777,14.29,17.6777a21.2491,21.2491,0,0,1,2.0366,13.6338l-.6338,4.3418a.9891.9891,0,0,1-.5185.7334c-1.5845.832-2.5992,4.3779-2.83,5.5547A.99.99,0,0,1,86.9688,56.5713ZM84.9575,41.127,87.6855,44a.9918.9918,0,0,1,.272.6816v5.626a5.9071,5.9071,0,0,1,1.4375-1.5615l.5738-3.9268a19.322,19.322,0,0,0-1.1114-10.8242l-3.9,3.9336ZM46.2212,48.7061a5.9121,5.9121,0,0,1,1.437,1.5615v-5.586a.9908.9908,0,0,1,.29-.7l2.67-2.67v-6.85a.9892.9892,0,0,1,.99-.9892h3.16a1.031,1.031,0,0,1,.2119.0224c3.1064.6817,6.4741,1.3936,10.0508,1.99a13.2983,13.2983,0,0,0,5.3984.0068c1.5293-.3193,5.6841-1.126,9.7017-1.9063,2.914-.5654,5.83-1.1318,7.82-1.5263a.9887.9887,0,0,1-.0518-.3623c.3184-7.208-10.8144-14.5909-12.9624-15.9453-1.5283.4248-7.2383,1.9882-17.73,4.5908A11.0259,11.0259,0,0,0,48.0776,31.165a.992.992,0,0,1-.1826.57c-3.11,4.38-2.6079,10.581-2.248,13.0429Z" style="fill:#333"/><path d="M67.81,67.2031a5.9007,5.9007,0,0,1-2.8648-.7451,4.5392,4.5392,0,0,0-2.1391-.5459.75.75,0,0,1,.0024-1.5h.0024a6.0373,6.0373,0,0,1,2.8555.7305,4.3872,4.3872,0,0,0,4.2788.0029,6.0437,6.0437,0,0,1,2.8609-.7334h.0024a.75.75,0,0,1,.0024,1.5,4.5455,4.5455,0,0,0-2.1445.5488A5.8924,5.8924,0,0,1,67.81,67.2031Z" style="fill:#b78767"/><path d="M52.3879,51.3016a7.7012,7.7012,0,0,1,2.7-1.12,9.66,9.66,0,0,1,2.94,0c.96.16,1.88.4,2.78.64a17.491,17.491,0,0,0,2.54.58h0a1.06,1.06,0,0,1-.0313,2.12,1.049,1.049,0,0,1-.1887-.02h-.04a18.7076,18.7076,0,0,1-2.74-1.04,25.8874,25.8874,0,0,0-2.5-.98,8.0031,8.0031,0,0,0-2.56-.4,4.001,4.001,0,0,0-2.4.78.38.38,0,1,1-.46-.58S52.3879,51.3216,52.3879,51.3016Z" style="fill:#333"/><path d="M82.8079,51.9216a3.84,3.84,0,0,0-2.4-.78,8.0013,8.0013,0,0,0-2.54.42c-.84.26-1.66.62-2.52.98a17.2178,17.2178,0,0,1-2.78,1.02,1.04,1.04,0,0,1-.48-2h.18a15.2663,15.2663,0,0,0,2.52-.56c.9-.24,1.82-.5,2.78-.66a9.0637,9.0637,0,0,1,2.94,0,7.6033,7.6033,0,0,1,2.74,1.1.38.38,0,0,1-.4.64Z" style="fill:#333"/><path d="M68.8281,77.1318h-2a.65.65,0,0,1,0-1.3007h2a.65.65,0,0,1,0,1.3007Z" style="fill:#cea080"/><path d="M67.9277,83.0322h-.5a.65.65,0,0,1,0-1.3008h.5a.65.65,0,0,1,0,1.3008Z" style="fill:#cea080"/></g></g></g></g></svg>