<svg id="mahatma-gandhi" xmlns="http://www.w3.org/2000/svg" viewBox="0 0 128 128"><title>mahatma-gandhi</title><g id="civil-rights-gandhi"><g id="civil-rights-gandhi-2"><g id="Icons"><path d="M116.13,92.28c-1.88-5.64-4.94-8.28-9.4-9.4-15.62-3.9-16.14-3.66-39.48-3.66s-24-.1-39.48,3.76c-4.46,1.12-7.52,3.76-9.4,9.4l-1.88,5.54a140.18,140.18,0,0,0,50.76,9.5,141.1019,141.1019,0,0,0,50.76-9.5Z" style="fill:#e4e9ea"/><path d="M107.55,89.22l-9.06-2.34a128.9809,128.9809,0,0,0-31.16-4,128.9821,128.9821,0,0,0-31.16,4l-9.22,2.34a11.86,11.86,0,0,0-8.46,8.12,122.48,122.48,0,0,0,48.8,10,122.48,122.48,0,0,0,48.8-10A11.86,11.86,0,0,0,107.55,89.22Z" style="fill:#d3dbdd"/><g style="opacity:0.150000005960464"><path d="M96.09,88.14a25.1988,25.1988,0,0,1-5.14,10.12,18.6789,18.6789,0,0,1-4.46,3.7,18.34,18.34,0,0,1-5.28,2.24.4312.4312,0,0,1-.26-.82,21.6217,21.6217,0,0,0,4.66-2.7A29.3376,29.3376,0,0,0,89.49,97a31.999,31.999,0,0,0,5.76-9.12.42.42,0,0,1,.55-.2244l.01.0044A.44.44,0,0,1,96.09,88.14Z" style="fill:#333"/><path d="M106.17,90.58a24.279,24.279,0,0,1-8,10,22.8382,22.8382,0,0,1-5.68,2.88,25.7022,25.7022,0,0,1-6.22,1.4.42.42,0,0,1-.4584-.3777L85.81,104.46a.44.44,0,0,1,.32-.46,31.7846,31.7846,0,0,0,5.78-2,35.4551,35.4551,0,0,0,5.2-3.06,28.421,28.421,0,0,0,8.28-8.76.42.42,0,0,1,.5768-.142l.0032.002A.42.42,0,0,1,106.17,90.58Z" style="fill:#333"/><path d="M112.03,93.34a16.62,16.62,0,0,1-5.42,7.12,14.2813,14.2813,0,0,1-4,2,17.5967,17.5967,0,0,1-4.4.92.4258.4258,0,0,1-.14-.84h0a22.24,22.24,0,0,0,4-1.5,26.4569,26.4569,0,0,0,3.52-2.18,20.4805,20.4805,0,0,0,5.76-6,.44.44,0,0,1,.6-.14.42.42,0,0,1,.08.62Z" style="fill:#333"/></g><path d="M67.2192,108.83A141.0336,141.0336,0,0,1,15.98,99.2344a1.4106,1.4106,0,0,1-.8252-1.7676l1.88-5.54c1.938-5.8135,5.1435-8.9971,10.3921-10.3145C42.688,77.8066,43.9707,77.7881,65.5327,77.81l5.5425-.001c19.5205-.0225,21.1108-.0137,35.9971,3.7031,5.2495,1.3184,8.4555,4.502,10.3955,10.3223h0l1.88,5.64a1.41,1.41,0,0,1-.8287,1.7618A141.9542,141.9542,0,0,1,67.2515,108.83ZM18.2612,97.0879A138.2233,138.2233,0,0,0,67.2178,106.01H67.25a139.1112,139.1112,0,0,0,48.9956-8.9258l-1.4521-4.3574c-1.6241-4.8711-4.1382-7.4073-8.4058-8.48-14.5469-3.6319-15.7187-3.6231-35.31-3.6192l-5.5444.002c-21.647.0088-22.4985-.0029-37.4214,3.7178-4.2661,1.0712-6.78,3.6074-8.4038,8.4785Z" style="fill:#333"/><ellipse cx="67.1902" cy="84.2199" rx="28.84" ry="18.26" style="fill:#d3dbdd"/><path d="M80.49,81V67.84H54.09V81l-5.6,1.88a39.7008,39.7008,0,0,0,18.72,16.8c10-4.44,15.06-8.78,18.88-16.8Z" style="fill:#ad8064"/><path d="M72.11,96.74a30.4,30.4,0,0,0,14-13.86L80.49,81V67.84H54.09V81Z" style="fill:#a0775c"/><g style="opacity:0.150000005960464"><path d="M39.09,87.86A32.6018,32.6018,0,0,0,46.71,98.4a35.4031,35.4031,0,0,0,5.1,4,28.7414,28.7414,0,0,0,6,2.82.42.42,0,0,1,.2625.5328l-.0025.0072a.44.44,0,0,1-.48.28,25.1792,25.1792,0,0,1-6.46-2.3,23.6013,23.6013,0,0,1-5.64-4,27.7415,27.7415,0,0,1-7.1-11.62.3756.3756,0,1,1,.7-.26Z" style="fill:#333"/><path d="M28.97,90.18a28.2006,28.2006,0,0,0,8.28,8.76A35.4674,35.4674,0,0,0,42.49,102a29.0071,29.0071,0,0,0,5.78,2,.42.42,0,0,1,.3255.4968l-.0055.0232a.44.44,0,0,1-.46.32,24.8022,24.8022,0,0,1-6.22-1.4,22.2007,22.2007,0,0,1-5.72-2.96,24.4209,24.4209,0,0,1-8-10,.42.42,0,0,1,.21-.5556l.01-.0044A.48.48,0,0,1,28.97,90.18Z" style="fill:#333"/><path d="M23.09,92.96a20.72,20.72,0,0,0,5.76,6,31.4,31.4,0,0,0,3.52,2.18,22.2425,22.2425,0,0,0,4,1.5.4389.4389,0,0,1-.14.86,16.9205,16.9205,0,0,1-4.4-.92,15.4228,15.4228,0,0,1-4-2,16.9214,16.9214,0,0,1-5.4-7.14.42.42,0,0,1,.2283-.5484L22.69,92.88A.4.4,0,0,1,23.09,92.96Z" style="fill:#333"/></g><path d="M67.25,71.6c14.42,0,26.32,7.64,28,16.7a11.3328,11.3328,0,0,0,.2-2.18c0-10-12.62-18.26-28.2-18.26s-28.2,8.18-28.2,18.26a13.0094,13.0094,0,0,0,.2,2.18C40.93,79.22,52.81,71.6,67.25,71.6Z" style="fill:#e4e9ea"/><path d="M95.45,86.17a1.41,1.41,0,0,1-1.41-1.41c0-11.4356-13.8388-15.51-26.79-15.51S40.46,73.3242,40.46,84.76a1.41,1.41,0,0,1-2.82,0c0-11.3067,11.3457-18.33,29.61-18.33s29.61,7.0234,29.61,18.33A1.41,1.41,0,0,1,95.45,86.17Z" style="fill:#333"/><path d="M86.05,84.29a1.4,1.4,0,0,1-.4761-.083c-1.9546-.7011-3.3974-1.209-5.5669-1.8554a1.41,1.41,0,0,1,.8057-2.7032c2.2383.667,3.7153,1.1875,5.7134,1.9043A1.41,1.41,0,0,1,86.05,84.29Z" style="fill:#333"/><path d="M48.7725,84.2529l-.6446-2.7461a31.4128,31.4128,0,0,0,5.3975-1.7988l1.13,2.584A34.3037,34.3037,0,0,1,48.7725,84.2529Z" style="fill:#333"/><path d="M49.67,82.18a41.22,41.22,0,0,0,20,17.3,50.78,50.78,0,0,0,26.46,3.74h0a.8189.8189,0,0,1,.24,1.62,48.721,48.721,0,0,1-14,.2,53.5608,53.5608,0,0,1-13.62-3.52,47.0806,47.0806,0,0,1-12.26-7.16,41.4418,41.4418,0,0,1-9.3-10.78,1.42,1.42,0,0,1,2.42-1.46Z" style="fill:#333"/><g style="opacity:0.239999994635582;isolation:isolate"><path d="M67.2446,85.7041l-.0937-.01a6.9373,6.9373,0,0,1-4.3487-2.1738.94.94,0,1,1,1.376-1.2812,5.064,5.064,0,0,0,3.0772,1.5752,4.8693,4.8693,0,0,0,3.0591-1.5665.94.94,0,0,1,1.3916,1.2637,6.7369,6.7369,0,0,1-4.3682,2.1836Z" style="fill:#59402f"/></g><path d="M66.81,98.94a49.8383,49.8383,0,0,0,10.52-6.92,33.6183,33.6183,0,0,0,7.48-9.82l2.46,1.36a36.099,36.099,0,0,1-8.5,10.16,52.6762,52.6762,0,0,1-11.24,6.7Z" style="fill:#333"/><path d="M67.25,79.22c2.54,0,6.2.58,9.4-3.76,4.46-6,11.12-7.42,11.28-16.92,5.64,0,7.52-5.52,7.52-9.4,0-7.4-5.64-5.64-5.64-5.64V35.88c.08-8.36-6.12-20.66-22.56-20.66S44.61,27.54,44.69,35.88V43.4s-5.64-1.76-5.64,5.64c0,3.88,1.88,9.4,7.52,9.4.16,9.5,6.82,10.92,11.28,16.92C61.05,79.7,64.71,79.22,67.25,79.22Z" style="fill:#ad8064"/><path d="M89.81,43.4V35.88c.08-8.36-6.12-20.66-22.56-20.66a27.9984,27.9984,0,0,0-6.32.7v23.3a4.3,4.3,0,0,1-4,4s6,0,8,4h2V54.1a3,3,0,0,0,1.26,2.28,2.0046,2.0046,0,0,1-1.26,3.56c-1.56,0-4.74-2.32-5.2-.26-.26,1.14,1.12,1.14,2.32,1.54a7.4812,7.4812,0,0,0,2.88.46v6.7a1.7,1.7,0,0,0,1.48,1.66,2.8,2.8,0,0,1,2.5361,3.0411q-.0063.07-.0161.1389c0,5.34-9.32-.14-9.84,5a12.2012,12.2012,0,0,0,6.16.9c2.54,0,6.2.58,9.4-3.76,4.46-6,11.12-7.42,11.28-16.92,5.64,0,7.52-5.52,7.52-9.4C95.45,41.64,89.81,43.4,89.81,43.4Z" style="fill:#a0775c"/><path d="M95.45,49.04c0-7.4-5.64-5.64-5.64-5.64h0c-1.5.8-1.5,2.12-1.5,3.74V58.42C93.65,58.16,95.45,52.84,95.45,49.04Z" style="fill:#916953"/><path d="M39.05,49.04c0-7.4,5.64-5.64,5.64-5.64h0c1.5.8,1.5,2.12,1.5,3.74V58.42C40.85,58.16,39.05,52.84,39.05,49.04Z" style="fill:#a0775c"/><path d="M63.37,51.22a5.6,5.6,0,1,1-5.6-5.6h0A5.6,5.6,0,0,1,63.37,51.22Z" style="fill:#b29383"/><path d="M59.25,47.06a5.6,5.6,0,0,0-5.6,5.6A5.5205,5.5205,0,0,0,54.79,56a5.58,5.58,0,0,0,8.58-4.78,5.5193,5.5193,0,0,0-1.14-3.34A5.6,5.6,0,0,0,59.25,47.06Z" style="fill:#b7978a"/><path d="M63.17,49.9a5.54,5.54,0,0,0-1.44-2.58l-7.9,7.9a5.54,5.54,0,0,0,2.58,1.44Z" style="fill:#b79d95"/><circle cx="57.8302" cy="49.6599" r="1.42" style="fill:#6c7881"/><path d="M82.23,51.22a5.6,5.6,0,1,1-5.6-5.6h0A5.6,5.6,0,0,1,82.23,51.22Z" style="fill:#b29383"/><path d="M78.13,47.06a5.6,5.6,0,0,0-5.6,5.6A5.5205,5.5205,0,0,0,73.67,56a5.58,5.58,0,0,0,8.58-4.78,5.5193,5.5193,0,0,0-1.14-3.34A5.7,5.7,0,0,0,78.13,47.06Z" style="fill:#b7978a"/><path d="M82.03,49.9a5.54,5.54,0,0,0-1.44-2.58l-7.9,7.9a5.54,5.54,0,0,0,2.58,1.44Z" style="fill:#b79d95"/><circle cx="76.5902" cy="49.6599" r="1.42" style="fill:#6c7881"/><path d="M57.77,57.7607a6.5405,6.5405,0,1,1,6.54-6.541A6.5478,6.5478,0,0,1,57.77,57.7607Zm0-11.2A4.66,4.66,0,1,0,62.43,51.22,4.6646,4.6646,0,0,0,57.77,46.5605Z" style="fill:#333"/><path d="M76.63,57.7607a6.5405,6.5405,0,1,1,6.54-6.541A6.5479,6.5479,0,0,1,76.63,57.7607Zm0-11.2a4.66,4.66,0,1,0,4.66,4.6592A4.6647,4.6647,0,0,0,76.63,46.5605Z" style="fill:#333"/><path d="M63.25,54.5605h-.001a.94.94,0,0,1-.9389-.9414,4.9462,4.9462,0,0,1,4.94-4.9355h.0044a4.9476,4.9476,0,0,1,4.935,4.9355.94.94,0,0,1-.9389.9414H71.25a.94.94,0,0,1-.94-.9394,3.0635,3.0635,0,0,0-3.0572-3.0566h-.0024A3.0637,3.0637,0,0,0,64.19,53.6211.94.94,0,0,1,63.25,54.5605Z" style="fill:#333"/><path d="M51.91,44.98a7.36,7.36,0,0,1,2.6-2,8.0006,8.0006,0,0,1,3.34-.72,7.6392,7.6392,0,0,1,3.26.82,7.7183,7.7183,0,0,1,2.68,2,.44.44,0,0,1-.58.62h0a8.18,8.18,0,0,0-2.6-1.14,14.7384,14.7384,0,0,0-2.78-.38,7.78,7.78,0,0,0-5.28,1.52h0a.42.42,0,0,1-.5881-.0833L51.95,45.6A.44.44,0,0,1,51.91,44.98Z" style="fill:#b2b2b2"/><path d="M81.99,45.58a7.78,7.78,0,0,0-5.28-1.52,14.7406,14.7406,0,0,0-2.78.38,8.1828,8.1828,0,0,0-2.6,1.14h0a.42.42,0,0,1-.5857-.0986L70.73,45.46a.46.46,0,0,1,0-.5,7.72,7.72,0,0,1,2.68-2,8.0016,8.0016,0,0,1,3.26-.82,8.3593,8.3593,0,0,1,3.34.72,7.02,7.02,0,0,1,2.6,2,.42.42,0,0,1,.0061.5939L82.61,45.46a.4.4,0,0,1-.52,0Z" style="fill:#b2b2b2"/><path d="M71.01,68.78H63.49a.94.94,0,0,1,0-1.8809h7.52a.94.94,0,0,1,0,1.8809Z" style="fill:#a17261"/><path d="M67.25,62.95a3.7761,3.7761,0,0,1-2.5093-.9922,6.8414,6.8414,0,0,0-1.5469-.9482.75.75,0,0,1,.5928-1.3789,8.3636,8.3636,0,0,1,1.8609,1.1318A2.3243,2.3243,0,0,0,67.25,61.45a2.246,2.246,0,0,0,1.5542-.6729A7.679,7.679,0,0,1,70.729,59.625a.75.75,0,1,1,.5625,1.3906,6.2565,6.2565,0,0,0-1.5747.9512A3.6833,3.6833,0,0,1,67.25,62.95Z" style="fill:#674848"/><path d="M68.19,72.35H66.31a.75.75,0,0,1,0-1.5h1.88a.75.75,0,0,1,0,1.5Z" style="fill:#997059"/><path d="M68.9858,80.6553c-.3364,0-.6572-.0069-.96-.0137-.5015-.0107-.9488-.0117-1.4463-.0049-2.5908.0479-6.5142.1045-9.8643-4.4394a29.6781,29.6781,0,0,0-4.479-4.5557c-3.2046-2.81-6.5112-5.7109-7.0136-11.8877C40.0239,58.9961,37.64,53.8486,37.64,49.04c0-2.9453.8208-5.0429,2.44-6.2334a5.3886,5.3886,0,0,1,3.2-.9951V35.88a22.0661,22.0661,0,0,1,6.354-15.376C53.9717,16.125,60.063,13.81,67.25,13.81c7.1914,0,13.2847,2.3144,17.6211,6.6924A22.0722,22.0722,0,0,1,91.22,35.8936v6.0185a5.383,5.383,0,0,1,3.2007.9951C96.04,44.0977,96.86,46.1943,96.86,49.14c0,4.8086-2.3838,9.9571-7.5826,10.7149-.5019,6.1767-3.8086,9.0762-7.0132,11.8867a29.6694,29.6694,0,0,0-4.4824,4.56A9.9522,9.9522,0,0,1,68.9858,80.6553ZM67.25,77.81c.2681,0,.5483.0058.8384.0127,2.3423.0556,4.9863.11,7.4272-3.1993a31.9489,31.9489,0,0,1,4.89-5.0019c3.3613-2.9482,6.0171-5.2773,6.1152-11.1045A1.41,1.41,0,0,1,87.93,57.13c4.8232,0,6.11-5.0225,6.11-7.99,0-1.374-.2236-3.1767-1.29-3.9609a3.2647,3.2647,0,0,0-2.52-.333A1.41,1.41,0,0,1,88.4,43.5V35.88a19.4731,19.4731,0,0,0-5.5322-13.3936C79.0728,18.6553,73.6724,16.63,67.25,16.63c-6.4175,0-11.8159,2.0254-15.6123,5.8584a19.4656,19.4656,0,0,0-5.5371,13.3779v7.5332a1.41,1.41,0,0,1-1.83,1.3457,3.2487,3.2487,0,0,0-2.5332.3428c-1.0557.79-1.2769,2.585-1.2769,3.9521,0,2.9678,1.2867,7.9893,6.11,7.9893a1.41,1.41,0,0,1,1.41,1.3867c.0981,5.8281,2.7539,8.1572,6.1157,11.1055a31.9378,31.9378,0,0,1,4.8862,4.998c2.4917,3.38,5.1831,3.335,7.5528,3.2979C66.7812,77.8135,67.02,77.81,67.25,77.81Z" style="fill:#333"/><path d="M59.57,65.64c1.18-.64,2.24-1.24,3.58-1.84a5.04,5.04,0,0,1,2.32-.24,8.482,8.482,0,0,0,1.78.28,10.661,10.661,0,0,0,1.76-.3,4.9,4.9,0,0,1,2.34.24c1.34.6,2.42,1.14,3.6,1.78a.44.44,0,0,1-.32.8c-1.26-.32-2.58-.8-3.72-1.1a3.7186,3.7186,0,0,0-1.56,0,5.5406,5.5406,0,0,1-2,.42,6.72,6.72,0,0,1-2-.46,3.5208,3.5208,0,0,0-1.58,0c-1.12.34-2.46.8-3.7,1.16a.46.46,0,0,1-.54-.28A.44.44,0,0,1,59.57,65.64Z" style="fill:#ccc"/><path d="M54.09,82.41A1.41,1.41,0,0,1,52.68,81V71.6a1.41,1.41,0,0,1,2.82,0V81A1.4106,1.4106,0,0,1,54.09,82.41Z" style="fill:#333"/><path d="M80.41,82.41A1.41,1.41,0,0,1,79,81V71.6a1.41,1.41,0,0,1,2.82,0V81A1.41,1.41,0,0,1,80.41,82.41Z" style="fill:#333"/><path d="M69.49,67.34a10.9421,10.9421,0,0,0-2.26.3,13.2847,13.2847,0,0,0-2.28-.3c-1.66,0-2,.62-3.88.64h0l2,1.48a3.62,3.62,0,0,0,2.24.82h3.64a3.62,3.62,0,0,0,2.24-.82l2.18-1.42h0C71.65,68.02,71.21,67.34,69.49,67.34Z" style="fill:#916953"/><path d="M73.45,68.34a5.9986,5.9986,0,0,1-1.68-.1,12.46,12.46,0,0,0-1.48-.32,10.0015,10.0015,0,0,0-2.92.36h-.26a11.3,11.3,0,0,0-2.88-.34,12.8344,12.8344,0,0,0-1.5.28,5.1424,5.1424,0,0,1-1.66,0,.32.32,0,0,1-.28-.34.34.34,0,0,1,.28-.28,8.36,8.36,0,0,0,1.44-.3,11.6247,11.6247,0,0,1,1.54-.5,7.9988,7.9988,0,0,1,3.32.12h-.28a8.981,8.981,0,0,1,3.4-.04,21.6179,21.6179,0,0,0,3,.84.3.3,0,0,1,.28.3187V68.04A.32.32,0,0,1,73.45,68.34Z" style="fill:#674848"/></g></g></g></svg>