<svg xmlns="http://www.w3.org/2000/svg" viewBox="0 0 128 128"><title>malcolm-x</title><g id="malcolm-x"><g id="civil-rights-malcolm-x"><g id="civil-rights-malcolm-x-2"><g id="Icons"><path d="M70,79.2066a18.14,18.14,0,0,1-13.88,0,3.5,3.5,0,0,1-2-3.22v-7.26a4.28,4.28,0,0,1,4.28-4.28h9.46a4.28,4.28,0,0,1,4.14,4.28v7.26A3.58,3.58,0,0,1,70,79.2066Z" style="fill:none;stroke:#874f2e;stroke-miterlimit:10;stroke-width:3.5px"/><polyline points="54.02 74.467 57.02 76.467 68.02 76.467 72.02 74.467" style="fill:none;stroke:#874f2e;stroke-miterlimit:10;stroke-width:5px"/><path d="M68.74,62.4466H57.28a6.3,6.3,0,0,0-6.28,6.28v7.26a5.48,5.48,0,0,0,3.26,5.02,22.94,22.94,0,0,0,8.74,1.56,22.94,22.94,0,0,0,8.74-1.56,5.48,5.48,0,0,0,3.26-5.06v-7.22a6.26,6.26,0,0,0-6.24-6.28Zm-11.46,4H68.74a2.28,2.28,0,0,1,2.26,2.26v4l-2.58,1.3H57.6l-2.58-1.3v-4a2.28,2.28,0,0,1,2.26-2.24Z" style="fill:#874f2e"/><path d="M115.02,100.4666a11.28,11.28,0,0,0-9-9c-2.66-.66-9.42-2.32-17-4a117.1411,117.1411,0,0,0-52,0c-7.3,1.7-14,3.28-17.04,4a11.28,11.28,0,0,0-9,9l-.98,5a130.4988,130.4988,0,0,0,53.06,11,130.6579,130.6579,0,0,0,52.94-11Z" style="fill:#444"/><path d="M75.58,115.8466c3.68-7.88,5.46-16.56,5.86-30a141.9981,141.9981,0,0,0-18.46-1.24,134.29,134.29,0,0,0-18.38,1.26c.4,13.42,2.16,22,5.86,30h0c4,.38,8.46.6,12.62.6h0c4,0,8.24-.2,12.48-.6Z" style="fill:#fff"/><path d="M77.02,73.4666h-28v8c6,8,8,8,14,12,6-4,8-4,14-12Z" style="fill:#a0765f"/><line x1="49.02" y1="83.4666" x2="49.02" y2="73.4666" style="fill:none;stroke:#343433;stroke-miterlimit:10;stroke-width:3px"/><line x1="77.02" y1="83.4666" x2="77.02" y2="73.4666" style="fill:none;stroke:#343433;stroke-miterlimit:10;stroke-width:3px"/><path d="M63.08,14.5066c16,0,20,7.16,20,18v10c3.28-1.56,6.74,2.3,5.34,8-2,8-5.34,10-7.34,10v4c0,6-2.42,6.22-8,12-3.66,3.82-6,4-10,4s-6.36-.16-10-4c-5.56-5.78-8-6-8-12v-4c-2,0-5.34-2-7.34-10-1.4-5.62,2-9.46,5.34-8v-10C43.08,21.6666,47.06,14.5066,63.08,14.5066Z" style="fill:#ad8165"/><path d="M83.08,42.4466v-10c0-10.78-4-18-20-18a40.9436,40.9436,0,0,0-6,.42v23.52a7.8,7.8,0,0,1-2.54,5.76.9.9,0,0,0,.4,1.54c3,.86,4.6,1.42,6.46.94.62-.16,1.72.54,1.72,1.18v6.16a3.38,3.38,0,0,0,1.28,2.8,2.2,2.2,0,0,1-1.28,4c-1.62,0-2.2-1.1-4.4-1.1-1.3,0-1.1,1.7-1.14,1.64a4.7611,4.7611,0,0,1,2.2.58,6.7593,6.7593,0,0,0,3.3.86v6.62a3.82,3.82,0,0,0,2.5,3.52,3.1,3.1,0,0,1,1.88,3.26c0,4.96-7.32,1.38-10,3.58a14.1382,14.1382,0,0,0,5.52.7c4,0,6.36-.16,10-4,5.56-5.78,8-6,8-12v-4c2,0,5.34-2,7.34-10C89.82,44.7266,86.36,40.8866,83.08,42.4466Z" style="fill:#a37c62"/><path d="M65.68,67.1266a5.6617,5.6617,0,0,0-2.36.26,1.2192,1.2192,0,0,1-.84,0,5.7407,5.7407,0,0,0-2.36-.26c-1.34.2-1.48,1.04-4.18,2.5l2.38,1.46a4.58,4.58,0,0,0,2.54.82H65a4.42,4.42,0,0,0,2.54-.9l2.46-1.4C67.28,68.2266,67,67.3066,65.68,67.1266Z" style="fill:#957058"/><path d="M70,69.6866c-2,0-2.52-.78-4.48-.78a13.4643,13.4643,0,0,0-2.58.34,15.0445,15.0445,0,0,0-2.6-.24c-1.88,0-2.3.72-4.42.72" style="fill:none;stroke:#674848;stroke-linecap:round;stroke-miterlimit:10;stroke-width:1.5px"/><path d="M30,94.4466a2.1855,2.1855,0,0,1,0-.36l-10,2.36c-4.76,1.2-9.04,4.18-10,9a117.2157,117.2157,0,0,0,27.8,8.58A46.3194,46.3194,0,0,1,30,94.4466Z" style="fill:#333"/><path d="M96.12,94.4466a46.26,46.26,0,0,1-8,19.6,116.34,116.34,0,0,0,27.88-8.58c-.96-4.82-5.24-7.8-10-9-1.78-.44-5.44-1.34-10-2.38A2.185,2.185,0,0,1,96.12,94.4466Z" style="fill:#333"/><path d="M72,106.1666a1.3,1.3,0,0,0,2.2-.26l1.08-2.9-9.62-10.74a32.9241,32.9241,0,0,1-3.02,1.64c-.9-.44-1.72-.9-2.5-1.38l-9.16,11.22.64,1.86a1.3,1.3,0,0,0,2.2.26l8.4-10.54,8.14,20.94,3.12-.22L68,101.3666Z" style="fill:#ccc"/><path d="M50.44,115.8266c-4-8.52-5.74-18-6-33.36" style="fill:#333"/><path d="M48.62,85.3666q-2,.2-4,.48c.4,13.42,2.16,22,5.86,30h0l4,.32A88.1993,88.1993,0,0,1,48.62,85.3666Z" style="fill:#ccc"/><polygon points="61.02 99.467 59.02 95.467 61.02 91.467 65.02 91.467 67.02 95.467 65.02 99.467 61.02 99.467" style="fill:#444;stroke:#333;stroke-miterlimit:10;stroke-width:3px"/><path d="M65.86,103.6466l-.84-4.18h-4l-.84,4.18-2.18,12.7c1.72,0,3.44.12,5.12.12h0c1.62,0,3.3,0,4.98-.12Z" style="fill:#444;stroke:#333;stroke-miterlimit:10;stroke-width:3px"/><path id="_Path_8" data-name=" Path 8" d="M46.82,79.3266,44,87.1466l7.5,16.52,9.32-12A29.82,29.82,0,0,1,46.82,79.3266Z" style="fill:#fff"/><path id="_Path_9" data-name=" Path 9" d="M60.78,91.6466a29.5,29.5,0,0,1-14-12.32L44,87.1466l7.5,16.52,9.3-12" style="fill:none;stroke:#333;stroke-linecap:round;stroke-linejoin:round;stroke-width:3px"/><path id="_Path_10" data-name=" Path 10" d="M79.24,79.3266l2.76,7.68-7.58,16.54-9.32-12A30,30,0,0,0,79.24,79.3266Z" style="fill:#fff"/><path id="_Path_12" data-name=" Path 12" d="M65.16,91.6466a29.9992,29.9992,0,0,0,14-12.3l2.84,7.76-7.58,16.54-9.32-12" style="fill:none;stroke:#333;stroke-linecap:round;stroke-linejoin:round;stroke-width:3px"/><path d="M37.84,87.3266c-7.3,1.68-14.84,3.38-17.84,4.12a11.28,11.28,0,0,0-9,9l-1,5a130.4988,130.4988,0,0,0,53.06,11,130.6579,130.6579,0,0,0,52.94-11l-1-5a11.28,11.28,0,0,0-9-9c-2.66-.66-10.26-2.42-17.82-4.12" style="fill:none;stroke:#333;stroke-linecap:round;stroke-linejoin:round;stroke-width:3px"/><path d="M42.64,114.8466c2.5.4,5.1.72,7.82,1-4-8.52-5.74-18-6-33.36l-8,3.58,3.06,2.94-5.22,5.42A43.0991,43.0991,0,0,0,42.64,114.8466Z" style="fill:#333;stroke:#333;stroke-linejoin:round;stroke-width:3px"/><path d="M83.4,114.8466c-2.5.4-5.1.72-7.82,1,4-8.52,5.74-18,6-33.36l8,3.58-3.06,2.94,5.22,5.42A43.3,43.3,0,0,1,83.4,114.8466Z" style="fill:#333;stroke:#333;stroke-linejoin:round;stroke-width:3px"/><path d="M63.1,14.5866c11.88,0,20,7.18,20,18v10.68c3.16-.76,5.4,1.64,4,7.28-2,8-4,10.14-6,10.14v4c0,6-2.42,6.24-8,12-3.68,3.82-6,3.74-10,3.72s-6.36.1-10-3.72c-5.58-5.8-8-6-8-12v-4c-2,0-4.1-2.12-6.1-10.14-1.4-5.64,1.5-8,4-7.28v-10.68C43.04,21.7666,51.22,14.5866,63.1,14.5866Z" style="fill:none;stroke:#343433;stroke-linejoin:round;stroke-width:3px"/><path d="M63.04,14.5066c-19.1,0-24,12.82-22.14,28.9.24.24.4,1.34.54,1.44a4.4,4.4,0,0,1,3.56,3.56v-7.8c.78-1.5,2-4,2-4v-3.12a7.88,7.88,0,0,1,2-6.38c2.46-2,6.28-1.72,14-1.72s11.52-.38,14,1.72a8,8,0,0,1,2,6.38v3.12s1.24,2.5,2,4v7.8a4.4,4.4,0,0,1,3.56-3.56c.14,0,.32-1.2.54-1.44C87,27.3266,82.14,14.5066,63.04,14.5066Z" style="fill:#874f2e"/><path d="M84.5,44.3266a47.0759,47.0759,0,0,0-.26-10.62,24,24,0,0,0-3.38-9.7,16.6007,16.6007,0,0,0-7.64-6.26,27.6993,27.6993,0,0,0-10-1.74,29.0822,29.0822,0,0,0-10,1.68,16.48,16.48,0,0,0-7.76,6,22.9,22.9,0,0,0-3.46,9.72,48.0007,48.0007,0,0,0-.2,10.6.66.66,0,0,1-.5741.736c-.0152.0019-.0306.0032-.0459.004a.68.68,0,0,1-.74-.58,43.9989,43.9989,0,0,1-.44-11.02,24.9006,24.9006,0,0,1,3.36-10.74,18.68,18.68,0,0,1,8.64-7.4,28.7016,28.7016,0,0,1,11.16-2,28.2812,28.2812,0,0,1,11.12,2.2,18.78,18.78,0,0,1,8.62,7.52,26.3,26.3,0,0,1,3.28,10.74,47.9947,47.9947,0,0,1-.36,11,.68.68,0,0,1-1.34-.14Z" style="fill:#333"/><path d="M44.96,40.5866c.56-1.36,1.16-2.72,1.76-4v.16a33.6186,33.6186,0,0,1-.1-6.2,5.9522,5.9522,0,0,1,3.94-5.14,19.6015,19.6015,0,0,1,6.32-.88H69.12a20.6233,20.6233,0,0,1,6.32.84,6.2006,6.2006,0,0,1,2.78,2,6.98,6.98,0,0,1,1.24,3.12,28,28,0,0,1,0,6.22v-.14c.6,1.38,1.18,2.76,1.72,4.16-.8-1.28-1.54-2.58-2.3-3.86v-.14a47.1916,47.1916,0,0,0-.52-6,4.8,4.8,0,0,0-3.38-3.8,19.225,19.225,0,0,0-5.76-.52H57.02a18.3832,18.3832,0,0,0-5.74.56,4.74,4.74,0,0,0-3.32,3.84,56.8679,56.8679,0,0,0-.5,6v.14A37.8184,37.8184,0,0,0,44.96,40.5866Z" style="fill:#753f25"/><path d="M60.18,48.5066a16.241,16.241,0,0,0-7.1-1.88,30.7845,30.7845,0,0,0-6.54.44c-.22,1.64-.8,7.48,2.4,9.26a8.7,8.7,0,0,0,8.76-.14C60.6,53.7666,60.18,48.5066,60.18,48.5066Z" style="fill:#b7b1ad"/><path d="M65.86,48.5066a16.241,16.241,0,0,1,7.1-1.88,30.7845,30.7845,0,0,1,6.54.44c.22,1.64.8,7.48-2.4,9.26a8.7,8.7,0,0,1-8.76-.14C65.42,53.7666,65.86,48.5066,65.86,48.5066Z" style="fill:#b7b1ad"/><path d="M79.44,46.3866s1.4,7.62-2.34,9.7a8.7,8.7,0,0,1-8.76-.14c-2.92-2.44-2.48-7.68-2.48-7.68" style="fill:none;stroke:#ccc;stroke-miterlimit:10;stroke-width:1.5px"/><path d="M72.96,46.3866a28.7412,28.7412,0,0,1,8,.74v.8a19.4621,19.4621,0,0,0-8-1.04,21.3435,21.3435,0,0,0-7.16,1.38A16.24,16.24,0,0,1,72.96,46.3866Z" style="fill:none;stroke:#343433;stroke-linejoin:round;stroke-width:2px"/><path d="M46.6,46.3866s-1.4,7.62,2.34,9.7a8.7,8.7,0,0,0,8.76-.14c2.9-2.44,2.48-7.7,2.48-7.7" style="fill:none;stroke:#ccc;stroke-miterlimit:10;stroke-width:1.5px"/><path d="M53.06,46.3866a28.7412,28.7412,0,0,0-8,.74v.8a19.4621,19.4621,0,0,1,8-1.04,21.3435,21.3435,0,0,1,7.16,1.38A16.24,16.24,0,0,0,53.06,46.3866Z" style="fill:none;stroke:#343433;stroke-linejoin:round;stroke-width:2px"/><path d="M65.7,48.2666a5.16,5.16,0,0,0-5.52,0" style="fill:none;stroke:#343433;stroke-linejoin:round;stroke-width:2px"/><circle cx="72.7" cy="51.0266" r="1.24" style="fill:#333"/><circle cx="53.38" cy="51.0266" r="1.24" style="fill:#333"/><path d="M67.74,62.7066H58.28a6,6,0,0,0-6,6v7.26a5.2,5.2,0,0,0,3.12,4.82,19.9994,19.9994,0,0,0,15.28,0,5.2,5.2,0,0,0,3.12-4.82v-7.24a6,6,0,0,0-5.98-6.02Q67.78,62.7063,67.74,62.7066Zm-9.46,3.5h9.46a2.52,2.52,0,0,1,2.52,2.52v3.8l-2.84,1.42H57.76l-2-1.34v-3.9A2.54,2.54,0,0,1,58.28,66.2066Z" style="fill:#874f2e"/><path d="M73.76,75.9866l-.24-5.36a19.0069,19.0069,0,0,0-.12-2.64,6.0009,6.0009,0,0,0-.92-2.32,5.82,5.82,0,0,0-4.14-2.48H57.7a5.78,5.78,0,0,0-4.14,2.48,5.34,5.34,0,0,0-.92,2.32c-.12.82,0,1.76-.12,2.64,0,1.78-.14,3.58-.24,5.36-.12-1.78-.16-3.58-.24-5.36a24.6733,24.6733,0,0,1,0-2.72,6.56,6.56,0,0,1,.9-2.66,6.36,6.36,0,0,1,4.7-2.96h10.8a6.4,6.4,0,0,1,4.7,2.96,6.28,6.28,0,0,1,.86,2.66,24.5819,24.5819,0,0,1,0,2.72Z" style="fill:#753f25"/><path d="M55.76,68.7266a2.58,2.58,0,0,1,.72-2,3,3,0,0,1,2.18-.8c1.44,0,2.9,0,4.34-.12a26.2355,26.2355,0,0,1,4.34.12,3.0808,3.0808,0,0,1,2.18.8,2.56,2.56,0,0,1,.72,2,2.5,2.5,0,0,0-2.8032-2.1546c-.0323.0043-.0646.0091-.0968.0146-1.44.1-2.9.1-4.34.12s-2.9,0-4.34-.12A2.5,2.5,0,0,0,55.7746,68.63Q55.7664,68.6781,55.76,68.7266Z" style="fill:#753f25"/><path d="M52.26,75.0066a5.7994,5.7994,0,0,0,1.68,2.8,4.2762,4.2762,0,0,0,1.22.8,4.37,4.37,0,0,0,.66.24l.78.22a26.48,26.48,0,0,0,12.84,0l.78-.22.66-.24a4.2762,4.2762,0,0,0,1.22-.8,5.7994,5.7994,0,0,0,1.68-2.8,4.92,4.92,0,0,1-.5,3.68,6,6,0,0,1-1.32,1.56,4.4552,4.4552,0,0,1-.88.58l-.82.42a17.1,17.1,0,0,1-14.44,0l-.82-.42a5.9954,5.9954,0,0,1-.88-.58,5.78,5.78,0,0,1-1.32-1.56A4.78,4.78,0,0,1,52.26,75.0066Z" style="fill:#333"/><path d="M57.5,61.6666a5.34,5.34,0,0,1,2.62.68h0a5.5,5.5,0,0,0,5.22,0h0a5.5,5.5,0,0,1,2.66-.68" style="fill:none;stroke:#674848;stroke-linecap:round;stroke-miterlimit:10;stroke-width:1.5px"/></g></g></g></g></svg>