<svg xmlns="http://www.w3.org/2000/svg" viewBox="0 0 128 128"><title>matrix-trinity</title><g id="matrix-trinity"><path d="M79.62,15.4a8.88,8.88,0,0,0-8.48-2s-6.92-4.9-18-.68C47.3,14.88,37.64,25,37.64,39.4A37.1789,37.1789,0,0,0,39.5,51.6l6.4,18.64h36s4-11.62,8.26-22.94S84.18,19,79.62,15.4Z" style="fill:#333;stroke:#333;stroke-linejoin:round;stroke-width:3px"/><path d="M112.72,91.44A8,8,0,0,0,107.04,85L80.7,81a5.66,5.66,0,0,1-4.8-5.42V66.54h-24v9.04A5.66,5.66,0,0,1,47.1,81L20.76,85a8,8,0,0,0-5.7,6.38L13.9,98.44a123.3991,123.3991,0,0,0,50,10,123.3991,123.3991,0,0,0,50-10Z" style="fill:#edccc3"/><path d="M68.9,96.12h1a6.22,6.22,0,0,0,6-6.1V75.6h0V66.54h-24v8.8h0l9.76,10a8.78,8.78,0,0,1,2.24,5.78,4.96,4.96,0,0,0,4.92,5h.08Z" style="fill:#ddbbb6"/><path d="M80.7,81l-.8-.2c-.18,9.56-4,15.28-16,15.28s-15.8-5.72-16-15.28l-.82.2-5.34.78a96.698,96.698,0,0,1-6,23.54,135.4605,135.4605,0,0,0,56.28,0,94.9181,94.9181,0,0,1-6-23.54Z" style="fill:#333;stroke:#333;stroke-linecap:round;stroke-linejoin:round;stroke-width:3px"/><path d="M51.9,68.54v7.04A5.66,5.66,0,0,1,47.1,81L20.76,85a8,8,0,0,0-5.7,6.38L13.9,98.44a123.3991,123.3991,0,0,0,50,10,123.3991,123.3991,0,0,0,50-10l-1.18-7A8,8,0,0,0,107.04,85L80.7,81a5.66,5.66,0,0,1-4.8-5.42V68.54" style="fill:none;stroke:#333;stroke-linejoin:round;stroke-width:3px"/><path d="M63.9,15.5c16,0,21,9.18,21,20v4c3.46,0,4.56,3.42,4,8-.48,3.9-2,8-6,8v3c0,6-4.78,8.72-10.36,14.52A10.82,10.82,0,0,1,63.9,76.5,10.84,10.84,0,0,1,55.26,73C49.68,67.2,44.9,64.48,44.9,58.48v-3c-4,0-5.52-4-6-8-.56-4.58.54-8,4-8v-4C42.9,24.68,47.9,15.5,63.9,15.5Z" style="fill:#edccc3"/><path d="M84.9,39.5v-4c0-10.82-5-20-21-20a31.459,31.459,0,0,0-5.82.48c.14,4.34.26,10.76.26,20.3a7.82,7.82,0,0,1-2.44,5.76.88.88,0,0,0-.0156,1.2444L55.9,43.3a.86.86,0,0,0,.46.28,5.18,5.18,0,0,1,3.54,3.76.92.92,0,0,0,1.0618.7519q.0293-.005.0582-.0119a.88.88,0,0,0,.4-.16,2.92,2.92,0,0,1,1.18-.62.94.94,0,0,1,1.1712.6289l.0088.0311a1.1813,1.1813,0,0,1,0,.28v4.14a2.22,2.22,0,0,0,1.26,1.88c1.14.62.32,2.8-1.26,2.8h-.26a3.879,3.879,0,0,1-1.56-.44c-1.48-.74-2.86.76-2.54,1.34s.66,0,2.16.7a4.94,4.94,0,0,0,2.2.52c1.02,0,0,7,0,7.36a.78.78,0,0,0,.62.76c2.62.6,4,5-.62,6h0a2.48,2.48,0,0,0-2,2.42v.72c.72,0,1.42.12,2.14.14A10.82,10.82,0,0,0,72.54,73c5.58-5.8,10.36-8.52,10.36-14.52v-3c4,0,5.52-4,6-8C89.46,43,88.36,39.5,84.9,39.5Z" style="fill:#e5c2ba"/><path d="M63.9,15.5c16,0,21,9.18,21,20v4c3.46,0,4.56,3.42,4,8-.48,3.9-2,8-6,8v3c0,6-5.12,8.32-10.42,14.4a11.16,11.16,0,0,1-8.58,3.6A11.36,11.36,0,0,1,55.2,73c-5.3-6-10.3-8.4-10.3-14.4v-3c-4,0-5.52-4.1-6-8-.56-4.58.54-8,4-8v-4C42.9,24.68,47.9,15.5,63.9,15.5Z" style="fill:none;stroke:#333;stroke-linejoin:round;stroke-width:3px"/><path d="M63.9,12.24c-18,0-24,13.14-24,21.02v3.02c0,6.88,5.06,8.24,5.06,13.52v-2c0-3.4.86-7.82,4.94-9.64,14-6.24,18.14-7.82,22-13.8,2,10,4,12,8,16a7.36,7.36,0,0,1,3,6v3.8c0-4.4,4.92-6.64,4.92-13.52V33.26C87.9,25.38,81.9,12.22,63.9,12.24Z" style="fill:#333;stroke:#333;stroke-linecap:round;stroke-linejoin:round;stroke-width:2px"/><path d="M47,43.66c4.6-2.3,13,.38,14.66,2,3.12,3.12-2,7.44-7.64,7.44S42.38,45.94,47,43.66Z" style="fill:#333"/><path d="M47.48,44.86a6.76,6.76,0,0,1,5.68-.64c1.48.86,0,2.98-2.14,3.5S45.9,46.16,47.48,44.86Z" style="fill:#3d3d3d"/><path d="M80.86,43.66c-4.6-2.3-13,.38-14.66,2-3.12,3.12,2,7.44,7.64,7.44S85.44,45.94,80.86,43.66Z" style="fill:#333"/><line x1="59.88" y1="47.14" x2="67.88" y2="47.14" style="fill:none;stroke:#333;stroke-miterlimit:10;stroke-width:2px"/><path d="M73.4,44.48a6.84,6.84,0,0,0-5.54,1.66c-1.02,1.4,1.24,2.76,3.42,2.42S75.32,45,73.4,44.48Z" style="fill:#3d3d3d"/><line x1="64.04" y1="59.98" x2="64.04" y2="61.12" style="fill:none;stroke:#d8b5af;stroke-linecap:round;stroke-miterlimit:10;stroke-width:1.5px"/><line x1="58.02" y1="64.38" x2="57.4" y2="65.58" style="fill:none;stroke:#d8b5af;stroke-linecap:round;stroke-miterlimit:10;stroke-width:1.5px"/><line x1="70.22" y1="64.38" x2="70.68" y2="65.72" style="fill:none;stroke:#d8b5af;stroke-linecap:round;stroke-miterlimit:10;stroke-width:1.5px"/><path d="M65.68,62.76a3.8408,3.8408,0,0,1-1.56.4c-.4,0-.44,0-1.34-.4-1.62-.64-1.7,1.32-4.68,2.4L59.9,67a4.48,4.48,0,0,0,3.12,1.12h2A5.18,5.18,0,0,0,68.4,67l1.7-1.78C67.3,64.14,67.28,62.12,65.68,62.76Z" style="fill:#a56659"/><path d="M70.1,65.16c-2,0-2.98-1-6,0h0c-2.98-1-4,0-6,0" style="fill:none;stroke:#743f40;stroke-linecap:round;stroke-miterlimit:10"/><path d="M60.12,58.28c2,0,2,1,4,1s2-1,4-1" style="fill:none;stroke:#ba8d86;stroke-linecap:round;stroke-miterlimit:10;stroke-width:1.5px"/><path d="M72.58,21.18a16.94,16.94,0,0,1-2.4,8.74,24.5606,24.5606,0,0,1-6.28,6.52,65.1831,65.1831,0,0,0-6.66,5.06,10.82,10.82,0,0,0-3.34,7.1H52.52a12,12,0,0,1,2.74-8.74A32.8222,32.8222,0,0,1,62,34a24.9185,24.9185,0,0,0,6-5.44A17.5007,17.5007,0,0,0,71.22,21Z" style="fill:#333"/></g></svg>