<svg xmlns="http://www.w3.org/2000/svg" viewBox="0 0 128 128"><title>muslim-man</title><g id="muslim-arab-man"><g id="muslim-attire-white-male"><g id="muslim-attire-white-male-2"><g id="Icons"><path d="M93.5,53.94h0l-3.38-8.76a76.8586,76.8586,0,0,1-3.4-13.88C84.6,18.66,75.56,11.54,61.12,11.54S37.64,18.66,35.6,31.3a75.3184,75.3184,0,0,1-3.48,13.88l-3.48,8.76h0a17.52,17.52,0,0,0,.88,16.34l3.06,5.1a17.6,17.6,0,0,1,2.5,9.06v15.1h52V84.44a17.6,17.6,0,0,1,2.5-9.06l3.06-5.1A17.46,17.46,0,0,0,93.5,53.94Z" style="fill:#8c2943"/><rect x="43.18" y="37.52" width="4" height="4" style="fill:#a3455d"/><rect x="39.18" y="41.52" width="4" height="4" style="fill:#a3455d"/><rect x="47.18" y="41.52" width="4" height="4" style="fill:#a3455d"/><rect x="55.18" y="41.52" width="4" height="4" style="fill:#a3455d"/><rect x="63.18" y="41.52" width="4" height="4" style="fill:#a3455d"/><rect x="71.18" y="41.52" width="4" height="4" style="fill:#a3455d"/><rect x="79.18" y="41.52" width="4" height="4" style="fill:#a3455d"/><rect x="83.18" y="45.52" width="4" height="4" style="fill:#a3455d"/><rect x="75.18" y="45.52" width="4" height="4" style="fill:#a3455d"/><rect x="67.18" y="45.52" width="4" height="4" style="fill:#a3455d"/><rect x="59.18" y="45.52" width="4" height="4" style="fill:#a3455d"/><rect x="51.18" y="45.52" width="4" height="4" style="fill:#a3455d"/><rect x="43.18" y="45.52" width="4" height="4" style="fill:#a3455d"/><rect x="35.18" y="45.52" width="4" height="4" style="fill:#a3455d"/><rect x="31.18" y="49.52" width="4" height="4" style="fill:#a3455d"/><rect x="39.18" y="49.52" width="4" height="4" style="fill:#a3455d"/><rect x="47.18" y="49.52" width="4" height="4" style="fill:#a3455d"/><rect x="55.18" y="49.52" width="4" height="4" style="fill:#a3455d"/><rect x="63.18" y="49.52" width="4" height="4" style="fill:#a3455d"/><rect x="71.18" y="49.52" width="4" height="4" style="fill:#a3455d"/><rect x="79.18" y="49.52" width="4" height="4" style="fill:#a3455d"/><rect x="87.18" y="49.52" width="4" height="4" style="fill:#a3455d"/><rect x="91.18" y="53.52" width="4" height="4" style="fill:#a3455d"/><rect x="83.18" y="53.52" width="4" height="4" style="fill:#a3455d"/><rect x="75.18" y="53.52" width="4" height="4" style="fill:#a3455d"/><rect x="67.18" y="53.52" width="4" height="4" style="fill:#a3455d"/><rect x="59.18" y="53.52" width="4" height="4" style="fill:#a3455d"/><rect x="51.18" y="53.52" width="4" height="4" style="fill:#a3455d"/><rect x="43.18" y="53.52" width="4" height="4" style="fill:#a3455d"/><rect x="35.18" y="53.52" width="4" height="4" style="fill:#a3455d"/><rect x="27.18" y="53.52" width="4" height="4" style="fill:#a3455d"/><rect x="31.18" y="57.52" width="4" height="4" style="fill:#a3455d"/><rect x="27.18" y="61.52" width="4" height="4" style="fill:#a3455d"/><rect x="35.18" y="61.52" width="4" height="4" style="fill:#a3455d"/><rect x="43.18" y="61.52" width="4" height="4" style="fill:#a3455d"/><rect x="51.18" y="61.52" width="4" height="4" style="fill:#a3455d"/><rect x="59.18" y="61.52" width="4" height="4" style="fill:#a3455d"/><rect x="67.18" y="61.52" width="4" height="4" style="fill:#a3455d"/><rect x="75.18" y="61.52" width="4" height="4" style="fill:#a3455d"/><rect x="83.18" y="61.52" width="4" height="4" style="fill:#a3455d"/><rect x="91.18" y="61.52" width="4" height="4" style="fill:#a3455d"/><rect x="87.18" y="65.52" width="4" height="4" style="fill:#a3455d"/><rect x="79.18" y="65.52" width="4" height="4" style="fill:#a3455d"/><rect x="71.18" y="65.52" width="4" height="4" style="fill:#a3455d"/><rect x="63.18" y="65.52" width="4" height="4" style="fill:#a3455d"/><rect x="55.18" y="65.52" width="4" height="4" style="fill:#a3455d"/><rect x="47.18" y="65.52" width="4" height="4" style="fill:#a3455d"/><rect x="39.18" y="65.52" width="4" height="4" style="fill:#a3455d"/><rect x="31.18" y="65.52" width="4" height="4" style="fill:#a3455d"/><rect x="35.18" y="69.52" width="4" height="4" style="fill:#a3455d"/><rect x="43.18" y="69.52" width="4" height="4" style="fill:#a3455d"/><rect x="51.18" y="69.52" width="4" height="4" style="fill:#a3455d"/><rect x="59.18" y="69.52" width="4" height="4" style="fill:#a3455d"/><rect x="67.18" y="69.52" width="4" height="4" style="fill:#a3455d"/><rect x="75.18" y="69.52" width="4" height="4" style="fill:#a3455d"/><rect x="83.18" y="69.52" width="4" height="4" style="fill:#a3455d"/><path d="M87.18,73.54v4h1.24A21.4414,21.4414,0,0,1,89.5,75.4l1.12-1.86Z" style="fill:#a3455d"/><rect x="79.18" y="73.52" width="4" height="4" style="fill:#a3455d"/><rect x="71.18" y="73.52" width="4" height="4" style="fill:#a3455d"/><rect x="63.18" y="73.52" width="4" height="4" style="fill:#a3455d"/><rect x="55.18" y="73.52" width="4" height="4" style="fill:#a3455d"/><rect x="47.18" y="73.52" width="4" height="4" style="fill:#a3455d"/><rect x="39.18" y="73.52" width="4" height="4" style="fill:#a3455d"/><path d="M35.18,73.54h-3.7L32.6,75.4a14.2963,14.2963,0,0,1,1.08,2.14h1.5Z" style="fill:#a3455d"/><rect x="35.18" y="77.52" width="4" height="4" style="fill:#a3455d"/><rect x="43.18" y="77.52" width="4" height="4" style="fill:#a3455d"/><rect x="51.18" y="77.52" width="4" height="4" style="fill:#a3455d"/><rect x="59.18" y="77.52" width="4" height="4" style="fill:#a3455d"/><rect x="67.18" y="77.52" width="4" height="4" style="fill:#a3455d"/><rect x="75.18" y="77.52" width="4" height="4" style="fill:#a3455d"/><rect x="83.18" y="77.52" width="4" height="4" style="fill:#a3455d"/><rect x="79.18" y="81.52" width="4" height="4" style="fill:#a3455d"/><rect x="71.18" y="81.52" width="4" height="4" style="fill:#a3455d"/><rect x="63.18" y="81.52" width="4" height="4" style="fill:#a3455d"/><rect x="55.18" y="81.52" width="4" height="4" style="fill:#a3455d"/><rect x="47.18" y="81.52" width="4" height="4" style="fill:#a3455d"/><rect x="39.18" y="81.52" width="4" height="4" style="fill:#a3455d"/><rect x="35.18" y="85.52" width="4" height="4" style="fill:#a3455d"/><rect x="43.18" y="85.52" width="4" height="4" style="fill:#a3455d"/><rect x="51.18" y="85.52" width="4" height="4" style="fill:#a3455d"/><rect x="59.18" y="85.52" width="4" height="4" style="fill:#a3455d"/><rect x="67.18" y="85.52" width="4" height="4" style="fill:#a3455d"/><rect x="75.18" y="85.52" width="4" height="4" style="fill:#a3455d"/><rect x="83.18" y="85.52" width="4" height="4" style="fill:#a3455d"/><rect x="79.18" y="89.52" width="4" height="4" style="fill:#a3455d"/><rect x="71.18" y="89.52" width="4" height="4" style="fill:#a3455d"/><rect x="63.18" y="89.52" width="4" height="4" style="fill:#a3455d"/><rect x="55.18" y="89.52" width="4" height="4" style="fill:#a3455d"/><rect x="47.18" y="89.52" width="4" height="4" style="fill:#a3455d"/><rect x="39.18" y="89.52" width="4" height="4" style="fill:#a3455d"/><rect x="35.18" y="93.52" width="4" height="4" style="fill:#a3455d"/><rect x="43.18" y="93.52" width="4" height="4" style="fill:#a3455d"/><rect x="51.18" y="93.52" width="4" height="4" style="fill:#a3455d"/><rect x="59.18" y="93.52" width="4" height="4" style="fill:#a3455d"/><rect x="67.18" y="93.52" width="4" height="4" style="fill:#a3455d"/><rect x="75.18" y="93.52" width="4" height="4" style="fill:#a3455d"/><rect x="83.18" y="93.52" width="4" height="4" style="fill:#a3455d"/><rect x="79.18" y="97.52" width="4" height="4" style="fill:#a3455d"/><rect x="71.18" y="97.52" width="4" height="4" style="fill:#a3455d"/><rect x="63.18" y="97.52" width="4" height="4" style="fill:#a3455d"/><rect x="55.18" y="97.52" width="4" height="4" style="fill:#a3455d"/><rect x="47.18" y="97.52" width="4" height="4" style="fill:#a3455d"/><rect x="39.18" y="97.52" width="4" height="4" style="fill:#a3455d"/><rect x="39.18" y="57.52" width="4" height="4" style="fill:#a3455d"/><rect x="47.18" y="57.52" width="4" height="4" style="fill:#a3455d"/><rect x="55.18" y="57.52" width="4" height="4" style="fill:#a3455d"/><rect x="63.18" y="57.52" width="4" height="4" style="fill:#a3455d"/><rect x="71.18" y="57.52" width="4" height="4" style="fill:#a3455d"/><rect x="79.18" y="57.52" width="4" height="4" style="fill:#a3455d"/><rect x="87.18" y="57.52" width="4" height="4" style="fill:#a3455d"/><rect x="51.18" y="37.52" width="4" height="4" style="fill:#a3455d"/><rect x="55.18" y="33.52" width="4" height="4" style="fill:#a3455d"/><rect x="63.18" y="33.52" width="4" height="4" style="fill:#a3455d"/><rect x="59.18" y="37.52" width="4" height="4" style="fill:#a3455d"/><rect x="67.18" y="37.52" width="4" height="4" style="fill:#a3455d"/><rect x="75.18" y="37.52" width="4" height="4" style="fill:#a3455d"/><path d="M113.12,95.72a11.3,11.3,0,0,0-9-9l-29-5.18v-10h-28v10l-29,5.18a11.3,11.3,0,0,0-9,9l-1,5a133.24,133.24,0,0,0,106,0Z" style="fill:#dcb091"/><polygon points="47.12 77.56 67.12 89.56 75.12 89.56 75.12 71.56 47.12 71.56 47.12 77.56" style="fill:#d2a385"/><path d="M113.12,95.72a11.3,11.3,0,0,0-9-9l-29-5.18a19.38,19.38,0,0,1-27.4.6l-.6-.6-29,5.18a11.3,11.3,0,0,0-9,9l-1,5a133.24,133.24,0,0,0,106,0Z" style="fill:#d5e7e5"/><path d="M113.12,95.72a11.3,11.3,0,0,0-9-9l-29-5.18a8.66,8.66,0,0,0,7,8.52l22,4.18a11.28,11.28,0,0,1,8.5,7.3l1.5-.72Z" style="fill:#e6edec"/><path d="M18.12,86.72a11.3,11.3,0,0,0-9,9l-1,5,1.5.7a11.1,11.1,0,0,1,8.5-7.18l22-4.22a8.64,8.64,0,0,0,7-8.48Z" style="fill:#edf7f6"/><path d="M47.12,81.54c-7.3,1.7-26,4.42-29,5.16a11.3,11.3,0,0,0-9,9l-1,5a133.24,133.24,0,0,0,106,0l-1-5a11.3,11.3,0,0,0-9-9c-2.66-.66-21.42-3.46-29-5.16" style="fill:none;stroke:#333;stroke-linecap:round;stroke-linejoin:round;stroke-width:3px"/><line x1="47.12" y1="73.56" x2="47.12" y2="81.56" style="fill:none;stroke:#333;stroke-linejoin:round;stroke-width:3px"/><line x1="75.12" y1="73.56" x2="75.12" y2="81.56" style="fill:none;stroke:#333;stroke-linejoin:round;stroke-width:3px"/><path d="M83.14,42.04v-5c0-12.7-6.58-21.5-22-21.5s-22,8.8-22,21.5v5c-3.84,0-4.58,3.74-3.68,8,.76,3.5,2.66,8.5,5.68,8.5v5c0,4.6,6.36,11.52,12.98,15a17.379,17.379,0,0,0,7,1.04,15.0207,15.0207,0,0,0,6.5-1.04c6.64-3.48,13.52-10.4,13.52-15v-5c3,0,5.22-4.94,6-8.48C88.12,45.78,86.96,42.14,83.14,42.04Z" style="fill:#dcb091"/><path d="M83.14,42.04v-5c0-12.7-6.58-21.5-22-21.5a34.2649,34.2649,0,0,0-6,.52V36.78c0,4-4,4.46-4,6.46a11.7807,11.7807,0,0,1,6,1.76h2.98a1,1,0,0,1,1,1v4.96A2.9,2.9,0,0,0,62.3,53.3a2,2,0,0,1-1.18,3.62c-1.48,0-2-1-4-1a2,2,0,0,0-1.7.9.4607.4607,0,0,0,.38.68c3.28.12,2.72,1.22,5.36,1.24v8.8a1,1,0,0,0,1,1,3,3,0,0,1,0,6h-3a4,4,0,0,0-4,3.42,3.7582,3.7582,0,0,0,.12.98,17.6206,17.6206,0,0,0,5.78.66,15.0207,15.0207,0,0,0,6.5-1.04c6.64-3.48,13.52-10.4,13.52-15v-5c3,0,5.22-4.94,6-8.48C88.12,45.78,86.96,42.14,83.14,42.04Z" style="fill:#cba082"/><path d="M79.4,46.04l-.5,4.5a3.84,3.84,0,0,1-1.24,2.82l-2.62,2.48a7.82,7.82,0,0,0-2.48,5.7v13.8c4.72-3.62,8.58-8.36,8.58-11.82v-5c3,0,5.22-4.94,6-8.48.98-4.28-.18-8-4-8V41.1A6.7,6.7,0,0,0,79.4,46.04Z" style="fill:#c4987a"/><path d="M44.68,53.36a3.86,3.86,0,0,1-1.24-2.82l-.5-4.5a6.7,6.7,0,0,0-3.8-4.98v.98c-3.84,0-4.58,3.74-3.68,8,.76,3.5,2.66,8.5,5.68,8.5v5c0,3.56,3.84,8.54,8.64,12.2V61.54a7.82,7.82,0,0,0-2.48-5.66Z" style="fill:#cba082"/><path d="M83.14,42.04v-5c0-12.7-6.58-21.5-22-21.5s-22,8.8-22,21.5v5c-3.84,0-4.94,3.26-4,7.54.76,3.54,3.04,8.96,6,8.96v5c0,4.6,6.36,11.52,12.98,15a17.379,17.379,0,0,0,7,1.04,15.0207,15.0207,0,0,0,6.5-1.04c6.64-3.48,13.52-10.4,13.52-15v-5c3,0,5.3-5.42,6-8.96C88.12,45.3,86.96,42.14,83.14,42.04Z" style="fill:none;stroke:#333;stroke-linejoin:round;stroke-width:3px"/><path d="M75.12,81.54a19.38,19.38,0,0,1-27.4.6l-.6-.6" style="fill:none;stroke:#333;stroke-linejoin:round;stroke-width:3px"/><line x1="61.12" y1="93.54" x2="61.12" y2="94.54" style="fill:none;stroke:#333;stroke-linecap:round;stroke-linejoin:round;stroke-width:3px"/><line x1="61.12" y1="101.54" x2="61.12" y2="102.54" style="fill:none;stroke:#333;stroke-linecap:round;stroke-linejoin:round;stroke-width:3px"/><line x1="61.12" y1="109.56" x2="61.12" y2="110.56" style="fill:none;stroke:#333;stroke-linecap:round;stroke-linejoin:round;stroke-width:3px"/><path d="M77.12,17.54c-1.72-3.86-4-4-16-4-18,0-24,10-24,20s4,10,4,14v11h0v5c0,4.6,6.36,11.52,12.98,15a17.379,17.379,0,0,0,7,1.04,15.0207,15.0207,0,0,0,6.5-1.04c6.54-3.42,13.28-10.18,13.5-14.78V47.54c0-4,3.8-4,3.8-14S81.04,17.54,77.12,17.54Zm-8,50.9h0a2,2,0,0,1-2,2H65.94a2,2,0,0,1-1.4-.58l-.84-.82a2,2,0,0,0-1.4-.6H59.94a2,2,0,0,0-1.4.6l-.84.82a2,2,0,0,1-1.4.58H55.12a2,2,0,0,1-2-2h0V64.88a2,2,0,0,1,1.54-2,29.3221,29.3221,0,0,1,6.38-1.06,28.7784,28.7784,0,0,1,6.6,1.08,2,2,0,0,1,1.5,2Zm6.42-6.9a6,6,0,0,1-2.42,3.1,6,6,0,0,0-4.42-5.58,32.7811,32.7811,0,0,0-7.66-1.22,33.198,33.198,0,0,0-7.44,1.2,6,6,0,0,0-4.48,5.64,6,6,0,0,1-2.42-3.14c-1.24-3.58-3.58-10.8-3.58-14.36V41.14a1.68,1.68,0,0,1,1.6-1.66c14.5-1.06,16-9.74,24.4-9.74a11.1,11.1,0,0,1,6,2V33.9a10.3592,10.3592,0,0,0,1.18,4.84l2,2a2.52,2.52,0,0,1,.74,1.78v4.46C79.12,50.62,76.76,57.96,75.54,61.54Z" style="fill:#333"/><path d="M31.18,49.54l10-12a4.82,4.82,0,0,1,4-2h4a4.3,4.3,0,0,0,4-2c2-3.78,2.9-4,4-4h8c.9,0,2.28.2,4,4a4.16,4.16,0,0,0,4,2h4a4.82,4.82,0,0,1,4,2l10,12c.48.58,1.36,2,1.38,2l-2.44-6.36a76.8586,76.8586,0,0,1-3.4-13.88C84.6,18.66,75.56,11.54,61.12,11.54S37.64,18.66,35.6,31.3a75.3184,75.3184,0,0,1-3.48,13.88l-2.18,5.44A11.8649,11.8649,0,0,0,31.18,49.54Z" style="fill:#d05a6b"/><polygon points="35.18 43.54 36.16 43.54 39.18 39.92 39.18 39.54 35.18 39.54 35.18 43.54" style="fill:#e39ca6"/><polygon points="83.18 39.54 83.18 39.92 86.18 43.54 87.18 43.54 87.18 39.54 83.18 39.54" style="fill:#e39ca6"/><path d="M39.18,39.54h.32l1.68-2a5.8011,5.8011,0,0,1,2-1.58v-.42h-4Z" style="fill:#e39ca6"/><path d="M83.18,35.54h-4v.4a5.38,5.38,0,0,1,2,1.58l1.68,2h.32Z" style="fill:#e39ca6"/><rect x="83.18" y="31.54" width="4" height="4" style="fill:#e39ca6"/><rect x="75.18" y="31.54" width="4" height="4" style="fill:#e39ca6"/><path d="M71.18,31.54h-4v.86a10.18,10.18,0,0,1,2,3.14h2Z" style="fill:#e39ca6"/><path d="M55.18,31.54h-4v4h2a13.5189,13.5189,0,0,1,2-3.1Z" style="fill:#e39ca6"/><rect x="43.18" y="31.54" width="4" height="4" style="fill:#e39ca6"/><rect x="35.18" y="31.54" width="4" height="4" style="fill:#e39ca6"/><rect x="39.18" y="27.54" width="4" height="4" style="fill:#e39ca6"/><path d="M39.18,27.54v-4H38.12a22.8561,22.8561,0,0,0-1.6,4Z" style="fill:#e39ca6"/><rect x="47.18" y="27.54" width="4" height="4" style="fill:#e39ca6"/><path d="M59.18,27.54h-4v2.88a2.38,2.38,0,0,1,2-.9h2Z" style="fill:#e39ca6"/><path d="M63.18,29.54h2a2.64,2.64,0,0,1,2,.86V27.54h-4Z" style="fill:#e39ca6"/><rect x="71.18" y="27.54" width="4" height="4" style="fill:#e39ca6"/><rect x="79.18" y="27.54" width="4" height="4" style="fill:#e39ca6"/><path d="M84.12,23.54h-1v4h2.62A24.5843,24.5843,0,0,0,84.12,23.54Z" style="fill:#e39ca6"/><rect x="75.18" y="23.54" width="4" height="4" style="fill:#e39ca6"/><rect x="67.18" y="23.54" width="4" height="4" style="fill:#e39ca6"/><rect x="59.18" y="23.54" width="4" height="4" style="fill:#e39ca6"/><rect x="51.18" y="23.54" width="4" height="4" style="fill:#e39ca6"/><rect x="43.18" y="23.54" width="4" height="4" style="fill:#e39ca6"/><rect x="47.18" y="19.54" width="4" height="4" style="fill:#e39ca6"/><rect x="55.18" y="19.54" width="4" height="4" style="fill:#e39ca6"/><rect x="63.18" y="19.54" width="4" height="4" style="fill:#e39ca6"/><rect x="71.18" y="19.54" width="4" height="4" style="fill:#e39ca6"/><rect x="67.18" y="15.54" width="4" height="4" style="fill:#e39ca6"/><rect x="75.18" y="15.54" width="4" height="4" style="fill:#e39ca6"/><rect x="59.18" y="15.54" width="4" height="4" style="fill:#e39ca6"/><rect x="51.18" y="15.54" width="4" height="4" style="fill:#e39ca6"/><rect x="43.18" y="15.54" width="4" height="4" style="fill:#e39ca6"/><path d="M51.18,12.9a24.53,24.53,0,0,0-4,1.6v1.04h4Z" style="fill:#e39ca6"/><rect x="55.18" y="11.54" width="4" height="4" style="fill:#e39ca6"/><rect x="63.18" y="11.54" width="4" height="4" style="fill:#e39ca6"/><path d="M75.18,14.56a24.588,24.588,0,0,0-4-1.62v2.6h4Z" style="fill:#e39ca6"/><path d="M93.68,53.9l-3.56-8.72a76.8586,76.8586,0,0,1-3.4-13.88c-2.08-12.64-11.14-19.76-25.6-19.76S37.6,18.66,35.56,31.3a75.3188,75.3188,0,0,1-3.44,13.88l-3.6,8.74" style="fill:none;stroke:#333;stroke-miterlimit:10;stroke-width:3px"/><line x1="37.18" y1="19.52" x2="85.18" y2="19.52" style="fill:none;stroke:#333;stroke-linecap:round;stroke-miterlimit:10;stroke-width:3px"/><line x1="35.18" y1="23.52" x2="87.18" y2="23.52" style="fill:none;stroke:#333;stroke-linecap:round;stroke-miterlimit:10;stroke-width:3px"/><path d="M64.12,62.98a5.66,5.66,0,0,0-2.36.26,1.22,1.22,0,0,1-.84,0,5.7392,5.7392,0,0,0-2.36-.26c-1.34.2-1.48,1.04-4.18,2.5l2.38,1.46a4.58,4.58,0,0,0,2.54.82h4.14a4.42,4.42,0,0,0,2.54-.82l2.46-1.4C65.64,64.08,65.36,63.18,64.12,62.98Z" style="fill:#916953"/><path d="M68.34,65.54c-2,0-2.52-.78-4.48-.78a13.4564,13.4564,0,0,0-2.58.34,15.0388,15.0388,0,0,0-2.58-.34c-1.88,0-2.3.72-4.42.72" style="fill:none;stroke:#674848;stroke-linecap:round;stroke-miterlimit:10;stroke-width:1.5px"/><path d="M46.12,43.86a12,12,0,0,1,2.9-1.1,11.1571,11.1571,0,0,1,3.1-.18,19.44,19.44,0,0,1,5.64,2h0a.46.46,0,0,1,.24.6.48.48,0,0,1-.46.28,24.5474,24.5474,0,0,1-2.96-.52c-.94-.18-1.86-.28-2.74-.42a14.5989,14.5989,0,0,0-5.5.12h0a.48.48,0,0,1-.54-.36A.44.44,0,0,1,46.12,43.86Z" style="fill:#333"/><path d="M75.92,44.7a14.58,14.58,0,0,0-5.5-.12c-.9.14-1.8.24-2.74.42a24.5376,24.5376,0,0,1-2.96.54.44.44,0,0,1-.4782-.3982A.4162.4162,0,0,1,64.24,45.1a.46.46,0,0,1,.28-.46h0a19.4388,19.4388,0,0,1,5.64-2,12.8619,12.8619,0,0,1,3.16.18,10.3613,10.3613,0,0,1,2.9,1.1.4624.4624,0,1,1-.34.86h0Z" style="fill:#333"/><circle cx="52.18" cy="48.02" r="1.42" style="fill:#333"/><circle cx="70.1" cy="48.02" r="1.42" style="fill:#333"/><path d="M56.5,57.36A5.281,5.281,0,0,1,59,58h0a5.16,5.16,0,0,0,5,0h0a5.281,5.281,0,0,1,2.5-.64" style="fill:none;stroke:#674848;stroke-linecap:round;stroke-miterlimit:10;stroke-width:1.5px"/><path d="M87.02,84.44c0-6.92,3.66-10.48,5.54-14.2a18.38,18.38,0,0,0-1.38-20.7c-6.7-9-10.9-14-14-14-2.6-.2-6.74.78-8-2-1.72-3.8-3.1-4-4-4H56.92c-.9,0-2.28.2-4,4-1.24,2.78-5.48,1.8-8,2-3.1,0-7.3,5-14,14a18.36,18.36,0,0,0-1.38,20.72c1.7,3.38,5.54,7.22,5.54,14.2" style="fill:none;stroke:#333;stroke-miterlimit:10;stroke-width:3px"/></g></g></g></g></svg>