<svg xmlns="http://www.w3.org/2000/svg" viewBox="0 0 128 128"><title>muslim-woman</title><g id="muslim-arab-woman"><g id="muslim-attire-white-female"><g id="muslim-attire-white-female-2"><g id="Icons"><g id="Women"><path d="M112.8556,96.0227a8,8,0,0,0-5.68-6.38l-31.14-8.52v-10h-24v10l-31.14,8.52a8,8,0,0,0-5.7,6.38l-1.16,7.1a123.3991,123.3991,0,0,0,50,10,123.7993,123.7993,0,0,0,50-10Z" style="fill:#e4b397"/><path d="M64.0356,113.1227a123.7993,123.7993,0,0,0,50-10l-1.18-7.02a8,8,0,0,0-5.68-6.38l-28-7.72c-2,2.22-7.7,7.8-15.24,7.8s-13.28-5.58-15.24-7.8l-28,7.64a8,8,0,0,0-5.7,6.38l-.96,7.1A123.3991,123.3991,0,0,0,64.0356,113.1227Z" style="fill:#39a284"/><path d="M59.3956,89.1227l1.82,1.88a10.54,10.54,0,0,1,2.82,7.14v14.98a123.7993,123.7993,0,0,0,50-10l-1.04-6.22c-8-1.78-26.96-6.14-28.96-6.6a7.32,7.32,0,0,1-5.88-7.18c-.6.58-1.3,1.22-2.12,1.88a17.64,17.64,0,0,1-10.6,4.66h-1.4a14.5148,14.5148,0,0,1-1.86-.12A21.6794,21.6794,0,0,1,59.3956,89.1227Z" style="fill:#2e8d70"/><path d="M48.7956,82.0027l-28,7.64a8,8,0,0,0-5.56,5.84c6.66-1.82,28.5-7.86,30.8-8.36a10.88,10.88,0,0,0,4.84-3.02A25.762,25.762,0,0,1,48.7956,82.0027Z" style="fill:#49b996"/><line x1="76.0356" y1="85.1227" x2="76.0356" y2="76.8227" style="fill:none;stroke:#343433;stroke-miterlimit:10;stroke-width:3px"/><line x1="52.0356" y1="85.1227" x2="52.0356" y2="76.8227" style="fill:none;stroke:#343433;stroke-miterlimit:10;stroke-width:3px"/><path d="M76.0356,81.1227l31.14,8.52a8,8,0,0,1,5.68,6.38l1.18,7.1a123.7993,123.7993,0,0,1-50,10,123.3991,123.3991,0,0,1-50-10l1.16-7.02a8,8,0,0,1,5.7-6.38l31.14-8.6" style="fill:none;stroke:#343433;stroke-linecap:round;stroke-linejoin:round;stroke-width:3px"/><path d="M64.0356,18.1027c16,0,21,9.18,21,20v4c3.46,0,4.56,3.4,4,8-.48,4-2,8-6,8v3.02c0,6-4.84,8.58-10.42,14.38a9.72,9.72,0,0,1-8.58,3.62,10,10,0,0,1-8.7-3.62c-5.58-5.82-10.3-8.38-10.3-14.38v-3c-4,0-5.52-4.1-6-8-.56-4.6.54-8,4-8v-4C43.0356,27.2827,48.0356,18.1027,64.0356,18.1027Z" style="fill:#e4b397"/><path d="M85.0356,42.1027v-4c0-10.82-5-20-21-20a33.246,33.246,0,0,0-5.5.42v20.74a7.8,7.8,0,0,1-2.5,5.86.9.9,0,0,0,.4,1.54,5.16,5.16,0,0,1,3.76,3.76.98.98,0,0,0,1.54.58,3.5016,3.5016,0,0,1,1.16-.64.98.98,0,0,1,1.22.96v4.14a2.22,2.22,0,0,0,1.24,1.88c1.14.64.32,2.8-1.24,2.8h0a3.3794,3.3794,0,0,1-1.78-.46c-1.48-.74-2.86.78-2.54,1.36s.78-.1,2.22.6a4.7792,4.7792,0,0,0,2.18.64v7.36a.72.72,0,0,0,.58.76c2.62.62,4,4.98-.62,6h0a2.48,2.48,0,0,0-2,2.4v.32a9.99,9.99,0,0,0,2,0,9.72,9.72,0,0,0,8.58-3.62c5.46-5.8,10.3-8.38,10.3-14.38v-3.02c4,0,5.52-4,6-8C89.5956,45.5027,88.4956,42.1027,85.0356,42.1027Z" style="fill:#e1ab90"/><path d="M83.3556,58.0827c3.76-.22,5.22-4.2,5.68-8,.56-4.6-.54-8-4-8v-4c0-10.82-5-20-21-20s-21,9.18-21,20v4c-3.46,0-4.56,3.4-4,8,.48,3.9,2,8,6,8v3.04a18.3,18.3,0,0,0,3.8,8.86v-20.86c.18-9.42,2.34-10,12.68-14.12a10.42,10.42,0,0,1,7.84,0c15.86,6.72,14,10.62,14,14Z" style="fill:#e1ab90"/><path d="M89.0356,50.1027c.56-4.6-.54-8-4-8v-4c0-10.82-5-20-21-20a33.51,33.51,0,0,0-5.52.42v17.68s2.52-.86,3.56-1.26a6,6,0,0,1,4.26,0c13.48,6.76,13.36,5.86,13.06,15.44v18.52a10.76,10.76,0,0,0,3.64-7.78v-3.02C87.0356,58.1027,88.5556,54.0027,89.0356,50.1027Z" style="fill:#d6a28b"/><path d="M66.0356,100.2227a1.9,1.9,0,1,1,0-.38A1.2229,1.2229,0,0,1,66.0356,100.2227Z" style="fill:#333"/><path d="M66.0356,107.2227a1.9,1.9,0,1,1,0-.38A1.2229,1.2229,0,0,1,66.0356,107.2227Z" style="fill:#333"/><path d="M47.1756,45.3627a9.3406,9.3406,0,0,1,6.4-1.02c1.08.14,2.12.34,3.16.58a24.5542,24.5542,0,0,0,2.98.6h0a1.02,1.02,0,1,1-.26,2h-.12c-1.14-.3-2-.68-3.08-1.02s-2-.66-2.94-.9a12.6063,12.6063,0,0,0-2.94-.48,4.3611,4.3611,0,0,0-2.78.78.36.36,0,1,1-.44-.56S47.1756,45.3827,47.1756,45.3627Z" style="fill:#333"/><circle cx="55.0356" cy="49.9627" r="1.5" style="fill:#333"/><path d="M58.6556,50.7027c-1.16-.66-4.14-4.5-8-.66a4.9391,4.9391,0,0,1-1.34-.92,8.24,8.24,0,0,1,6-.56" style="fill:#333;stroke:#333;stroke-linecap:round;stroke-miterlimit:10;stroke-width:1.007200002670288px"/><path d="M69.5556,50.7027c1.16-.66,4.14-4.5,8-.66a4.9391,4.9391,0,0,0,1.34-.92,8.24,8.24,0,0,0-6-.56" style="fill:#333;stroke:#333;stroke-linecap:round;stroke-miterlimit:10;stroke-width:1.007200002670288px"/><circle cx="73.0356" cy="49.9427" r="1.5" style="fill:#333"/><path d="M80.3356,45.9427a4.3,4.3,0,0,0-2.78-.82,13.7661,13.7661,0,0,0-2.98.44,29.38,29.38,0,0,0-2.94.9,27.3429,27.3429,0,0,1-3.12.98,1.0261,1.0261,0,1,1-.46-2h.16a29.6227,29.6227,0,0,0,2.96-.58,29.9406,29.9406,0,0,1,3.16-.58,9.22,9.22,0,0,1,6.4,1,.3606.3606,0,0,1-.4.6h0Z" style="fill:#333"/><path d="M60.0356,62.1427c2,0,2,1.02,4,1.02s2-1.02,4-1.02" style="fill:none;stroke:#d39e89;stroke-linecap:round;stroke-miterlimit:10"/><line x1="64.1156" y1="62.8627" x2="64.1156" y2="64.3427" style="fill:none;stroke:#d39e89;stroke-linecap:round;stroke-miterlimit:10"/><path d="M60.0356,70.0427a4.36,4.36,0,0,0,3.12,1.12h2a5.16,5.16,0,0,0,3.38-1.2" style="fill:none;stroke:#d39e89;stroke-linecap:round;stroke-miterlimit:10"/><line x1="58.3556" y1="67.3827" x2="57.6956" y2="68.7627" style="fill:none;stroke:#d39e89;stroke-linecap:round;stroke-miterlimit:10"/><line x1="69.8556" y1="67.3827" x2="70.5156" y2="68.7627" style="fill:none;stroke:#d39e89;stroke-linecap:round;stroke-miterlimit:10"/><path d="M65.7556,65.6427a3.6792,3.6792,0,0,1-1.56.4c-.4,0-.44,0-1.36-.4-1.6-.64-1.7,1.32-4.66,2.4l1.86,1.88a4.3,4.3,0,0,0,3.1,1.12h2a5,5,0,0,0,3.34-1.2l1.72-1.8C67.3756,67.1227,67.3556,65.0027,65.7556,65.6427Z" style="fill:#a56659"/><path d="M70.1956,68.0227c-2,0-2.98-.98-6,0h0c-2.96-1-4,0-6,0" style="fill:none;stroke:#743f40;stroke-linecap:round;stroke-miterlimit:10"/><path d="M60.1956,61.1227c2,0,2,1,4,1s2-1,4-1" style="fill:none;stroke:#c68b71;stroke-linecap:round;stroke-miterlimit:10;stroke-width:1.5px"/></g><path d="M90.0356,71.1227c3.26-10,0-22,0-22h0c0-15.84-2.2-34-26-34s-26,18.44-26,34c0,0-3.26,12,0,22,0,0-4,4-4,14,0,0,14,10,30,10,15.62,0,30-9.84,30-9.84A20.94,20.94,0,0,0,90.0356,71.1227Zm-17.42,4.38a9.72,9.72,0,0,1-8.58,3.62,10,10,0,0,1-8.7-3.62c-4-4.22-7.62-6.72-9.3-10v-18.38c.2-9.4,3.66-10.88,14-15.04a10.62,10.62,0,0,1,7.84,0c15.48,6.42,14,10.32,14,14v19.7C80.0356,68.9228,76.5556,71.4228,72.6156,75.5027Z" style="fill:#333"/><path d="M72.6156,75.5027a9.72,9.72,0,0,1-8.58,3.62,10,10,0,0,1-8.7-3.62c-5.58-5.82-10.3-8.38-10.3-14.38v4c0,6,4.72,8.56,10.3,14.38a10,10,0,0,0,8.7,3.62,9.72,9.72,0,0,0,8.58-3.62c5.58-5.84,10.42-8.38,10.42-14.38v-4C83.0356,67.1227,78.1956,69.7027,72.6156,75.5027Z" style="fill:#222"/><path d="M90.0356,71.1227c3.26-10,0-22,0-22h0c0-15.84-2.2-34-26-34s-26,18.44-26,34c0,0-3.26,12,0,22,0,0-4,4-4,14,0,0,14,10,30,10,15.62,0,30-9.84,30-9.84A20.94,20.94,0,0,0,90.0356,71.1227Z" style="fill:none;stroke:#333;stroke-miterlimit:10;stroke-width:3px"/><path d="M46.0356,71.9027v-24.78c.2-9.4,3.66-10.88,14-15.04a10.62,10.62,0,0,1,7.84,0c15.48,6.42,14,10.32,14,14v26.08" style="fill:none;stroke:#333;stroke-miterlimit:10;stroke-width:3px"/><path d="M38.9156,60.1427a.36.36,0,0,1,.7-.14,58.7,58.7,0,0,0,8.14,16.42,25.44,25.44,0,0,0,14.78,9.72.36.36,0,0,1,0,.72,20.78,20.78,0,0,1-17.12-8.62A35.2589,35.2589,0,0,1,38.9156,60.1427Z" style="fill:#444"/><path d="M40.0356,85.1227c6.56,1.54,16,4.26,23.1,4.46s15.9-2.46,22.9-4.46a41.1191,41.1191,0,0,1-23,7.38A53.9988,53.9988,0,0,1,40.0356,85.1227Z" style="fill:#444"/><path d="M42.1356,52.4227a77.186,77.186,0,0,1-.56-9.58v-2.44a13.0422,13.0422,0,0,1,.46-2.62,12,12,0,0,1,6.92-7.74c1.6-.6,3.02-1.1,4.56-1.58a75.3367,75.3367,0,0,1,9.28-2.46,76.5638,76.5638,0,0,1-8.4,4.62c-1.4.72-2.94,1.34-4.26,2a10.92,10.92,0,0,0-5.4,6,18.9807,18.9807,0,0,0-.84,4.34A77.2,77.2,0,0,1,42.1356,52.4227Z" style="fill:#444"/></g></g></g></g></svg>