<svg xmlns="http://www.w3.org/2000/svg" viewBox="0 0 128 128"><title>superhero-black-panther</title><g id="superhero-black-panther"><path d="M69.28,65.14a25.5,25.5,0,1,1,25.5-25.5A25.5291,25.5291,0,0,1,69.28,65.14Zm0-48a22.5,22.5,0,1,0,22.5,22.5A22.5255,22.5255,0,0,0,69.28,17.14Z" style="fill:#333"/><path d="M106.28,90.56a87.9973,87.9973,0,0,0-20-8.96V73.2h-34v7.36a95.2361,95.2361,0,0,0-20.54,10c-10.46,2.5-15.64,3.26-17.82,16.86A135.2591,135.2591,0,0,0,68.7,119.06h.36a137.659,137.659,0,0,0,55.22-11.42C122.06,94.04,116.74,93.2,106.28,90.56Z" style="fill:#3e4142"/><path d="M31.74,96.56a73.362,73.362,0,0,1,14.58-7.1c4.94-1.76,5.06-6.24,5.06-8.62a95.48,95.48,0,0,0-19.64,9.72c-10.46,2.5-15.64,3.26-17.82,16.86.42.2.86.36,1.28.54C17.92,100.44,23.22,98.56,31.74,96.56Z" style="fill:#4a4e4f"/><path d="M69.28,119.06a137.7,137.7,0,0,0,55-11.42c-2.22-13.6-7.54-14.44-18-17a87.9973,87.9973,0,0,0-20-8.96v-8.4h-34v7.14l14,16.22a10.86,10.86,0,0,1,3,7.02Z" style="fill:#37393a"/><path d="M106.28,90.56a86.3165,86.3165,0,0,0-20-8.96,7.84,7.84,0,0,0,5.2,7.88,72.517,72.517,0,0,1,14.62,7.08c9.82,2.46,13.82,4.26,16.66,11.72l1.52-.64C122.06,94.04,116.74,93.2,106.28,90.56Z" style="fill:#3e4142"/><path d="M69.3863,120.56H68.7a135.9267,135.9267,0,0,1-55.3887-11.7686,1.5,1.5,0,0,1-.8721-1.6084C14.7022,93.064,20.5826,91.6675,30.3243,89.355l.8188-.1953A96.9026,96.9026,0,0,1,50.78,79.4976V73.28h3v7.28a1.5,1.5,0,0,1-1.01,1.4179A93.88,93.88,0,0,0,32.5533,91.82a1.4762,1.4762,0,0,1-.4648.1993l-1.0713.2548c-9.357,2.2207-13.4063,3.1817-15.4214,14.2442A132.9177,132.9177,0,0,0,68.7012,117.56h.6817a135.3277,135.3277,0,0,0,53.2163-10.83c-2.0547-11.0762-6.1587-12.0742-15.6367-14.38l-1.0391-.2529a1.5013,1.5013,0,0,1-.4223-.1748,86.5426,86.5426,0,0,0-19.6592-8.8076A1.4994,1.4994,0,0,1,84.78,81.68v-8.4h3v7.2969a89.5355,89.5355,0,0,1,19.08,8.6611l.8115.1973c9.8427,2.3935,15.7842,3.8388,18.0893,17.9638a1.5012,1.5012,0,0,1-.8823,1.6172A138.3438,138.3438,0,0,1,69.3863,120.56Z" style="fill:#333"/><path d="M93.28,39.64l-.84,21.62a13.44,13.44,0,0,1-2.88,7.82L81.32,79.56a13.48,13.48,0,0,1-10.6,5h-2.8A13.5,13.5,0,0,1,57.3,79.4L49.06,68.92a13.58,13.58,0,0,1-2.88-7.82l-.9-21.54c0-8-3-13,0-25,4.9,2.94,7.06,2,10.94,4.86a24,24,0,0,1,26.18,0c2.44-2,5.88-2,10.88-4.9C96.28,26.56,93.28,31.5,93.28,39.64Z" style="fill:#3e4142"/><path d="M82.4,19.54a24,24,0,0,0-13.12-3.9h0c-6,18-7.72,48-6.96,68a13.7591,13.7591,0,0,0,5.6.92h2.8a13.46,13.46,0,0,0,10.6-5.16l8.24-10.48a13.44,13.44,0,0,0,2.88-7.82l.84-21.62c0-8.14,3-13,0-25C88.28,17.64,84.84,17.5,82.4,19.54Z" style="fill:#37393a"/><path d="M62.06,49.24l2-1.1-.34.42-.2-5,.58.74a14.801,14.801,0,0,1-7.06-3.38,14.3194,14.3194,0,0,1-4-6.7,20.6822,20.6822,0,0,1-.78-3.8,15.0586,15.0586,0,0,0-.68-3.5,18,18,0,0,0-3.66-6.14h0a.44.44,0,0,1,0-.62h0a.44.44,0,0,1,.6,0,17.4806,17.4806,0,0,1,4.3,6.4,16.3813,16.3813,0,0,1,1.1,3.68,20.4621,20.4621,0,0,0,.9,3.46,14.64,14.64,0,0,0,3.54,6,13.8007,13.8007,0,0,0,6.1,3.3h0a.7.7,0,0,1,.52.72l-.14,4.84h0a.56.56,0,0,1-.32.46l-2,.9a.4442.4442,0,1,1-.46-.76h0Z" style="fill:#666"/><path d="M66.82,47.64c-.14-2-.26-4-.32-6l.48.72a26.5577,26.5577,0,0,1-4.92-2.38,14.86,14.86,0,0,1-4.14-3.76,12.8209,12.8209,0,0,1-2.28-5.14,14.14,14.14,0,0,1,0-5.5.46.46,0,0,1,.5767-.3011l.0033.0011a.46.46,0,0,1,.32.42h0a14.7206,14.7206,0,0,0,.54,4.86,12.56,12.56,0,0,0,2.36,4.3,21.0009,21.0009,0,0,0,3.68,3.36,31.4436,31.4436,0,0,0,4.44,2.54h.1a.8.8,0,0,1,.4.68c0,2-.2,4-.34,6a.42.42,0,0,1-.42.42h0A.46.46,0,0,1,66.82,47.64Z" style="fill:#666"/><path d="M64.58,54.56a16.5608,16.5608,0,0,1,1.08,3.64c0,1.3,0,2.48.1,3.74l.16,7.4c0,2.52.16,4.86,0,7.52a10,10,0,0,1-1.12,3.7l-1.58,3.36-1.8-.9,1.74-3.28a8.5812,8.5812,0,0,0,1.24-3.18c.14-2.28.14-4.88.22-7.32l.16-7.42v-3.6a16.0993,16.0993,0,0,0-.86-3.48Z" style="fill:#333"/><path d="M74.58,54.74a15.9993,15.9993,0,0,0-.88,3.5v3.68l.22,7.42c0,2.44,0,5.04.2,7.32a8.64,8.64,0,0,0,1.24,3.16L77.1,83.1l-1.78.9-1.56-3.44a10,10,0,0,1-1.26-3.78c0-2.66,0-5,.12-7.52l.16-7.42c0-1.26,0-2.44.12-3.74a15.6032,15.6032,0,0,1,1.02-3.54Z" style="fill:#333"/><path d="M48.72,40.56a7.44,7.44,0,0,0,1.2,2,4.7187,4.7187,0,0,0,1.78,1.28h-.66a9.76,9.76,0,0,1,6-.22,7.4,7.4,0,0,1,4.62,3.82.48.48,0,0,1-.22.62.46.46,0,0,1-.54-.12h0a7.34,7.34,0,0,0-2-1.68,7.18,7.18,0,0,0-2.36-.8,15.4746,15.4746,0,0,0-2.62-.08,10.8382,10.8382,0,0,0-2.54.24h0a.68.68,0,0,1-.56,0,5.5591,5.5591,0,0,1-2.14-2,7.18,7.18,0,0,1-.76-2.86.4133.4133,0,1,1,.8-.2Z" style="fill:#666"/><polygon points="70.78 15.64 69.76 26.64 68.78 26.64 67.78 15.64 70.78 15.64" style="fill:#666"/><path d="M67.6973,86.062a14.8524,14.8524,0,0,1-11.6479-5.6035L47.8009,69.9663a14.9863,14.9863,0,0,1-3.1993-8.6845l-.8208-21.625a48.9486,48.9486,0,0,0-.64-7.1221,41.922,41.922,0,0,1,.6836-18.2988,1.5,1.5,0,0,1,2.2065-.9336,22.88,22.88,0,0,0,5.3194,2.2363A17.768,17.768,0,0,1,56.2594,17.67a25.5158,25.5158,0,0,1,26.0776-.0147,17.561,17.561,0,0,1,3.956-1.67,28.66,28.66,0,0,0,6.2149-2.711,1.5,1.5,0,0,1,2.227.9219,41.6916,41.6916,0,0,1,.6836,18.2471A48.2905,48.2905,0,0,0,94.78,39.48L93.939,61.1587a14.8462,14.8462,0,0,1-3.2011,8.69L82.4991,80.3267A14.8708,14.8708,0,0,1,70.7232,86.06H67.92C67.8458,86.0611,67.7716,86.062,67.6973,86.062ZM46.3033,16.84a39.4213,39.4213,0,0,0-.1914,15.2763A51.8347,51.8347,0,0,1,46.78,39.6l.8193,21.5635a12,12,0,0,0,2.5615,6.95l8.2383,10.48A11.8661,11.8661,0,0,0,67.898,83.06h2.8247a11.8894,11.8894,0,0,0,9.4165-4.585l8.2417-10.4814a11.876,11.876,0,0,0,2.56-6.95l.84-21.6221a51.2666,51.2666,0,0,1,.667-7.3984,39.1533,39.1533,0,0,0-.185-15.1914,35.1286,35.1286,0,0,1-5.024,2,11.6719,11.6719,0,0,0-3.8769,1.7793,1.4984,1.4984,0,0,1-1.78.1064,22.5167,22.5167,0,0,0-24.5434,0,1.4992,1.4992,0,0,1-1.7-.0439,14.3219,14.3219,0,0,0-4.8711-2.2686A27.68,27.68,0,0,1,46.3033,16.84Z" style="fill:#333"/><path d="M74.1,53.06c-.88-.18-1.74-.4-2.6-.66L70.22,52a2.9582,2.9582,0,0,0-.94,0,4.8379,4.8379,0,0,0-.94.14l-1.28.38c-.88.22-1.72.48-2.62.64a.46.46,0,0,1-.519-.3922L63.92,52.76h0a.46.46,0,0,1,.2-.48c.76-.5,1.56-.9,2.34-1.34l1.18-.62a3.4206,3.4206,0,0,1,1.66-.38,4.3006,4.3006,0,0,1,1.64.4l1.18.6c.8.42,1.58.86,2.34,1.34a.48.48,0,0,1,.16.64A.5.5,0,0,1,74.1,53.06Z" style="fill:#666"/><path d="M56.48,47.64a6,6,0,0,0-4.7,1.38.24.24,0,0,0,0,.28,4.221,4.221,0,0,0,.84,1.12c3.28,3.3,7,.82,8.7.36a.24.24,0,0,0,.18-.28.18.18,0,0,0,0-.12A7.78,7.78,0,0,0,56.48,47.64Z" style="fill:#333"/><path d="M70.82,47.64c-.14-2-.26-4-.32-6a.7.7,0,0,1,.4-.68h0a31.4436,31.4436,0,0,0,4.44-2.54,21.0009,21.0009,0,0,0,3.68-3.36,12.6209,12.6209,0,0,0,2.44-4.5,15.2,15.2,0,0,0,.46-4.86h0a.44.44,0,0,1,.3964-.48l.0036,0h0a.44.44,0,0,1,.46.36,13.42,13.42,0,0,1,0,5.5,12.8209,12.8209,0,0,1-2.28,5.14,14.86,14.86,0,0,1-4.14,3.76,26.7446,26.7446,0,0,1-4.94,2.38l.5-.72c0,2-.2,4-.34,6a.42.42,0,0,1-.42.42h0A.46.46,0,0,1,70.82,47.64Z" style="fill:#666"/><path d="M82.08,47.64a6,6,0,0,1,4.68,1.38.24.24,0,0,1,0,.28,5.0391,5.0391,0,0,1-.82,1.12c-3.3,3.3-7.02.82-8.72.36a.24.24,0,0,1-.18-.28.18.18,0,0,1,0-.12A7.88,7.88,0,0,1,82.08,47.64Z" style="fill:#333"/><path d="M91.78,39.64a22.96,22.96,0,0,0-1.12-9.8.4833.4833,0,0,1,.88-.4,25.14,25.14,0,0,1,3.24,10.2h0a1.54,1.54,0,0,1-1.36,1.64,1.5,1.5,0,0,1-1.64-1.34h0A.665.665,0,0,1,91.78,39.64Z" style="fill:#333"/><path d="M47.92,29.84a22.64,22.64,0,0,0-1.1,9.8,1.5085,1.5085,0,0,1-3,.32.7612.7612,0,0,1,0-.3h0a24.5389,24.5389,0,0,1,3.24-10.2.46.46,0,0,1,.6188-.2006l.0012.0006h0A.48.48,0,0,1,47.92,29.84Z" style="fill:#333"/><path d="M76.06,50.04l-2-.9a.5.5,0,0,1-.34-.58h0l-.2-5a.7.7,0,0,1,.52-.72h0a13.66,13.66,0,0,0,6-3.3,14.46,14.46,0,0,0,3.56-6,22.4767,22.4767,0,0,0,.88-3.46,17.7006,17.7006,0,0,1,5.44-10,.44.44,0,0,1,.62,0h0a.44.44,0,0,1,0,.6h0a18,18,0,0,0-3.5,6.22,13.9977,13.9977,0,0,0-.7,3.5,22.446,22.446,0,0,1-.76,3.8,14.2,14.2,0,0,1-4.12,6.7,14.62,14.62,0,0,1-7.06,3.38l.58-.74-.14,5.02-.32-.5,2,1.1a.46.46,0,0,1,.18.62.48.48,0,0,1-.6243.2666Z" style="fill:#666"/><path d="M62.54,54.04l-2.62,1.84a7.9991,7.9991,0,0,0-2,2,6.66,6.66,0,0,0-1.04,2.56c-.14.86-.16,2-.26,3.02l-.86,12.5-3-.32,1.9-12.4c.18-1.06.24-2,.52-3.18A8.3794,8.3794,0,0,1,56.74,57a8.98,8.98,0,0,1,2.6-2.14l2.58-1.62Z" style="fill:#333"/><path d="M76.54,53.24l2.68,1.62a9.1,9.1,0,0,1,2.58,2.12,8.4588,8.4588,0,0,1,1.56,3.08c.28,1.2.36,2.12.54,3.18l1.88,12.38-2.98.34-.88-12.5a23.4114,23.4114,0,0,0-.24-3.02,7.0188,7.0188,0,0,0-1.06-2.56,7.9991,7.9991,0,0,0-2-2l-2.7-1.84Z" style="fill:#333"/><path d="M88.64,50.92a9.9994,9.9994,0,0,1-4.52,3.82,9.539,9.539,0,0,1-2.98.62l-2.86.1L79,55l-2,4a.9.9,0,0,1-1.18.42h0a13.28,13.28,0,0,0-6.5-1.76,12.7612,12.7612,0,0,0-3.4.5,13.36,13.36,0,0,0-3.12,1.3h0a.92.92,0,0,1-1.24-.32h0l-2-4,.74.46-2.86-.1a9.12,9.12,0,0,1-3-.62,9.6593,9.6593,0,0,1-4.56-4h0a.46.46,0,0,1,.16-.62.44.44,0,0,1,.6.1,8.86,8.86,0,0,0,4.24,3.14,8.0007,8.0007,0,0,0,2.58.38h2.86a.78.78,0,0,1,.7.42h0l2.1,4-1.34-.36A14.14,14.14,0,0,1,69.3,55.7a13.5821,13.5821,0,0,1,4,.62,14.3156,14.3156,0,0,1,3.6,1.66l-1.32.34,2-4h0a.82.82,0,0,1,.72-.42h2.82a7.9976,7.9976,0,0,0,2.56-.4,8.52,8.52,0,0,0,4.24-3.14.5.5,0,0,1,.76.6Z" style="fill:#666"/><polygon points="69.28 95.64 66.28 100.66 69.28 111.64 72.28 100.66 69.28 95.64" style="fill:#666"/><path d="M69.28,112.14a.5.5,0,0,1-.4825-.3682l-3-10.9805a.502.502,0,0,1,.0533-.3886l3-5.02a.5211.5211,0,0,1,.8584,0l3,5.02a.5024.5024,0,0,1,.0532.3886l-3,10.9805A.5.5,0,0,1,69.28,112.14Zm-2.4615-11.4073,2.4615,9.01,2.4614-9.01L69.28,96.6148Z" style="fill:#666"/><polygon points="60.26 94.26 55.88 98.12 55.44 109.52 61.6 99.94 60.26 94.26" style="fill:#666"/><path d="M55.44,110.02a.5007.5007,0,0,1-.4995-.5195l.44-11.4a.5012.5012,0,0,1,.169-.3555l4.38-3.8593a.5.5,0,0,1,.8174.26l1.34,5.68a.5013.5013,0,0,1-.0664.3858l-6.16,9.58A.5.5,0,0,1,55.44,110.02Zm.9312-11.667-.3609,9.3555,5.0542-7.86-1.1-4.6612Z" style="fill:#666"/><polygon points="52.06 90.22 46.74 92.6 42.88 103.32 51.64 96.04 52.06 90.22" style="fill:#666"/><path d="M42.88,103.82a.5.5,0,0,1-.47-.6689l3.86-10.72a.4967.4967,0,0,1,.2661-.2871l5.32-2.38a.5.5,0,0,1,.7027.4922l-.42,5.8193a.4984.4984,0,0,1-.1792.3486l-8.76,7.28A.5.5,0,0,1,42.88,103.82Zm4.2583-10.85-3.1661,8.7929,7.1846-5.9707.3443-4.7734Z" style="fill:#666"/><polygon points="45.48 83.9 39.66 84.58 32.78 93.64 43.32 89.34 45.48 83.9" style="fill:#666"/><path d="M32.78,94.14a.5.5,0,0,1-.3985-.8028l6.88-9.0605a.5046.5046,0,0,1,.34-.1944l5.82-.68a.5063.5063,0,0,1,.4545.1923.5.5,0,0,1,.0684.4893l-2.16,5.44a.5023.5023,0,0,1-.2758.2783l-10.54,4.3A.4933.4933,0,0,1,32.78,94.14Zm7.15-9.0889-5.646,7.4355,8.65-3.5293,1.7724-4.4638Z" style="fill:#666"/><polygon points="78.3 94.26 82.66 98.12 83.1 109.52 76.94 99.94 78.3 94.26" style="fill:#666"/><path d="M83.1,110.02a.5.5,0,0,1-.42-.23l-6.16-9.58a.5.5,0,0,1-.0659-.3868l1.36-5.68a.5.5,0,0,1,.8178-.2579l4.36,3.8594A.4994.4994,0,0,1,83.16,98.1l.44,11.4a.5007.5007,0,0,1-.4995.5195Zm-5.624-10.1709,5.0537,7.8594-.3609-9.3564L78.5924,95.187Z" style="fill:#666"/><polygon points="86.48 90.22 91.82 92.6 95.66 103.32 86.9 96.04 86.48 90.22" style="fill:#666"/><path d="M95.66,103.82a.5.5,0,0,1-.3193-.1152l-8.76-7.28a.4991.4991,0,0,1-.1792-.3486l-.42-5.8193a.4985.4985,0,0,1,.2114-.4453.5039.5039,0,0,1,.4908-.0479l5.34,2.38a.5015.5015,0,0,1,.2671.2881l3.84,10.72a.5006.5006,0,0,1-.4707.6689Zm-8.2768-8.0283,7.1889,5.9737L91.4215,92.97l-4.3828-1.9531Z" style="fill:#666"/><polygon points="93.08 83.9 98.88 84.58 105.76 93.64 95.22 89.34 93.08 83.9" style="fill:#666"/><path d="M105.76,94.14a.4933.4933,0,0,1-.1889-.0372l-10.54-4.3a.498.498,0,0,1-.2763-.28l-2.14-5.44a.4977.4977,0,0,1,.0694-.4873.5045.5045,0,0,1,.4541-.1923l5.8.68a.5035.5035,0,0,1,.34.1944l6.88,9.0605a.5.5,0,0,1-.3985.8028ZM95.607,88.9585l8.6494,3.5283L98.61,85.0513l-4.7592-.5576Z" style="fill:#666"/><path d="M69.2017,102.1421a36.5545,36.5545,0,0,1-29.705-15.3935l2.4462-1.7364a33.5207,33.5207,0,0,0,54.5777.1338l2.4385,1.7481A36.2852,36.2852,0,0,1,75.2183,101.648,36.9967,36.9967,0,0,1,69.2017,102.1421Z" style="fill:#666"/><path d="M90.72,40.76a7.839,7.839,0,0,1-.92,2.64,5.82,5.82,0,0,1-2.12,2,.96.96,0,0,1-.58,0h0a10.8382,10.8382,0,0,0-2.54-.24,15.4727,15.4727,0,0,0-2.54.16,6.92,6.92,0,0,0-2.34.8,7.34,7.34,0,0,0-2,1.68h0a.52.52,0,0,1-.66,0,.46.46,0,0,1-.12-.54,7.4,7.4,0,0,1,4.62-3.82,9.76,9.76,0,0,1,6,.22h-.64a4.66,4.66,0,0,0,1.76-1.28,7.8212,7.8212,0,0,0,1.2-2,.42.42,0,0,1,.52-.28h0a.48.48,0,0,1,.32.5984l0,.0016Z" style="fill:#666"/></g></svg>