<svg xmlns="http://www.w3.org/2000/svg" viewBox="0 0 128 128"><title>traditional-african-woman</title><g id="traditional-african-woman"><g id="traditional-attire-african-female"><g id="traditional-attire-african-female-2"><g id="Icons"><path d="M52.97,82.1624v-10h28v10l29.14,8.6a8,8,0,0,1,5.68,6.38l1.18,7.02a123.8,123.8,0,0,1-50,10,123.3991,123.3991,0,0,1-50-10l1.16-7.02a8,8,0,0,1,5.7-6.38Z" style="fill:#9b735d"/><path d="M71.91,88.7623a1,1,0,0,0-.92-.62h-8a.98.98,0,0,0-.92.62.94.94,0,0,0,.22,1.08l4,4a1.02,1.02,0,0,0,1.42,0l4-4A.98.98,0,0,0,71.91,88.7623Z" style="fill:#f6eedc"/><path d="M81.41,113.3824l-37.12-28.66-19.82,5.86,12.4,20.16a131.3474,131.3474,0,0,0,30.1,3.42A134.0333,134.0333,0,0,0,81.41,113.3824Z" style="fill:#5583c3"/><path d="M33.95,87.8824l-9.48,2.8,12.4,20.16c3.16.74,6.38,1.32,9.62,1.82Z" style="fill:#4265ae"/><rect x="61.46" y="75.7319" width="3.0004" height="46.8208" transform="translate(-53.5148 84.084) rotate(-50.2159)" style="fill:#343433"/><path d="M66.97,78.1223a23.3,23.3,0,0,1-12.64-4v4a23.6994,23.6994,0,0,0,12.64,4,24.2791,24.2791,0,0,0,12.64-4v-4A24.2186,24.2186,0,0,1,66.97,78.1223Z" style="fill:#4265ae"/><path d="M66.97,82.1624a23.3015,23.3015,0,0,1-12.64-4v4a23.52,23.52,0,0,0,12.64,4,24.281,24.281,0,0,0,12.64-4v-4A24.281,24.281,0,0,1,66.97,82.1624Z" style="fill:#5583c3"/><polygon points="70.97 81.702 66.97 86.162 63.03 81.702 66.97 78.122 70.97 81.702" style="fill:#f1d5ba"/><path d="M67.0063,87.6616a29.6756,29.6756,0,0,1-14.8081-4.2134,1.5,1.5,0,0,1,1.544-2.5722,26.6289,26.6289,0,0,0,13.2524,3.7861A27.4794,27.4794,0,0,0,80.209,80.87a1.5,1.5,0,1,1,1.5224,2.585A30.5278,30.5278,0,0,1,67.0063,87.6616Z" style="fill:#333"/><path d="M59.53,80.3424a.5813.5813,0,1,1,0-.02Q59.5305,80.3322,59.53,80.3424Z" style="fill:#f1d5ba"/><path d="M61.55,81.1223a.58.58,0,0,1-.5593.6c-.0136.0005-.0272.0005-.0407,0h0a.6.6,0,0,1-.48-.7v0a.6.6,0,0,1,.48-.48A.62.62,0,0,1,61.55,81.1223Z" style="fill:#f1d5ba"/><path d="M74.35,80.3424a.5785.5785,0,1,0,0-.02C74.35,80.3288,74.35,80.3356,74.35,80.3424Z" style="fill:#f1d5ba"/><path d="M72.33,81.1223a.6.6,0,1,0,.6-.6h0a.58.58,0,0,0-.6.5593v.0406Z" style="fill:#f1d5ba"/><path d="M65.5884,115.6694a124.0518,124.0518,0,0,1-49.21-10.1289,1.5,1.5,0,0,1-.8882-1.623l1.16-7.02a9.542,9.542,0,0,1,6.769-7.5786L51.47,81.041V72.1621a1.5,1.5,0,0,1,1.5-1.5h28a1.5,1.5,0,0,1,1.5,1.5V81.041l28.065,8.2827a9.5415,9.5415,0,0,1,6.7348,7.5738l1.1792,7.0161a1.5,1.5,0,0,1-.8882,1.6274,124.61,124.61,0,0,1-50.6059,10.1211C66.5,115.667,66.043,115.6694,65.5884,115.6694ZM18.6426,103.2417a121.02,121.02,0,0,0,48.3115,9.42,121.5367,121.5367,0,0,0,48.34-9.42l-.9834-5.8511a6.5333,6.5333,0,0,0-4.6157-5.1875l-29.15-8.603A1.4993,1.4993,0,0,1,79.47,82.1621v-8.5h-25v8.5a1.4993,1.4993,0,0,1-1.0752,1.4385l-29.14,8.6a6.5335,6.5335,0,0,0-4.645,5.188ZM52.97,82.1621h0Z" style="fill:#343433"/><path d="M90.97,38.1624v-6c0-10.2-8-20.28-24-20.28s-24,10-24,20.28v6s-6.4-.3-4,8c1.12,3.86,3.38,7.48,6,8v.14c0,14,14,23.82,22,23.82s22-9.82,22-23.82v-.14c2.6-.6,4.9-4.2,6-8C97.55,37.2824,90.97,38.1624,90.97,38.1624Z" style="fill:#aa8064"/><path d="M90.97,38.1624v-6c0-10.2-8-20.28-24-20.28a35.3248,35.3248,0,0,0-5.6.44v24a8.12,8.12,0,0,1-2.54,6,.92.92,0,0,0,.4,1.58,5.22,5.22,0,0,1,3.76,3.86.98.98,0,0,0,1.54.6,2.8987,2.8987,0,0,1,1.16-.64.98.98,0,0,1,1.22.98v4.24a2.26,2.26,0,0,0,1.24,2c1.14.64.32,2.88-1.24,2.88h0a3.2,3.2,0,0,1-1.78-.48c-1.48-.76-2.86.8-2.54,1.38s.68,0,2.16.72a5.0219,5.0219,0,0,0,2.2.54v7.54a.82.82,0,0,0,.62.78c2.62.62,4,5.12-.62,6h0a2.54,2.54,0,0,0-2,2.48v1.1a11.6051,11.6051,0,0,0,2.14.22c8,0,22-9.82,22-23.82v-.14c2.6-.6,4.9-4.2,6-8C97.55,37.2824,90.97,38.1624,90.97,38.1624Z" style="fill:#9b735d"/><path d="M66.97,79.6226c-9.042,0-22.8794-10.4019-23.48-24.3775C40.5845,53.91,38.5342,50.0425,37.53,46.58c-.9756-3.3731-.7559-5.9873.6523-7.772a5.7035,5.7035,0,0,1,3.2881-1.98V32.1621c0-10.355,7.98-21.5,25.5-21.5s25.5,11.145,25.5,21.5v4.5532a5.3766,5.3766,0,0,1,3.2725,1.73c1.5034,1.748,1.7285,4.4849.6679,8.1348-.9414,3.2524-3.0185,7.2212-5.9594,8.6377C89.8667,69.207,76.0181,79.6226,66.97,79.6226ZM42.8853,39.66a3.1793,3.1793,0,0,0-2.36,1.0224c-.7515.97-.791,2.7207-.1138,5.063,1.0674,3.6782,3.1075,6.6,4.8511,6.9453a1.5,1.5,0,0,1,1.208,1.4712v.14c0,13.1158,13.2993,22.32,20.5,22.32s20.5-9.2046,20.5-22.32v-.14a1.5,1.5,0,0,1,1.1631-1.4614c1.79-.4131,3.8491-3.3384,4.896-6.9556.7349-2.53.7168-4.4223-.0508-5.3305a2.9356,2.9356,0,0,0-2.3218-.7642A1.5106,1.5106,0,0,1,89.47,38.1621v-6c0-12.7109-11.6631-18.5-22.5-18.5s-22.5,5.7891-22.5,18.5v6a1.5,1.5,0,0,1-1.57,1.4985h0Z" style="fill:#333"/><path d="M86.77,80.0424c-1.18,8-9.6,14-19.82,14s-18.64-6.14-19.82-14a15.0594,15.0594,0,0,0-4.16,10.16c0,10,10.74,16,24,16s24-6,24-16A15.16,15.16,0,0,0,86.77,80.0424Z" style="fill:#e8a146"/><path d="M43.63,83.6424l.12.14" style="fill:#e97168"/><path d="M43.97,64.6621a4.5049,4.5049,0,0,1-4.5-4.5v-10h3v10a1.5,1.5,0,0,0,3,0v-9a1.5016,1.5016,0,0,0-1.5-1.5v-3a4.5049,4.5049,0,0,1,4.5,4.5v9A4.5049,4.5049,0,0,1,43.97,64.6621Z" style="fill:#333"/><path d="M94.97,69.6621h-8a1.5,1.5,0,0,1,0-3h8a1.5,1.5,0,0,1,0,3Z" style="fill:#aa3061"/><rect x="93.4702" y="72.1621" width="3" height="4" style="fill:#608d3e"/><rect x="89.4702" y="72.1621" width="3" height="4" style="fill:#ea9226"/><rect x="85.4702" y="72.1621" width="3" height="4" style="fill:#608d3e"/><path d="M89.97,64.6621a4.5049,4.5049,0,0,1-4.5-4.5v-9a4.505,4.505,0,0,1,4.5-4.5v3a1.5017,1.5017,0,0,0-1.5,1.5v9a1.5,1.5,0,1,0,3,0v-9h3v9A4.5049,4.5049,0,0,1,89.97,64.6621Z" style="fill:#333"/><path d="M66.97,12.1224c-16,0-24,9.84-24,20v6c2,0,4,0,4,4v-6c0-6,4-14,20-10,16-4,20,4,20,10v6c0-4,2-4,4-4v-6C90.97,21.8824,82.97,12.1224,66.97,12.1224Z" style="fill:#56524f"/><path d="M86.97,43.6226a1.5,1.5,0,0,1-1.5-1.5v-6a9.3247,9.3247,0,0,0-3.2759-7.4551c-3.05-2.3814-8.1884-2.7583-14.86-1.09a1.5028,1.5028,0,0,1-.7276,0c-6.6733-1.6679-11.8115-1.29-14.86,1.09A9.3247,9.3247,0,0,0,48.47,36.1226v6a1.5,1.5,0,0,1-3,0c0-2.5-.53-2.5-2.5-2.5a1.5,1.5,0,0,1-1.5-1.5v-6c0-10.355,7.98-21.5,25.5-21.5,7.8281,0,14.4058,2.269,19.0215,6.5615A20.1791,20.1791,0,0,1,92.47,32.1226v6a1.5,1.5,0,0,1-1.5,1.5c-1.97,0-2.5,0-2.5,2.5A1.5,1.5,0,0,1,86.97,43.6226ZM74.7651,23.542a14.6717,14.6717,0,0,1,9.2754,2.7607,12.2608,12.2608,0,0,1,4.43,9.82v.7636a5.9289,5.9289,0,0,1,1-.2V32.1226c0-9.2085-6.957-18.5-22.5-18.5-10.8369,0-22.5,5.789-22.5,18.5v4.5639a5.9289,5.9289,0,0,1,1,.2v-.7636a12.2608,12.2608,0,0,1,4.43-9.82c3.7979-2.9648,9.541-3.5444,17.07-1.7246A33.4684,33.4684,0,0,1,74.7651,23.542Z" style="fill:#333"/><path d="M46.97,69.6621h-8a1.5,1.5,0,1,1,0-3h8a1.5,1.5,0,0,1,0,3Z" style="fill:#aa3061"/><rect x="45.4702" y="72.1621" width="3" height="4" style="fill:#608d3e"/><rect x="41.4702" y="72.1621" width="3" height="4" style="fill:#ea9226"/><rect x="37.4702" y="72.1621" width="3" height="4" style="fill:#608d3e"/><path d="M66.97,107.7021c-15.0141,0-25.5-7.1962-25.5-17.5a16.5266,16.5266,0,0,1,4.5747-11.1948,1.5,1.5,0,0,1,2.5689.8125c1.0883,7.253,8.9716,12.7227,18.3364,12.7227,9.3838,0,17.2666-5.4678,18.3359-12.7188a1.5,1.5,0,0,1,2.5679-.8178A16.618,16.618,0,0,1,92.47,90.1709C92.47,100.5059,81.9844,107.7021,66.97,107.7021ZM46.4653,83.35a13.5127,13.5127,0,0,0-1.9951,6.875c0,8.5146,9.2525,14.477,22.5,14.477s22.5-5.9624,22.5-14.5a13.5736,13.5736,0,0,0-2.0278-6.853C84.707,90.48,76.4844,95.5425,66.95,95.5425,57.4355,95.5425,49.2148,90.48,46.4653,83.35Z" style="fill:#333"/><circle cx="66.9702" cy="112.1624" r="6" style="fill:#e8a146"/><path d="M68.97,112.1624a2,2,0,1,1-2-2A2,2,0,0,1,68.97,112.1624Z" style="fill:#5583c3"/><path d="M66.97,119.6621a7.5,7.5,0,1,1,7.5-7.5A7.5082,7.5082,0,0,1,66.97,119.6621Zm0-12a4.5,4.5,0,1,0,4.5,4.5A4.505,4.505,0,0,0,66.97,107.6621Z" style="fill:#333"/><path d="M71.91,97.7623a1,1,0,0,0-.92-.62h-8a1,1,0,0,0-1,1,.96.96,0,0,0,.3.72l4,4a1.02,1.02,0,0,0,.7.3.98.98,0,0,0,.72-.3l4-4A1.02,1.02,0,0,0,71.91,97.7623Z" style="fill:#f6eedc"/><path d="M40.77,111.7623l-12.26-24.54a3.02,3.02,0,0,0-4-1.36l-.32.2-3.18,2a16.16,16.16,0,0,0-7,11.1l-.6,3.92A221.7769,221.7769,0,0,0,40.77,111.7623Z" style="fill:#d62c4d"/><path d="M20.95,88.1624c-.12-.24-.98.72-2.12,1.74a16,16,0,0,0-4.88,9.36l-.54,3.82c5.62,2,15.28,5.7,19.56,7.08Z" style="fill:#f1d5ba"/><path d="M19.97,104.1624h-2c0-12.68,10.7-14.96,10.8-14.98l.4,2C28.79,91.2223,19.97,93.1624,19.97,104.1624Z" style="fill:#e16172"/><path d="M23.97,106.1624h-2a12.74,12.74,0,0,1,8.76-12.98l.48,2C30.93,95.2024,23.97,97.1024,23.97,106.1624Z" style="fill:#e16172"/><path d="M27.97,108.1624h-2c0-10.88,6.94-11,7-11v2C32.77,99.1624,27.97,99.3624,27.97,108.1624Z" style="fill:#e16172"/><path d="M31.97,108.1624h-2c0-6.92,4.96-7,5-7v2C34.67,103.1624,31.97,103.3824,31.97,108.1624Z" style="fill:#e16172"/><path d="M28.93,107.9823l-.88-1.6a12.4354,12.4354,0,0,1,.84-3.7l-1.16-2.12a9.998,9.998,0,0,0-1.22,2.98l-1.48-2.72a10.8366,10.8366,0,0,1,1.48-2.5l-1.1-1.84a13.3742,13.3742,0,0,0-1.64,2.2l-1.44-2.8a11.0528,11.0528,0,0,1,1.74-2l-.96-1.76a15.8215,15.8215,0,0,0-1.82,1.84l-2.18-4.08-1.7,1.04,2.6,4.96a17.5568,17.5568,0,0,0-1,2.16l-2.32-4.64-1.8.9,3.36,6.7a19.2547,19.2547,0,0,0-.28,3.22h1.88l1.28,2.56,1.14-.56h1.7a14.7681,14.7681,0,0,1,.24-2.66l1.84,3.38v.94l.64.24.54.98Zm-6.84-3.82-1.78-3.56a14.3332,14.3332,0,0,1,.86-2.72l1.64,3A15.2349,15.2349,0,0,0,22.09,104.1624Z" style="fill:#e97168"/><path d="M27.19,108.1624h.78v-1.78l-1.54-2.84a17.2116,17.2116,0,0,0-.46,3.34l.58,1.08Z" style="fill:#d62c4d"/><path d="M30.33,105.3224a11.276,11.276,0,0,0-.36,2.84h2Z" style="fill:#e97168"/><path d="M22.33,95.8824l-1.04-2a13.3017,13.3017,0,0,0-1.28,1.86l1.16,2.14A11.07,11.07,0,0,1,22.33,95.8824Z" style="fill:#d62c4d"/><path d="M20.31,100.6024l-1.3-2.62a16.9209,16.9209,0,0,0-.76,2.96l1.6,3.22h.12A17.7343,17.7343,0,0,1,20.31,100.6024Z" style="fill:#d62c4d"/><path d="M23.85,98.6824a13.57,13.57,0,0,0-1.04,2.26l1.4,2.56a11.5165,11.5165,0,0,1,.82-2.68Z" style="fill:#d62c4d"/><path d="M40.77,113.2622a1.4879,1.4879,0,0,1-.36-.0439,224.02,224.02,0,0,1-27.545-8.7383,1.5008,1.5008,0,0,1-.938-1.6245l.6-3.92a17.6839,17.6839,0,0,1,7.6485-12.1192l3.54-2.2256a1.42,1.42,0,0,1,.1465-.0805,4.5465,4.5465,0,0,1,5.9868,2.0351l12.2632,24.5469a1.5,1.5,0,0,1-1.3418,2.17ZM15.0752,102.1187a221.3215,221.3215,0,0,0,22.8867,7.3784L27.1685,87.8926a1.5276,1.5276,0,0,0-1.9463-.7061L21.8091,89.332a14.6648,14.6648,0,0,0-6.3145,10.0459Z" style="fill:#343433"/><path d="M93.17,111.7623l12.24-24.54a3.02,3.02,0,0,1,4-1.34l.32.2,3.16,2a16.0006,16.0006,0,0,1,7,11.1l.54,3.82A218.2762,218.2762,0,0,1,93.17,111.7623Z" style="fill:#d62c4d"/><path d="M112.99,88.1624c.12-.24.98.72,2.12,1.74a16.001,16.001,0,0,1,4.88,9.36l.54,3.82c-5.6,2-15.28,5.7-19.56,7.08Z" style="fill:#f1d5ba"/><path d="M113.97,104.1624h2c0-12.68-10.7-14.96-10.8-14.98l-.4,2C105.15,91.2223,113.97,93.1624,113.97,104.1624Z" style="fill:#e16172"/><path d="M109.97,106.1624h2c0-10.66-8.66-12.96-8.76-12.98l-.48,2C103.03,95.2024,109.97,97.1024,109.97,106.1624Z" style="fill:#e16172"/><path d="M105.97,108.1624h2c0-10.88-6.92-11-7-11v2C101.17,99.1624,105.97,99.3624,105.97,108.1624Z" style="fill:#e16172"/><path d="M101.97,108.1624h2c0-6.92-4.94-7-5-7v2C99.27,103.1624,101.97,103.3824,101.97,108.1624Z" style="fill:#e16172"/><path d="M106.77,108.9423l.64-1.06.64-.24v-.84l1.86-3.38a14.7842,14.7842,0,0,1,.22,2.66h1.7l1.14.56,1.28-2.56h1.88a19.2642,19.2642,0,0,0-.28-3.22l3.36-6.7-1.8-.9-2.32,4.62a12.4444,12.4444,0,0,0-1-2.16l2.66-4.86-1.76-.98-2.16,4a16.0023,16.0023,0,0,0-1.84-1.84l-.96,1.76a11.1591,11.1591,0,0,1,1.76,2l-1.54,2.8a13.3856,13.3856,0,0,0-1.64-2.2l-1,1.84a10.8437,10.8437,0,0,1,1.48,2.5l-1.68,2.8a10.0032,10.0032,0,0,0-1.22-2.98l-1.14,2.12a12.4016,12.4016,0,0,1,.82,3.7l-.88,1.6Zm4.36-8,1.64-3a12.5269,12.5269,0,0,1,.86,2.66l-1.78,3.56A14.7233,14.7233,0,0,0,111.13,100.9423Z" style="fill:#e97168"/><path d="M106.75,108.1624h-.78a13.25,13.25,0,0,0,0-1.78l1.44-2.84a17.227,17.227,0,0,1,.46,3.34l-.46,1Z" style="fill:#d62c4d"/><path d="M103.61,105.3224a11.2805,11.2805,0,0,1,.36,2.84h-2Z" style="fill:#e97168"/><path d="M111.63,95.8824l1.04-2a19.0018,19.0018,0,0,1,1.26,1.86l-1.16,2.14A10.0005,10.0005,0,0,0,111.63,95.8824Z" style="fill:#d62c4d"/><path d="M113.63,100.6024l1.3-2.62a16.93,16.93,0,0,1,.76,2.96l-1.6,3.22h-.12A17.7488,17.7488,0,0,0,113.63,100.6024Z" style="fill:#d62c4d"/><path d="M110.09,98.6824a12.1434,12.1434,0,0,1,1.04,2.26l-1.38,2.56a11.5261,11.5261,0,0,0-.82-2.68Z" style="fill:#d62c4d"/><path d="M93.17,113.2622a1.5,1.5,0,0,1-1.3423-2.1694l12.24-24.54a4.4959,4.4959,0,0,1,5.9946-2.021,1.4841,1.4841,0,0,1,.1436.0791l3.4863,2.2041a17.53,17.53,0,0,1,7.6831,12.1578l.54,3.82a1.5006,1.5006,0,0,1-.9336,1.605,220.6881,220.6881,0,0,1-27.4477,8.82A1.496,1.496,0,0,1,93.17,113.2622Zm14.9214-26.1831a1.5105,1.5105,0,0,0-1.3467.8281L95.9814,109.4863a217.7748,217.7748,0,0,0,22.7974-7.4477l-.374-2.6465a14.5082,14.5082,0,0,0-6.3438-10.06l-3.3657-2.1279A1.5235,1.5235,0,0,0,108.0913,87.0791Z" style="fill:#343433"/><circle cx="76.4102" cy="49.4823" r="1.5" style="fill:#333"/><path d="M81.93,46.1224a22.7651,22.7651,0,0,0-2.52-.24,12.14,12.14,0,0,0-2.42,0,18.0739,18.0739,0,0,0-2.46.26,10.5189,10.5189,0,0,1-2.78.16.46.46,0,0,1-.34-.42.42.42,0,0,1,.34-.38h0a21.7916,21.7916,0,0,0,2.4-.86,8.7585,8.7585,0,0,1,2.66-.76,10.3963,10.3963,0,0,1,2.84.32,11.5542,11.5542,0,0,1,2.58,1.02.46.46,0,0,1,.2005.6188l-.0005.0012a.42.42,0,0,1-.46.24Z" style="fill:#333"/><circle cx="58.4502" cy="49.4823" r="1.5" style="fill:#333"/><path d="M52.63,45.2624a11.55,11.55,0,0,1,2.58-1.02,10.3966,10.3966,0,0,1,2.84-.36,8.62,8.62,0,0,1,2.72.68,21.8042,21.8042,0,0,0,2.4.86h0a.46.46,0,0,1,.3247.5637l-.0047.0163a.48.48,0,0,1-.38.34,11.4448,11.4448,0,0,1-2.78-.16c-.86-.12-1.68-.18-2.46-.26a12.1993,12.1993,0,0,0-2.46-.04,22.34,22.34,0,0,0-2.54.26h0a.46.46,0,0,1-.519-.3922l-.001-.0078A.46.46,0,0,1,52.63,45.2624Z" style="fill:#333"/><path d="M69.19,63.7024a4.6394,4.6394,0,0,1-1.82.42c-.48,0-.52,0-1.58-.42-1.88-.66-2,1.64-5.46,2.76l2.16,1.72a4.22,4.22,0,0,0,3.18,1.16h3.28a4.8,4.8,0,0,0,3.42-1.26l2-1.62C71.07,65.4024,71.07,63.0424,69.19,63.7024Z" style="fill:#936b57"/><path d="M60.13,67.6025a.5.5,0,0,1-.4483-.72l.56-1.14a.5.5,0,0,1,.8975.44l-.56,1.14A.4993.4993,0,0,1,60.13,67.6025Z" style="fill:#936b55"/><path d="M74.5508,67.6025a.5.5,0,0,1-.4478-.2763l-.58-1.16a.5.5,0,1,1,.8946-.4472l.58,1.16a.5.5,0,0,1-.4468.7236Z" style="fill:#936b55"/><path d="M67.41,60.9321a4.5836,4.5836,0,0,1-2.3355-.5791,3.1366,3.1366,0,0,0-1.6645-.4209.75.75,0,0,1,0-1.5,4.5835,4.5835,0,0,1,2.3354.5791,3.5019,3.5019,0,0,0,3.3291,0,4.5836,4.5836,0,0,1,2.3355-.5791.75.75,0,0,1,0,1.5,3.1367,3.1367,0,0,0-1.6646.4209A4.5835,4.5835,0,0,1,67.41,60.9321Z" style="fill:#674848"/><path d="M73.5518,67.0239a2.6637,2.6637,0,0,1-1.253-.2978,5.183,5.183,0,0,0-2.1748-.4644,9.3322,9.3322,0,0,0-2.6909.2857l-.12.03-.12-.0288a10.3147,10.3147,0,0,0-2.5-.2866,6.233,6.233,0,0,0-2.2324.4014,4.3908,4.3908,0,0,1-1.7715.3188.5.5,0,0,1,0-1,3.4536,3.4536,0,0,0,1.4278-.2583,7.2314,7.2314,0,0,1,2.5527-.4614,10.8528,10.8528,0,0,1,2.6367.2856,10.4,10.4,0,0,1,2.8623-.2856,6.1237,6.1237,0,0,1,2.541.5522,1.8309,1.8309,0,0,0,1.19.19A.5.5,0,1,1,74,67C73.8345,67.0166,73.686,67.0239,73.5518,67.0239Z" style="fill:#674848"/></g></g></g></g></svg>