<svg xmlns="http://www.w3.org/2000/svg" viewBox="0 0 128 128"><title>traditional-indian-man</title><g id="traditional-indian-man"><g id="emo-black-male"><g id="emo-black-male-2"><g id="Icons"><g id="Men"><path d="M120.76,99.07a11.3,11.3,0,0,0-9-9l-29-5.16v-10h-28v10l-29,5.16a11.3,11.3,0,0,0-9,9l-1,5a133.24,133.24,0,0,0,106,0Z" style="fill:#d8ab8d"/><polygon points="54.76 80.91 74.76 92.91 82.76 92.91 82.76 74.91 54.76 74.91 54.76 80.91" style="fill:#d2a385"/><path d="M120.76,99.07a11.3,11.3,0,0,0-9-9l-29-5.16a19.38,19.38,0,0,1-27.4.6l-.6-.6-29,5.16a11.3,11.3,0,0,0-9,9l-1,5a133.24,133.24,0,0,0,106,0Z" style="fill:#d5e7e5"/><path d="M120.76,99.07a11.3,11.3,0,0,0-9-9l-29-5.16a8.68,8.68,0,0,0,7,8.5l22,4.18a11.22,11.22,0,0,1,8.5,7.2l1.5-.72Z" style="fill:#e6edec"/><path d="M25.76,90.07a11.3,11.3,0,0,0-9,9l-1,5,1.5.7a11.1,11.1,0,0,1,8.5-7.18l22-4.24a8.6,8.6,0,0,0,7-8.44Z" style="fill:#edf7f6"/><path d="M86.76,113.83a144.9778,144.9778,0,0,0,16-3.14V88.47l-16-2.84Z" style="fill:#fbbc86"/><path d="M102.76,95.79l-16-3.16v21.2c2.96-.4,5.8-.9,8.46-1.42h0c1.26-.26,2.48-.52,3.66-.8l1.04-.24,2.5-.6h.24Z" style="fill:#eea86a"/><path d="M34.76,110.69a140.4643,140.4643,0,0,0,16,3.14V85.63l-16,2.84Z" style="fill:#fbbc86"/><path d="M50.76,92.63l-16,3.16v14.88h.18l2.78.68.76.18c3.74.86,7.86,1.64,12.28,2.24Z" style="fill:#eea86a"/><path d="M68.76,116.522a134.809,134.809,0,0,1-53.5967-11.0752,1.5,1.5,0,0,1-.874-1.67l1-5a12.72,12.72,0,0,1,10.1919-10.18c1.2153-.3023,5.0332-.93,9.8671-1.7237,6.6084-1.0854,14.8326-2.4365,19.0713-3.4238A1.5,1.5,0,0,1,55.1,86.3711c-4.3355,1.01-12.6138,2.37-19.2656,3.4624-4.58.7519-8.5347,1.4019-9.7154,1.6934A9.7779,9.7779,0,0,0,18.2334,99.35l-.7642,3.8208a132.2214,132.2214,0,0,0,102.5811,0l-.7612-3.8061a9.7508,9.7508,0,0,0-7.8081-7.82c-1.14-.28-5.1426-.9462-9.7779-1.7172-6.604-1.0992-14.8237-2.4668-19.268-3.4522a1.5,1.5,0,1,1,.6494-2.9287c4.3662.9678,12.542,2.3281,19.1113,3.4214,4.8911.814,8.7539,1.4565,9.9253,1.7471A12.6927,12.6927,0,0,1,122.2334,98.791l.9971,4.9854a1.5,1.5,0,0,1-.8741,1.67A134.8085,134.8085,0,0,1,68.76,116.522Z" style="fill:#333"/><path d="M98.76,44.91c0,12.24-6,30-30,30s-30-17.76-30-30,13.8-26,30-26S98.76,32.67,98.76,44.91Z" style="fill:#8b2240"/><path d="M68.76,76.41c-23.2251,0-31.5-16.272-31.5-31.5,0-6.3575,3.52-13.3482,9.4165-18.7007A33.4,33.4,0,0,1,68.76,17.41,33.4006,33.4006,0,0,1,90.8433,26.21C96.7393,31.562,100.26,38.5527,100.26,44.91,100.26,60.1382,91.9849,76.41,68.76,76.41Zm0-56c-15.7871,0-28.5,13.4028-28.5,24.5,0,6.6855,2.0551,28.5,28.5,28.5s28.5-21.8145,28.5-28.5C97.26,33.813,84.5469,20.41,68.76,20.41Z" style="fill:#333"/><rect x="53.2598" y="76.9102" width="3" height="8" style="fill:#333"/><rect x="81.2598" y="76.9102" width="3" height="8" style="fill:#333"/><path d="M90.78,45.39v-5c0-12.72-6.58-21.5-22-21.5s-22,8.78-22,21.5v5c-1.42,0-2.86,3.74-2,8,.74,3.52,2.72,6,4,6v7.52c0,4.6,6.36,11.52,12.98,15a17.3824,17.3824,0,0,0,7,1.04,15.0207,15.0207,0,0,0,6.5-1.04c6.64-3.48,13.48-10.4,13.48-15V59.43c.92,0,3.16-2.5,4-6C93.56,49.13,92.32,45.39,90.78,45.39Z" style="fill:#d8ab8d"/><path d="M90.78,45.39v-5c0-12.72-6.58-21.5-22-21.5a34.2457,34.2457,0,0,0-6,.52V40.03c0,4-4,4-4,6a7.1,7.1,0,0,1,6,4h2.98a1,1,0,0,1,1,1v3.44A2.9,2.9,0,0,0,70,56.91a2,2,0,0,1-1.18,3.62c-1.48,0-1.36-.76-3.36-.76a2,2,0,0,0-1.7.9.44.44,0,0,0,0,.44.5.5,0,0,0,.38.24c2.82.46,3.26,1.3,4.72,1.48v8.08a1,1,0,0,0,1,1,3,3,0,0,1,0,6h-3a4,4,0,0,0-4,3.42v.8a17.0831,17.0831,0,0,0,5.9.78,15.0207,15.0207,0,0,0,6.5-1.04c6.64-3.48,13.48-10.4,13.48-15v-7.5c.92,0,3.16-2.5,4-6C93.56,49.13,92.32,45.39,90.78,45.39Z" style="fill:#cba082"/><path d="M71.36,69.85a13.4564,13.4564,0,0,0-2.58.34,15.0289,15.0289,0,0,0-2.58-.34c-1.88,0-2.3.72-4.38.72h0l2.38,1.66a4.12,4.12,0,0,0,2.54.92h4.14a4.12,4.12,0,0,0,2.54-.92l2.46-1.6h0C73.76,70.61,73.32,69.85,71.36,69.85Z" style="fill:#916953"/><path d="M75.76,70.91a6.743,6.743,0,0,1-1.9-.1,12.1469,12.1469,0,0,0-1.7-.34,10.5386,10.5386,0,0,0-3.3.38h-.3a13.4369,13.4369,0,0,0-3.28-.38,10.3991,10.3991,0,0,0-1.7.32,7.42,7.42,0,0,1-1.82.12.3513.3513,0,0,1,0-.7,8.5224,8.5224,0,0,0,1.64-.34,14.7278,14.7278,0,0,1,1.74-.58,8.8585,8.8585,0,0,1,3.78.14H68.6a11.2533,11.2533,0,0,1,1.86-.24,7.24,7.24,0,0,1,2,.12,20.6637,20.6637,0,0,0,3.4.96.34.34,0,0,1,.32.3588V70.63a.32.32,0,0,1-.42.28Z" style="fill:#674848"/><path d="M86.1,21.11a3.46,3.46,0,0,1-2-1.58c-1.76-2.98-4.82-4.62-15.32-4.62-18,0-26,11.9-26,22s6,10,6,14h2v-2a4.26,4.26,0,0,1,3.58-4.2c12.68-1.94,14.42-11.8,22.42-11.8a11.3181,11.3181,0,0,1,3.28.6,4.18,4.18,0,0,1,2.72,4h0a8.26,8.26,0,0,0,2.42,5.84l.34.34a4.24,4.24,0,0,1,1.24,3v4.22h2c0-4,6-4,6-14C94.78,27.99,89.94,22.25,86.1,21.11Z" style="fill:#333"/><path d="M92.28,45.39h-3v-5c0-9.124-3.5567-20-20.5-20s-20.5,10.876-20.5,20v5h-3v-5c0-14.8315,8.3457-23,23.5-23s23.5,8.1685,23.5,23Z" style="fill:#333"/><path d="M68.7549,92.3794a20.8032,20.8032,0,0,1-14.4321-5.7856l-.6236-.6231L55.82,83.85l.6.6a17.8943,17.8943,0,0,0,25.2559-.5767l2.167,2.0743A20.8242,20.8242,0,0,1,68.7549,92.3794Z" style="fill:#333"/><path d="M67.7437,84.48a18.744,18.744,0,0,1-6.502-1.1616,1.4409,1.4409,0,0,1-.18-.08C54.4336,79.7539,47.28,72.5205,47.28,66.91V60.4521c-1.8443-1.0732-3.3789-3.9516-3.9678-6.7534-.6733-3.3354-.1265-6.8974,1.3272-8.6743a3.6021,3.6021,0,0,1,.6406-.6182V40.39c0-14.8315,8.3457-23,23.5-23s23.5,8.1685,23.5,23v3.9917a3.4481,3.4481,0,0,1,.6645.625c1.4234,1.7207,1.9336,5.2188,1.2691,8.7041-.7066,2.9483-2.35,5.5865-3.9737,6.6817V66.91c0,5.4619-7.414,12.7285-14.2836,16.3286a1.4557,1.4557,0,0,1-.14.0644,16.5715,16.5715,0,0,1-7.0591,1.1494Q68.2493,84.48,67.7437,84.48ZM62.37,80.5361a15.803,15.803,0,0,0,6.3037.9165c.0606-.0019.12-.0034.18.0005a13.6418,13.6418,0,0,0,5.78-.9082C81.24,77.0591,87.24,70.5757,87.24,66.91V59.43a1.5009,1.5009,0,0,1,1.2852-1.4849A8.995,8.995,0,0,0,91.2812,53.08c.6373-3.35-.1977-5.7339-.6772-6.2A1.5,1.5,0,0,1,89.28,45.39v-5c0-9.124-3.5567-20-20.5-20s-20.5,10.876-20.5,20v5A1.5,1.5,0,0,1,47,46.874c-.4668.4722-1.4233,2.8833-.75,6.2193.6323,3.0083,2.1284,4.6582,2.6162,4.8061A1.42,1.42,0,0,1,50.28,59.39v7.52C50.28,70.6978,56.0308,77.1724,62.37,80.5361ZM90.78,46.89h0Z" style="fill:#333"/><path d="M86.76,56.91v.12a13.32,13.32,0,0,1-8.38,11.72l-1.62.68v3.48a2,2,0,0,1-2,2H73.58c-1.18,0-1.64-.92-2.24-1.42a2,2,0,0,0-1.4-.58H67.58a2,2,0,0,0-1.4.58c-.6.5-1.06,1.42-2.24,1.42H62.76a2,2,0,0,1-2-2V69.43l-1.62-.68a13.4,13.4,0,0,1-8.38-11.72v-.12h-2v10c0,4.6,6.36,11.52,12.98,15a17.3824,17.3824,0,0,0,7,1.04,15.0207,15.0207,0,0,0,6.5-1.04c6.64-3.48,13.48-10.4,13.48-15v-10Z" style="fill:#333"/><path d="M79.76,64.33h-.14a.12.12,0,0,0,0,.14,1.1,1.1,0,0,1-.4878,1.4771,1.1155,1.1155,0,0,1-.1522.0629c-2,.64-3.8-3.24-6.68-3.24a5.059,5.059,0,0,0-2.36.5,2.42,2.42,0,0,1-2.16,0,5.0583,5.0583,0,0,0-2.36-.36c-2.86,0-4.58,3.88-6.68,3.24a1.0994,1.0994,0,0,1-.64-1.54.12.12,0,0,0,0-.14h-.14c-2.48,2.44,2.8,8.44,10.9,3.4C76.96,72.91,82.24,66.91,79.76,64.33Z" style="fill:#343433"/><path d="M68.76,99.39a1.5,1.5,0,0,1-1.5-1.5v-1a1.5,1.5,0,0,1,3,0v1A1.5,1.5,0,0,1,68.76,99.39Z" style="fill:#333"/><path d="M68.76,107.39a1.5,1.5,0,0,1-1.5-1.5v-1a1.5,1.5,0,0,1,3,0v1A1.5,1.5,0,0,1,68.76,107.39Z" style="fill:#333"/><path d="M68.76,115.41a1.5,1.5,0,0,1-1.5-1.5v-1a1.5,1.5,0,0,1,3,0v1A1.5,1.5,0,0,1,68.76,115.41Z" style="fill:#333"/><path d="M68.76,50.41a1.5,1.5,0,0,1-1.5-1.5v-.92a1.5,1.5,0,0,1,3,0v.92A1.5,1.5,0,0,1,68.76,50.41Z" style="fill:#a7412d"/><path d="M98.1,35.65c0,21.1-13.14,3.26-29.34,3.26s-29.34,17.8-29.34-3.3c0-12.2,13.14-24.7,29.34-24.7S98.1,23.41,98.1,35.65Z" style="fill:#c83962"/><path d="M68.76,16.43c-15.26,0-27.78,11.08-29.2,22.58,1.46,15.66,14,0,29.2,0s27.74,15.72,29.18,0C96.54,27.51,84.02,16.43,68.76,16.43Z" style="fill:#b12f4f"/><path d="M56.7163,43.2524l-.9531-2.8447c8.186-2.7446,29.5552-11.5483,30.1162-19.2182.1694-2.315-1.8355-4.55-5.9585-6.6416l1.3574-2.6758c5.3047,2.6919,7.8594,5.9,7.5933,9.5371-.356,4.8574-5.9673,10.0317-16.6782,15.3794A134.5164,134.5164,0,0,1,56.7163,43.2524Z" style="fill:#333"/><path d="M94.5518,44.8716C89.6953,37.95,76.9556,34.0454,76.8271,34.0063l.8648-2.8725c.5635.1694,13.86,4.2392,19.3159,12.0151Z" style="fill:#333"/><path d="M40.5312,42.6909l-1.2626-2.7217C52.165,33.9854,72.8022,22,73.28,15.313c.0512-.7173-.084-1.8027-1.8389-2.9453L73.0781,9.853c2.8433,1.8511,3.3062,4.107,3.1944,5.6739C75.5122,26.166,44.1094,41.0308,40.5312,42.6909Z" style="fill:#333"/><path d="M96.7559,37.4961c-3.6617-6.8657-12.189-9.8154-12.2749-9.8447l.956-2.8433c.3955.1323,9.7339,3.3408,13.9663,11.2759Z" style="fill:#333"/><path d="M40.457,33.8984l-1.3945-2.6562c10.0991-5.3047,24.1455-15.04,22.2222-19.0884l2.71-1.2871C67.8574,18.9961,45.0654,31.4785,40.457,33.8984Z" style="fill:#333"/><path d="M44.5425,47.4575a5.2885,5.2885,0,0,1-3.7852-1.42C38.9443,44.31,38.1,41.0093,38.1,35.65c-.085-5.7857,2.5293-11.6846,7.3618-16.5889A32.9954,32.9954,0,0,1,90.4937,17.562C96.2808,22.6357,99.6,29.2285,99.6,35.65c0,5.3428-.8511,8.6421-2.6787,10.3818a5.3809,5.3809,0,0,1-4.1548,1.416c-2.4282-.1191-5.2583-1.3452-8.5356-2.7651C79.6514,42.6987,74.4619,40.45,68.84,40.45c-5.6362,0-10.8593,2.2607-15.4672,4.2559-3.2632,1.4126-6.0816,2.6323-8.4634,2.7426Q44.7232,47.4576,44.5425,47.4575ZM68.84,37.45c6.2437,0,11.9771,2.4839,16.5835,4.48,3.0083,1.3037,5.607,2.4292,7.49,2.5219a2.4235,2.4235,0,0,0,1.9385-.5927C95.6494,43.1006,96.6,41.06,96.6,35.65c0-10.9707-11.9058-23.24-27.84-23.24a29.8443,29.8443,0,0,0-21.1612,8.7573c-4.2026,4.2646-6.5713,9.5351-6.499,14.4609,0,4.3809.5811,7.145,1.7271,8.2363a2.3567,2.3567,0,0,0,1.94.5874c1.8364-.0849,4.4209-1.2041,7.4136-2.5C56.8149,39.9468,62.582,37.45,68.84,37.45Z" style="fill:#333"/><path d="M53.08,48.05A9.1762,9.1762,0,0,1,56,46.45a9.5967,9.5967,0,0,1,3.36-.44,10.5964,10.5964,0,0,1,3.2.8l2.88,1.18a.46.46,0,0,1,.2617.5955L65.7,48.59a.5.5,0,0,1-.46.3,21.65,21.65,0,0,1-3.12-.48c-1-.14-2-.28-2.92-.38a10.9,10.9,0,0,0-5.64.8h0a.46.46,0,0,1-.5983-.2556L52.96,48.57A.44.44,0,0,1,53.08,48.05Z" style="fill:#333"/><path d="M84.08,48.91a10.7,10.7,0,0,0-5.64-.8c-.94.1-2,.2-2.92.38a29.1783,29.1783,0,0,1-3.12.48.4658.4658,0,0,1-.2-.9l2.88-1.16a10.5957,10.5957,0,0,1,3.2-.8,9.0994,9.0994,0,0,1,6.28,2,.44.44,0,0,1,.018.622l-.018.018a.46.46,0,0,1-.54.14Z" style="fill:#333"/><circle cx="59.8198" cy="52.3702" r="1.3" style="fill:#333"/><circle cx="77.7398" cy="52.3702" r="1.3" style="fill:#333"/></g><path d="M69.0015,63.791a5.9057,5.9057,0,0,1-2.8648-.7446,4.54,4.54,0,0,0-2.14-.5464A.75.75,0,0,1,64,61h.0029a6.0507,6.0507,0,0,1,2.855.731,4.3847,4.3847,0,0,0,4.2788.0029A6.0571,6.0571,0,0,1,73.9971,61H74a.75.75,0,0,1,.0029,1.5,4.5464,4.5464,0,0,0-2.145.5493A5.8874,5.8874,0,0,1,69.0015,63.791Z" style="fill:#674848"/></g></g></g></g></svg>