<svg xmlns="http://www.w3.org/2000/svg" viewBox="0 0 128 128"><title>traditional-indian-woman</title><g id="traditional-indian-woman"><g id="emo-black-female"><g id="emo-black-female-2"><g id="Icons"><path d="M103.14,67.0853c0,14-12.16,14.8-27.16,14.8s-27.2-.9-27.2-14.8,12.18-25.1,27.2-25.1S103.14,53.1453,103.14,67.0853Z" style="fill:#333"/><path d="M81.32,42.3653c-14.9,0-27.04,11.32-27.04,25.14,0,9.6,5.74,13,14.24,14.2h7.46c15,0,27.2-.9,27.2-14.8C103.14,54.8453,93.76,44.6453,81.32,42.3653Z" style="fill:#333"/><path d="M75.98,84.1374c-12.4292,0-29.4521,0-29.4521-17.0522,0-15.0821,13.2124-27.3521,29.4521-27.3521,16.2178,0,29.4121,12.27,29.4121,27.3521C105.3918,84.1374,89.0837,84.1374,75.98,84.1374Zm0-39.9c-13.7563,0-24.9482,10.2495-24.9482,22.8482,0,10.7368,7.6963,12.5483,24.9482,12.5483,17.2242,0,24.9082-1.8115,24.9082-12.5483C100.8879,54.4865,89.7141,44.237,75.98,44.237Z" style="fill:#333"/><path d="M116.52,85.7053c-25.72-5.12-28.1-5.56-28.1-5.56v-13.18H62.02v13.18s-2.28.42-28,5.56c-8.3,2.1-8.88,9.8-9.6,13.4a122.8187,122.8187,0,0,0,47.44,10.84h0a125.2792,125.2792,0,0,0,54-10.58h0C125.56,95.6853,125.18,87.9053,116.52,85.7053Z" style="fill:#dfb89f"/><path d="M125.92,99.3653c-.36-3.68-.74-11.48-9.4-13.66-25.72-5.12-28.1-5.56-28.1-5.56v-13.18H62.02v6.54l.74,1.62,9.48,10.76a16.3,16.3,0,0,1,3.54,10.78v13.26A125.2591,125.2591,0,0,0,125.92,99.3653Z" style="fill:#cca896"/><path d="M91.4011,82.2258a1.4961,1.4961,0,0,1-.2881-.0283l-2.98-.58A1.5,1.5,0,0,1,86.92,80.1452v-6.9a1.5,1.5,0,0,1,3,0v5.6636l1.7666.3442a1.5,1.5,0,0,1-.2852,2.9727Z" style="fill:#333"/><path d="M99.2,34.9053v-4.7c-.02-12.7-4.64-24.7-23.56-24.7s-23.54,12-23.54,24.7v4.7c-4,0-6.52,4-5.86,9.42.56,4.56,2.74,9.22,7.06,9.4,2.54,16.28,13.72,24.52,22.34,24.52s19.76-8,22.34-24.52c4.34-.18,6.5-4.84,7.06-9.4C105.74,38.9253,103.28,34.9053,99.2,34.9053Z" style="fill:#dfb89f"/><path d="M99.2,34.9053v-4.7c-.02-12.7-4.64-24.7-23.56-24.7a37.7786,37.7786,0,0,0-5.86.44v28.08a8.44,8.44,0,0,1-2.74,6.22.96.96,0,0,0,.42,1.66,5.58,5.58,0,0,1,4,4,1.1,1.1,0,0,0,1.72.64,3.12,3.12,0,0,1,1.16-.62,1.08,1.08,0,0,1,1.36,1.06v4.4a2.38,2.38,0,0,0,1.34,2c1.24.68.34,3.02-1.34,3.02h0a3.66,3.66,0,0,1-2-.5c-1.6-.8-3.08.84-2.74,1.46s.72,0,2.34.74a5.5785,5.5785,0,0,0,2.34.58h0v7.86a.86.86,0,0,0,.7506.957l.0294.003c2.82.68,4.3,5.36-.7,6.38a2.78,2.78,0,0,0-2.24,2.74v1.52a15.5868,15.5868,0,0,0,2.12.16c8.42,0,19.76-8,22.34-24.52,4.48-.28,6.48-4.88,7.1-9.44C105.74,38.9253,103.28,34.9053,99.2,34.9053Z" style="fill:#d4b09c"/><circle cx="65.1597" cy="46.2653" r="1.62" style="fill:#333"/><path d="M69.8,47.0853c-1.24-.72-4.46-4.86-8.62-.72a4.5979,4.5979,0,0,1-1.44-1,8.88,8.88,0,0,1,6.54-.6" style="fill:#333"/><path d="M69.7991,47.6281a.5414.5414,0,0,1-.272-.0737,7.2364,7.2364,0,0,1-.8457-.6352c-1.5913-1.3047-3.9956-3.2774-7.1191-.169l-.2627.2617-.3394-.15a5.1289,5.1289,0,0,1-1.6094-1.1176l-.5151-.5284.6577-.3344a9.3922,9.3922,0,0,1,6.94-.6368.5444.5444,0,0,1,.1767.09A9.9506,9.9506,0,0,1,69.37,46.08a6.8131,6.8131,0,0,0,.7021.5361.5429.5429,0,0,1-.2729,1.0122Zm-9.0508-2.12c.1064.0728.2168.14.33.2027q.301-.2769.5962-.5025A8.3414,8.3414,0,0,0,60.7483,45.508Z" style="fill:#333"/><path d="M81.56,47.0853c1.24-.72,4.46-4.86,8.62-.72a4.599,4.599,0,0,0,1.44-1,8.88,8.88,0,0,0-6.54-.6" style="fill:#333"/><path d="M81.56,47.6281a.5429.5429,0,0,1-.2729-1.0122A6.824,6.824,0,0,0,81.99,46.08a9.9581,9.9581,0,0,1,2.76-1.7451.5394.5394,0,0,1,.1767-.09,9.3867,9.3867,0,0,1,6.94.6368l.6572.3344-.5147.5284a5.1363,5.1363,0,0,1-1.61,1.1176l-.3394.1495-.2627-.2613c-3.1225-3.1079-5.5273-1.1352-7.1186.169a7.2532,7.2532,0,0,1-.8457.6352A.5416.5416,0,0,1,81.56,47.6281Zm8.124-2.42q.2952.2264.5962.5025.17-.0937.3306-.2027A8.3494,8.3494,0,0,0,89.6843,45.2082Z" style="fill:#333"/><circle cx="86.0597" cy="46.2653" r="1.62" style="fill:#333"/><path d="M58.84,41.3253a8,8,0,0,1,2.82-1.16,9.6807,9.6807,0,0,1,3.04,0,26.2787,26.2787,0,0,1,2.88.68,16.6723,16.6723,0,0,0,2.62.6h0a1.06,1.06,0,0,1,.9659,1.1464c-.0015.0179-.0035.0358-.0059.0536a1.08,1.08,0,0,1-1.1868.9615l-.0132-.0015h-.14a17.9976,17.9976,0,0,1-2.84-1.08,23.125,23.125,0,0,0-2.56-1.02,8.5608,8.5608,0,0,0-2.64-.42,4.1,4.1,0,0,0-2.48.82.3842.3842,0,0,1-.48-.6h0S58.84,41.3453,58.84,41.3253Z" style="fill:#333"/><path d="M91.76,41.9653a4,4,0,0,0-2.48-.8,8.1213,8.1213,0,0,0-2.64.44c-.86.28-1.72.64-2.6,1.02a17.7492,17.7492,0,0,1-2.88,1.06,1.1161,1.1161,0,1,1-.48-2.18h.18a14.7358,14.7358,0,0,0,2.6-.58,26.0248,26.0248,0,0,1,2.96-.64,9.103,9.103,0,0,1,3.04,0,7.6417,7.6417,0,0,1,2.84,1.14.4.4,0,1,1-.42.66S91.78,41.9653,91.76,41.9653Z" style="fill:#333"/><path d="M75.86,60.4446a4.6589,4.6589,0,0,1-2.4048-.6089,3.5942,3.5942,0,0,0-1.915-.4912.5391.5391,0,0,1,0-1.0782,4.6583,4.6583,0,0,1,2.4043.6089,3.98,3.98,0,0,0,3.831,0,4.6586,4.6586,0,0,1,2.4043-.6089.5391.5391,0,1,1,0,1.0782,3.5948,3.5948,0,0,0-1.915.4912A4.6589,4.6589,0,0,1,75.86,60.4446Z" style="fill:#c8a18f"/><path d="M75.84,61.7043a.5389.5389,0,0,1-.5391-.539v-1.6a.5391.5391,0,1,1,1.0782,0v1.6A.5389.5389,0,0,1,75.84,61.7043Z" style="fill:#c8a18f"/><path d="M74.6135,69.25A5.236,5.236,0,0,1,71.12,67.907a.5391.5391,0,0,1,.7187-.8038,4.2228,4.2228,0,0,0,2.9951,1.064l2.2056-.001a4.8042,4.8042,0,0,0,3.29-1.1709.539.539,0,0,1,.6993.82,6.0124,6.0124,0,0,1-4,1.4283l-2.1695.0005Q74.7366,69.25,74.6135,69.25Z" style="fill:#c8a18f"/><path d="M69.1194,66.4245a.539.539,0,0,1-.4829-.7773l.7-1.42a.5389.5389,0,0,1,.9668.4765l-.7,1.42A.539.539,0,0,1,69.1194,66.4245Z" style="fill:#c8a18f"/><path d="M82.7,66.4245a.538.538,0,0,1-.481-.2954l-.72-1.42a.5387.5387,0,1,1,.9609-.4873l.72,1.42a.5393.5393,0,0,1-.48.7827Z" style="fill:#c8a18f"/><path d="M77.5,62.3253a2.4806,2.4806,0,0,0-1.44.48.34.34,0,0,1-.42,0,2.2607,2.2607,0,0,0-1.46-.48c-2.16,0-2.78,2-4.8,2.88l2,2a4.68,4.68,0,0,0,3.34,1.2h2.16a5.34,5.34,0,0,0,3.6-1.3l1.84-2C80.28,64.4053,79.66,62.3253,77.5,62.3253Z" style="fill:#915241"/><path d="M75.8577,65.7932l-.17-.0571a6.9915,6.9915,0,0,0-4.2393-.2232,9.7928,9.7928,0,0,1-2.0283.2515.5391.5391,0,1,1,0-1.0781,8.8226,8.8226,0,0,0,1.8164-.23,7.9493,7.9493,0,0,1,4.6255.2021,8.1137,8.1137,0,0,1,4.64-.1968,8.84,8.84,0,0,0,1.7984.2247.5391.5391,0,0,1,0,1.0781,9.8475,9.8475,0,0,1-2.0074-.2456,7.1682,7.1682,0,0,0-4.2641.2182Z" style="fill:#743f40"/><path d="M75.96,59.6135a4.9439,4.9439,0,0,1-2.5215-.6255,3.3915,3.3915,0,0,0-1.7983-.4546.8081.8081,0,1,1,0-1.6162,4.9487,4.9487,0,0,1,2.521.625,3.7825,3.7825,0,0,0,3.5976,0,4.949,4.949,0,0,1,2.521-.625.8081.8081,0,0,1,0,1.6162,3.3918,3.3918,0,0,0-1.7983.4546A4.9436,4.9436,0,0,1,75.96,59.6135Z" style="fill:#674848"/><path d="M75.64,79.7453c-9.3828,0-20.6895-8.6367-23.6333-24.6738-4.4824-.9453-6.6875-5.9336-7.2559-10.5635-.4292-3.5249.3677-6.7231,2.1856-8.7758A6.7179,6.7179,0,0,1,50.6,33.5608V30.2053c0-17.3853,8.4248-26.2,25.04-26.2,16.6011,0,25.0322,8.8145,25.06,26.1978v3.354a6.7118,6.7118,0,0,1,3.7114,2.1914c1.8013,2.05,2.5732,5.2465,2.1167,8.77-.7134,5.8066-3.4448,9.7217-7.2539,10.5488C96.3171,71.2741,85.259,79.7453,75.64,79.7453Zm0-72.74c-14.8306,0-22.04,7.5889-22.04,23.2v4.7a1.5,1.5,0,0,1-1.5,1.5,3.7525,3.7525,0,0,0-2.918,1.3159c-1.2485,1.41-1.7783,3.751-1.4536,6.4229.4682,3.8125,2.1943,7.9389,5.6338,8.0825a1.5,1.5,0,0,1,1.4194,1.2671C57.1379,68.5964,67.2869,76.7453,75.64,76.7453c11.189,0,19.0972-11.98,20.8579-23.2514a1.4992,1.4992,0,0,1,1.42-1.2671c3.439-.1431,5.1646-4.27,5.6333-8.084.3467-2.6777-.1616-5.0122-1.394-6.4141A3.78,3.78,0,0,0,99.2,36.4055a1.5,1.5,0,0,1-1.5-1.5v-4.7C97.6751,14.5949,90.4592,7.0051,75.64,7.0051Z" style="fill:#333"/><path d="M49.26,74.6853a20.4787,20.4787,0,0,1,1.74-5.06,1.1,1.1,0,0,1,1.44-.58h0a1.3,1.3,0,0,1,.56.58,20.4787,20.4787,0,0,1,1.74,5.06,2.74,2.74,0,0,1-5.44,0Z" style="fill:#f9cd5a"/><path d="M51.96,67.0451a1.5,1.5,0,0,1-1.5-1.5v-.5385a1.5,1.5,0,1,1,3,0v.5385A1.5,1.5,0,0,1,51.96,67.0451Zm0-5.9272a1.5,1.5,0,0,1-1.5-1.5v-.5391a1.5,1.5,0,0,1,3,0v.5391A1.5,1.5,0,0,1,51.96,61.1179Zm0-5.9277a1.5,1.5,0,0,1-1.5-1.5v-.5386a1.5,1.5,0,0,1,3,0V53.69A1.5,1.5,0,0,1,51.96,55.19Z" style="fill:#f9cd5a"/><path d="M96.68,74.6853a20.4787,20.4787,0,0,1,1.74-5.06,1.1,1.1,0,0,1,1.44-.58h0a1.3,1.3,0,0,1,.56.58,20.4787,20.4787,0,0,1,1.74,5.06,2.74,2.74,0,0,1-5.44,0Z" style="fill:#f9cd5a"/><path d="M99.38,67.0451a1.5,1.5,0,0,1-1.5-1.5v-.5385a1.5,1.5,0,1,1,3,0v.5385A1.5,1.5,0,0,1,99.38,67.0451Zm0-5.9272a1.5,1.5,0,0,1-1.5-1.5v-.5391a1.5,1.5,0,1,1,3,0v.5391A1.5,1.5,0,0,1,99.38,61.1179Zm0-5.9277a1.5,1.5,0,0,1-1.5-1.5v-.5386a1.5,1.5,0,0,1,3,0V53.69A1.5,1.5,0,0,1,99.38,55.19Z" style="fill:#f9cd5a"/><path d="M104.28,19.7253c-8.92-17.52-22-21.5-29.12-15.8-7.12-5.7-20.2-1.72-29.12,15.8-2.84,5.6-6.26,19.04.74,30.22,13.76-12,10.46-20.46,17.76-23.66,4.8-2.1,11.14,4.16,11.14,4.16s6.34-6.26,11.14-4.16c7.16,3.14,4,11.36,17.1,23.06C110.42,38.3053,107.08,25.2253,104.28,19.7253Z" style="fill:#444445"/><path d="M43.82,37.5053a28.8593,28.8593,0,0,0,4.6,13.2c13.76-12,8.88-21.2,16.16-24.38,4.8-2.1,11.14,4.16,11.14,4.16s6.34-6.26,11.14-4.16c7.16,3.14,3.48,12.38,16.46,24,6.52-11.06,3.8-25.16,1-30.66a46.4436,46.4436,0,0,0-7.04-10.38,40.8819,40.8819,0,0,0-16.2-2C70,22.1053,50.42,26.9053,43.82,37.5053Z" style="fill:#333"/><path d="M51.2,43.1653c2.52,0,1.44,5.64,4,5.64v-9.74Z" style="fill:#333"/><path d="M96.42,39.0653v9.74c2.5,0,1.44-5.64,4-5.64Z" style="fill:#333"/><path d="M124.86,92.7453a8,8,0,0,0-6.26-6.4c-1.82-.48-10.64-2.62-18-4.44a32.34,32.34,0,0,1-24.98,11.84,32,32,0,0,1-24.94-11.84c-7.4,1.78-16.26,4-18,4.44a8,8,0,0,0-6.26,6.4l-1.28,7.02a124.82,124.82,0,0,0,50.56,10,124.94,124.94,0,0,0,50.56-10Z" style="fill:#f4e2bd"/><path d="M124.86,92.7453a8,8,0,0,0-6.26-6.4c-1.82-.48-10.64-2.62-18-4.44a32.34,32.34,0,0,1-24.98,11.84,32,32,0,0,1-24.94-11.84c-7.4,1.78-16.26,4-18,4.44a8,8,0,0,0-6.26,6.4l-1.28,7.02a124.82,124.82,0,0,0,50.56,10,124.94,124.94,0,0,0,50.56-10Z" style="fill:#f4e2bd"/><path d="M124.86,92.7453a8,8,0,0,0-6.26-6.4c-1.82-.48-10.64-2.62-18-4.44-10.52,13.28-26.72,11.82-27.12,11.78l-17.86,14.72a118.86,118.86,0,0,0,20,1.42,124.94,124.94,0,0,0,50.56-10Z" style="fill:#f05e52"/><path d="M77.5354,111.2751c-.5386,0-1.0747-.0029-1.6143-.01a125.6993,125.6993,0,0,1-51.1293-10.12,1.5,1.5,0,0,1-.8873-1.6528l1.3-7.02a9.4612,9.4612,0,0,1,7.41-7.5952l.5484-.1387C35.7937,84.08,43.8,82.0749,50.5691,80.447a1.503,1.503,0,0,1,1.5156.5137A30.3627,30.3627,0,0,0,75.7688,92.2453h.0864a30.7335,30.7335,0,0,0,23.8242-11.29,1.4942,1.4942,0,0,1,1.52-.5054c2.9526.73,6.1406,1.5118,9.0171,2.2168,4.2407,1.04,7.9033,1.938,9.0053,2.229a9.4254,9.4254,0,0,1,7.3516,7.5689l1.3974,7.0078a1.5,1.5,0,0,1-.8828,1.6733A125.6343,125.6343,0,0,1,77.5354,111.2751Zm-1.6138-3.01a122.7439,122.7439,0,0,0,48.8677-9.4078l-1.1606-5.8188-.0044-.0239a6.4715,6.4715,0,0,0-5.0865-5.2c-1.1577-.3028-4.8085-1.1983-9.0361-2.2349-2.5859-.6338-5.4238-1.33-8.1167-1.9946a33.7124,33.7124,0,0,1-25.5239,11.66h-.0947a33.3349,33.3349,0,0,1-25.4009-11.663c-6.5488,1.5815-13.9634,3.4375-16.4741,4.0664l-.608.1518a6.4992,6.4992,0,0,0-5.1284,5.2134l-1.0805,5.8369A122.87,122.87,0,0,0,75.9216,108.2654Z" style="fill:#333"/><path d="M73.24,109.8053c13.62-11.8,29.28-24,34.64-26.82l-14-3.64c-5.46,2.64-24.98,17.22-38.28,29.04A126.3934,126.3934,0,0,0,73.24,109.8053Z" style="fill:#f4e2bd"/><path d="M69.52,106.2854a1.5,1.5,0,0,1-1.0054-2.6138l.2-.18a1.5,1.5,0,0,1,2.01,2.2276l-.2.18A1.4955,1.4955,0,0,1,69.52,106.2854Z" style="fill:#333"/><path d="M74.2205,102.3454a1.5,1.5,0,0,1-.962-2.6518l.4532-.3775a1.5,1.5,0,0,1,1.9179,2.3067l-.4492.3745A1.4936,1.4936,0,0,1,74.2205,102.3454Zm4.9736-4.125a1.5,1.5,0,0,1-.9541-2.6582l.4546-.374a1.5,1.5,0,0,1,1.9062,2.3164l-.4546.374A1.4926,1.4926,0,0,1,79.1941,98.22Zm5.0034-4.09a1.5,1.5,0,0,1-.9458-2.665l.4546-.3687a1.5,1.5,0,1,1,1.8926,2.3281l-.4575.3706A1.4922,1.4922,0,0,1,84.1975,94.13Zm5.0376-4.0454A1.5,1.5,0,0,1,88.301,87.41l.4595-.3653a1.5,1.5,0,0,1,1.8672,2.3487l-.4605.3657A1.4965,1.4965,0,0,1,89.2351,90.0847Z" style="fill:#333"/><path d="M94.4211,86.1052a1.5,1.5,0,0,1-.8818-2.7144l.22-.16A1.5,1.5,0,1,1,95.52,85.66l-.22.16A1.4933,1.4933,0,0,1,94.4211,86.1052Z" style="fill:#333"/><path d="M73.24,111.3054h-.0156a128.2909,128.2909,0,0,1-17.8487-1.437,1.5,1.5,0,0,1-.7719-2.604c13.8354-12.2964,33.123-26.61,38.6235-29.27a1.4939,1.4939,0,0,1,1.03-.101l14,3.64a1.5,1.5,0,0,1,.3213,2.7793C103.49,86.99,88.0774,98.9348,74.2219,110.9392A1.5006,1.5006,0,0,1,73.24,111.3054Zm-14.1821-3.9565a125.5806,125.5806,0,0,0,13.6313.95c11.94-10.3208,24.5742-20.251,31.3877-24.7525L94.052,80.94C88.5256,83.8694,71.7839,96.33,59.0574,107.3489Z" style="fill:#333"/><path d="M51.218,83.7859a1.5,1.5,0,0,1-.2939-2.9712c5.5107-1.1065,8.2524-1.648,9.5957-1.91v-6.54a1.5,1.5,0,0,1,3,0v7.78a1.501,1.501,0,0,1-1.2393,1.4771c-.0493.0088-1.3227.2373-10.7656,2.1338A1.5093,1.5093,0,0,1,51.218,83.7859Z" style="fill:#333"/><path d="M108.08,36.1653a32.2014,32.2014,0,0,0-4.38-10.34,36.0024,36.0024,0,0,0-7.28-8.32c-.68-.62-1.48-1.12-2.2-1.66l-1.1-.82-1.18-.7c-.8-.46-1.58-.94-2.38-1.38l-2.5-1.14-1.24-.56-1.4-.46-2.6-.88c-1.68-.4-3.4-.86-5.24-1.3h-.22a2,2,0,0,1,.94-3.78h.16c1.86.62,3.74,1.18,5.56,1.88l2.7,1.18,1.34.6,1.28.72,2.54,1.44c.82.54,1.6,1.12,2.4,1.68l1.18.84,1.1.96a25.3273,25.3273,0,0,1,2.16,2,36.982,36.982,0,0,1,6.84,9.3A32.48,32.48,0,0,1,108.08,36.1653Z" style="fill:#444445"/><path d="M44.96,31.7853a25.86,25.86,0,0,1,3.32-9.84,31.76,31.76,0,0,1,6.58-8.22,31.2009,31.2009,0,0,1,8.88-5.66,29.6415,29.6415,0,0,1,10.1-2.42c-1.54.86-3.12,1.44-4.58,2.24s-2.98,1.5-4.36,2.42a47.8592,47.8592,0,0,0-7.86,5.82,49.3962,49.3962,0,0,0-6.62,7.2A60.0014,60.0014,0,0,0,44.96,31.7853Z" style="fill:#333"/><path d="M102.16,36.1653a38.0026,38.0026,0,0,0-5.1-8.32,51.46,51.46,0,0,0-6.64-6.98,53.5048,53.5048,0,0,0-7.84-5.56c-1.34-.86-2.82-1.52-4.22-2.26s-2.92-1.28-4.38-2h-.16a2,2,0,1,1,1.52-3.54h.16c1.48.84,2.98,1.6,4.4,2.48a41.35,41.35,0,0,1,4.18,2.82,55.225,55.225,0,0,1,7.56,6.7,52.8773,52.8773,0,0,1,6.16,7.84A35.56,35.56,0,0,1,102.16,36.1653Z" style="fill:#444445"/><path d="M46.58,37.5053a33.78,33.78,0,0,1,4-8.96,43.139,43.139,0,0,1,6.18-7.7c1.18-1.16,2.44-2.24,3.72-3.28.66-.5,1.36-.96,2-1.44a14.2664,14.2664,0,0,1,2.1-1.32,28.9216,28.9216,0,0,1,9.24-3.62c-2.68,2-5.34,3.6-7.76,5.64a80.1383,80.1383,0,0,0-7,6.26A147.9987,147.9987,0,0,0,46.58,37.5053Z" style="fill:#333"/><path d="M48.42,52.1853a1.4554,1.4554,0,0,1-.1514-.0078,1.4981,1.4981,0,0,1-1.1167-.6914C40,40.1618,41.4622,25.4343,44.7019,19.0466,49.9246,8.7888,57.2224,1.9787,64.7249.3611A13.5247,13.5247,0,0,1,75.16,2.073,13.514,13.514,0,0,1,85.5945.3611c7.5024,1.6176,14.8,8.4277,20.022,18.6836h0c3.3042,6.49,5.854,21.0366-1.37,32.4433a1.5,1.5,0,0,1-2.3169.2686A39.3693,39.3693,0,0,1,91.2517,34.4372c-1.35-3.96-2.0654-5.7509-4.8774-6.7124-3.3648-1.1421-8.0879,2.3784-9.6245,3.8311a1.5013,1.5013,0,0,1-2.0743-.0137c-1.5717-1.52-6.3452-5.1758-9.5185-3.852-2.92,1.2754-3.9009,3.75-5.3853,7.4961A45.8784,45.8784,0,0,1,49.5012,51.7248,1.5011,1.5011,0,0,1,48.42,52.1853Zm36.5483-27.68a7.3673,7.3673,0,0,1,2.3731.3789c4.3281,1.48,5.4507,4.7725,6.7505,8.5845A35.9556,35.9556,0,0,0,102.6711,48.23c5.5357-10.457,2.6788-23.0962.2715-27.8237h0c-4.81-9.4487-11.3637-15.6861-17.98-17.1123a10.39,10.39,0,0,0-8.8648,1.8027,1.5007,1.5007,0,0,1-1.875,0,10.39,10.39,0,0,0-8.8652-1.8027c-6.6167,1.4267-13.17,7.664-17.9805,17.1123-2.3989,4.73-4.2505,17.3457,1.3179,27.7705a42.8786,42.8786,0,0,0,8.2881-14.0957c1.6318-4.1172,2.92-7.37,6.9966-9.15,4.44-1.8526,9.5922,1.7612,11.7548,3.5483C77.4939,27.0691,81.2092,24.5056,84.968,24.5056Z" style="fill:#333"/><path d="M75.6668,33.0652l-.1807-.003a1.5,1.5,0,0,1-1.4478-1.55,1.5167,1.5167,0,0,1,1.55-1.4477,1.5343,1.5343,0,0,1,1.5391,1.5A1.4673,1.4673,0,0,1,75.6668,33.0652Zm3.0625-.9463a1.5,1.5,0,0,1-.8375-2.7456,1.5308,1.5308,0,0,1,2.1241.3047,1.4719,1.4719,0,0,1-.2964,2.0766l-.1558.11A1.4948,1.4948,0,0,1,78.7293,32.1189Zm-6.2588-.0982a1.4314,1.4314,0,0,1-.8521-.2817l-.144-.1084a1.5,1.5,0,1,1,1.8535-2.3594,1.5354,1.5354,0,0,1,.3555,2.1206A1.5086,1.5086,0,0,1,72.4705,32.0207Zm8.2832-2.542a1.5014,1.5014,0,0,1-1.418-1.99l.0371-.1074a1.5,1.5,0,1,1,2.8457.9482l-.0469.1382A1.5008,1.5008,0,0,1,80.7537,29.4787Zm-10.2373-.187A1.4386,1.4386,0,0,1,69.1277,28.29l-.0488-.1592a1.5,1.5,0,1,1,2.8779-.8467,1.54,1.54,0,0,1-.9556,1.9312A1.5913,1.5913,0,0,1,70.5164,29.2917Zm10.3208-3.14a1.5005,1.5005,0,0,1-1.4385-1.0772,1.54,1.54,0,0,1,.9556-1.9311,1.462,1.462,0,0,1,1.8735.9253l.0488.1592a1.5015,1.5015,0,0,1-1.4394,1.9238Zm-10.2691-.1489a1.5019,1.5019,0,0,1-1.4228-1.9746l.0468-.1387a1.5,1.5,0,0,1,2.836.98l-.0371.1074A1.5,1.5,0,0,1,70.5681,26.0027Zm8.3784-2.5909a1.4926,1.4926,0,0,1-.915-.3125,1.54,1.54,0,0,1-.3608-2.124,1.4628,1.4628,0,0,1,2.06-.3511l.1333.1a1.5,1.5,0,0,1-.917,2.6875Zm-6.3779-.13a1.4906,1.4906,0,0,1-1.2163-.6075,1.4672,1.4672,0,0,1,.3057-2.0717l.1484-.104A1.5,1.5,0,0,1,73.4783,22.99,1.5517,1.5517,0,0,1,72.5686,23.282Zm3.2407-.9751a1.5629,1.5629,0,0,1-1.582-1.501,1.46,1.46,0,0,1,1.4521-1.5005l.1636.0019a1.5,1.5,0,0,1-.0337,3Z" style="fill:#f9cd5a"/><path d="M75.6794,17.0251a1.5,1.5,0,0,1-1.5-1.5v-.5386a1.5,1.5,0,1,1,3,0v.5386A1.5,1.5,0,0,1,75.6794,17.0251Zm0-5.9272a1.5,1.5,0,0,1-1.5-1.5V9.0588a1.5,1.5,0,0,1,3,0v.5391A1.5,1.5,0,0,1,75.6794,11.0979Zm0-5.9278a1.5,1.5,0,0,1-1.5-1.5V3.1316a1.5,1.5,0,0,1,3,0V3.67A1.5,1.5,0,0,1,75.6794,5.17Z" style="fill:#f9cd5a"/><path d="M77.6,42.1053a28.475,28.475,0,0,0-1.18-3.16.88.88,0,0,0-1.08-.5.78.78,0,0,0-.5.5,31.9932,31.9932,0,0,0-1.2,3.16,2.1973,2.1973,0,1,0,4,1.82v-.16A2.16,2.16,0,0,0,77.6,42.1053Z" style="fill:#9c1c49"/><circle cx="75.6797" cy="26.2253" r="2.16" style="fill:#f9cd5a"/><circle cx="75.6797" cy="35.7453" r="1.62" style="fill:#f9cd5a"/></g></g></g></g></svg>