<svg xmlns="http://www.w3.org/2000/svg" viewBox="0 0 128 128"><title>brazilian-native-man</title><g id="brazilian-native-man"><g id="traditional-attire-native-male"><g id="traditional-attire-native-male-2"><g id="Icons"><g id="Men"><path d="M74.1,10.78A26.14,26.14,0,0,0,40.5,26.04a23.26,23.26,0,0,0-1.54,9.1v68h52v-68A25.74,25.74,0,0,0,74.1,10.78Z" style="fill:#333"/><path d="M121.48,108.88a14.62,14.62,0,0,0-10-11.42L81,90.28v-18H49v18L18.8,97.46a14.58,14.58,0,0,0-10,11.42l-.7,3.62a141.0594,141.0594,0,0,0,56.94,12.12h0A140.88,140.88,0,0,0,122.1,112.5Z" style="fill:#dcb091"/><path d="M121.48,108.88a14.62,14.62,0,0,0-10-11.42L81,90.28v-18H49v20.9a3.88,3.88,0,0,1-3.1,3.88c-7.44,1.58-15.84,4-27.18,6.48a13.74,13.74,0,0,0-9.62,9.42,141.238,141.238,0,0,0,55.86,11.68,140.8784,140.8784,0,0,0,57.14-12.12Z" style="fill:#cba082"/><path d="M47.42,92.66,37.24,95.08a24.36,24.36,0,0,0,5.44,21.2A24.34,24.34,0,0,0,47.42,92.66Z" style="fill:#c4987a"/><path d="M45.78,121.28a3,3,0,0,0-6,0h0a3.1582,3.1582,0,0,0,.18.98c1.72.32,3.44.62,5.16.86A2.96,2.96,0,0,0,45.78,121.28Z" style="fill:#c4987a"/><path d="M94.68,116.28a24,24,0,0,0,5.74-19.42L89.44,94.28A24.28,24.28,0,0,0,94.68,116.28Z" style="fill:#c4987a"/><path d="M94.78,118.28a3,3,0,0,0-3,3h0a2.68,2.68,0,0,0,0,.7c2-.38,4-.82,5.86-1.28A3.04,3.04,0,0,0,94.78,118.28Z" style="fill:#c4987a"/><path d="M45.12,18.8a20,20,0,0,0,10.3,10.9,20,20,0,0,0-10.14-26A20,20,0,0,0,45.12,18.8Z" style="fill:#d5e7e5"/><path d="M45.12,18.8a20,20,0,0,0,10.3,10.9,20,20,0,0,0-10.14-26A20,20,0,0,0,45.12,18.8Z" style="fill:#738380"/><path d="M55.58,14.7A20,20,0,0,0,45.28,3.78l10.14,26A20,20,0,0,0,55.58,14.7Z" style="fill:#809490"/><path d="M43.92,13.94l6.44,2.82,2.82-6.44a20.0037,20.0037,0,0,0-3.62-3.84l-1.7,4-4-1.72A20.4206,20.4206,0,0,0,43.92,13.94Z" style="fill:#ae4355"/><path d="M50.36,16.74l2.82-6.44a20.0037,20.0037,0,0,0-3.62-3.84l-1.7,4Z" style="fill:#c3576f"/><path d="M55.42,31.2a1.4985,1.4985,0,0,1-.6245-.1362A21.3915,21.3915,0,0,1,43.7241,19.3481a21.3814,21.3814,0,0,1,.1734-16.2294,1.499,1.499,0,0,1,2.0039-.7842,21.384,21.384,0,0,1,10.9,27.95A1.5014,1.5014,0,0,1,55.42,31.2ZM46.1016,5.7959a18.38,18.38,0,0,0,.4135,12.4521l.002.0054a18.3949,18.3949,0,0,0,8.0884,9.3472A18.3747,18.3747,0,0,0,46.1016,5.7959Z" style="fill:#333"/><path d="M37.66,30.48a19.9993,19.9993,0,0,0,14.44,4,20,20,0,0,0-22-17.06A20,20,0,0,0,37.66,30.48Z" style="fill:#d5e7e5"/><path d="M37.66,30.48a19.9993,19.9993,0,0,0,14.44,4,20,20,0,0,0-22-17.06A20,20,0,0,0,37.66,30.48Z" style="fill:#738380"/><path d="M44.54,21.6a20,20,0,0,0-14.44-4l22,17.06A20,20,0,0,0,44.54,21.6Z" style="fill:#809490"/><path d="M34.1,26.92l6.98-.88-.88-6.98a18.6817,18.6817,0,0,0-5.08-1.44l.54,4.2-4.22.54A20.4365,20.4365,0,0,0,34.1,26.92Z" style="fill:#ae4355"/><path d="M41.1,26.04l-.88-6.98a18.6817,18.6817,0,0,0-5.08-1.44l.54,4.2Z" style="fill:#c3576f"/><path d="M49.7993,36.1113A21.3771,21.3771,0,0,1,36.7476,31.67l-.0064-.0049A21.3828,21.3828,0,0,1,28.6143,17.626a1.5,1.5,0,0,1,1.3208-1.6968,21.4025,21.4025,0,0,1,23.65,18.3394A1.5,1.5,0,0,1,52.2705,35.97,21.7807,21.7807,0,0,1,49.7993,36.1113ZM38.5757,29.292A18.4019,18.4019,0,0,0,50.32,33.104,18.3962,18.3962,0,0,0,31.876,18.8013,18.3828,18.3828,0,0,0,38.5757,29.292Z" style="fill:#333"/><path d="M35.18,42.66a20,20,0,0,0,14.74-2.72,20,20,0,0,0-27.28-5.5A20,20,0,0,0,35.18,42.66Z" style="fill:#d5e7e5"/><path d="M35.18,42.66a20,20,0,0,0,14.74-2.72,20,20,0,0,0-27.28-5.5A20,20,0,0,0,35.18,42.66Z" style="fill:#738380"/><path d="M37.4,31.64A20.0005,20.0005,0,0,0,22.64,34.4l27.28,5.54A20.0007,20.0007,0,0,0,37.4,31.64Z" style="fill:#809490"/><path d="M30.42,41.04l5.86-3.9L32.4,31.28a19.1426,19.1426,0,0,0-5.18.98l2.34,3.52L26.1,38.14A20.938,20.938,0,0,0,30.42,41.04Z" style="fill:#ae4355"/><path d="M36.28,37.14,32.4,31.28a19.1426,19.1426,0,0,0-5.18.98l2.34,3.52Z" style="fill:#c3576f"/><path d="M39.2163,44.57a21.6429,21.6429,0,0,1-4.3335-.44,21.3953,21.3953,0,0,1-13.4751-8.8355,1.5,1.5,0,0,1,.4224-2.1177A21.4071,21.4071,0,0,1,51.1558,39.09a1.5005,1.5005,0,0,1-.4307,2.1158A21.3963,21.3963,0,0,1,39.2163,44.57ZM24.8579,34.8818A18.3948,18.3948,0,0,0,35.4722,41.189l.0083.0014a18.3936,18.3936,0,0,0,12.2241-1.7026A18.404,18.404,0,0,0,24.8579,34.8818Z" style="fill:#333"/><path d="M36.36,55A20,20,0,0,0,50.2,49.22a20,20,0,0,0-27.82.34A20,20,0,0,0,36.36,55Z" style="fill:#d5e7e5"/><path d="M36.36,55A20,20,0,0,0,50.2,49.22a20,20,0,0,0-27.82.34A20,20,0,0,0,36.36,55Z" style="fill:#738380"/><path d="M36.22,43.76a20.0005,20.0005,0,0,0-13.84,5.8l27.82-.34A20.0005,20.0005,0,0,0,36.22,43.76Z" style="fill:#809490"/><path d="M31.38,54.42l4.9-5.04-5.04-4.9a20.246,20.246,0,0,0-4.86,2l3.04,2.96-2.96,3.04A19.6952,19.6952,0,0,0,31.38,54.42Z" style="fill:#ae4355"/><path d="M36.28,49.38l-5.04-4.9a20.246,20.246,0,0,0-4.86,2l3.04,2.96Z" style="fill:#c3576f"/><path d="M36.0869,56.502a21.3864,21.3864,0,0,1-14.7353-5.85,1.5,1.5,0,0,1-.0284-2.1568,21.4118,21.4118,0,0,1,29.9073-.3657,1.5,1.5,0,0,1,.0244,2.1567A21.3944,21.3944,0,0,1,36.3774,56.5C36.2808,56.501,36.1831,56.502,36.0869,56.502ZM24.6382,49.53A18.3273,18.3273,0,0,0,36.34,53.5h.003a18.3953,18.3953,0,0,0,11.5991-4.2549A18.4038,18.4038,0,0,0,24.6382,49.53Z" style="fill:#333"/><path d="M85.06,18.8a20,20,0,0,1-10.3,10.9A20,20,0,0,1,84.9,3.7,20,20,0,0,1,85.06,18.8Z" style="fill:#d5e7e5"/><path d="M85.06,18.8a20,20,0,0,1-10.3,10.9A20,20,0,0,1,84.9,3.7,20,20,0,0,1,85.06,18.8Z" style="fill:#738380"/><path d="M74.6,14.7A20,20,0,0,1,84.9,3.78l-10.14,26A20,20,0,0,1,74.6,14.7Z" style="fill:#809490"/><path d="M86.28,13.94l-6.44,2.8L77.02,10.3a21.1432,21.1432,0,0,1,3.6-3.84l1.72,4,3.88-1.72A20.578,20.578,0,0,1,86.28,13.94Z" style="fill:#ae4355"/><path d="M79.84,16.74,77.02,10.3a21.1432,21.1432,0,0,1,3.6-3.84l1.72,4Z" style="fill:#c3576f"/><path d="M74.76,31.2a1.5014,1.5014,0,0,1-1.3814-.9155,21.384,21.384,0,0,1,10.9-27.95,1.499,1.499,0,0,1,2.0039.7842,21.3814,21.3814,0,0,1,.1734,16.2294A21.3919,21.3919,0,0,1,75.3848,31.0635,1.4972,1.4972,0,0,1,74.76,31.2ZM84.0786,5.7959a18.3746,18.3746,0,0,0-8.5039,21.8047,18.3953,18.3953,0,0,0,8.0884-9.3472l.0019-.0054A18.38,18.38,0,0,0,84.0786,5.7959Z" style="fill:#333"/><path d="M92.52,30.48a20,20,0,0,1-14.42,4,20,20,0,0,1,22-17.06A20,20,0,0,1,92.52,30.48Z" style="fill:#d5e7e5"/><path d="M92.52,30.48a20,20,0,0,1-14.42,4,20,20,0,0,1,22-17.06A20,20,0,0,1,92.52,30.48Z" style="fill:#738380"/><path d="M85.64,21.6a20,20,0,0,1,14.44-4L78.1,34.56A20,20,0,0,1,85.64,21.6Z" style="fill:#809490"/><path d="M96.1,26.92l-6.98-.88.98-6.98a18.6817,18.6817,0,0,1,5.08-1.44l-.54,4.2,4.22.54A20.4377,20.4377,0,0,1,96.1,26.92Z" style="fill:#ae4355"/><path d="M89.08,26.04l.88-6.98a18.6817,18.6817,0,0,1,5.08-1.44l-.54,4.2Z" style="fill:#c3576f"/><path d="M80.3823,36.1094a21.6566,21.6566,0,0,1-2.4511-.1392,1.5,1.5,0,0,1-1.316-1.7016,21.395,21.395,0,0,1,23.65-18.3394,1.4991,1.4991,0,0,1,1.32,1.6982,21.3835,21.3835,0,0,1-8.1484,14.04l-.0044.0034A21.3842,21.3842,0,0,1,80.3823,36.1094ZM79.88,33.1025A18.4007,18.4007,0,0,0,98.3228,18.8013,18.3749,18.3749,0,0,0,79.88,33.1025Z" style="fill:#333"/><path d="M95.02,42.66a20,20,0,0,1-14.76-2.72,20,20,0,0,1,27.28-5.5A20,20,0,0,1,95.02,42.66Z" style="fill:#d5e7e5"/><path d="M95.02,42.66a20,20,0,0,1-14.76-2.72,20,20,0,0,1,27.28-5.5A20,20,0,0,1,95.02,42.66Z" style="fill:#738380"/><path d="M92.8,31.64a20,20,0,0,1,14.74,2.76L80.26,39.94A20,20,0,0,1,92.8,31.64Z" style="fill:#809490"/><path d="M99.76,41.04l-5.86-3.9,4-5.86a20.0021,20.0021,0,0,1,5.18.98l-2.36,3.52,3.38,2.36A21.0756,21.0756,0,0,1,99.76,41.04Z" style="fill:#ae4355"/><path d="M93.9,37.14l4-5.86a20.0021,20.0021,0,0,1,5.18.98l-2.36,3.52Z" style="fill:#c3576f"/><path d="M90.9678,44.5732a21.3852,21.3852,0,0,1-11.5132-3.3681,1.5,1.5,0,0,1-.43-2.1153A21.4064,21.4064,0,0,1,108.35,33.1772a1.501,1.501,0,0,1,.4228,2.1172A21.3951,21.3951,0,0,1,95.3188,44.13,21.6409,21.6409,0,0,1,90.9678,44.5732Zm-8.4922-5.0849a18.4086,18.4086,0,0,0,12.2432,1.7026l.0073-.0014a18.399,18.399,0,0,0,10.5967-6.3077A18.3979,18.3979,0,0,0,82.4756,39.4883Z" style="fill:#333"/><path d="M93.82,55a20,20,0,0,1-13.84-5.78,20,20,0,0,1,27.84.34A20,20,0,0,1,93.82,55Z" style="fill:#d5e7e5"/><path d="M93.82,55a20,20,0,0,1-13.84-5.78,20,20,0,0,1,27.84.34A20,20,0,0,1,93.82,55Z" style="fill:#738380"/><path d="M93.98,43.76a20.0005,20.0005,0,0,1,13.84,5.8l-27.84-.34A20,20,0,0,1,93.98,43.76Z" style="fill:#809490"/><path d="M98.82,54.42,93.9,49.38l5.04-4.9a19.4639,19.4639,0,0,1,4.86,2l-3.04,2.96,2.96,3.04A19.5546,19.5546,0,0,1,98.82,54.42Z" style="fill:#ae4355"/><path d="M93.9,49.38l5.04-4.9a19.4639,19.4639,0,0,1,4.86,2l-3.04,2.96Z" style="fill:#c3576f"/><path d="M94.1123,56.502c-.1045,0-.2085-.0005-.3135-.002a21.3924,21.3924,0,0,1-14.8735-6.2139,1.5,1.5,0,0,1,.0239-2.1562,21.4033,21.4033,0,0,1,29.9282.3662,1.4991,1.4991,0,0,1-.0288,2.1558A21.3906,21.3906,0,0,1,94.1123,56.502Zm-11.875-7.2579a18.3956,18.3956,0,0,0,11.6,4.2559h.0044a18.2885,18.2885,0,0,0,11.7212-3.9707A18.3965,18.3965,0,0,0,82.2373,49.2441Z" style="fill:#333"/><path d="M87,50.16v-6c0-10-6.12-20-22-20s-22,10-22,20v6c-4,0-4.92,3.66-4,8a11.1,11.1,0,0,0,6,8v4c0,4,5.5,12,11.28,16.26a8.74,8.74,0,0,0,5.26,1.74H68.5a8.74,8.74,0,0,0,5.22-1.72C79.52,82.1,85,74.18,85,70.16v-4a10.88,10.88,0,0,0,6-8C91.94,53.8,91,50.16,87,50.16Z" style="fill:#dcb091"/><path d="M87,50.16v-6c0-10-6.12-20-22-20a31.5043,31.5043,0,0,0-5.7.5V46.44c0,4-4,4-4,6a7.1,7.1,0,0,1,6,4h3a1,1,0,0,1,1,1v3.44a2.9,2.9,0,0,0,1.18,2.34,2,2,0,0,1-1.18,3.62c-1.48,0-2-1-4-1a2,2,0,0,0-1.7.9.4607.4607,0,0,0,.38.68c3.28.12,2.72,1.22,5.36,1.24V77.4a1,1,0,0,0,1,1,3,3,0,0,1,0,6H63.3a4,4,0,0,0-4,3.42h0a8.9376,8.9376,0,0,0,2.18.3H68.5a8.74,8.74,0,0,0,5.22-1.72C79.52,82.06,85,74.14,85,70.12v-4a10.88,10.88,0,0,0,6-8C91.94,53.8,91,50.16,87,50.16Z" style="fill:#cba082"/><path d="M39,58.16a11.1,11.1,0,0,0,6,8v4c0,3,3.1,8.24,7.08,12.48V69.94a8.3,8.3,0,0,0-2.36-5.78L47.2,61.62a4,4,0,0,1-1.1-3V54.18c0-4-1.88-4-3-4C39,50.16,38.1,53.82,39,58.16Z" style="fill:#cba082"/><path d="M84.1,54.2v4.44a4,4,0,0,1-1.24,2.9l-2.62,2.54a8,8,0,0,0-2.5,5.86V82.92c4-4.28,7.26-9.6,7.26-12.66v-4a10.88,10.88,0,0,0,6-8c.82-3.8.2-7.04-2.6-7.82L87,50.26C85.84,50.16,84.1,51.46,84.1,54.2Z" style="fill:#c4987a"/><path d="M61.5117,89.66a10.3029,10.3029,0,0,1-6.13-2.0391C49.1675,83.0415,43.5,74.7158,43.5,70.16V67.05a12.6553,12.6553,0,0,1-5.9766-8.627c-.7153-3.37-.3525-6.0957,1.0572-7.8359a5.1031,5.1031,0,0,1,2.9194-1.77V44.16a21.3994,21.3994,0,0,1,5.4507-14.7759C51.0742,24.9854,57.3154,22.66,65,22.66s13.9258,2.3252,18.0493,6.7241A21.3994,21.3994,0,0,1,88.5,44.16v4.6567a5.1139,5.1139,0,0,1,2.9375,1.7812c1.4082,1.7442,1.7637,4.4683,1.0288,7.878A12.35,12.35,0,0,1,86.5,67.06v3.1c0,4.9165-6.2725,13.2841-11.8813,17.4809A10.3129,10.3129,0,0,1,68.5132,89.66H61.5117ZM65,25.66c-9.91,0-20.5,4.86-20.5,18.5v6a1.5,1.5,0,0,1-1.5,1.5,2.51,2.51,0,0,0-2.0884.8159c-.7973.9843-.9595,2.9428-.4443,5.373a9.666,9.666,0,0,0,5.1987,6.9668A1.5,1.5,0,0,1,46.5,66.16v4c0,3.2358,4.9238,10.8173,10.67,15.0522A7.2963,7.2963,0,0,0,61.5156,86.66h6.9956a7.2889,7.2889,0,0,0,4.3155-1.4253C78.5723,80.9355,83.5,73.3511,83.5,70.16v-4a1.5,1.5,0,0,1,.8477-1.3506,9.393,9.393,0,0,0,5.1728-6.8975c.5352-2.49.3784-4.4438-.4175-5.4292A2.522,2.522,0,0,0,87,51.66a1.5,1.5,0,0,1-1.5-1.5v-6C85.5,30.52,74.91,25.66,65,25.66Z" style="fill:#333"/><path d="M65,24.16c-15.88,0-22,10-22,20v6a4.7408,4.7408,0,0,0-1.86.38L63.42,63.42a3.42,3.42,0,0,0,3.34,0L88.92,50.56a4.6216,4.6216,0,0,0-2-.4v-6C87,34.16,80.88,24.16,65,24.16Z" style="fill:#b7535f"/><path d="M87,50.16v-6c0-10-6.12-20-22-20a31.5043,31.5043,0,0,0-5.7.5V46.44c0,4-4,4-4,6a7.1,7.1,0,0,1,6,4h3a1,1,0,0,1,1,1v3.44a2.9,2.9,0,0,0,1.18,2.34l.24.22h0L88.88,50.58A4.6216,4.6216,0,0,0,87,50.16Z" style="fill:#aa4959"/><path d="M75,38.44c3.4.76,7.08,4.56,7.08,8s2,4,2,8v3.08a.5.5,0,0,0,.86.34l6-5.36V48.9A26.48,26.48,0,0,0,66.26,22.2a26,26,0,0,0-27.2295,24.71q-.0312.6447-.03,1.2905v4.34l6.14,5.14a.5.5,0,0,0,.86-.36V54.44c0-4,2-4.66,2-8,0-3.68,1.48-6.92,5-8A46.0009,46.0009,0,0,1,75,38.44Z" style="fill:#333"/><path d="M61.5117,89.66a10.3029,10.3029,0,0,1-6.13-2.0391C49.1675,83.0415,43.5,74.7158,43.5,70.16V67.05a12.6553,12.6553,0,0,1-5.9766-8.627c-.7153-3.37-.3525-6.0957,1.0572-7.8359a5.1031,5.1031,0,0,1,2.9194-1.77V44.16a21.3994,21.3994,0,0,1,5.4507-14.7759C51.0742,24.9854,57.3154,22.66,65,22.66s13.9258,2.3252,18.0493,6.7241A21.3994,21.3994,0,0,1,88.5,44.16v4.6567a5.1139,5.1139,0,0,1,2.9375,1.7812c1.4082,1.7442,1.7637,4.4683,1.0288,7.878A12.35,12.35,0,0,1,86.5,67.06v3.1c0,4.9165-6.2725,13.2841-11.8813,17.4809A10.3129,10.3129,0,0,1,68.5132,89.66H61.5117ZM65,25.66c-9.91,0-20.5,4.86-20.5,18.5v6a1.5,1.5,0,0,1-1.5,1.5,2.51,2.51,0,0,0-2.0884.8159c-.7973.9843-.9595,2.9428-.4443,5.373a9.666,9.666,0,0,0,5.1987,6.9668A1.5,1.5,0,0,1,46.5,66.16v4c0,3.2358,4.9238,10.8173,10.67,15.0522A7.2963,7.2963,0,0,0,61.5156,86.66h6.9956a7.2889,7.2889,0,0,0,4.3155-1.4253C78.5723,80.9355,83.5,73.3511,83.5,70.16v-4a1.5,1.5,0,0,1,.8477-1.3506,9.393,9.393,0,0,0,5.1728-6.8975c.5352-2.49.3784-4.4438-.4175-5.4292A2.522,2.522,0,0,0,87,51.66a1.5,1.5,0,0,1-1.5-1.5v-6C85.5,30.52,74.91,25.66,65,25.66Z" style="fill:#333"/><path d="M65.041,126.12a141.6934,141.6934,0,0,1-57.5493-12.249,1.5,1.5,0,0,1-.8716-1.6162l.6-3.62a15.8866,15.8866,0,0,1,10.687-12.4786c.041-.0136.083-.0253.125-.0351l30.62-7.3.6954,2.918L18.7925,99.0239a12.89,12.89,0,0,0-8.6128,10.104l-.4092,2.4673A138.6933,138.6933,0,0,0,65.043,123.12,138.4854,138.4854,0,0,0,120.43,111.5952l-.41-2.47a13.07,13.07,0,0,0-8.9194-10.2183L80.6562,91.74l.6876-2.92,30.5,7.18c.0361.0083.0722.0186.1079.03a16.0657,16.0657,0,0,1,11.0258,12.5913l.6026,3.6338a1.5,1.5,0,0,1-.8711,1.6162A141.5166,141.5166,0,0,1,65.041,126.12Z" style="fill:#333"/><path d="M81,91.78a1.5,1.5,0,0,1-1.5-1.5v-10a1.5,1.5,0,0,1,3,0v10A1.5,1.5,0,0,1,81,91.78Z" style="fill:#333"/><path d="M49,91.78a1.5,1.5,0,0,1-1.5-1.5v-10a1.5,1.5,0,0,1,3,0v10A1.5,1.5,0,0,1,49,91.78Z" style="fill:#333"/><path d="M37.76,98.14l27.34,8,27.32-8A39.1816,39.1816,0,0,0,81,90.28L65,95.14,49,90.28A38.7436,38.7436,0,0,0,37.76,98.14Z" style="fill:#993637"/><path d="M65.1,95.14l-16-4.86a52.5228,52.5228,0,0,0-6.74,3.88l22.74,6.62,22.82-6.62A54.6308,54.6308,0,0,0,81,90.28Z" style="fill:#eee5bc"/><path d="M65.1,107.64a1.4914,1.4914,0,0,1-.4214-.0605l-27.34-8a1.5,1.5,0,0,1-.6426-2.4971A40.0933,40.0933,0,0,1,48.3716,88.918a1.4985,1.4985,0,0,1,1.0644-.0733L65,93.5723l15.564-4.7276a1.509,1.509,0,0,1,1.0547.0684,40.5455,40.5455,0,0,1,11.8569,8.1616,1.5,1.5,0,0,1-.6343,2.5049l-27.32,8A1.4914,1.4914,0,0,1,65.1,107.64ZM40.6987,97.437l24.4014,7.14,24.36-7.1333a37.5272,37.5272,0,0,0-8.57-5.5629L65.436,96.5752a1.4909,1.4909,0,0,1-.872,0L49.1162,91.8828A37.0817,37.0817,0,0,0,40.6987,97.437Z" style="fill:#333"/><path d="M65.1,102.08a1.4949,1.4949,0,0,1-.4224-.0606l-22.62-6.64a1.5,1.5,0,0,1-.3877-2.7017,59.4961,59.4961,0,0,1,6.792-3.7553,1.4959,1.4959,0,0,1,1.0742-.0777l15.5625,4.7276,15.4629-4.7271a1.5136,1.5136,0,0,1,1.0659.0718,57.4113,57.4113,0,0,1,6.88,3.7588,1.5,1.5,0,0,1-.3848,2.7031l-22.6,6.64A1.4976,1.4976,0,0,1,65.1,102.08ZM46.1865,93.4648,65.1,99.0166l18.88-5.5474q-1.5213-.843-3.0928-1.5864L65.5386,96.5747a1.4993,1.4993,0,0,1-.8745,0L49.2207,91.8843Q47.6834,92.6262,46.1865,93.4648Z" style="fill:#333"/><path d="M38.78,47.62c4.54-3.14,15.7-5.68,26.32-5.68s21.78,2.54,26.3,5.68c2-1.32,1.02-5.5,1.02-7.1,0-5.38-12.24-11.12-27.32-11.12S37.78,35.14,37.78,40.52C37.78,42.12,36.88,46.3,38.78,47.62Z" style="fill:#809490"/><path d="M65.1,33.94c-15,0-27.32,5.74-27.32,11.12v.72a2.92,2.92,0,0,0,1.04,1.84c4.5-3.14,15.66-5.68,26.28-5.68s21.78,2.54,26.3,5.68a2.84,2.84,0,0,0,1.04-1.84v-.72C92.42,39.68,80.1,33.94,65.1,33.94Z" style="fill:#6a807c"/><path d="M38.78,49.12a1.499,1.499,0,0,1-.856-.268c-2.2178-1.5411-1.92-4.93-1.7226-7.1719.04-.4585.0786-.86.0786-1.16,0-6.7226,13.4673-12.62,28.82-12.62s28.82,5.8975,28.82,12.62c0,.3028.043.7095.0879,1.1734.2178,2.2465.5469,5.6416-1.7817,7.1787a1.4994,1.4994,0,0,1-1.6822-.02C86.1758,45.8174,75,43.44,65.1,43.44c-9.8911,0-21.0772,2.378-25.4663,5.4141A1.5016,1.5016,0,0,1,38.78,49.12ZM65.1,40.44c9.7827,0,20.481,2.1783,25.91,5.18a12.4426,12.4426,0,0,0,.0122-3.6367c-.0547-.5635-.1021-1.05-.1021-1.4629,0-3.874-10.8418-9.62-25.82-9.62S39.28,36.646,39.28,40.52c0,.3682-.0406.8609-.09,1.4229a13.5331,13.5331,0,0,0,.0181,3.6582C44.6631,42.6094,55.3447,40.44,65.1,40.44Z" style="fill:#333"/><path d="M57.02,21.94a28.66,28.66,0,0,0,8,20,28.82,28.82,0,0,0,0-40A28.76,28.76,0,0,0,57.02,21.94Z" style="fill:#d5e7e5"/><path d="M57.02,21.94a28.66,28.66,0,0,0,8,20,28.82,28.82,0,0,0,0-40A28.76,28.76,0,0,0,57.02,21.94Z" style="fill:#d5e7e5"/><path d="M73.18,21.94a28.8,28.8,0,0,0-8-20v40A28.76,28.76,0,0,0,73.18,21.94Z" style="fill:#b9cdca"/><path d="M57.94,14.78l7.16,7.16,7.14-7.16A28.5621,28.5621,0,0,0,69.4,7.76l-4.3,4.32L60.78,7.76A28.5621,28.5621,0,0,0,57.94,14.78Z" style="fill:#5e463a"/><path d="M65.1,21.94l7.14-7.16A28.5621,28.5621,0,0,0,69.4,7.76l-4.3,4.32Z" style="fill:#735343"/><path d="M65.02,43.44h-.001a1.4992,1.4992,0,0,1-1.08-.46,30.0057,30.0057,0,0,1-8.419-21.04A30.1124,30.1124,0,0,1,63.9375.9019,1.4993,1.4993,0,0,1,65.0181.44H65.02a1.5,1.5,0,0,1,1.08.459,30.2194,30.2194,0,0,1,0,42.0821A1.5,1.5,0,0,1,65.02,43.44Zm.0034-39.2685A27.1142,27.1142,0,0,0,58.52,21.9351v.0117A27.0057,27.0057,0,0,0,65.022,39.71,27.2144,27.2144,0,0,0,65.0234,4.1714Z" style="fill:#333"/><path d="M33,100.28a24,24,0,0,0,6,16,24.34,24.34,0,0,0,0-32A24,24,0,0,0,33,100.28Z" style="fill:#d5e7e5"/><path d="M33,100.28a24,24,0,0,0,6,16,24.34,24.34,0,0,0,0-32A24,24,0,0,0,33,100.28Z" style="fill:#d5e7e5"/><path d="M45,100.28a24,24,0,0,0-6-16v32A24,24,0,0,0,45,100.28Z" style="fill:#b9cdca"/><path d="M33.7,94.56l5.3,5.72,5.32-5.72a24.44,24.44,0,0,0-2.12-5.62L39,92.38l-3.2-3.44A23.5033,23.5033,0,0,0,33.7,94.56Z" style="fill:#5e463a"/><path d="M39,100.28l5.32-5.72a24.44,24.44,0,0,0-2.12-5.62L39,92.38Z" style="fill:#735343"/><path d="M39,117.78a1.5,1.5,0,0,1-1.125-.5078,25.8334,25.8334,0,0,1,0-33.9844,1.4525,1.4525,0,0,1,1.1289-.5078,1.4989,1.4989,0,0,1,1.1265.5141,25.9381,25.9381,0,0,1,0,33.9717,1.5,1.5,0,0,1-1.1265.5142Zm-.0063-31.1177A22.4732,22.4732,0,0,0,34.5,100.272v.0156a22.4713,22.4713,0,0,0,4.4937,13.61A22.9525,22.9525,0,0,0,38.9937,86.6621Z" style="fill:#333"/><path d="M39,82a1.5,1.5,0,0,1-1.5-1.5V64.28a1.5,1.5,0,0,1,3,0V80.5A1.5,1.5,0,0,1,39,82Z" style="fill:#913124"/><path d="M42.1,121.28a3,3,0,1,1-3-3,3,3,0,0,1,3,3Z" style="fill:#993637"/><path d="M97,100.28a24,24,0,0,1-6,16,24.34,24.34,0,0,1,0-32A24,24,0,0,1,97,100.28Z" style="fill:#d5e7e5"/><path d="M97,100.28a24,24,0,0,1-6,16,24.34,24.34,0,0,1,0-32A24,24,0,0,1,97,100.28Z" style="fill:#d5e7e5"/><path d="M85,100.28a24,24,0,0,1,6-16v32A24,24,0,0,1,85,100.28Z" style="fill:#b9cdca"/><path d="M96.32,94.56,91,100.28l-5.3-5.72a24.44,24.44,0,0,1,2-5.62l3.2,3.44,3.2-3.44A23.838,23.838,0,0,1,96.32,94.56Z" style="fill:#5e463a"/><path d="M91,100.28l-5.3-5.72a24.44,24.44,0,0,1,2-5.62l3.2,3.44Z" style="fill:#735343"/><path d="M91,117.78h-.0039a1.4987,1.4987,0,0,1-1.1265-.5142,25.9381,25.9381,0,0,1,0-33.9717,1.4989,1.4989,0,0,1,1.1265-.5141H91a1.5,1.5,0,0,1,1.125.5078,25.8334,25.8334,0,0,1,0,33.9844A1.501,1.501,0,0,1,91,117.78Zm.0063-31.1177a22.9525,22.9525,0,0,0,0,27.2354,22.4692,22.4692,0,0,0,4.4937-13.61v-.0156A22.4711,22.4711,0,0,0,91.0063,86.6621Z" style="fill:#333"/><path d="M91,82a1.5,1.5,0,0,1-1.5-1.5V64.28a1.5,1.5,0,0,1,3,0V80.5A1.5,1.5,0,0,1,91,82Z" style="fill:#913124"/><path d="M88.1,121.28a3,3,0,1,0,3-3,3,3,0,0,0-3,3Z" style="fill:#993637"/><path d="M50.28,52.52a12.0039,12.0039,0,0,1,2.9-1.1,11.1621,11.1621,0,0,1,3.16-.18,19.4418,19.4418,0,0,1,5.64,2h0a.46.46,0,0,1,.24.6.48.48,0,0,1-.46.28,24.5278,24.5278,0,0,1-2.96-.52c-.94-.18-1.86-.28-2.74-.42a14.603,14.603,0,0,0-5.5.12h0a.446.446,0,1,1-.3-.84h0Z" style="fill:#333"/><path d="M80.1,53.36a14.5824,14.5824,0,0,0-5.5-.12c-.9.14-1.8.24-2.74.42a24.5278,24.5278,0,0,1-2.96.52.44.44,0,0,1-.4782-.3981A.4181.4181,0,0,1,68.42,53.74a.46.46,0,0,1,.28-.46h0a19.4418,19.4418,0,0,1,5.64-2,12.8668,12.8668,0,0,1,3.16.18,10.3613,10.3613,0,0,1,2.9,1.1.4624.4624,0,1,1-.34.86Z" style="fill:#333"/><circle cx="56.4201" cy="56.6999" r="1.42" style="fill:#333"/><circle cx="74.3401" cy="56.6999" r="1.42" style="fill:#333"/><path d="M65.2617,70.3208a5.905,5.905,0,0,1-2.8647-.7446,4.54,4.54,0,0,0-2.14-.5464.75.75,0,0,1,.003-1.5h.0029a6.0524,6.0524,0,0,1,2.855.7309,4.3844,4.3844,0,0,0,4.2788.003,6.057,6.057,0,0,1,2.86-.7339h.003a.75.75,0,0,1,.0029,1.5,4.5458,4.5458,0,0,0-2.145.5493A5.8875,5.8875,0,0,1,65.2617,70.3208Z" style="fill:#674848"/><path d="M67.46,73.06a1.281,1.281,0,0,0-.86,0l-1.3.58-1.2-.52a1.281,1.281,0,0,0-.86,0,12.2816,12.2816,0,0,0-4.94,2.56h0l2,2a3.74,3.74,0,0,0,2.68,1.14H67.9a3.7,3.7,0,0,0,2.68-1.14l2-2A12.0012,12.0012,0,0,0,67.46,73.06Z" style="fill:#916953"/><path d="M65.2808,76.604l-.2178-.0728a8.2382,8.2382,0,0,0-4.2315-.1625A13.6226,13.6226,0,0,1,58.78,76.57a.75.75,0,0,1,0-1.5,12.2968,12.2968,0,0,0,1.8286-.1845,9.8194,9.8194,0,0,1,4.7095.1533,10.616,10.616,0,0,1,4.6684-.1367A12.0089,12.0089,0,0,0,71.74,75.07a.75.75,0,0,1,0,1.5,13.3457,13.3457,0,0,1-1.9692-.1836,9.0884,9.0884,0,0,0-4.269.1563Z" style="fill:#674848"/></g></g></g></g></g></svg>