<svg xmlns="http://www.w3.org/2000/svg" viewBox="0 0 128 128"><title>construction-worker-black-woman</title><g id="construction-black-woman"><path d="M81.8863,79.8825c0,10.5-8.74,11.16-19.5,11.16s-19.56-.66-19.56-11.16a19.52,19.52,0,0,1,39.02,0Z" style="fill:#333"/><path d="M66.2263,61.1825a19.22,19.22,0,0,0-19.4,18.98c0,7.22,4.12,9.78,10.2,10.68,1.7.1,3.5.12,5.36.12,10.76,0,19.5-.66,19.5-11.16A19.14,19.14,0,0,0,66.2263,61.1825Z" style="fill:#333"/><path d="M81.8863,79.8825c0,10.5-8.74,11.16-19.5,11.16s-19.56-.66-19.56-11.16a19.52,19.52,0,0,1,39.02,0Z" style="fill:none;stroke:#333;stroke-linejoin:round;stroke-width:3.3035149574279785px"/><path d="M35.1463,47.1825v11.72h0a19.8,19.8,0,0,0,19.78,19.82h14.12a19.82,19.82,0,0,0,19.82-19.82v-11.72Z" style="fill:#c3d1dc"/><path d="M35.0463,47.3625v11.5a20,20,0,0,0,19.78,20h14a20.24,20.24,0,0,0,20.22-20v-11.5Z" style="fill:none;stroke:#333;stroke-linejoin:round;stroke-width:3px"/><path d="M99.8063,93.2225c-9.22-2.3-20.76-5.72-37.62-5.72h-.16c-16.96,0-28.4,3.4-37.62,5.72-7.66,2-8.8,8.94-9.36,12.32a125.8205,125.8205,0,0,0,47,10,123.8233,123.8233,0,0,0,47-10C108.6263,102.4025,107.7663,95.2025,99.8063,93.2225Z" style="fill:#318ab7"/><path d="M99.8063,98.3625l-8.56-2.14a120.5394,120.5394,0,0,0-29.06-3.56h-.16a119.9945,119.9945,0,0,0-28.98,3.56l-8.56,2.14a11.06,11.06,0,0,0-8,7.52,114.462,114.462,0,0,0,45.56,9.66,115.0414,115.0414,0,0,0,45.66-9.66A11.02,11.02,0,0,0,99.8063,98.3625Z" style="fill:#1a6c9d"/><path d="M50.0463,78.5425v6c0,8.58,4.56,14.92,12,20,7.44-5.08,12-11.42,12-20v-6Z" style="fill:#b28a6f"/><path d="M74.0463,78.5425h-24v5.16l9.66,10.18a8.14,8.14,0,0,1,2.34,5.72v5c7.44-5.08,12-11.42,12-20Z" style="fill:#a48067"/><path d="M62.1863,87.5425a10.18,10.18,0,0,0,9-3.44c5.58-5.8,10-9,10-15v-3c4,0,5.52-4,6-8,.56-4.6-.54-8-4-8v-4c0-10.82-4.92-20-21-20s-21,9.18-21,20v4c-3.46,0-4.56,3.4-4,8,.48,4,2,8,6,8v3c0,6,4.42,9.2,10,15a10.18,10.18,0,0,0,9,3.44" style="fill:#b28a6f"/><path d="M82.6263,50.2025c0-.62.24-3.18.24-3.82,0-10.82-4.72-20.2-20.8-20.2a35.1294,35.1294,0,0,0-5.42.42v20.98a7.82,7.82,0,0,1-2.54,5.78.92.92,0,0,0,0,1.28.961.961,0,0,0,.46.26,5.14,5.14,0,0,1,3.76,3.76.98.98,0,0,0,1.16.74.9206.9206,0,0,0,.38-.16,2.88,2.88,0,0,1,1.16-.64.98.98,0,0,1,1.1953.7014l.0047.0186a.9833.9833,0,0,1,0,.24v4.12a2.18,2.18,0,0,0,1.26,1.88c1.14.64.32,2.8-1.26,2.8v9.52a.78.78,0,0,0,.62.76c2.64.62,4,5-.62,6-2.18.44-5.12-2-6.12,0,0,.12-1.32,2.96,6.12,2.96a9.36,9.36,0,0,0,8.52-3.44c5.56-5.8,9.8-9.34,10.2-15.34a11.5317,11.5317,0,0,1,.18-2c3.72-.12,5.2-4.4,5.68-8.28C87.3263,53.7425,86.0863,50.2025,82.6263,50.2025Z" style="fill:#a48067"/><path d="M41.1863,47.1825v2.92c-3.46,0-4.56,3.4-4,8,.48,4,2,8,6,8v3a11.56,11.56,0,0,0,2.84,7.48,19.6414,19.6414,0,0,0,9.02,2.14h14a19.841,19.841,0,0,0,9.54-2.44,11.4606,11.4606,0,0,0,2.6-7.18v-3c4,0,5.52-4,6-8,.56-4.6-.54-8-4-8v-2.92Z" style="fill:#ad968d"/><path d="M54.1063,53.3625a.92.92,0,0,0,0,1.28.9615.9615,0,0,0,.46.26,5.14,5.14,0,0,1,3.76,3.76.98.98,0,0,0,1.16.74.92.92,0,0,0,.38-.16,2.88,2.88,0,0,1,1.16-.64.98.98,0,0,1,1.1953.7014l.0047.0186a.9833.9833,0,0,1,0,.24v4.12a2.18,2.18,0,0,0,1.26,1.88c1.14.64.32,2.8-1.26,2.8v10.36h6.82a19.841,19.841,0,0,0,9.54-2.44,11.4606,11.4606,0,0,0,2.6-7.18v-3c4,0,5.52-4,6-8,.56-4.6-.54-8-4-8v-2.92h-26.54v.4A7.82,7.82,0,0,1,54.1063,53.3625Z" style="fill:#a48b83"/><path d="M63.9063,72.8425a3.7615,3.7615,0,0,1-1.62.42c-.42,0-.46,0-1.4-.42-1.68-.66-1.76,1.38-4.86,2.5l2,2a4.52,4.52,0,0,0,3.24,1.16h2a5.12,5.12,0,0,0,3.48-1.26l1.78-1.88C65.5863,74.2825,65.5663,72.1825,63.9063,72.8425Z" style="fill:#917b77"/><path d="M87.0463,58.6425v-.54c.56-4.6-.54-8-4-8v-4c0-10.82-4.92-20-21-20s-21,9.18-21,20v4c-3.46,0-4.56,3.4-4,8v.62a170.2532,170.2532,0,0,0,24.7,1.82A170.1983,170.1983,0,0,0,87.0463,58.6425Z" style="fill:#9f8a82"/><path d="M82.6263,50.2025c0-.62.24-3.18.24-3.82,0-10.82-4.72-20.2-20.8-20.2a35.1294,35.1294,0,0,0-5.42.42v20.98a7.82,7.82,0,0,1-2.54,5.78.92.92,0,0,0,0,1.28.961.961,0,0,0,.46.26,5.14,5.14,0,0,1,3.76,3.76.98.98,0,0,0,1.16.74.9206.9206,0,0,0,.38-.16,2.88,2.88,0,0,1,1.16-.64.98.98,0,0,1,1.1953.7014l.0047.0186a.9833.9833,0,0,1,0,.24v.98a170.6548,170.6548,0,0,0,24.52-1.84v-.36C87.3263,53.7425,86.0863,50.2025,82.6263,50.2025Z" style="fill:#9b837e"/><path d="M83.1863,50.1025v-4c0-10.82-4.92-20-21-20s-21,9.18-21,20v4c-3.46,0-4.56,3.4-4,8,.48,4,2,8,6,8v3c0,6,4.6,9.58,10,15a10.38,10.38,0,0,0,9,3.44,10.18,10.18,0,0,0,9-3.44c5.58-5.8,10-9,10-15v-3c4,0,5.52-4,6-8C87.7463,53.5025,86.6463,50.1025,83.1863,50.1025Z" style="fill:none;stroke:#333;stroke-linejoin:round;stroke-width:3px"/><path d="M56.1663,59.6625a9.4,9.4,0,0,0-2.58-1.62h-.12a8.72,8.72,0,0,0-6.52.6l-.62.32.5.48a5.54,5.54,0,0,0,1.5,1.02l.32.14.24-.24a4.46,4.46,0,0,1,3.06-1.54,1.42,1.42,0,0,0-.5,1.1,1.5,1.5,0,0,0,3,0,1.215,1.215,0,0,0,0-.26,14.0705,14.0705,0,0,1,1.14.86,5.1449,5.1449,0,0,0,.78.6.56.56,0,0,0,.26,0,.48.48,0,0,0,.42-.24.52.52,0,0,0-.18-.7A6.54,6.54,0,0,1,56.1663,59.6625Z" style="fill:#606060"/><path d="M77.0463,58.5625a8.72,8.72,0,0,0-6.52-.6h-.12a9.0984,9.0984,0,0,0-2.58,1.62,6.56,6.56,0,0,1-.64.5.5.5,0,0,0-.2146.6737l.0146.0263a.52.52,0,0,0,.44.24.56.56,0,0,0,.26,0,6.3683,6.3683,0,0,0,.78-.6c.3-.24.64-.52,1-.78v.18a1.5,1.5,0,1,0,3,0,1.48,1.48,0,0,0-.48-1.1,4.36,4.36,0,0,1,3.16,1.54l.24.24.32-.14a5.1816,5.1816,0,0,0,1.48-1.02l.52-.48Z" style="fill:#606060"/><path d="M47.0463,55.2425a7.5163,7.5163,0,0,1,2.64-1.08,9.52,9.52,0,0,1,2.82,0,26.2752,26.2752,0,0,1,2.68.62,16.739,16.739,0,0,0,2.44.56h0a1.02,1.02,0,0,1,.9209,1.11l-.0009.01a1.02,1.02,0,0,1-1.12.9h-.16a18.2508,18.2508,0,0,1-2.64-1,23.7824,23.7824,0,0,0-2.4-.94,7.5177,7.5177,0,0,0-2.46-.38,3.8191,3.8191,0,0,0-2.32.74.36.36,0,1,1-.44-.56Z" style="fill:#606060"/><path d="M76.3263,55.8825a3.68,3.68,0,0,0-2.3-.74,7.457,7.457,0,0,0-2.46.4c-.8.24-1.6.6-2.42.94a18.0189,18.0189,0,0,1-2.68.98,1.0261,1.0261,0,0,1-.46-2h.18a16.2988,16.2988,0,0,0,2.42-.54c.86-.24,1.76-.48,2.68-.64a8.8806,8.8806,0,0,1,2.82,0,7.2584,7.2584,0,0,1,2.64,1.06.36.36,0,0,1,.1238.4938l-.0038.0062a.36.36,0,0,1-.4939.1237l-.0061-.0037Z" style="fill:#606060"/><path d="M81.0463,58.5425c0-5,4-7.64,4-14.16,0-10.44-5.74-20-23-20s-23,9.5-23,20c0,6.52,4,10.16,4,15.16v-7c17.06,0,21.74-2.6,26-8.7,2,3.46,5.02,6.36,12,8.7Z" style="fill:#606060"/><path d="M42.3663,59.5425l-.28-7a.94.94,0,0,1,.88-.96h0c2.36-.12,4.74-.22,7.08-.48a58.46,58.46,0,0,0,7-1.02,18.8421,18.8421,0,0,0,6.14-2.46,18.0036,18.0036,0,0,0,4.62-4.6h0a1.4,1.4,0,0,1,1.9548-.3141q.0229.0165.0452.0341h0a1.3414,1.3414,0,0,1,.38.44,15.3805,15.3805,0,0,0,4.62,5.2,27.9988,27.9988,0,0,0,6.48,3.32h0a.96.96,0,0,1,.6.9c0,2-.2,4-.3,6a.68.68,0,0,1-1.36,0c0-2-.24-4-.3-6l.68.92a30.2036,30.2036,0,0,1-7.26-3.1,17.561,17.561,0,0,1-5.74-5.76h2.46a17.1006,17.1006,0,0,1-5.4,5.5,20.6015,20.6015,0,0,1-7.2,2.58,70.9862,70.9862,0,0,1-14.56.74l.96-.96-.28,7a.68.68,0,0,1-.6994.66h-.0006A.7.7,0,0,1,42.3663,59.5425Z" style="fill:#606060"/><line x1="62.0463" y1="104.9025" x2="62.0463" y2="115.5425" style="fill:none;stroke:#333;stroke-linecap:round;stroke-linejoin:round;stroke-width:3px"/><path d="M74.1063,84.3425l5,4v17l-10-6C72.0663,95.2625,73.2863,90.4025,74.1063,84.3425Z" style="fill:#318ab7"/><polyline points="69.106 99.342 79.106 105.342 79.106 88.342 74.106 84.342" style="fill:none;stroke:#333;stroke-linejoin:round;stroke-width:3px"/><path d="M50.1063,84.3425l-5,4v17l10-6C52.1463,95.2625,50.9263,90.4025,50.1063,84.3425Z" style="fill:#318ab7"/><polyline points="55.106 99.342 45.106 105.342 45.106 88.342 50.106 84.342" style="fill:none;stroke:#333;stroke-linejoin:round;stroke-width:3px"/><path d="M45.0463,88.3425c-2,.48-18.26,4.26-20.7,4.88-7.72,2-8.28,9.06-8.82,12.28h.2a114.2811,114.2811,0,0,0,46.26,10,119.5212,119.5212,0,0,0,46.46-10c-.24-1.82-.16-10.66-8.7-12.32-1.86-.36-18.2-4.38-20.7-4.88" style="fill:none;stroke:#333;stroke-linejoin:round;stroke-width:3px"/><path d="M74.0463,81.2025v3.7c0,8.56-4.56,14.9-12,20-7.44-5.1-12-11.44-12-20v-4" style="fill:none;stroke:#333;stroke-linejoin:round;stroke-width:2.799999952316284px"/><path d="M42.3863,59.5425c-.1-4-2.98-7.34-4-11.68a22.26,22.26,0,0,1-.3-6.52,21.82,21.82,0,0,1,1.58-6.36,18,18,0,0,1,9.12-9.34,30.4994,30.4994,0,0,1,12.7-2.62,32,32,0,0,1,12.78,2.14,18.2,18.2,0,0,1,9.64,8.88,21.881,21.881,0,0,1,1.86,6.32,23.8824,23.8824,0,0,1,0,6.54c-.68,4.52-4,7.74-4,11.64a.66.66,0,1,1-1.32.001v-.001h0a14.4,14.4,0,0,1,1.64-6.3,20.2619,20.2619,0,0,0,1.88-5.66,20.42,20.42,0,0,0-2-11.46,15.84,15.84,0,0,0-8.54-7.4,31.9975,31.9975,0,0,0-11.84-1.84,29.7191,29.7191,0,0,0-11.64,2.1,15.54,15.54,0,0,0-8.14,7.9,20.317,20.317,0,0,0-1.58,5.7,19.4574,19.4574,0,0,0,.1,5.9,30.8357,30.8357,0,0,0,1.9,5.76,16.7008,16.7008,0,0,1,1.48,6.3.66.66,0,0,1-1.32,0Z" style="fill:#606060"/><line x1="61.0463" y1="78.5425" x2="63.6463" y2="78.5425" style="fill:none;stroke:#a27c67;stroke-linecap:round;stroke-linejoin:round;stroke-width:1.5px"/><path d="M31.0463,56.6025l4.26,2.48v-11.74l-4.26,2.54a1.78,1.78,0,0,0-.88,1.52v3.68A1.78,1.78,0,0,0,31.0463,56.6025Z" style="fill:#f0eee2"/><path d="M30.0263,54.3225v.76a1.72,1.72,0,0,0,.92,1.52l4.26,2.48v-8.78l-4.16,2.5A1.72,1.72,0,0,0,30.0263,54.3225Z" style="fill:#dad6c1"/><path d="M31.0463,56.6025l4.26,2.48v-11.74l-4.26,2.54a1.78,1.78,0,0,0-.88,1.52v3.68A1.78,1.78,0,0,0,31.0463,56.6025Z" style="fill:none;stroke:#333;stroke-linejoin:round;stroke-width:3px"/><path d="M93.3063,56.6225l-4.26,2.48v-11.74l4.26,2.52a1.78,1.78,0,0,1,.88,1.52v3.72A1.84,1.84,0,0,1,93.3063,56.6225Z" style="fill:#f0eee2"/><path d="M94.2263,54.3425v.76a1.84,1.84,0,0,1-.92,1.52l-4.26,2.48v-8.78l4.26,2.5A1.72,1.72,0,0,1,94.2263,54.3425Z" style="fill:#dad6c1"/><path d="M93.3063,56.6225l-4.26,2.48v-11.74l4.26,2.52a1.78,1.78,0,0,1,.88,1.52v3.72A1.84,1.84,0,0,1,93.3063,56.6225Z" style="fill:none;stroke:#333;stroke-linejoin:round;stroke-width:3px"/><path d="M63.0463,16.3225h-2a26,26,0,0,0-26,26h0v4.92c0,1.12,12,4.5,26.86,4.5s26.86-3.4,26.86-4.5v-4.98A26,26,0,0,0,63.0463,16.3225Z" style="fill:#f0eee2"/><path d="M43.1463,49.8825v-1.86a26,26,0,0,1,26-26h2a25.9994,25.9994,0,0,1,10.7,2.32l-.3-.32-.4-.14-.74-.7v-.1a26,26,0,0,0-17.36-6.76h-2a26,26,0,0,0-26,26h0v4.92C35.1463,47.7625,38.2063,48.9025,43.1463,49.8825Z" style="fill:#fff"/><path d="M63.0463,16.3225h-2a26.16,26.16,0,0,0-26,26v4.5c0,2,12.1,4.82,26.96,4.82s27.04-2.84,27.04-4.28v-5A26.24,26.24,0,0,0,63.0463,16.3225Z" style="fill:none;stroke:#333;stroke-linejoin:round;stroke-width:3px"/><path d="M88.8863,47.3225c0,1.62-12,4.36-26.86,4.36s-26.88-2.78-26.88-4.36,12-3,26.86-3S88.8863,45.6625,88.8863,47.3225Z" style="fill:#fff"/><path d="M36.6063,48.3825c3.62,1.52,13.62,3.26,25.42,3.26s21.78-1.74,25.4-3.26c-3.62-1.14-13.62-.76-25.4-.76S40.2263,47.2225,36.6063,48.3825Z" style="fill:#f0eee2"/><path d="M35.5863,45.3225v2.56a76.86,76.86,0,0,1,9.22-2.86A39.5171,39.5171,0,0,0,35.5863,45.3225Z" style="fill:#3a3a3a"/><path d="M88.4463,45.3225v2.56a77.9917,77.9917,0,0,0-9.22-2.86A39.5171,39.5171,0,0,1,88.4463,45.3225Z" style="fill:#3a3a3a"/><path d="M41.8663,29.1425l-.6-1.3a6.12,6.12,0,0,1,3-8h0a1.04,1.04,0,0,1,1.38.5h0l1.14,2.8" style="fill:#fff;stroke:#333;stroke-linejoin:round;stroke-width:3px"/><path d="M82.2263,29.1425l.6-1.3a6.12,6.12,0,0,0-3-8h0a1.04,1.04,0,0,0-1.38.5h0l-1.14,2.8" style="fill:#f0eee2;stroke:#333;stroke-linejoin:round;stroke-width:3px"/><path d="M62.0463,9.8825h0a7.5,7.5,0,0,0-7.5,7.5v10.5h15v-10.5A7.5,7.5,0,0,0,62.0463,9.8825Z" style="fill:#fff"/><path d="M62.0463,15.8825h0a7.5,7.5,0,0,0-7.5,7.5v5.5h15v-5.5A7.5,7.5,0,0,0,62.0463,15.8825Z" style="fill:#f0eee2"/><path d="M69.5463,28.8825v-11.5a7.5,7.5,0,0,0-7.5-7.5h0a7.5,7.5,0,0,0-7.5,7.5v11.5" style="fill:none;stroke:#333;stroke-linejoin:round;stroke-width:3px"/><circle cx="54.5463" cy="32.4025" r="1.26" style="fill:#3a3a3a"/><circle cx="69.5463" cy="32.4025" r="1.26" style="fill:#3a3a3a"/><circle cx="54.5463" cy="37.1025" r="1.26" style="fill:#3a3a3a"/><circle cx="69.5463" cy="37.1025" r="1.26" style="fill:#3a3a3a"/><circle cx="54.5463" cy="41.8025" r="1.26" style="fill:#3a3a3a"/><circle cx="69.5463" cy="41.8025" r="1.26" style="fill:#3a3a3a"/><path d="M41.1863,50.1025c-3.46,0-4.56,3.4-4,8,.48,4,2,8,6,8v3a12,12,0,0,0,2.8,7.5" style="fill:none;stroke:#606060;stroke-linejoin:round;stroke-width:3px"/><path d="M83.2063,50.1025c3.46,0,4.56,3.4,4,8-.48,4-2,8-6,8v3a12,12,0,0,1-2.8,7.5" style="fill:none;stroke:#606060;stroke-linejoin:round;stroke-width:3px"/><path d="M35.1463,47.3225c0,1.62,12,4.36,26.86,4.36s26.88-2.78,26.88-4.36" style="fill:none;stroke:#333;stroke-linecap:round;stroke-linejoin:round;stroke-width:3px"/><path d="M35.0463,47.3625v11.5a20,20,0,0,0,19.78,20h14a20.24,20.24,0,0,0,20.22-20v-11.5" style="fill:none;stroke:#333;stroke-linejoin:round;stroke-width:3px"/><path d="M96.6863,92.9025a4.12,4.12,0,0,0-3.14-4c-.5-.12-4.72-1.26-10.2-2.2a2,2,0,0,0-2,1.2c-2,4.84-9.78,8.48-19.2,8.48s-17.42-3.62-19.34-8.5a2,2,0,0,0-2.1-1.2c-5.58.96-9.5,2-10.22,2.2a4.12,4.12,0,0,0-3.14,4v17.52a118.8217,118.8217,0,0,0,34.74,5.14,118.6219,118.6219,0,0,0,34.6-5.1Z" style="fill:#b7de75"/><path d="M96.7463,110.4825v-13.78a144.4643,144.4643,0,0,0-20-4,28.6808,28.6808,0,0,1-14.66,3.62,28.6806,28.6806,0,0,1-14.66-3.62,133.5806,133.5806,0,0,0-20,4v13.78a120.2623,120.2623,0,0,0,34.74,5.04C79.6263,115.5225,85.5463,113.0625,96.7463,110.4825Z" style="fill:#9ac458"/><path d="M63.0463,96.3825a5,5,0,0,1,5,5v14" style="fill:none;stroke:#333;stroke-linecap:round;stroke-linejoin:round;stroke-width:3px;opacity:0.07999999821186066;isolation:isolate"/><path d="M83.0463,113.7625c2.46-.42,4.9-.94,7.3-1.52v-24.12c-2.3-.54-4.6-1-6.94-1.42h-.36Z" style="fill:#f7ffe9"/><path d="M90.2663,112.2225v-17.08c-2.42-.56-4.86-1.04-7.32-1.46v20c3.4-.58,5.18-.96,7.2-1.46Z" style="fill:#ebffc5"/><path d="M33.7663,112.2025c2.4.58,4.84,1.1,7.3,1.54v-27h-.36c-2.32.4-4.64.88-6.94,1.42Z" style="fill:#f7ffe9"/><path d="M41.0463,93.7025c-2.44.42-4.88.9-7.3,1.46v17h.12c2.12.52,3.24.76,7.18,1.48Z" style="fill:#ebffc5"/><path d="M96.0263,93.0425a4,4,0,0,0-3.12-4,87.7408,87.7408,0,0,0-9.6-2.2,2,2,0,0,0-2.1,1.2c-2,4.84-9.74,8.66-19.16,8.66s-17.36-3.8-19.28-8.64a1.88,1.88,0,0,0-2.1-1.2,69.7041,69.7041,0,0,0-9.48,2.32,4.12,4.12,0,0,0-3.14,4v17.54a115.2032,115.2032,0,0,0,34,5,114.6425,114.6425,0,0,0,34-5.1Z" style="fill:none;stroke:#333;stroke-linejoin:round;stroke-width:3px"/><path d="M61.0463,96.7625a5,5,0,0,1,5,5v14" style="fill:none;stroke:#333;stroke-linecap:round;stroke-linejoin:round;stroke-width:3px"/><rect x="51.8663" y="107.6425" width="20.28" height="6.94" rx="1" style="fill:#65a391"/><rect x="51.8663" y="107.6425" width="20.28" height="6.94" rx="1" style="fill:none;stroke:#333;stroke-linejoin:round;stroke-width:3px"/><rect x="69.4263" y="106.6825" width="4.12" height="8.38" rx="1" style="fill:none;stroke:#333;stroke-linejoin:round;stroke-width:3px"/><line x1="62.2863" y1="69.2225" x2="62.2863" y2="70.7625" style="fill:none;stroke:#917b77;stroke-linecap:round;stroke-miterlimit:10;stroke-width:1.5px"/><path d="M58.1063,68.1825c2,0,2,1.04,4.18,1.04s2-1.04,4.18-1.04" style="fill:none;stroke:#826b68;stroke-linecap:round;stroke-miterlimit:10;stroke-width:1.5px"/><line x1="55.9063" y1="74.5225" x2="55.2263" y2="75.9225" style="fill:none;stroke:#917b77;stroke-linecap:round;stroke-miterlimit:10;stroke-width:1.5px"/><line x1="68.6463" y1="74.5225" x2="69.4663" y2="76.1825" style="fill:none;stroke:#917b77;stroke-linecap:round;stroke-miterlimit:10;stroke-width:1.5px"/><path d="M68.5263,75.3425c-2,0-3.12-1.04-6.24,0h0c-3.1-1.04-4.14,0-6.24,0" style="fill:none;stroke:#826b68;stroke-linecap:round;stroke-miterlimit:10;stroke-width:1.5px"/></g></svg>