<svg xmlns="http://www.w3.org/2000/svg" viewBox="0 0 128 128"><title>dave-grohl</title><g id="dave-grohl"><path d="M114.96,101.36a13.06,13.06,0,0,0-9.26-10.6L78.96,83.1V73.76l-31.82.2V83.1L20.46,90.76a13.18,13.18,0,0,0-9.24,10.6l-.76,4.52h.2a119.7208,119.7208,0,0,0,52.4,12,121.5391,121.5391,0,0,0,52.4-12h0Z" style="fill:#f1d0c7"/><path d="M63.14,92.58a16.58,16.58,0,0,0,23.42,0h0l5.9-5.54-13.48-4V73.76l-31.82.2v2.8Z" style="fill:#e5c4bd"/><path d="M114.96,101.36a13.06,13.06,0,0,0-9.26-10.6L86.46,85.3c-4.52,2.52-13.34,8-23.52,8s-18.9-5.56-23.42-8L20.46,90.76a13.18,13.18,0,0,0-9.24,10.6l-.76,4.52h.2a119.7208,119.7208,0,0,0,52.4,12,121.5391,121.5391,0,0,0,52.4-12h0Z" style="fill:#4f4e4d"/><path d="M20.32,96.44a13.24,13.24,0,0,0-9.12,9.9A120,120,0,0,0,62.96,118a121.3,121.3,0,0,0,51.76-11.66h0a13.06,13.06,0,0,0-9.14-9.86l-26-7.46a38.48,38.48,0,0,1-16.62,4.3,39.04,39.04,0,0,1-16.5-4.34Z" style="fill:#424242"/><path d="M39.54,85.2,20.46,90.76a13.18,13.18,0,0,0-9.24,10.6l-.76,4.52h.2a119.7208,119.7208,0,0,0,52.4,12,121.6,121.6,0,0,0,52.4-12h0l-.5-4.72a13.04,13.04,0,0,0-9.24-10.6L86.46,85.1" style="fill:none;stroke:#333;stroke-linejoin:round;stroke-width:3px"/><path d="M100.28,89.32a29.0038,29.0038,0,0,0-1.82-2.98L95.02,81.1c-2.26-3.46-2-6.32-1.62-10.68,0-.7.14-1.44.18-2.2A68.72,68.72,0,0,0,88.7,40.34c-2.96-7.88-4.4-11.58-7.74-15.04-6.18-6.4-9.84-7.9-15.68-8.86a7.36,7.36,0,0,0-6,1.7,10.98,10.98,0,0,0-8.28,0,17.48,17.48,0,0,0-8.54,9.1c-1.66,4.6-2.9,8-3.88,10.76a120.4058,120.4058,0,0,0-4.3,12.9l-.68,2.5a22.3607,22.3607,0,0,0,.12,11.14A9.3961,9.3961,0,0,0,34,66.12c-2.94,5.26-2.7,6.4-.84,11.2a20,20,0,0,0-6.86,16.7,9.56,9.56,0,0,0,9.56,9.56h1.46a7.64,7.64,0,0,0,5.04,1.88,7.54,7.54,0,0,0,5.02-13.12l1.28-2.96a1.4,1.4,0,0,0,.14-.62V73.84l28.56-.18V83.94a10.4592,10.4592,0,0,0,.84,4.12,7.34,7.34,0,0,0-.84,3.44A7.52,7.52,0,0,0,78,94.52a7.55,7.55,0,0,0,11.22,9.26h2.52a9.72,9.72,0,0,0,8.38-4.74A9.86,9.86,0,0,0,100.28,89.32Z" style="fill:#333"/><path d="M62.96,22.76c13.34,0,21.52,8,21.52,20V45.8c3.88,0,4.52,3.26,3.68,7.46-.74,3.46-2.62,7.86-5.68,7.86,0,0,.12,1.58.12,2.74-.32,8.18-6.62,12.92-13.02,16.38a16.62,16.62,0,0,1-6.52,2,16.2211,16.2211,0,0,1-6.5-2c-6.52-3.36-12.72-5.88-13.02-16.38,0-1.16.1-2.74.1-2.74-3.04,0-4.94-4.4-5.68-7.86-.94-4.2-.2-7.46,3.68-7.46V42.76C41.44,30.76,49.62,22.76,62.96,22.76Z" style="fill:#edccc3"/><path d="M88.16,53.26c.84-4.2.2-7.46-3.68-7.46V42.76c0-12-8.18-20-21.52-20a30.1591,30.1591,0,0,0-5.86.58V40.6a4.32,4.32,0,0,1-2.16,3.44.42.42,0,0,0,.16.76,8,8,0,0,1,6,3.8,2,2,0,0,1,2,2v4a3.22,3.22,0,0,0,1.36,2.36,2,2,0,0,1-1.3,3.52c-1.48,0-2-1-4-1-1.18,0-1,1.54-1.04,1.5a4.64,4.64,0,0,1,2,.52,5.9992,5.9992,0,0,0,3,.78v6.96a2.14,2.14,0,0,0,1.68,2,2.78,2.78,0,0,1,2.32,3.14c0,5.12-8.58,1.76-9.76,6.12a16.56,16.56,0,0,0,5.7,1.84,16.62,16.62,0,0,0,6.52-2c6.4-3.46,12.7-8.2,13.02-16.38,0-1.16-.12-2.74-.12-2.74C85.54,61.12,87.42,56.72,88.16,53.26Z" style="fill:#e5c2ba"/><path d="M82.6,63.78c0-1.16-.12-2.74-.12-2.74,3.06,0,4.94-4.4,5.68-7.86.84-4.2.2-7.46-3.68-7.46V42.76c0-12-8.18-20-21.52-20s-21.52,8-21.32,20V45.7c-3.88,0-4.62,3.26-3.68,7.46.74,3.46,2.64,7.86,5.68,7.86,0,0-.1,1.58-.1,2.74a15.3,15.3,0,0,0,3.28,9.9V60.02a18.3,18.3,0,0,1,2.14-8.58l4.38-8.38a9.9991,9.9991,0,0,0,.9-4.18v-4.8a3.26,3.26,0,0,1,3.1-3.18l4.18-.3L74.46,56.04h0c2.62,4.58,2.9,13.86,1.78,19.54A16,16,0,0,0,82.6,63.78Z" style="fill:#ddb9b3"/><path d="M65.96,66.66a5.66,5.66,0,0,0-2.36.26,1.22,1.22,0,0,1-.84,0,5.7412,5.7412,0,0,0-2.3-.26c-1.34.2-1.48,1.04-4.18,2.5l2.38,1.48a4.4,4.4,0,0,0,2.54.8h4.06a4.4,4.4,0,0,0,2.54-.8l2.46-1.42C67.56,67.76,67.3,66.86,65.96,66.66Z" style="fill:#d6b3b0"/><path d="M70.26,69.22c-2,0-2.5-.78-4.48-.78a15.0194,15.0194,0,0,0-2.56.34,15.3761,15.3761,0,0,0-2.58-.34c-1.9,0-2.3.72-4.42.72" style="fill:none;stroke:#af8582;stroke-linecap:round;stroke-miterlimit:10;stroke-width:1.2000000476837158px"/><path d="M47.04,46.34a12.3775,12.3775,0,0,1,3-1.14,11.6975,11.6975,0,0,1,3.34-.18,20,20,0,0,1,5.82,2.1h0a.44.44,0,0,1,.2536.5682L59.44,47.72h0a.5.5,0,0,1-.46.3,19.171,19.171,0,0,1-3.06-.54l-2.82-.44a14.5411,14.5411,0,0,0-2.8-.2,19.8552,19.8552,0,0,0-2.88.34h0a.4727.4727,0,0,1-.38-.84Z" style="fill:#333"/><path d="M77.9,47.2a19.8552,19.8552,0,0,0-2.88-.34,14.5411,14.5411,0,0,0-2.8.2c-.92.14-1.86.24-2.82.44a23.748,23.748,0,0,1-3.06.54.48.48,0,0,1-.5-.4592V47.58h0a.46.46,0,0,1,.28-.46h0a20,20,0,0,1,5.82-2.1,12.7645,12.7645,0,0,1,3.26.18,12.3775,12.3775,0,0,1,3,1.14.48.48,0,0,1,.18.64.46.46,0,0,1-.5.24Z" style="fill:#333"/><circle cx="53.18" cy="51.68" r="1.5" style="fill:#333"/><circle cx="71.78" cy="51.68" r="1.5" style="fill:#333"/><path d="M91.62,77.12a44.0021,44.0021,0,0,1,.22-9.04,68.3193,68.3193,0,0,0-4.74-27.2c-2.82-7.86-4.2-11.22-7.34-14.48-5.78-6-9.04-7.46-14.8-8.4a6,6,0,0,0-5.16,1.68l-.3.32a10,10,0,0,0-8-.32,15.9994,15.9994,0,0,0-7.78,8.18c-8.3,23.1-6.62,18-8.82,26-1.26,4.62-.32,7.68.52,12.6-.72,1.26-1.26,2.32-1.68,3.16h10.3V57.02C50.86,41.9,50.66,42,51.38,39.28a13.5973,13.5973,0,0,0,.54-4c0-2.84.94-5.36,3.78-5.78a19.5,19.5,0,0,1,8.6,0L87.1,77h4.52Z" style="fill:#333"/><path d="M80.96,85.94c-2.32,6.3-12.82,7.34-18,7.34s-15.64-1.04-18-7.34" style="fill:none;stroke:#333;stroke-linejoin:round;stroke-width:3px"/><path d="M79.86,51.08v10.5c0,5.9.28,10.24-6,14.48a.7.7,0,0,1-.94-.18.54.54,0,0,1-.12-.34l.42-6.44a4.96,4.96,0,0,0-2.6-5.1l-3.36-1.88a2.66,2.66,0,0,0-2.3-.12l-2,.64-2-.64a2.98,2.98,0,0,0-2.3.22L55.4,64a5.22,5.22,0,0,0-2.62,5.04l.42,6.44a.64.64,0,0,1-.64.64l-.02,0a.72.72,0,0,1-.4-.12c-6.12-4-5.86-8.82-5.88-14.48V51.08h-4.2v10.5a19.84,19.84,0,0,0,8.2,16.9l8,5.46a9.4,9.4,0,0,0,4.82,1.58,8.58,8.58,0,0,0,4.84-1.58l8-5.46a20,20,0,0,0,8.18-16.9V51.08Zm-8.4,22.78a1.22,1.22,0,0,1-.62,1.16l-2,1.36a1.46,1.46,0,0,1-2-.38,1.42,1.42,0,0,1-.22-1.1,2.9,2.9,0,0,1,.96-1.78.76.76,0,0,0-.34-1,.86.86,0,0,0-.5,0,26.7253,26.7253,0,0,1-3.58.3,26.4272,26.4272,0,0,1-3.56-.3.74.74,0,0,0-.8751.574l-.0049.026a.68.68,0,0,0,0,.44,3.04,3.04,0,0,1,.94,1.78,1.44,1.44,0,0,1-2.2,1.48l-2-1.36a1.54,1.54,0,0,1-.64-1.16V69.22a1.3,1.3,0,0,1,.74-1.06l4.9-1.36a13.5215,13.5215,0,0,1,2.8-.46,8.58,8.58,0,0,1,2.84.42l4.82,1.36a1.06,1.06,0,0,1,.74,1.06Z" style="fill:#333"/><path d="M75.34,50.54,67.76,33.62l.56.66a77.78,77.78,0,0,1,6,8.82c4.8,9,8.26,15.88,9.86,19.2-5.56-13.7-10.3-27.16-20.62-38a1.5682,1.5682,0,1,0-2.54,1.84h0c24,46.88,22.14,41.56,23.04,51.4C84.06,68.34,83.3,68.14,75.34,50.54Z" style="fill:#444"/><path d="M54.34,27.14a6.2,6.2,0,0,0-3.38,4.38c-7.48,16.26-12,24-12.28,34.56.58-9.1,4.92-17.08,12-29.88,0,10-11.3,20.92-10.38,40,0-18.14,11-28.98,12.48-37.5.6-2.98-.48-6.64,1.8-8.5a5.6,5.6,0,0,1,2.38-.8C59.22,29.16,58.76,24.92,54.34,27.14Z" style="fill:#444"/><path d="M58,61a5.281,5.281,0,0,1,2.5.64h0a5.16,5.16,0,0,0,5,0h0A5.281,5.281,0,0,1,68,61" style="fill:none;stroke:#af8582;stroke-linecap:round;stroke-miterlimit:10;stroke-width:1.5px"/></g></svg>