<svg xmlns="http://www.w3.org/2000/svg" width="1542" height="436" viewBox="0 0 1542 436">
  <defs>
    <style>
      .cls-1 {
        fill: #fff;
      }

      .cls-1, .cls-2 {
        fill-rule: evenodd;
      }

      .cls-2 {
        fill: #0d84af;
      }
    </style>
  </defs>
  <path id="Заливка_цветом_2" data-name="Заливка цветом 2" class="cls-1" d="M1389,128h39v65c44.9-35.042,120.44-3.994,108,64-9.46,51.681-63.15,78.718-109,43v14h-38V128ZM505,314q0.5-87.991,1-176c78.939-1.073,142.523-3.422,167,50,5.224,11.4,12.28,28.934,9,48C667.594,319.742,601.988,315,505,314Zm553-176v70h79q0.495-35,1-70h40V314h-41V242h-79v72h-41q0.5-87.991,1-176h40ZM546,172V281c50.464,1.143,83.73-1.876,93-42,2.037-8.817,2.022-25.3-1-33C625.184,173.344,592.78,171.014,546,172Zm295,86H739v1c11.23,29.54,48.268,30.869,72,13l21,22c-40.947,56.182-161.307,6.557-128-74C732.923,150.045,845.038,165.417,841,258Zm4-79h41c2.221,13.3,32.046,85.855,38,90l37-90h38L942,314H901Zm371,0,40,1c-0.85,35.182-9.39,95.867,20,102,49.05,10.236,37.94-63.12,37-103h40V314h-38V300c-7.85,5.621-15.31,12.139-26,15C1207.22,336.894,1215.03,245.777,1216,179ZM739,235h65C802.3,198.944,740.736,198.317,739,235Zm715-25c-43.19,21.921-27.83,86.758,18,73C1508.73,271.973,1505.5,207.9,1454,210Z"/>
  <path id="Заливка_цветом_1" data-name="Заливка цветом 1" class="cls-2" d="M116,6c83.209-.384,229.5-13.654,277,22,18.477,13.869,25.128,34.991,31,62,7.086,32.594,5,82.607,5,125,0,51.586,3.792,109.281-8,148-5.217,17.13-15.142,34.349-28,44-30.531,22.917-83.58,23-137,23-82.959,0-193,11.963-229-36C-6.868,348.881-6.912,86.1,27,41,40.24,23.394,63.477,14.341,89,9ZM105,96V339l50-1V162h28v41h60V97ZM243,231H183V339c86.453,1.4,136.553-20.277,156-84,18.763-61.48-12.438-114.2-48-138-5.87-3.929-12.612-10.624-20-10V273l-28-1V231Z"/>
</svg>
