<svg xmlns="http://www.w3.org/2000/svg" width="425" height="425" viewBox="0 0 425 425"><defs><style>.cls-1 { fill: #0d84af; fill-rule: evenodd; }</style></defs><path class="cls-1" d="M128,0H240c18.046,0,40.828-2.507,57,1,14.6,3.166,29.179-.323,43,3,25.279,6.078,48.874,13.931,62,32,32.651,44.945,23,141.245,23,219,0,43.594.882,84.455-12,115-6.519,15.459-19.327,29.565-33,38-32.252,19.9-89.907,17-141,17-72.257,0-160.579,7.859-203-23-17.646-12.837-23.522-32.387-30-57-7.224-27.449-6-68.641-6-106C0,177.073-6.032,97.811,12,55,24.673,24.914,50.167,12.33,85,4,93.95,1.86,122.3,3.5,128,0ZM101,91V334h49c4.122-12.524,1-39.8,1-55V157h28v41h60V92C194.857,91.353,146.772,91.035,101,91ZM239,226H179V334c21.205,0.227,48.01,2.984,66-2,46.91-13,76.134-39.863,90-86,3.981-13.247,8.017-35.579,4-53-2.227-9.658-4.222-20.286-8-29-8.257-19.047-22.971-38.533-39-50-6.768-4.842-15.953-7.367-22-13l-3,1c4.415,13.41,1,36.443,1,52V267c-6.943,2.343-19.3,1.081-28,1a2.834,2.834,0,0,0-1-1V226Z"/></svg>
